<?xml version="1.0" encoding="UTF-8"?>
<svg width="1440px" height="780px" viewBox="0 0 1440 780" version="1.1" xmlns="http://www.w3.org/2000/svg" xmlns:xlink="http://www.w3.org/1999/xlink">
    <!-- Generator: Sketch 49 (51002) - http://www.bohemiancoding.com/sketch -->
    <title>background</title>
    <desc>Created with Sketch.</desc>
    <defs>
        <rect id="path-1" x="0" y="0" width="1440" height="780"></rect>
        <linearGradient x1="47.1930673%" y1="54.8141057%" x2="39.3718969%" y2="0%" id="linearGradient-3">
            <stop stop-color="#FFFFFF" stop-opacity="0.5" offset="0%"></stop>
            <stop stop-color="#000000" stop-opacity="0.5" offset="100%"></stop>
        </linearGradient>
        <path d="M1303.21615,398.865885 C1373.2333,539.348222 1394.11132,701.036072 1472.33655,807.513467 C1577.32322,950.415099 1772.052,1067.02374 1922.02688,1064.97337 C2044.33856,1063.30611 2110.6209,984.065305 2124.22528,961.802107 C2124.65841,961.035879 2125.12704,960.28384 2125.55306,959.517611 C2138.2628,936.701026 2147.76315,912.061101 2153.00325,885.065733 C2188.54791,702.022237 2087.78597,448.343816 1870.73351,358.170062 C1647.09186,265.257751 1457.9696,308.238071 1303.21615,398.865885 Z" id="path-4"></path>
        <linearGradient x1="68.0442389%" y1="70.3106074%" x2="70.1495399%" y2="7.20725836%" id="linearGradient-5">
            <stop stop-color="#FFFFFF" stop-opacity="0.5" offset="0%"></stop>
            <stop stop-color="#000000" stop-opacity="0.5" offset="100%"></stop>
        </linearGradient>
        <path d="M1027.76968,678.110418 C1109.08813,588.484962 1181.04032,471.32393 1304,399.199177 C1225.47512,241.401883 1115.22831,95.4065633 890.359998,35.9495932 C605.472439,-39.3758162 403.349751,1.87077132 208.253532,176.728767 C71.7655904,299.056266 23.2609665,440.76512 10.6331731,496.283368 C-24.4849971,650.702586 34.2296339,794.143058 87.1444136,885.805296 C95.6527528,899.196953 204.42478,1057.87425 458.185997,1028.34447 C647.439823,1006.31602 788.089761,942.267417 1027.76968,678.110418 Z" id="path-6"></path>
        <linearGradient x1="51.7879344%" y1="50%" x2="64.165912%" y2="-4.00844285%" id="linearGradient-7">
            <stop stop-color="#FFFFFF" stop-opacity="0.5" offset="0%"></stop>
            <stop stop-color="#000000" stop-opacity="0.5" offset="100%"></stop>
        </linearGradient>
        <path d="M1528.26918,1205.04118 C1532.87807,1204.66547 1537.42314,1204.2685 1541.98239,1203.87152 C1628.69326,1196.24389 1711.20649,1184.79535 1784.88484,1167.95218 C1788.42305,1167.12987 1791.99671,1166.32174 1795.48528,1165.47816 C1797.39974,1165.01739 1799.28584,1164.54243 1801.1932,1164.08165 C1885.26637,1143.25453 1953.63387,1115.50158 2008.40161,1079.28451 C2013.1594,1076.07325 2015.10222,1074.74763 2017.02377,1073.40783 C2018.14408,1072.63515 2019.25022,1071.84119 2020.36344,1071.04724 C2022.9515,1069.20413 2025.53248,1067.35393 2028.05673,1065.4612 C2058.4541,1042.69882 2084.20005,1016.91658 2103.18866,991.814864 C2103.81972,990.964199 2104.46496,990.127711 2105.09603,989.269957 C2112.12989,979.437685 2117.25639,971.448521 2122,963.161625 C2108.41442,985.406519 2053.13616,1047.59723 1931.00069,1049.26312 C1781.22609,1051.31181 1600.55069,939.265022 1495.70918,796.47378 C1417.59921,690.08392 1373.70029,538.981429 1303.77995,398.614583 C1180.81488,470.658836 1078.20797,574.655742 996.885955,664.174076 C757.188454,928.04333 633.230705,988.362581 443.961503,1010.35937 C190.196266,1039.86327 94.5087117,899.439713 86,886.063003 C93.998189,899.071091 131.571242,957.859145 190.416074,1013.98178 C218.260834,1039.38831 246.410488,1060.54152 272.050073,1077.71787 C385.882455,1147.40153 544.307577,1215.4193 1114.42672,1217.95712 C1268.83856,1218.43916 1403.06349,1214.88763 1519.37758,1205.76425 C1522.34145,1205.52323 1525.31241,1205.28929 1528.26918,1205.04118 Z" id="path-8"></path>
        <linearGradient x1="25.4518814%" y1="52.4447498%" x2="49.1081524%" y2="10.9785171%" id="linearGradient-9">
            <stop stop-color="#40E4F6" offset="0%"></stop>
            <stop stop-color="#1EC4E9" offset="100%"></stop>
        </linearGradient>
        <linearGradient x1="62.9029615%" y1="62.4137388%" x2="36.2392909%" y2="17.1050457%" id="linearGradient-10">
            <stop stop-color="#FFEF35" offset="0%"></stop>
            <stop stop-color="#FFDB18" offset="100%"></stop>
        </linearGradient>
        <linearGradient x1="50%" y1="50%" x2="50%" y2="100%" id="linearGradient-11">
            <stop stop-color="#FFFFFF" stop-opacity="0" offset="0%"></stop>
            <stop stop-color="#FFFFFF" offset="100%"></stop>
        </linearGradient>
    </defs>
    <g id="Website---Log-In-or-Sign-Up" stroke="none" stroke-width="1" fill="none" fill-rule="evenodd" opacity="0.600000024">
        <g id="1---sign-up">
            <g id="hero">
                <g id="background">
                    <g id="Group">
                        <mask id="mask-2" fill="white">
                            <use xlink:href="#path-1"></use>
                        </mask>
                        <use id="Rectangle-3" fill="#E8F8FF" xlink:href="#path-1"></use>
                        <g id="logo" mask="url(#mask-2)">
                            <g transform="translate(-364.000000, -80.000000)">
                                <g id="Fill-10">
                                    <use fill="#FFDB18" xlink:href="#path-4"></use>
                                    <use fill="url(#linearGradient-3)" style="mix-blend-mode: overlay;" xlink:href="#path-4"></use>
                                </g>
                                <g id="Fill-11">
                                    <use fill="#1EC4E9" xlink:href="#path-6"></use>
                                    <use fill="url(#linearGradient-5)" style="mix-blend-mode: overlay;" xlink:href="#path-6"></use>
                                </g>
                                <g id="Fill-12">
                                    <use fill="#00BC98" xlink:href="#path-8"></use>
                                    <use fill="url(#linearGradient-7)" style="mix-blend-mode: overlay;" xlink:href="#path-8"></use>
                                </g>
                            </g>
                        </g>
                        <path d="M334.292969,467.75 C440.804687,496.667969 583.733681,537.90001 697.265625,538.816406 C872.501608,540.230859 1021.40016,477.512784 1165.79297,467.75 C1342.18604,455.823593 1501.55512,501.194956 1565.58594,568.128906 C1715.9899,725.352131 1771.4847,791.821589 1614.44412,900.456991 C1457.40353,1009.09239 1060.58054,1038.20637 615.573312,1036.81262 C170.56608,1035.41886 -11.9999822,987.218195 -126.746817,900.456991 C-241.493652,813.695788 -397.277599,632.933602 -318.649313,361.180555 C-274.187474,207.512697 -209.337335,168.631509 -89.2773438,240.199219 C2.98207153,295.195017 140.155244,415.04154 334.292969,467.75 Z" id="blue" fill="url(#linearGradient-9)" opacity="0.600543478" style="mix-blend-mode: overlay;" mask="url(#mask-2)"></path>
                        <path d="M374.949219,643.761719 C845.304774,727.915347 1384.40854,283.171306 1534.8125,440.394531 C1685.21646,597.617756 1771.4847,791.821589 1614.44412,900.456991 C1457.40353,1009.09239 1060.58054,1038.20637 615.573312,1036.81262 C170.56608,1035.41886 -11.9999822,987.218195 -126.746817,900.456991 C-241.493652,813.695788 -397.277599,632.933602 -318.649313,361.180555 C-288.902679,258.371007 -58.0042769,50.9838663 -36.8789063,105.28125 C11.2226562,228.914062 66.919747,588.650649 374.949219,643.761719 Z" id="yellow" fill="url(#linearGradient-10)" style="mix-blend-mode: overlay;" mask="url(#mask-2)"></path>
                    </g>
                    <rect id="Rectangle-3" fill="url(#linearGradient-11)" x="0" y="0" width="1440" height="780"></rect>
                </g>
            </g>
        </g>
    </g>
</svg>