<?xml version="1.0" encoding="UTF-8"?>
<svg width="140px" height="40px" viewBox="0 0 140 40" version="1.1" xmlns="http://www.w3.org/2000/svg" xmlns:xlink="http://www.w3.org/1999/xlink">
    <!-- Generator: Sketch 52.5 (67469) - http://www.bohemiancoding.com/sketch -->
    <title>button-promote-regualr</title>
    <desc>Created with Sketch.</desc>
    <g id="Deployments" stroke="none" stroke-width="1" fill="none" fill-rule="evenodd">
        <g id="19---dashboard---applications" transform="translate(-90.000000, -730.000000)">
            <g id="desktop/sidebar/analytics">
                <g id="button-promote-regualr" transform="translate(90.000000, 730.000000)">
                    <rect id="base" stroke="#DBE8FB" stroke-width="2" x="1" y="1" width="138" height="38" rx="19"></rect>
                    <g id="icon-gray-promote" transform="translate(10.000000, 10.000000)">
                        <rect id="base-copy-5" stroke="#B9D5EC" stroke-width="2" x="1" y="1" width="18" height="18" rx="9"></rect>
                        <path d="M12,11.0722176 L12,14 L8,14 L8,11.0722176 L6,11.0722176 L9.17426981,6.42543208 C9.48579446,5.96939389 10.1080271,5.85224252 10.5640653,6.16376717 C10.6668061,6.23395053 10.7555468,6.32269127 10.8257302,6.42543208 L14,11.0722176 L12,11.0722176 Z" id="Combined-Shape-Copy" fill="#98B4CD"></path>
                    </g>
                    <rect id="base-copy-6" stroke="#B9D5EC" stroke-width="2" x="111" y="11" width="18" height="18" rx="9"></rect>
                    <path d="M122,21.0722176 L122,24 L118,24 L118,21.0722176 L116,21.0722176 L119.17427,16.4254321 C119.485794,15.9693939 120.108027,15.8522425 120.564065,16.1637672 C120.666806,16.2339505 120.755547,16.3226913 120.82573,16.4254321 L124,21.0722176 L122,21.0722176 Z" id="Combined-Shape-Copy-3" fill="#98B4CD"></path>
                    <path d="M44.198,25.084 C43.927332,25.084 43.7103342,25.0023341 43.547,24.839 C43.3836659,24.6756659 43.302,24.4540014 43.302,24.174 L43.302,15.984 C43.302,15.713332 43.3789992,15.5033341 43.533,15.354 C43.6870008,15.2046659 43.899332,15.13 44.17,15.13 L47.614,15.13 C48.6686719,15.13 49.4899971,15.393664 50.078,15.921 C50.6660029,16.448336 50.96,17.1879952 50.96,18.14 C50.96,19.0920048 50.6660029,19.8339973 50.078,20.366 C49.4899971,20.8980027 48.6686719,21.164 47.614,21.164 L45.108,21.164 L45.108,24.174 C45.108,24.4540014 45.0263342,24.6756659 44.863,24.839 C44.6996659,25.0023341 44.4780014,25.084 44.198,25.084 Z M47.39,19.778 C48.6313395,19.778 49.252,19.2366721 49.252,18.154 C49.252,17.0713279 48.6313395,16.53 47.39,16.53 L45.108,16.53 L45.108,19.778 L47.39,19.778 Z M56.21,18.014 C56.4526679,17.9953332 56.6439993,18.0466661 56.784,18.168 C56.9240007,18.2893339 56.994,18.4713321 56.994,18.714 C56.994,18.9660013 56.9333339,19.1526661 56.812,19.274 C56.6906661,19.3953339 56.4713349,19.4746665 56.154,19.512 L55.734,19.554 C55.1833306,19.6100003 54.779668,19.7966651 54.523,20.114 C54.2663321,20.4313349 54.138,20.8279976 54.138,21.304 L54.138,24.244 C54.138,24.514668 54.0540008,24.7223326 53.886,24.867 C53.7179992,25.0116674 53.5080013,25.084 53.256,25.084 C53.0039987,25.084 52.7963342,25.0116674 52.633,24.867 C52.4696659,24.7223326 52.388,24.514668 52.388,24.244 L52.388,18.826 C52.388,18.5646654 52.4696659,18.3640007 52.633,18.224 C52.7963342,18.0839993 52.9993321,18.014 53.242,18.014 C53.4846679,18.014 53.6806659,18.081666 53.83,18.217 C53.9793341,18.352334 54.054,18.5459987 54.054,18.798 L54.054,19.358 C54.2313342,18.9473313 54.4949983,18.6300011 54.845,18.406 C55.1950018,18.1819989 55.5846645,18.0560001 56.014,18.028 L56.21,18.014 Z M60.872,25.112 C60.1719965,25.112 59.558336,24.9673348 59.031,24.678 C58.503664,24.3886652 58.0953348,23.973336 57.806,23.432 C57.5166652,22.890664 57.372,22.2606703 57.372,21.542 C57.372,20.8233297 57.5166652,20.1956693 57.806,19.659 C58.0953348,19.1223306 58.503664,18.7093348 59.031,18.42 C59.558336,18.1306652 60.1719965,17.986 60.872,17.986 C61.5720035,17.986 62.185664,18.1306652 62.713,18.42 C63.240336,18.7093348 63.6463319,19.1223306 63.931,19.659 C64.2156681,20.1956693 64.358,20.8233297 64.358,21.542 C64.358,22.2606703 64.2156681,22.890664 63.931,23.432 C63.6463319,23.973336 63.240336,24.3886652 62.713,24.678 C62.185664,24.9673348 61.5720035,25.112 60.872,25.112 Z M60.858,23.754 C61.4273362,23.754 61.8613318,23.5673352 62.16,23.194 C62.4586682,22.8206648 62.608,22.2700036 62.608,21.542 C62.608,20.8233297 62.4586682,20.2750019 62.16,19.897 C61.8613318,19.5189981 61.4320028,19.33 60.872,19.33 C60.3119972,19.33 59.8803349,19.5189981 59.577,19.897 C59.2736652,20.2750019 59.122,20.8233297 59.122,21.542 C59.122,22.2700036 59.2713318,22.8206648 59.57,23.194 C59.8686682,23.5673352 60.2979972,23.754 60.858,23.754 Z M73.934,17.986 C74.6806704,17.986 75.2523314,18.2076644 75.649,18.651 C76.0456687,19.0943356 76.244,19.8106617 76.244,20.8 L76.244,24.244 C76.244,24.514668 76.1623342,24.7223326 75.999,24.867 C75.8356658,25.0116674 75.6233346,25.084 75.362,25.084 C75.1099987,25.084 74.9023342,25.0116674 74.739,24.867 C74.5756659,24.7223326 74.494,24.514668 74.494,24.244 L74.494,20.8 C74.494,20.2866641 74.4030009,19.9203344 74.221,19.701 C74.0389991,19.4816656 73.7613352,19.372 73.388,19.372 C72.9306644,19.372 72.566668,19.5283318 72.296,19.841 C72.025332,20.1536682 71.89,20.580664 71.89,21.122 L71.89,24.244 C71.89,24.514668 71.8083342,24.7223326 71.645,24.867 C71.4816659,25.0116674 71.2740013,25.084 71.022,25.084 C70.7699987,25.084 70.5600008,25.0116674 70.392,24.867 C70.2239992,24.7223326 70.14,24.514668 70.14,24.244 L70.14,20.8 C70.14,20.2866641 70.0490009,19.9203344 69.867,19.701 C69.6849991,19.4816656 69.4073352,19.372 69.034,19.372 C68.5766644,19.372 68.2150013,19.5283318 67.949,19.841 C67.6829987,20.1536682 67.55,20.580664 67.55,21.122 L67.55,24.244 C67.55,24.514668 67.4660008,24.7223326 67.298,24.867 C67.1299992,25.0116674 66.9200013,25.084 66.668,25.084 C66.4159987,25.084 66.2083342,25.0116674 66.045,24.867 C65.8816659,24.7223326 65.8,24.514668 65.8,24.244 L65.8,18.826 C65.8,18.5646654 65.8839992,18.3640007 66.052,18.224 C66.2200008,18.0839993 66.4299987,18.014 66.682,18.014 C66.9246679,18.014 67.1229992,18.081666 67.277,18.217 C67.4310008,18.352334 67.508,18.5459987 67.508,18.798 L67.508,19.134 C67.7226677,18.7606648 68.0096649,18.476001 68.369,18.28 C68.7283351,18.083999 69.141331,17.986 69.608,17.986 C70.6346718,17.986 71.3206649,18.415329 71.666,19.274 C71.8713344,18.881998 72.1746647,18.5693345 72.576,18.336 C72.9773353,18.1026655 73.4299975,17.986 73.934,17.986 Z M81.144,25.112 C80.4439965,25.112 79.830336,24.9673348 79.303,24.678 C78.775664,24.3886652 78.3673348,23.973336 78.078,23.432 C77.7886652,22.890664 77.644,22.2606703 77.644,21.542 C77.644,20.8233297 77.7886652,20.1956693 78.078,19.659 C78.3673348,19.1223306 78.775664,18.7093348 79.303,18.42 C79.830336,18.1306652 80.4439965,17.986 81.144,17.986 C81.8440035,17.986 82.457664,18.1306652 82.985,18.42 C83.512336,18.7093348 83.9183319,19.1223306 84.203,19.659 C84.4876681,20.1956693 84.63,20.8233297 84.63,21.542 C84.63,22.2606703 84.4876681,22.890664 84.203,23.432 C83.9183319,23.973336 83.512336,24.3886652 82.985,24.678 C82.457664,24.9673348 81.8440035,25.112 81.144,25.112 Z M81.13,23.754 C81.6993362,23.754 82.1333318,23.5673352 82.432,23.194 C82.7306682,22.8206648 82.88,22.2700036 82.88,21.542 C82.88,20.8233297 82.7306682,20.2750019 82.432,19.897 C82.1333318,19.5189981 81.7040028,19.33 81.144,19.33 C80.5839972,19.33 80.1523349,19.5189981 79.849,19.897 C79.5456652,20.2750019 79.394,20.8233297 79.394,21.542 C79.394,22.2700036 79.5433318,22.8206648 79.842,23.194 C80.1406682,23.5673352 80.5699972,23.754 81.13,23.754 Z M89.628,23.782 C90.094669,23.8100001 90.328,24.019998 90.328,24.412 C90.328,24.6360011 90.2370009,24.8063327 90.055,24.923 C89.8729991,25.0396673 89.6140017,25.0886668 89.278,25.07 L88.9,25.042 C87.3319922,24.9299994 86.548,24.0900078 86.548,22.522 L86.548,19.47 L85.848,19.47 C85.5959987,19.47 85.402334,19.4140006 85.267,19.302 C85.131666,19.1899994 85.064,19.0266677 85.064,18.812 C85.064,18.5973323 85.131666,18.4340006 85.267,18.322 C85.402334,18.2099994 85.5959987,18.154 85.848,18.154 L86.548,18.154 L86.548,16.866 C86.548,16.6139987 86.6273325,16.4133341 86.786,16.264 C86.9446675,16.1146659 87.159332,16.04 87.43,16.04 C87.6913346,16.04 87.9013325,16.1146659 88.06,16.264 C88.2186675,16.4133341 88.298,16.6139987 88.298,16.866 L88.298,18.154 L89.488,18.154 C89.7400013,18.154 89.933666,18.2099994 90.069,18.322 C90.204334,18.4340006 90.272,18.5973323 90.272,18.812 C90.272,19.0266677 90.204334,19.1899994 90.069,19.302 C89.933666,19.4140006 89.7400013,19.47 89.488,19.47 L88.298,19.47 L88.298,22.648 C88.298,23.3386701 88.6153302,23.7073331 89.25,23.754 L89.628,23.782 Z M96.656,23.124 C96.8146675,23.124 96.9429995,23.1846661 97.041,23.306 C97.1390005,23.4273339 97.188,23.5906656 97.188,23.796 C97.188,24.0853348 97.0153351,24.327999 96.67,24.524 C96.3526651,24.7013342 95.9933353,24.8436661 95.592,24.951 C95.1906647,25.0583339 94.8080018,25.112 94.444,25.112 C93.3426612,25.112 92.4700032,24.7946698 91.826,24.16 C91.1819968,23.5253302 90.86,22.6573388 90.86,21.556 C90.86,20.8559965 90.9999986,20.235336 91.28,19.694 C91.5600014,19.152664 91.9543308,18.7326682 92.463,18.434 C92.9716692,18.1353318 93.5479968,17.986 94.192,17.986 C94.8080031,17.986 95.3446644,18.121332 95.802,18.392 C96.2593356,18.662668 96.6139987,19.0453309 96.866,19.54 C97.1180013,20.0346691 97.244,20.6179966 97.244,21.29 C97.244,21.6913353 97.0666684,21.892 96.712,21.892 L92.582,21.892 C92.6380003,22.5360032 92.8199985,23.0096652 93.128,23.313 C93.4360015,23.6163349 93.8839971,23.768 94.472,23.768 C94.7706682,23.768 95.0343322,23.730667 95.263,23.656 C95.4916678,23.581333 95.7506652,23.4786673 96.04,23.348 C96.3200014,23.1986659 96.5253327,23.124 96.656,23.124 Z M94.234,19.218 C93.7579976,19.218 93.3776681,19.3673318 93.093,19.666 C92.8083319,19.9646682 92.6380003,20.3939972 92.582,20.954 L95.746,20.954 C95.7273332,20.3846638 95.5873346,19.9530015 95.326,19.659 C95.0646654,19.3649985 94.700669,19.218 94.234,19.218 Z" id="Promote-Copy" fill="#427692"></path>
                </g>
            </g>
        </g>
    </g>
</svg>