<?xml version="1.0" encoding="UTF-8"?>
<svg width="160px" height="160px" viewBox="0 0 160 160" version="1.1" xmlns="http://www.w3.org/2000/svg" xmlns:xlink="http://www.w3.org/1999/xlink">
    <!-- Generator: Sketch 51 (57462) - http://www.bohemiancoding.com/sketch -->
    <title>donut-40</title>
    <desc>Created with Sketch.</desc>
    <defs>
        <linearGradient x1="0%" y1="0%" x2="0%" y2="109.7694%" id="linearGradient-1">
            <stop stop-color="#3ECFF0" offset="0%"></stop>
            <stop stop-color="#FBE250" offset="100%"></stop>
        </linearGradient>
    </defs>
    <g id="Page-1" stroke="none" stroke-width="1" fill="none" fill-rule="evenodd">
        <g id="donut-40">
            <circle id="Oval-Copy-4" stroke="#DBE8FB" stroke-width="10" cx="80" cy="80" r="75"></circle>
            <path d="M53.162,99.334 L53.162,92.656 L40.268,92.656 L40.268,88.54 L54.632,70.018 L57.782,70.018 L57.782,88.456 L61.478,88.456 L61.478,92.656 L57.782,92.656 L57.782,99.334 L53.162,99.334 Z M44.972,88.456 L53.666,88.456 L53.666,77.074 L44.972,88.456 Z M86.678,81.694 C86.678,83.5420092 86.4050027,85.2429922 85.859,86.797 C85.3129973,88.3510078 84.5570048,89.6949943 83.591,90.829 C82.6249952,91.9630057 81.4910065,92.8449969 80.189,93.475 C78.8869935,94.1050032 77.4660077,94.42 75.926,94.42 C74.3859923,94.42 72.9580066,94.1050032 71.642,93.475 C70.3259934,92.8449969 69.1920048,91.9630057 68.24,90.829 C67.2879952,89.6949943 66.5390027,88.3510078 65.993,86.797 C65.4469973,85.2429922 65.174,83.5420092 65.174,81.694 C65.174,79.8459908 65.4469973,78.1450078 65.993,76.591 C66.5390027,75.0369922 67.2879952,73.6930057 68.24,72.559 C69.1920048,71.4249943 70.3259934,70.5360032 71.642,69.892 C72.9580066,69.2479968 74.3859923,68.926 75.926,68.926 C77.4660077,68.926 78.8869935,69.2479968 80.189,69.892 C81.4910065,70.5360032 82.6249952,71.4249943 83.591,72.559 C84.5570048,73.6930057 85.3129973,75.0369922 85.859,76.591 C86.4050027,78.1450078 86.678,79.8459908 86.678,81.694 Z M81.974,81.694 C81.974,80.4339937 81.8270015,79.2860052 81.533,78.25 C81.2389985,77.2139948 80.8190027,76.3180038 80.273,75.562 C79.7269973,74.8059962 79.0830037,74.225002 78.341,73.819 C77.5989963,73.412998 76.7940043,73.21 75.926,73.21 C75.0019954,73.21 74.1690037,73.412998 73.427,73.819 C72.6849963,74.225002 72.0410027,74.8059962 71.495,75.562 C70.9489973,76.3180038 70.5290015,77.2139948 70.235,78.25 C69.9409985,79.2860052 69.794,80.4339937 69.794,81.694 C69.794,82.9540063 69.9409985,84.1019948 70.235,85.138 C70.5290015,86.1740052 70.9489973,87.0629963 71.495,87.805 C72.0410027,88.5470037 72.6849963,89.120998 73.427,89.527 C74.1690037,89.933002 75.0019954,90.136 75.926,90.136 C76.7940043,90.136 77.5989963,89.933002 78.341,89.527 C79.0830037,89.120998 79.7269973,88.5470037 80.273,87.805 C80.8190027,87.0629963 81.2389985,86.1740052 81.533,85.138 C81.8270015,84.1019948 81.974,82.9540063 81.974,81.694 Z M97.01,76.234 C96.0859954,76.234 95.2180041,76.0730016 94.406,75.751 C93.5939959,75.4289984 92.887003,74.9880028 92.285,74.428 C91.682997,73.8679972 91.2070018,73.2100038 90.857,72.454 C90.5069983,71.6979962 90.332,70.8860043 90.332,70.018 C90.332,69.1499957 90.5069983,68.3380038 90.857,67.582 C91.2070018,66.8259962 91.682997,66.1610029 92.285,65.587 C92.887003,65.0129971 93.5939959,64.5650016 94.406,64.243 C95.2180041,63.9209984 96.0859954,63.76 97.01,63.76 C97.9340046,63.76 98.8019959,63.9209984 99.614,64.243 C100.426004,64.5650016 101.132997,65.0129971 101.735,65.587 C102.337003,66.1610029 102.812998,66.8259962 103.163,67.582 C103.513002,68.3380038 103.688,69.1499957 103.688,70.018 C103.688,70.8860043 103.513002,71.6979962 103.163,72.454 C102.812998,73.2100038 102.337003,73.8679972 101.735,74.428 C101.132997,74.9880028 100.426004,75.4289984 99.614,75.751 C98.8019959,76.0730016 97.9340046,76.234 97.01,76.234 Z M97.01,73.84 C97.4860024,73.84 97.926998,73.7350011 98.333,73.525 C98.739002,73.3149989 99.0959985,73.0350017 99.404,72.685 C99.7120015,72.3349982 99.9569991,71.9290023 100.139,71.467 C100.321001,71.0049977 100.412,70.5220025 100.412,70.018 C100.412,69.4859973 100.321001,68.9820024 100.139,68.506 C99.9569991,68.0299976 99.7120015,67.6170018 99.404,67.267 C99.0959985,66.9169982 98.7320021,66.644001 98.312,66.448 C97.8919979,66.251999 97.4580022,66.154 97.01,66.154 C96.0579952,66.154 95.2530033,66.5389962 94.595,67.309 C93.9369967,68.0790038 93.608,68.9819948 93.608,70.018 C93.608,70.5500027 93.6989991,71.0469977 93.881,71.509 C94.0630009,71.9710023 94.3079985,72.3769982 94.616,72.727 C94.9240015,73.0770017 95.280998,73.349999 95.687,73.546 C96.093002,73.742001 96.5339976,73.84 97.01,73.84 Z M112.466,94.42 C111.541995,94.42 110.674004,94.2590016 109.862,93.937 C109.049996,93.6149984 108.343003,93.1670029 107.741,92.593 C107.138997,92.0189971 106.663002,91.3540038 106.313,90.598 C105.962998,89.8419962 105.788,89.0300043 105.788,88.162 C105.788,87.2939957 105.962998,86.4820038 106.313,85.726 C106.663002,84.9699962 107.138997,84.3120028 107.741,83.752 C108.343003,83.1919972 109.049996,82.7510016 109.862,82.429 C110.674004,82.1069984 111.541995,81.946 112.466,81.946 C113.390005,81.946 114.257996,82.1069984 115.07,82.429 C115.882004,82.7510016 116.588997,83.1919972 117.191,83.752 C117.793003,84.3120028 118.268998,84.9699962 118.619,85.726 C118.969002,86.4820038 119.144,87.2939957 119.144,88.162 C119.144,89.0300043 118.969002,89.8419962 118.619,90.598 C118.268998,91.3540038 117.793003,92.0189971 117.191,92.593 C116.588997,93.1670029 115.882004,93.6149984 115.07,93.937 C114.257996,94.2590016 113.390005,94.42 112.466,94.42 Z M112.466,92.026 C113.418005,92.026 114.222997,91.6480038 114.881,90.892 C115.539003,90.1359962 115.868,89.2260053 115.868,88.162 C115.868,87.6299973 115.777001,87.1330023 115.595,86.671 C115.412999,86.2089977 115.161002,85.8030017 114.839,85.453 C114.516998,85.1029982 114.153002,84.830001 113.747,84.634 C113.340998,84.437999 112.914002,84.34 112.466,84.34 C111.989998,84.34 111.549002,84.4449989 111.143,84.655 C110.736998,84.8650011 110.380002,85.1449983 110.072,85.495 C109.763998,85.8450017 109.519001,86.2509977 109.337,86.713 C109.154999,87.1750023 109.064,87.6579975 109.064,88.162 C109.064,88.6940027 109.154999,89.1979976 109.337,89.674 C109.519001,90.1500024 109.763998,90.5629983 110.072,90.913 C110.380002,91.2630018 110.736998,91.535999 111.143,91.732 C111.549002,91.928001 111.989998,92.026 112.466,92.026 Z M92.222,92.32 L104.024,78.334 L115.112,63.928 L117.296,65.818 L105.704,79.636 L94.364,94.252 L92.222,92.32 Z" id="40%" fill="#0C4B5D"></path>
            <path d="M80,10 L80,0 C124.18278,0 160,35.81722 160,80 C160,106.625351 146.99302,130.212758 126.986584,144.754699 L121.113261,136.660362 C138.618893,123.936163 150,103.297182 150,80 C150,41.3400675 118.659932,10 80,10 Z" id="Combined-Shape" fill="url(#linearGradient-1)"></path>
        </g>
    </g>
</svg>