<?xml version="1.0" encoding="UTF-8"?>
<svg width="160px" height="160px" viewBox="0 0 160 160" version="1.1" xmlns="http://www.w3.org/2000/svg" xmlns:xlink="http://www.w3.org/1999/xlink">
    <!-- Generator: Sketch 51 (57462) - http://www.bohemiancoding.com/sketch -->
    <title>donut-60</title>
    <desc>Created with Sketch.</desc>
    <defs>
        <linearGradient x1="35.9483085%" y1="0%" x2="35.9483085%" y2="100%" id="linearGradient-1">
            <stop stop-color="#3ECFF0" offset="0%"></stop>
            <stop stop-color="#FBE250" offset="100%"></stop>
        </linearGradient>
    </defs>
    <g id="Page-1" stroke="none" stroke-width="1" fill="none" fill-rule="evenodd">
        <g id="donut-60">
            <circle id="Oval-Copy-4" stroke="#DBE8FB" stroke-width="10" cx="80" cy="80" r="75"></circle>
            <path d="M62.129,84.088 C62.129,85.5160071 61.8560027,86.8599937 61.31,88.12 C60.7639973,89.3800063 60.0080048,90.4789953 59.042,91.417 C58.0759952,92.3550047 56.9350066,93.0899973 55.619,93.622 C54.3029934,94.1540027 52.8890076,94.42 51.377,94.42 C49.7249917,94.42 48.2270067,94.119003 46.883,93.517 C45.5389933,92.914997 44.3910048,92.0470057 43.439,90.913 C42.4869952,89.7789943 41.7520026,88.3930082 41.234,86.755 C40.7159974,85.1169918 40.457,83.2620104 40.457,81.19 C40.457,78.3339857 40.7299973,75.8350107 41.276,73.693 C41.8220027,71.5509893 42.5849951,69.7590072 43.565,68.317 C44.5450049,66.8749928 45.734993,65.7900036 47.135,65.062 C48.535007,64.3339964 50.1029913,63.97 51.839,63.97 C53.7430095,63.97 55.4859921,64.4039957 57.068,65.272 C58.6500079,66.1400043 59.9309951,67.371992 60.911,68.968 L58.181,71.824 C57.5369968,70.6479941 56.6480057,69.7170034 55.514,69.031 C54.3799943,68.3449966 53.1270069,68.002 51.755,68.002 C49.6549895,68.002 47.9820062,68.8909911 46.736,70.669 C45.4899938,72.4470089 44.8390003,74.9459839 44.783,78.166 C45.3990031,76.9059937 46.3229938,75.9120036 47.555,75.184 C48.7870062,74.4559964 50.200992,74.092 51.797,74.092 C53.2530073,74.092 54.6109937,74.3509974 55.871,74.869 C57.1310063,75.3870026 58.2229954,76.0939955 59.147,76.99 C60.0710046,77.8860045 60.7989973,78.9429939 61.331,80.161 C61.8630027,81.3790061 62.129,82.687993 62.129,84.088 Z M51.377,90.472 C52.2450043,90.472 53.0639961,90.3040017 53.834,89.968 C54.6040038,89.6319983 55.2759971,89.1700029 55.85,88.582 C56.4240029,87.9939971 56.8789983,87.3150038 57.215,86.545 C57.5510017,85.7749962 57.719,84.9560043 57.719,84.088 C57.719,83.2199957 57.5510017,82.4080038 57.215,81.652 C56.8789983,80.8959962 56.4240029,80.2310029 55.85,79.657 C55.2759971,79.0829971 54.6040038,78.6280017 53.834,78.292 C53.0639961,77.9559983 52.2450043,77.788 51.377,77.788 C50.5089957,77.788 49.6900038,77.9559983 48.92,78.292 C48.1499961,78.6280017 47.4780029,79.0829971 46.904,79.657 C46.3299971,80.2310029 45.8750017,80.8959962 45.539,81.652 C45.2029983,82.4080038 45.035,83.2199957 45.035,84.088 C45.035,84.9560043 45.2029983,85.7749962 45.539,86.545 C45.8750017,87.3150038 46.3299971,87.9939971 46.904,88.582 C47.4780029,89.1700029 48.1499961,89.6319983 48.92,89.968 C49.6900038,90.3040017 50.5089957,90.472 51.377,90.472 Z M87.581,81.694 C87.581,83.5420092 87.3080027,85.2429922 86.762,86.797 C86.2159973,88.3510078 85.4600048,89.6949943 84.494,90.829 C83.5279952,91.9630057 82.3940065,92.8449969 81.092,93.475 C79.7899935,94.1050032 78.3690077,94.42 76.829,94.42 C75.2889923,94.42 73.8610066,94.1050032 72.545,93.475 C71.2289934,92.8449969 70.0950048,91.9630057 69.143,90.829 C68.1909952,89.6949943 67.4420027,88.3510078 66.896,86.797 C66.3499973,85.2429922 66.077,83.5420092 66.077,81.694 C66.077,79.8459908 66.3499973,78.1450078 66.896,76.591 C67.4420027,75.0369922 68.1909952,73.6930057 69.143,72.559 C70.0950048,71.4249943 71.2289934,70.5360032 72.545,69.892 C73.8610066,69.2479968 75.2889923,68.926 76.829,68.926 C78.3690077,68.926 79.7899935,69.2479968 81.092,69.892 C82.3940065,70.5360032 83.5279952,71.4249943 84.494,72.559 C85.4600048,73.6930057 86.2159973,75.0369922 86.762,76.591 C87.3080027,78.1450078 87.581,79.8459908 87.581,81.694 Z M82.877,81.694 C82.877,80.4339937 82.7300015,79.2860052 82.436,78.25 C82.1419985,77.2139948 81.7220027,76.3180038 81.176,75.562 C80.6299973,74.8059962 79.9860037,74.225002 79.244,73.819 C78.5019963,73.412998 77.6970043,73.21 76.829,73.21 C75.9049954,73.21 75.0720037,73.412998 74.33,73.819 C73.5879963,74.225002 72.9440027,74.8059962 72.398,75.562 C71.8519973,76.3180038 71.4320015,77.2139948 71.138,78.25 C70.8439985,79.2860052 70.697,80.4339937 70.697,81.694 C70.697,82.9540063 70.8439985,84.1019948 71.138,85.138 C71.4320015,86.1740052 71.8519973,87.0629963 72.398,87.805 C72.9440027,88.5470037 73.5879963,89.120998 74.33,89.527 C75.0720037,89.933002 75.9049954,90.136 76.829,90.136 C77.6970043,90.136 78.5019963,89.933002 79.244,89.527 C79.9860037,89.120998 80.6299973,88.5470037 81.176,87.805 C81.7220027,87.0629963 82.1419985,86.1740052 82.436,85.138 C82.7300015,84.1019948 82.877,82.9540063 82.877,81.694 Z M97.913,76.234 C96.9889954,76.234 96.1210041,76.0730016 95.309,75.751 C94.4969959,75.4289984 93.790003,74.9880028 93.188,74.428 C92.585997,73.8679972 92.1100017,73.2100038 91.76,72.454 C91.4099983,71.6979962 91.235,70.8860043 91.235,70.018 C91.235,69.1499957 91.4099983,68.3380038 91.76,67.582 C92.1100017,66.8259962 92.585997,66.1610029 93.188,65.587 C93.790003,65.0129971 94.4969959,64.5650016 95.309,64.243 C96.1210041,63.9209984 96.9889954,63.76 97.913,63.76 C98.8370046,63.76 99.7049959,63.9209984 100.517,64.243 C101.329004,64.5650016 102.035997,65.0129971 102.638,65.587 C103.240003,66.1610029 103.715998,66.8259962 104.066,67.582 C104.416002,68.3380038 104.591,69.1499957 104.591,70.018 C104.591,70.8860043 104.416002,71.6979962 104.066,72.454 C103.715998,73.2100038 103.240003,73.8679972 102.638,74.428 C102.035997,74.9880028 101.329004,75.4289984 100.517,75.751 C99.7049959,76.0730016 98.8370046,76.234 97.913,76.234 Z M97.913,73.84 C98.3890024,73.84 98.829998,73.7350011 99.236,73.525 C99.642002,73.3149989 99.9989985,73.0350017 100.307,72.685 C100.615002,72.3349982 100.859999,71.9290023 101.042,71.467 C101.224001,71.0049977 101.315,70.5220025 101.315,70.018 C101.315,69.4859973 101.224001,68.9820024 101.042,68.506 C100.859999,68.0299976 100.615002,67.6170018 100.307,67.267 C99.9989985,66.9169982 99.6350021,66.644001 99.215,66.448 C98.7949979,66.251999 98.3610022,66.154 97.913,66.154 C96.9609952,66.154 96.1560033,66.5389962 95.498,67.309 C94.8399967,68.0790038 94.511,68.9819948 94.511,70.018 C94.511,70.5500027 94.6019991,71.0469977 94.784,71.509 C94.9660009,71.9710023 95.2109985,72.3769982 95.519,72.727 C95.8270015,73.0770017 96.183998,73.349999 96.59,73.546 C96.996002,73.742001 97.4369976,73.84 97.913,73.84 Z M113.369,94.42 C112.444995,94.42 111.577004,94.2590016 110.765,93.937 C109.952996,93.6149984 109.246003,93.1670029 108.644,92.593 C108.041997,92.0189971 107.566002,91.3540038 107.216,90.598 C106.865998,89.8419962 106.691,89.0300043 106.691,88.162 C106.691,87.2939957 106.865998,86.4820038 107.216,85.726 C107.566002,84.9699962 108.041997,84.3120028 108.644,83.752 C109.246003,83.1919972 109.952996,82.7510016 110.765,82.429 C111.577004,82.1069984 112.444995,81.946 113.369,81.946 C114.293005,81.946 115.160996,82.1069984 115.973,82.429 C116.785004,82.7510016 117.491997,83.1919972 118.094,83.752 C118.696003,84.3120028 119.171998,84.9699962 119.522,85.726 C119.872002,86.4820038 120.047,87.2939957 120.047,88.162 C120.047,89.0300043 119.872002,89.8419962 119.522,90.598 C119.171998,91.3540038 118.696003,92.0189971 118.094,92.593 C117.491997,93.1670029 116.785004,93.6149984 115.973,93.937 C115.160996,94.2590016 114.293005,94.42 113.369,94.42 Z M113.369,92.026 C114.321005,92.026 115.125997,91.6480038 115.784,90.892 C116.442003,90.1359962 116.771,89.2260053 116.771,88.162 C116.771,87.6299973 116.680001,87.1330023 116.498,86.671 C116.315999,86.2089977 116.064002,85.8030017 115.742,85.453 C115.419998,85.1029982 115.056002,84.830001 114.65,84.634 C114.243998,84.437999 113.817002,84.34 113.369,84.34 C112.892998,84.34 112.452002,84.4449989 112.046,84.655 C111.639998,84.8650011 111.283002,85.1449983 110.975,85.495 C110.666998,85.8450017 110.422001,86.2509977 110.24,86.713 C110.057999,87.1750023 109.967,87.6579975 109.967,88.162 C109.967,88.6940027 110.057999,89.1979976 110.24,89.674 C110.422001,90.1500024 110.666998,90.5629983 110.975,90.913 C111.283002,91.2630018 111.639998,91.535999 112.046,91.732 C112.452002,91.928001 112.892998,92.026 113.369,92.026 Z M93.125,92.32 L104.927,78.334 L116.015,63.928 L118.199,65.818 L106.607,79.636 L95.267,94.252 L93.125,92.32 Z" id="60%" fill="#0C4B5D"></path>
            <path d="M38.3883033,136.294704 C50.0203132,144.907051 64.4153956,150 80,150 C118.659932,150 150,118.659932 150,80 C150,41.3400675 118.659932,10 80,10 L80,0 C124.18278,0 160,35.81722 160,80 C160,106.625351 146.99302,130.212758 126.986584,144.754699 C113.793835,154.344023 97.5574294,160 80,160 C62.1890236,160 45.7375008,154.179487 32.4437752,144.336805 L38.3883033,136.294704 Z" id="Combined-Shape" fill="url(#linearGradient-1)"></path>
        </g>
    </g>
</svg>