<?xml version="1.0" encoding="UTF-8"?>
<svg width="160px" height="160px" viewBox="0 0 160 160" version="1.1" xmlns="http://www.w3.org/2000/svg" xmlns:xlink="http://www.w3.org/1999/xlink">
    <!-- Generator: Sketch 51 (57462) - http://www.bohemiancoding.com/sketch -->
    <title>donut-20</title>
    <desc>Created with Sketch.</desc>
    <defs>
        <linearGradient x1="0%" y1="0%" x2="0%" y2="271.129459%" id="linearGradient-1">
            <stop stop-color="#3ECFF0" offset="0%"></stop>
            <stop stop-color="#FBE250" offset="100%"></stop>
        </linearGradient>
    </defs>
    <g id="Page-1" stroke="none" stroke-width="1" fill="none" fill-rule="evenodd">
        <g id="donut-20">
            <circle id="Oval-Copy-4" stroke="#DBE8FB" stroke-width="10" cx="80" cy="80" r="75"></circle>
            <path d="M146.702545,58.7066861 C137.692625,30.4585211 111.235484,10 80,10 L80,0 C115.697696,0 145.934429,23.381167 156.23148,55.6647841 L146.702545,58.7066861 Z" id="Combined-Shape" fill="url(#linearGradient-1)"></path>
            <path d="M41.339,94 C41.339,92.8239941 41.436999,91.732005 41.633,90.724 C41.829001,89.715995 42.1789975,88.7710044 42.683,87.889 C43.1870025,87.0069956 43.8729957,86.167004 44.741,85.369 C45.6090043,84.570996 46.7289931,83.7940038 48.101,83.038 C49.0810049,82.5059973 50.0049957,82.0160022 50.873,81.568 C51.7410043,81.1199978 52.5039967,80.6790022 53.162,80.245 C53.8200033,79.8109978 54.344998,79.3490025 54.737,78.859 C55.129002,78.3689975 55.325,77.8020032 55.325,77.158 C55.325,76.2619955 54.9400039,75.4570036 54.17,74.743 C53.3999961,74.0289964 52.2870073,73.672 50.831,73.672 C50.0749962,73.672 49.3820032,73.776999 48.752,73.987 C48.1219969,74.197001 47.5480026,74.4629984 47.03,74.785 C46.5119974,75.1070016 46.057002,75.463998 45.665,75.856 C45.272998,76.248002 44.9230015,76.6259982 44.615,76.99 L41.675,73.588 C41.9550014,73.2799985 42.395997,72.8950023 42.998,72.433 C43.600003,71.9709977 44.3279957,71.5300021 45.182,71.11 C46.0360043,70.6899979 47.0089945,70.3330015 48.101,70.039 C49.1930055,69.7449985 50.3829936,69.598 51.671,69.598 C53.0150067,69.598 54.2259946,69.7729983 55.304,70.123 C56.3820054,70.4730017 57.2919963,70.9559969 58.034,71.572 C58.7760037,72.1880031 59.342998,72.9229957 59.735,73.777 C60.127002,74.6310043 60.323,75.5479951 60.323,76.528 C60.323,77.5640052 60.1130021,78.4879959 59.693,79.3 C59.2729979,80.1120041 58.7550031,80.8259969 58.139,81.442 C57.5229969,82.0580031 56.8510036,82.5829978 56.123,83.017 C55.3949964,83.4510022 54.7230031,83.8219985 54.107,84.13 C53.5189971,84.4100014 52.8540037,84.7389981 52.112,85.117 C51.3699963,85.4950019 50.6490035,85.9289975 49.949,86.419 C49.2489965,86.9090024 48.6190028,87.4339972 48.059,87.994 C47.4989972,88.5540028 47.1070011,89.1699966 46.883,89.842 L60.785,89.842 L60.785,94 L41.339,94 Z M86.363,81.694 C86.363,83.5420092 86.0900027,85.2429922 85.544,86.797 C84.9979973,88.3510078 84.2420048,89.6949943 83.276,90.829 C82.3099952,91.9630057 81.1760065,92.8449969 79.874,93.475 C78.5719935,94.1050032 77.1510077,94.42 75.611,94.42 C74.0709923,94.42 72.6430066,94.1050032 71.327,93.475 C70.0109934,92.8449969 68.8770048,91.9630057 67.925,90.829 C66.9729952,89.6949943 66.2240027,88.3510078 65.678,86.797 C65.1319973,85.2429922 64.859,83.5420092 64.859,81.694 C64.859,79.8459908 65.1319973,78.1450078 65.678,76.591 C66.2240027,75.0369922 66.9729952,73.6930057 67.925,72.559 C68.8770048,71.4249943 70.0109934,70.5360032 71.327,69.892 C72.6430066,69.2479968 74.0709923,68.926 75.611,68.926 C77.1510077,68.926 78.5719935,69.2479968 79.874,69.892 C81.1760065,70.5360032 82.3099952,71.4249943 83.276,72.559 C84.2420048,73.6930057 84.9979973,75.0369922 85.544,76.591 C86.0900027,78.1450078 86.363,79.8459908 86.363,81.694 Z M81.659,81.694 C81.659,80.4339937 81.5120015,79.2860052 81.218,78.25 C80.9239985,77.2139948 80.5040027,76.3180038 79.958,75.562 C79.4119973,74.8059962 78.7680037,74.225002 78.026,73.819 C77.2839963,73.412998 76.4790043,73.21 75.611,73.21 C74.6869954,73.21 73.8540037,73.412998 73.112,73.819 C72.3699963,74.225002 71.7260027,74.8059962 71.18,75.562 C70.6339973,76.3180038 70.2140015,77.2139948 69.92,78.25 C69.6259985,79.2860052 69.479,80.4339937 69.479,81.694 C69.479,82.9540063 69.6259985,84.1019948 69.92,85.138 C70.2140015,86.1740052 70.6339973,87.0629963 71.18,87.805 C71.7260027,88.5470037 72.3699963,89.120998 73.112,89.527 C73.8540037,89.933002 74.6869954,90.136 75.611,90.136 C76.4790043,90.136 77.2839963,89.933002 78.026,89.527 C78.7680037,89.120998 79.4119973,88.5470037 79.958,87.805 C80.5040027,87.0629963 80.9239985,86.1740052 81.218,85.138 C81.5120015,84.1019948 81.659,82.9540063 81.659,81.694 Z M96.695,76.234 C95.7709954,76.234 94.9030041,76.0730016 94.091,75.751 C93.2789959,75.4289984 92.572003,74.9880028 91.97,74.428 C91.367997,73.8679972 90.8920017,73.2100038 90.542,72.454 C90.1919982,71.6979962 90.017,70.8860043 90.017,70.018 C90.017,69.1499957 90.1919982,68.3380038 90.542,67.582 C90.8920017,66.8259962 91.367997,66.1610029 91.97,65.587 C92.572003,65.0129971 93.2789959,64.5650016 94.091,64.243 C94.9030041,63.9209984 95.7709954,63.76 96.695,63.76 C97.6190046,63.76 98.4869959,63.9209984 99.299,64.243 C100.111004,64.5650016 100.817997,65.0129971 101.42,65.587 C102.022003,66.1610029 102.497998,66.8259962 102.848,67.582 C103.198002,68.3380038 103.373,69.1499957 103.373,70.018 C103.373,70.8860043 103.198002,71.6979962 102.848,72.454 C102.497998,73.2100038 102.022003,73.8679972 101.42,74.428 C100.817997,74.9880028 100.111004,75.4289984 99.299,75.751 C98.4869959,76.0730016 97.6190046,76.234 96.695,76.234 Z M96.695,73.84 C97.1710024,73.84 97.611998,73.7350011 98.018,73.525 C98.424002,73.3149989 98.7809985,73.0350017 99.089,72.685 C99.3970015,72.3349982 99.6419991,71.9290023 99.824,71.467 C100.006001,71.0049977 100.097,70.5220025 100.097,70.018 C100.097,69.4859973 100.006001,68.9820024 99.824,68.506 C99.6419991,68.0299976 99.3970015,67.6170018 99.089,67.267 C98.7809985,66.9169982 98.4170021,66.644001 97.997,66.448 C97.5769979,66.251999 97.1430022,66.154 96.695,66.154 C95.7429952,66.154 94.9380033,66.5389962 94.28,67.309 C93.6219967,68.0790038 93.293,68.9819948 93.293,70.018 C93.293,70.5500027 93.3839991,71.0469977 93.566,71.509 C93.7480009,71.9710023 93.9929985,72.3769982 94.301,72.727 C94.6090015,73.0770017 94.965998,73.349999 95.372,73.546 C95.778002,73.742001 96.2189976,73.84 96.695,73.84 Z M112.151,94.42 C111.226995,94.42 110.359004,94.2590016 109.547,93.937 C108.734996,93.6149984 108.028003,93.1670029 107.426,92.593 C106.823997,92.0189971 106.348002,91.3540038 105.998,90.598 C105.647998,89.8419962 105.473,89.0300043 105.473,88.162 C105.473,87.2939957 105.647998,86.4820038 105.998,85.726 C106.348002,84.9699962 106.823997,84.3120028 107.426,83.752 C108.028003,83.1919972 108.734996,82.7510016 109.547,82.429 C110.359004,82.1069984 111.226995,81.946 112.151,81.946 C113.075005,81.946 113.942996,82.1069984 114.755,82.429 C115.567004,82.7510016 116.273997,83.1919972 116.876,83.752 C117.478003,84.3120028 117.953998,84.9699962 118.304,85.726 C118.654002,86.4820038 118.829,87.2939957 118.829,88.162 C118.829,89.0300043 118.654002,89.8419962 118.304,90.598 C117.953998,91.3540038 117.478003,92.0189971 116.876,92.593 C116.273997,93.1670029 115.567004,93.6149984 114.755,93.937 C113.942996,94.2590016 113.075005,94.42 112.151,94.42 Z M112.151,92.026 C113.103005,92.026 113.907997,91.6480038 114.566,90.892 C115.224003,90.1359962 115.553,89.2260053 115.553,88.162 C115.553,87.6299973 115.462001,87.1330023 115.28,86.671 C115.097999,86.2089977 114.846002,85.8030017 114.524,85.453 C114.201998,85.1029982 113.838002,84.830001 113.432,84.634 C113.025998,84.437999 112.599002,84.34 112.151,84.34 C111.674998,84.34 111.234002,84.4449989 110.828,84.655 C110.421998,84.8650011 110.065002,85.1449983 109.757,85.495 C109.448998,85.8450017 109.204001,86.2509977 109.022,86.713 C108.839999,87.1750023 108.749,87.6579975 108.749,88.162 C108.749,88.6940027 108.839999,89.1979976 109.022,89.674 C109.204001,90.1500024 109.448998,90.5629983 109.757,90.913 C110.065002,91.2630018 110.421998,91.535999 110.828,91.732 C111.234002,91.928001 111.674998,92.026 112.151,92.026 Z M91.907,92.32 L103.709,78.334 L114.797,63.928 L116.981,65.818 L105.389,79.636 L94.049,94.252 L91.907,92.32 Z" id="20%" fill="#0C4B5D"></path>
        </g>
    </g>
</svg>