<?xml version="1.0" encoding="UTF-8"?>
<svg width="160px" height="160px" viewBox="0 0 160 160" version="1.1" xmlns="http://www.w3.org/2000/svg" xmlns:xlink="http://www.w3.org/1999/xlink">
    <!-- Generator: Sketch 51 (57462) - http://www.bohemiancoding.com/sketch -->
    <title>donut-80</title>
    <desc>Created with Sketch.</desc>
    <defs>
        <linearGradient x1="50%" y1="0%" x2="50%" y2="100%" id="linearGradient-1">
            <stop stop-color="#3ECFF0" offset="0%"></stop>
            <stop stop-color="#FBE250" offset="100%"></stop>
        </linearGradient>
    </defs>
    <g id="Page-1" stroke="none" stroke-width="1" fill="none" fill-rule="evenodd">
        <g id="donut-80">
            <circle id="Oval-Copy-4" stroke="#DBE8FB" stroke-width="10" cx="80" cy="80" r="75"></circle>
            <path d="M61.835,85.39 C61.835,86.7340067 61.5480029,87.9589945 60.974,89.065 C60.3999971,90.1710055 59.6230049,91.1159961 58.643,91.9 C57.6629951,92.6840039 56.5290064,93.2859979 55.241,93.706 C53.9529936,94.1260021 52.5810073,94.336 51.125,94.336 C49.6409926,94.336 48.2480065,94.1050023 46.946,93.643 C45.6439935,93.1809977 44.5170048,92.5440041 43.565,91.732 C42.6129952,90.9199959 41.8640027,89.9540056 41.318,88.834 C40.7719973,87.7139944 40.499,86.4960066 40.499,85.18 C40.499,84.3119957 40.6529985,83.5000038 40.961,82.744 C41.2690015,81.9879962 41.6679976,81.309003 42.158,80.707 C42.6480024,80.104997 43.2009969,79.5800022 43.817,79.132 C44.4330031,78.6839978 45.0489969,78.3200014 45.665,78.04 C44.5169943,77.5359975 43.5370041,76.7660052 42.725,75.73 C41.9129959,74.6939948 41.507,73.5180066 41.507,72.202 C41.507,70.9139936 41.8009971,69.773005 42.389,68.779 C42.9770029,67.784995 43.7329954,66.9450034 44.657,66.259 C45.5810046,65.5729966 46.6169943,65.0550018 47.765,64.705 C48.9130057,64.3549983 50.0469944,64.18 51.167,64.18 C52.2870056,64.18 53.4279942,64.3549983 54.59,64.705 C55.7520058,65.0550018 56.8019953,65.5659966 57.74,66.238 C58.6780047,66.9100034 59.4409971,67.742995 60.029,68.737 C60.6170029,69.731005 60.911,70.8719936 60.911,72.16 C60.911,73.4760066 60.4980041,74.6589948 59.672,75.709 C58.8459959,76.7590053 57.8450059,77.5359975 56.669,78.04 C57.3410034,78.3480015 57.9919968,78.7329977 58.622,79.195 C59.2520031,79.6570023 59.8049976,80.2029969 60.281,80.833 C60.7570024,81.4630031 61.1349986,82.1559962 61.415,82.912 C61.6950014,83.6680038 61.835,84.4939955 61.835,85.39 Z M57.173,85.096 C57.173,84.2839959 56.9980018,83.5630032 56.648,82.933 C56.2979982,82.3029968 55.8360029,81.7640022 55.262,81.316 C54.6879971,80.8679978 54.0440036,80.5320011 53.33,80.308 C52.6159964,80.0839989 51.8950036,79.972 51.167,79.972 C50.4109962,79.972 49.6760036,80.0909988 48.962,80.329 C48.2479964,80.5670012 47.6180027,80.9099978 47.072,81.358 C46.5259973,81.8060022 46.0850017,82.3449969 45.749,82.975 C45.4129983,83.6050032 45.245,84.3119961 45.245,85.096 C45.245,85.8800039 45.4199983,86.5869969 45.77,87.217 C46.1200018,87.8470032 46.5749972,88.3789978 47.135,88.813 C47.6950028,89.2470022 48.3319964,89.5829988 49.046,89.821 C49.7600036,90.0590012 50.4809964,90.178 51.209,90.178 C51.9650038,90.178 52.6999964,90.0520013 53.414,89.8 C54.1280036,89.5479987 54.7649972,89.1980022 55.325,88.75 C55.8850028,88.3019978 56.3329983,87.7700031 56.669,87.154 C57.0050017,86.5379969 57.173,85.8520038 57.173,85.096 Z M46.169,72.37 C46.169,73.0420034 46.3229985,73.6299975 46.631,74.134 C46.9390015,74.6380025 47.3309976,75.0579983 47.807,75.394 C48.2830024,75.7300017 48.8149971,75.9889991 49.403,76.171 C49.9910029,76.3530009 50.5789971,76.444 51.167,76.444 C51.7550029,76.444 52.349997,76.3530009 52.952,76.171 C53.554003,75.9889991 54.0929976,75.7230017 54.569,75.373 C55.0450024,75.0229983 55.4369985,74.5890026 55.745,74.071 C56.0530015,73.5529974 56.207,72.9580034 56.207,72.286 C56.207,71.6699969 56.0670014,71.1170025 55.787,70.627 C55.5069986,70.1369975 55.1360023,69.7170017 54.674,69.367 C54.2119977,69.0169983 53.680003,68.7510009 53.078,68.569 C52.475997,68.3869991 51.8390034,68.296 51.167,68.296 C50.4949966,68.296 49.858003,68.393999 49.256,68.59 C48.653997,68.786001 48.1220023,69.0589983 47.66,69.409 C47.1979977,69.7590017 46.8340013,70.1859975 46.568,70.69 C46.3019987,71.1940025 46.169,71.7539969 46.169,72.37 Z M87.455,81.694 C87.455,83.5420092 87.1820027,85.2429922 86.636,86.797 C86.0899973,88.3510078 85.3340048,89.6949943 84.368,90.829 C83.4019952,91.9630057 82.2680065,92.8449969 80.966,93.475 C79.6639935,94.1050032 78.2430077,94.42 76.703,94.42 C75.1629923,94.42 73.7350066,94.1050032 72.419,93.475 C71.1029934,92.8449969 69.9690048,91.9630057 69.017,90.829 C68.0649952,89.6949943 67.3160027,88.3510078 66.77,86.797 C66.2239973,85.2429922 65.951,83.5420092 65.951,81.694 C65.951,79.8459908 66.2239973,78.1450078 66.77,76.591 C67.3160027,75.0369922 68.0649952,73.6930057 69.017,72.559 C69.9690048,71.4249943 71.1029934,70.5360032 72.419,69.892 C73.7350066,69.2479968 75.1629923,68.926 76.703,68.926 C78.2430077,68.926 79.6639935,69.2479968 80.966,69.892 C82.2680065,70.5360032 83.4019952,71.4249943 84.368,72.559 C85.3340048,73.6930057 86.0899973,75.0369922 86.636,76.591 C87.1820027,78.1450078 87.455,79.8459908 87.455,81.694 Z M82.751,81.694 C82.751,80.4339937 82.6040015,79.2860052 82.31,78.25 C82.0159985,77.2139948 81.5960027,76.3180038 81.05,75.562 C80.5039973,74.8059962 79.8600037,74.225002 79.118,73.819 C78.3759963,73.412998 77.5710043,73.21 76.703,73.21 C75.7789954,73.21 74.9460037,73.412998 74.204,73.819 C73.4619963,74.225002 72.8180027,74.8059962 72.272,75.562 C71.7259973,76.3180038 71.3060015,77.2139948 71.012,78.25 C70.7179985,79.2860052 70.571,80.4339937 70.571,81.694 C70.571,82.9540063 70.7179985,84.1019948 71.012,85.138 C71.3060015,86.1740052 71.7259973,87.0629963 72.272,87.805 C72.8180027,88.5470037 73.4619963,89.120998 74.204,89.527 C74.9460037,89.933002 75.7789954,90.136 76.703,90.136 C77.5710043,90.136 78.3759963,89.933002 79.118,89.527 C79.8600037,89.120998 80.5039973,88.5470037 81.05,87.805 C81.5960027,87.0629963 82.0159985,86.1740052 82.31,85.138 C82.6040015,84.1019948 82.751,82.9540063 82.751,81.694 Z M97.787,76.234 C96.8629954,76.234 95.9950041,76.0730016 95.183,75.751 C94.3709959,75.4289984 93.664003,74.9880028 93.062,74.428 C92.459997,73.8679972 91.9840017,73.2100038 91.634,72.454 C91.2839982,71.6979962 91.109,70.8860043 91.109,70.018 C91.109,69.1499957 91.2839982,68.3380038 91.634,67.582 C91.9840017,66.8259962 92.459997,66.1610029 93.062,65.587 C93.664003,65.0129971 94.3709959,64.5650016 95.183,64.243 C95.9950041,63.9209984 96.8629954,63.76 97.787,63.76 C98.7110046,63.76 99.5789959,63.9209984 100.391,64.243 C101.203004,64.5650016 101.909997,65.0129971 102.512,65.587 C103.114003,66.1610029 103.589998,66.8259962 103.94,67.582 C104.290002,68.3380038 104.465,69.1499957 104.465,70.018 C104.465,70.8860043 104.290002,71.6979962 103.94,72.454 C103.589998,73.2100038 103.114003,73.8679972 102.512,74.428 C101.909997,74.9880028 101.203004,75.4289984 100.391,75.751 C99.5789959,76.0730016 98.7110046,76.234 97.787,76.234 Z M97.787,73.84 C98.2630024,73.84 98.703998,73.7350011 99.11,73.525 C99.516002,73.3149989 99.8729985,73.0350017 100.181,72.685 C100.489002,72.3349982 100.733999,71.9290023 100.916,71.467 C101.098001,71.0049977 101.189,70.5220025 101.189,70.018 C101.189,69.4859973 101.098001,68.9820024 100.916,68.506 C100.733999,68.0299976 100.489002,67.6170018 100.181,67.267 C99.8729985,66.9169982 99.5090021,66.644001 99.089,66.448 C98.6689979,66.251999 98.2350022,66.154 97.787,66.154 C96.8349952,66.154 96.0300033,66.5389962 95.372,67.309 C94.7139967,68.0790038 94.385,68.9819948 94.385,70.018 C94.385,70.5500027 94.4759991,71.0469977 94.658,71.509 C94.8400009,71.9710023 95.0849985,72.3769982 95.393,72.727 C95.7010015,73.0770017 96.057998,73.349999 96.464,73.546 C96.870002,73.742001 97.3109976,73.84 97.787,73.84 Z M113.243,94.42 C112.318995,94.42 111.451004,94.2590016 110.639,93.937 C109.826996,93.6149984 109.120003,93.1670029 108.518,92.593 C107.915997,92.0189971 107.440002,91.3540038 107.09,90.598 C106.739998,89.8419962 106.565,89.0300043 106.565,88.162 C106.565,87.2939957 106.739998,86.4820038 107.09,85.726 C107.440002,84.9699962 107.915997,84.3120028 108.518,83.752 C109.120003,83.1919972 109.826996,82.7510016 110.639,82.429 C111.451004,82.1069984 112.318995,81.946 113.243,81.946 C114.167005,81.946 115.034996,82.1069984 115.847,82.429 C116.659004,82.7510016 117.365997,83.1919972 117.968,83.752 C118.570003,84.3120028 119.045998,84.9699962 119.396,85.726 C119.746002,86.4820038 119.921,87.2939957 119.921,88.162 C119.921,89.0300043 119.746002,89.8419962 119.396,90.598 C119.045998,91.3540038 118.570003,92.0189971 117.968,92.593 C117.365997,93.1670029 116.659004,93.6149984 115.847,93.937 C115.034996,94.2590016 114.167005,94.42 113.243,94.42 Z M113.243,92.026 C114.195005,92.026 114.999997,91.6480038 115.658,90.892 C116.316003,90.1359962 116.645,89.2260053 116.645,88.162 C116.645,87.6299973 116.554001,87.1330023 116.372,86.671 C116.189999,86.2089977 115.938002,85.8030017 115.616,85.453 C115.293998,85.1029982 114.930002,84.830001 114.524,84.634 C114.117998,84.437999 113.691002,84.34 113.243,84.34 C112.766998,84.34 112.326002,84.4449989 111.92,84.655 C111.513998,84.8650011 111.157002,85.1449983 110.849,85.495 C110.540998,85.8450017 110.296001,86.2509977 110.114,86.713 C109.931999,87.1750023 109.841,87.6579975 109.841,88.162 C109.841,88.6940027 109.931999,89.1979976 110.114,89.674 C110.296001,90.1500024 110.540998,90.5629983 110.849,90.913 C111.157002,91.2630018 111.513998,91.535999 111.92,91.732 C112.326002,91.928001 112.766998,92.026 113.243,92.026 Z M92.999,92.32 L104.801,78.334 L115.889,63.928 L118.073,65.818 L106.481,79.636 L95.141,94.252 L92.999,92.32 Z" id="80%" fill="#0C4B5D"></path>
            <path d="M13.4846326,58.1285895 C11.2232888,65.0098561 10,72.3620708 10,80 C10,118.659932 41.3400675,150 80,150 C118.659932,150 150,118.659932 150,80 C150,41.3400675 118.659932,10 80,10 L80,0 C124.18278,0 160,35.81722 160,80 C160,124.18278 124.18278,160 80,160 C35.81722,160 0,124.18278 0,80 C0,71.2709381 1.39804434,62.8684069 3.98243724,55.0041023 L13.4846326,58.1285895 Z" id="Combined-Shape" fill="url(#linearGradient-1)"></path>
        </g>
    </g>
</svg>