<?xml version="1.0" encoding="UTF-8"?>
<svg width="20px" height="20px" viewBox="0 0 20 20" version="1.1" xmlns="http://www.w3.org/2000/svg" xmlns:xlink="http://www.w3.org/1999/xlink">
    <!-- Generator: Sketch 51 (57462) - http://www.bohemiancoding.com/sketch -->
    <title>donut-small-80</title>
    <desc>Created with Sketch.</desc>
    <defs>
        <linearGradient x1="50%" y1="0%" x2="50%" y2="100%" id="linearGradient-1">
            <stop stop-color="#3ECFF0" offset="0%"></stop>
            <stop stop-color="#FBE250" offset="100%"></stop>
        </linearGradient>
    </defs>
    <g id="Page-1" stroke="none" stroke-width="1" fill="none" fill-rule="evenodd">
        <g id="donut-small-80">
            <circle id="Oval-Copy-4" stroke="#556F7C" stroke-width="4" cx="10" cy="10" r="8"></circle>
            <path d="M4.29868279,8.12530767 C4.10485333,8.71513052 4,9.34532036 4,10 C4,13.3137085 6.6862915,16 10,16 C13.3137085,16 16,13.3137085 16,10 C16,6.6862915 13.3137085,4 10,4 L10,2.84217094e-14 C15.5228475,2.84217094e-14 20,4.4771525 20,10 C20,15.5228475 15.5228475,20 10,20 C4.4771525,20 8.52651283e-14,15.5228475 8.52651283e-14,10 C8.52651283e-14,8.90886726 0.174755543,7.85855086 0.497804655,6.87551279 L4.29868279,8.12530767 Z" id="Combined-Shape" fill="url(#linearGradient-1)"></path>
        </g>
    </g>
</svg>