<?xml version="1.0" encoding="UTF-8"?>
<svg width="160px" height="160px" viewBox="0 0 160 160" version="1.1" xmlns="http://www.w3.org/2000/svg" xmlns:xlink="http://www.w3.org/1999/xlink">
    <!-- Generator: Sketch 49.3 (51167) - http://www.bohemiancoding.com/sketch -->
    <title>donut-100</title>
    <desc>Created with Sketch.</desc>
    <defs>
        <radialGradient cx="50%" cy="100%" fx="50%" fy="100%" r="55.0439453%" id="radialGradient-1">
            <stop stop-color="#FFDB18" offset="0%"></stop>
            <stop stop-color="#FFDB18" stop-opacity="0" offset="100%"></stop>
        </radialGradient>
        <radialGradient cx="50%" cy="0%" fx="50%" fy="0%" r="54.0454102%" id="radialGradient-2">
            <stop stop-color="#1EC4E9" offset="0%"></stop>
            <stop stop-color="#1EC4E9" stop-opacity="0" offset="100%"></stop>
        </radialGradient>
        <path d="M80,160 C35.81722,160 0,124.18278 0,80 C0,35.81722 35.81722,0 80,0 C124.18278,0 160,35.81722 160,80 C160,124.18278 124.18278,160 80,160 Z M80,150 C118.659932,150 150,118.659932 150,80 C150,41.3400675 118.659932,10 80,10 C41.3400675,10 10,41.3400675 10,80 C10,118.659932 41.3400675,150 80,150 Z" id="path-3"></path>
    </defs>
    <g id="Page-1" stroke="none" stroke-width="1" fill="none" fill-rule="evenodd">
        <g id="donut-100">
            <g id="Group-2">
                <g id="Combined-Shape-Copy">
                    <use fill="#9BD8A0" xlink:href="#path-3"></use>
                    <use fill="url(#radialGradient-1)" xlink:href="#path-3"></use>
                    <use fill="url(#radialGradient-2)" xlink:href="#path-3"></use>
                </g>
            </g>
            <path d="M47.177,89.842 L47.177,94 L31.133,94 L31.133,89.842 L37.097,89.842 L37.097,75.184 C36.8449987,75.5200017 36.4530027,75.8699982 35.921,76.234 C35.3889973,76.5980018 34.8010032,76.9339985 34.157,77.242 C33.5129968,77.5500015 32.8410035,77.808999 32.141,78.019 C31.4409965,78.229001 30.8250027,78.334 30.293,78.334 L30.293,74.008 C30.8530028,74.008 31.5039963,73.8400017 32.246,73.504 C32.9880037,73.1679983 33.7019966,72.7760022 34.388,72.328 C35.0740034,71.8799978 35.6759974,71.4320022 36.194,70.984 C36.7120026,70.5359978 37.0129996,70.214001 37.097,70.018 L41.843,70.018 L41.843,89.842 L47.177,89.842 Z M71.831,81.694 C71.831,83.5420092 71.5580027,85.2429922 71.012,86.797 C70.4659973,88.3510078 69.7100048,89.6949943 68.744,90.829 C67.7779952,91.9630057 66.6440065,92.8449969 65.342,93.475 C64.0399935,94.1050032 62.6190077,94.42 61.079,94.42 C59.5389923,94.42 58.1110066,94.1050032 56.795,93.475 C55.4789934,92.8449969 54.3450048,91.9630057 53.393,90.829 C52.4409952,89.6949943 51.6920027,88.3510078 51.146,86.797 C50.5999973,85.2429922 50.327,83.5420092 50.327,81.694 C50.327,79.8459908 50.5999973,78.1450078 51.146,76.591 C51.6920027,75.0369922 52.4409952,73.6930057 53.393,72.559 C54.3450048,71.4249943 55.4789934,70.5360032 56.795,69.892 C58.1110066,69.2479968 59.5389923,68.926 61.079,68.926 C62.6190077,68.926 64.0399935,69.2479968 65.342,69.892 C66.6440065,70.5360032 67.7779952,71.4249943 68.744,72.559 C69.7100048,73.6930057 70.4659973,75.0369922 71.012,76.591 C71.5580027,78.1450078 71.831,79.8459908 71.831,81.694 Z M67.127,81.694 C67.127,80.4339937 66.9800015,79.2860052 66.686,78.25 C66.3919985,77.2139948 65.9720027,76.3180038 65.426,75.562 C64.8799973,74.8059962 64.2360037,74.225002 63.494,73.819 C62.7519963,73.412998 61.9470043,73.21 61.079,73.21 C60.1549954,73.21 59.3220037,73.412998 58.58,73.819 C57.8379963,74.225002 57.1940027,74.8059962 56.648,75.562 C56.1019973,76.3180038 55.6820015,77.2139948 55.388,78.25 C55.0939985,79.2860052 54.947,80.4339937 54.947,81.694 C54.947,82.9540063 55.0939985,84.1019948 55.388,85.138 C55.6820015,86.1740052 56.1019973,87.0629963 56.648,87.805 C57.1940027,88.5470037 57.8379963,89.120998 58.58,89.527 C59.3220037,89.933002 60.1549954,90.136 61.079,90.136 C61.9470043,90.136 62.7519963,89.933002 63.494,89.527 C64.2360037,89.120998 64.8799973,88.5470037 65.426,87.805 C65.9720027,87.0629963 66.3919985,86.1740052 66.686,85.138 C66.9800015,84.1019948 67.127,82.9540063 67.127,81.694 Z M97.619,81.694 C97.619,83.5420092 97.3460027,85.2429922 96.8,86.797 C96.2539973,88.3510078 95.4980048,89.6949943 94.532,90.829 C93.5659952,91.9630057 92.4320065,92.8449969 91.13,93.475 C89.8279935,94.1050032 88.4070077,94.42 86.867,94.42 C85.3269923,94.42 83.8990066,94.1050032 82.583,93.475 C81.2669934,92.8449969 80.1330048,91.9630057 79.181,90.829 C78.2289952,89.6949943 77.4800027,88.3510078 76.934,86.797 C76.3879973,85.2429922 76.115,83.5420092 76.115,81.694 C76.115,79.8459908 76.3879973,78.1450078 76.934,76.591 C77.4800027,75.0369922 78.2289952,73.6930057 79.181,72.559 C80.1330048,71.4249943 81.2669934,70.5360032 82.583,69.892 C83.8990066,69.2479968 85.3269923,68.926 86.867,68.926 C88.4070077,68.926 89.8279935,69.2479968 91.13,69.892 C92.4320065,70.5360032 93.5659952,71.4249943 94.532,72.559 C95.4980048,73.6930057 96.2539973,75.0369922 96.8,76.591 C97.3460027,78.1450078 97.619,79.8459908 97.619,81.694 Z M92.915,81.694 C92.915,80.4339937 92.7680015,79.2860052 92.474,78.25 C92.1799985,77.2139948 91.7600027,76.3180038 91.214,75.562 C90.6679973,74.8059962 90.0240037,74.225002 89.282,73.819 C88.5399963,73.412998 87.7350043,73.21 86.867,73.21 C85.9429954,73.21 85.1100037,73.412998 84.368,73.819 C83.6259963,74.225002 82.9820027,74.8059962 82.436,75.562 C81.8899973,76.3180038 81.4700015,77.2139948 81.176,78.25 C80.8819985,79.2860052 80.735,80.4339937 80.735,81.694 C80.735,82.9540063 80.8819985,84.1019948 81.176,85.138 C81.4700015,86.1740052 81.8899973,87.0629963 82.436,87.805 C82.9820027,88.5470037 83.6259963,89.120998 84.368,89.527 C85.1100037,89.933002 85.9429954,90.136 86.867,90.136 C87.7350043,90.136 88.5399963,89.933002 89.282,89.527 C90.0240037,89.120998 90.6679973,88.5470037 91.214,87.805 C91.7600027,87.0629963 92.1799985,86.1740052 92.474,85.138 C92.7680015,84.1019948 92.915,82.9540063 92.915,81.694 Z M107.951,76.234 C107.026995,76.234 106.159004,76.0730016 105.347,75.751 C104.534996,75.4289984 103.828003,74.9880028 103.226,74.428 C102.623997,73.8679972 102.148002,73.2100038 101.798,72.454 C101.447998,71.6979962 101.273,70.8860043 101.273,70.018 C101.273,69.1499957 101.447998,68.3380038 101.798,67.582 C102.148002,66.8259962 102.623997,66.1610029 103.226,65.587 C103.828003,65.0129971 104.534996,64.5650016 105.347,64.243 C106.159004,63.9209984 107.026995,63.76 107.951,63.76 C108.875005,63.76 109.742996,63.9209984 110.555,64.243 C111.367004,64.5650016 112.073997,65.0129971 112.676,65.587 C113.278003,66.1610029 113.753998,66.8259962 114.104,67.582 C114.454002,68.3380038 114.629,69.1499957 114.629,70.018 C114.629,70.8860043 114.454002,71.6979962 114.104,72.454 C113.753998,73.2100038 113.278003,73.8679972 112.676,74.428 C112.073997,74.9880028 111.367004,75.4289984 110.555,75.751 C109.742996,76.0730016 108.875005,76.234 107.951,76.234 Z M107.951,73.84 C108.427002,73.84 108.867998,73.735001 109.274,73.525 C109.680002,73.3149989 110.036998,73.0350017 110.345,72.685 C110.653002,72.3349982 110.897999,71.9290023 111.08,71.467 C111.262001,71.0049977 111.353,70.5220025 111.353,70.018 C111.353,69.4859973 111.262001,68.9820024 111.08,68.506 C110.897999,68.0299976 110.653002,67.6170018 110.345,67.267 C110.036998,66.9169983 109.673002,66.644001 109.253,66.448 C108.832998,66.251999 108.399002,66.154 107.951,66.154 C106.998995,66.154 106.194003,66.5389962 105.536,67.309 C104.877997,68.0790038 104.549,68.9819948 104.549,70.018 C104.549,70.5500027 104.639999,71.0469977 104.822,71.509 C105.004001,71.9710023 105.248998,72.3769982 105.557,72.727 C105.865002,73.0770017 106.221998,73.349999 106.628,73.546 C107.034002,73.742001 107.474998,73.84 107.951,73.84 Z M123.407,94.42 C122.482995,94.42 121.615004,94.2590016 120.803,93.937 C119.990996,93.6149984 119.284003,93.1670029 118.682,92.593 C118.079997,92.0189971 117.604002,91.3540038 117.254,90.598 C116.903998,89.8419962 116.729,89.0300043 116.729,88.162 C116.729,87.2939957 116.903998,86.4820038 117.254,85.726 C117.604002,84.9699962 118.079997,84.3120028 118.682,83.752 C119.284003,83.1919972 119.990996,82.7510016 120.803,82.429 C121.615004,82.1069984 122.482995,81.946 123.407,81.946 C124.331005,81.946 125.198996,82.1069984 126.011,82.429 C126.823004,82.7510016 127.529997,83.1919972 128.132,83.752 C128.734003,84.3120028 129.209998,84.9699962 129.56,85.726 C129.910002,86.4820038 130.085,87.2939957 130.085,88.162 C130.085,89.0300043 129.910002,89.8419962 129.56,90.598 C129.209998,91.3540038 128.734003,92.0189971 128.132,92.593 C127.529997,93.1670029 126.823004,93.6149984 126.011,93.937 C125.198996,94.2590016 124.331005,94.42 123.407,94.42 Z M123.407,92.026 C124.359005,92.026 125.163997,91.6480038 125.822,90.892 C126.480003,90.1359962 126.809,89.2260053 126.809,88.162 C126.809,87.6299973 126.718001,87.1330023 126.536,86.671 C126.353999,86.2089977 126.102002,85.8030017 125.78,85.453 C125.457998,85.1029982 125.094002,84.830001 124.688,84.634 C124.281998,84.437999 123.855002,84.34 123.407,84.34 C122.930998,84.34 122.490002,84.4449989 122.084,84.655 C121.677998,84.8650011 121.321002,85.1449983 121.013,85.495 C120.704998,85.8450017 120.460001,86.2509977 120.278,86.713 C120.095999,87.1750023 120.005,87.6579975 120.005,88.162 C120.005,88.6940027 120.095999,89.1979976 120.278,89.674 C120.460001,90.1500024 120.704998,90.5629982 121.013,90.913 C121.321002,91.2630018 121.677998,91.535999 122.084,91.732 C122.490002,91.928001 122.930998,92.026 123.407,92.026 Z M103.163,92.32 L114.965,78.334 L126.053,63.928 L128.237,65.818 L116.645,79.636 L105.305,94.252 L103.163,92.32 Z" id="100%" fill="#0C4B5D"></path>
        </g>
    </g>
</svg>