<?xml version="1.0" encoding="UTF-8"?>
<svg width="160px" height="160px" viewBox="0 0 160 160" version="1.1" xmlns="http://www.w3.org/2000/svg" xmlns:xlink="http://www.w3.org/1999/xlink">
    <!-- Generator: Sketch 49.3 (51167) - http://www.bohemiancoding.com/sketch -->
    <title>donut-0</title>
    <desc>Created with Sketch.</desc>
    <defs></defs>
    <g id="Page-1" stroke="none" stroke-width="1" fill="none" fill-rule="evenodd">
        <g id="donut-0">
            <circle id="Oval-Copy-4" stroke="#DBE8FB" stroke-width="10" cx="80" cy="80" r="75"></circle>
            <path d="M74.834,81.694 C74.834,83.5420092 74.5610027,85.2429922 74.015,86.797 C73.4689973,88.3510078 72.7130048,89.6949943 71.747,90.829 C70.7809952,91.9630057 69.6470065,92.8449969 68.345,93.475 C67.0429935,94.1050032 65.6220077,94.42 64.082,94.42 C62.5419923,94.42 61.1140066,94.1050032 59.798,93.475 C58.4819934,92.8449969 57.3480048,91.9630057 56.396,90.829 C55.4439952,89.6949943 54.6950027,88.3510078 54.149,86.797 C53.6029973,85.2429922 53.33,83.5420092 53.33,81.694 C53.33,79.8459908 53.6029973,78.1450078 54.149,76.591 C54.6950027,75.0369922 55.4439952,73.6930057 56.396,72.559 C57.3480048,71.4249943 58.4819934,70.5360032 59.798,69.892 C61.1140066,69.2479968 62.5419923,68.926 64.082,68.926 C65.6220077,68.926 67.0429935,69.2479968 68.345,69.892 C69.6470065,70.5360032 70.7809952,71.4249943 71.747,72.559 C72.7130048,73.6930057 73.4689973,75.0369922 74.015,76.591 C74.5610027,78.1450078 74.834,79.8459908 74.834,81.694 Z M70.13,81.694 C70.13,80.4339937 69.9830015,79.2860052 69.689,78.25 C69.3949985,77.2139948 68.9750027,76.3180038 68.429,75.562 C67.8829973,74.8059962 67.2390037,74.225002 66.497,73.819 C65.7549963,73.412998 64.9500043,73.21 64.082,73.21 C63.1579954,73.21 62.3250037,73.412998 61.583,73.819 C60.8409963,74.225002 60.1970027,74.8059962 59.651,75.562 C59.1049973,76.3180038 58.6850015,77.2139948 58.391,78.25 C58.0969985,79.2860052 57.95,80.4339937 57.95,81.694 C57.95,82.9540063 58.0969985,84.1019948 58.391,85.138 C58.6850015,86.1740052 59.1049973,87.0629963 59.651,87.805 C60.1970027,88.5470037 60.8409963,89.120998 61.583,89.527 C62.3250037,89.933002 63.1579954,90.136 64.082,90.136 C64.9500043,90.136 65.7549963,89.933002 66.497,89.527 C67.2390037,89.120998 67.8829973,88.5470037 68.429,87.805 C68.9750027,87.0629963 69.3949985,86.1740052 69.689,85.138 C69.9830015,84.1019948 70.13,82.9540063 70.13,81.694 Z M85.166,76.234 C84.2419954,76.234 83.3740041,76.0730016 82.562,75.751 C81.7499959,75.4289984 81.043003,74.9880028 80.441,74.428 C79.838997,73.8679972 79.3630017,73.2100038 79.013,72.454 C78.6629983,71.6979962 78.488,70.8860043 78.488,70.018 C78.488,69.1499957 78.6629983,68.3380038 79.013,67.582 C79.3630017,66.8259962 79.838997,66.1610029 80.441,65.587 C81.043003,65.0129971 81.7499959,64.5650016 82.562,64.243 C83.3740041,63.9209984 84.2419954,63.76 85.166,63.76 C86.0900046,63.76 86.9579959,63.9209984 87.77,64.243 C88.5820041,64.5650016 89.288997,65.0129971 89.891,65.587 C90.493003,66.1610029 90.9689982,66.8259962 91.319,67.582 C91.6690018,68.3380038 91.844,69.1499957 91.844,70.018 C91.844,70.8860043 91.6690018,71.6979962 91.319,72.454 C90.9689982,73.2100038 90.493003,73.8679972 89.891,74.428 C89.288997,74.9880028 88.5820041,75.4289984 87.77,75.751 C86.9579959,76.0730016 86.0900046,76.234 85.166,76.234 Z M85.166,73.84 C85.6420024,73.84 86.082998,73.735001 86.489,73.525 C86.895002,73.3149989 87.2519985,73.0350017 87.56,72.685 C87.8680015,72.3349982 88.1129991,71.9290023 88.295,71.467 C88.4770009,71.0049977 88.568,70.5220025 88.568,70.018 C88.568,69.4859973 88.4770009,68.9820024 88.295,68.506 C88.1129991,68.0299976 87.8680015,67.6170018 87.56,67.267 C87.2519985,66.9169983 86.8880021,66.644001 86.468,66.448 C86.0479979,66.251999 85.6140022,66.154 85.166,66.154 C84.2139952,66.154 83.4090033,66.5389962 82.751,67.309 C82.0929967,68.0790038 81.764,68.9819948 81.764,70.018 C81.764,70.5500027 81.8549991,71.0469977 82.037,71.509 C82.2190009,71.9710023 82.4639985,72.3769982 82.772,72.727 C83.0800015,73.0770017 83.436998,73.349999 83.843,73.546 C84.249002,73.742001 84.6899976,73.84 85.166,73.84 Z M100.622,94.42 C99.6979954,94.42 98.8300041,94.2590016 98.018,93.937 C97.2059959,93.6149984 96.499003,93.1670029 95.897,92.593 C95.294997,92.0189971 94.8190017,91.3540038 94.469,90.598 C94.1189983,89.8419962 93.944,89.0300043 93.944,88.162 C93.944,87.2939957 94.1189983,86.4820038 94.469,85.726 C94.8190017,84.9699962 95.294997,84.3120028 95.897,83.752 C96.499003,83.1919972 97.2059959,82.7510016 98.018,82.429 C98.8300041,82.1069984 99.6979954,81.946 100.622,81.946 C101.546005,81.946 102.413996,82.1069984 103.226,82.429 C104.038004,82.7510016 104.744997,83.1919972 105.347,83.752 C105.949003,84.3120028 106.424998,84.9699962 106.775,85.726 C107.125002,86.4820038 107.3,87.2939957 107.3,88.162 C107.3,89.0300043 107.125002,89.8419962 106.775,90.598 C106.424998,91.3540038 105.949003,92.0189971 105.347,92.593 C104.744997,93.1670029 104.038004,93.6149984 103.226,93.937 C102.413996,94.2590016 101.546005,94.42 100.622,94.42 Z M100.622,92.026 C101.574005,92.026 102.378997,91.6480038 103.037,90.892 C103.695003,90.1359962 104.024,89.2260053 104.024,88.162 C104.024,87.6299973 103.933001,87.1330023 103.751,86.671 C103.568999,86.2089977 103.317002,85.8030017 102.995,85.453 C102.672998,85.1029982 102.309002,84.830001 101.903,84.634 C101.496998,84.437999 101.070002,84.34 100.622,84.34 C100.145998,84.34 99.705002,84.4449989 99.299,84.655 C98.892998,84.8650011 98.5360015,85.1449983 98.228,85.495 C97.9199985,85.8450017 97.6750009,86.2509977 97.493,86.713 C97.3109991,87.1750023 97.22,87.6579975 97.22,88.162 C97.22,88.6940027 97.3109991,89.1979976 97.493,89.674 C97.6750009,90.1500024 97.9199985,90.5629982 98.228,90.913 C98.5360015,91.2630018 98.892998,91.535999 99.299,91.732 C99.705002,91.928001 100.145998,92.026 100.622,92.026 Z M80.378,92.32 L92.18,78.334 L103.268,63.928 L105.452,65.818 L93.86,79.636 L82.52,94.252 L80.378,92.32 Z" id="0%" fill="#0C4B5D"></path>
        </g>
    </g>
</svg>