<?xml version="1.0" encoding="UTF-8"?>
<svg width="160px" height="160px" viewBox="0 0 160 160" version="1.1" xmlns="http://www.w3.org/2000/svg" xmlns:xlink="http://www.w3.org/1999/xlink">
    <!-- Generator: Sketch 49.3 (51167) - http://www.bohemiancoding.com/sketch -->
    <title>donut-50</title>
    <desc>Created with Sketch.</desc>
    <defs>
        <radialGradient cx="0%" cy="100%" fx="0%" fy="100%" r="110.087891%" gradientTransform="translate(0.000000,1.000000),scale(1.000000,0.500000),rotate(90.000000),translate(-0.000000,-1.000000)" id="radialGradient-1">
            <stop stop-color="#FFDB18" offset="0%"></stop>
            <stop stop-color="#FFDB18" stop-opacity="0" offset="100%"></stop>
        </radialGradient>
        <radialGradient cx="0%" cy="0%" fx="0%" fy="0%" r="108.09082%" gradientTransform="translate(0.000000,0.000000),scale(1.000000,0.500000),rotate(90.000000),translate(-0.000000,-0.000000)" id="radialGradient-2">
            <stop stop-color="#1EC4E9" offset="0%"></stop>
            <stop stop-color="#1EC4E9" stop-opacity="0" offset="100%"></stop>
        </radialGradient>
        <path d="M0,0 C44.18278,0 80,35.81722 80,80 C80,124.18278 44.18278,160 0,160 L0,150 C38.6599325,150 70,118.659932 70,80 C70,41.3400675 38.6599325,10 0,10 L0,0 Z" id="path-3"></path>
    </defs>
    <g id="Page-1" stroke="none" stroke-width="1" fill="none" fill-rule="evenodd">
        <g id="donut-50">
            <circle id="Oval-Copy-4" stroke="#DBE8FB" stroke-width="10" cx="80" cy="80" r="75"></circle>
            <g id="Group-2" transform="translate(80.000000, 0.000000)">
                <g id="Combined-Shape-Copy">
                    <use fill="#9BD8A0" xlink:href="#path-3"></use>
                    <use fill="url(#radialGradient-1)" xlink:href="#path-3"></use>
                    <use fill="url(#radialGradient-2)" xlink:href="#path-3"></use>
                </g>
            </g>
            <path d="M51.587,80.686 C52.987007,80.686 54.281994,80.9239976 55.472,81.4 C56.6620059,81.8760024 57.6979956,82.5339958 58.58,83.374 C59.4620044,84.2140042 60.1479975,85.2219941 60.638,86.398 C61.1280024,87.5740059 61.373,88.861993 61.373,90.262 C61.373,91.7460074 61.1000027,93.1039938 60.554,94.336 C60.0079973,95.5680062 59.2520048,96.6249956 58.286,97.507 C57.3199952,98.3890044 56.1790066,99.0679976 54.863,99.544 C53.5469934,100.020002 52.1330076,100.258 50.621,100.258 C48.4649892,100.258 46.5330085,99.7750048 44.825,98.809 C43.1169915,97.8429952 41.8150045,96.5340083 40.919,94.882 L43.691,92.236 C44.4750039,93.4120059 45.4829938,94.3639964 46.715,95.092 C47.9470062,95.8200036 49.262993,96.184 50.663,96.184 C52.3990087,96.184 53.8269944,95.6520053 54.947,94.588 C56.0670056,93.5239947 56.627,92.1100088 56.627,90.346 C56.627,89.5059958 56.4800015,88.7430034 56.186,88.057 C55.8919985,87.3709966 55.4930025,86.7830024 54.989,86.293 C54.4849975,85.8029976 53.8900034,85.4180014 53.204,85.138 C52.5179966,84.8579986 51.7690041,84.718 50.957,84.718 C49.8929947,84.718 48.8990046,84.9489977 47.975,85.411 C47.0509954,85.8730023 46.2950029,86.5519955 45.707,87.448 L41.633,87.448 C41.6610001,87.3359994 41.7239995,87.0000028 41.822,86.44 C41.9200005,85.8799972 42.0529992,85.1800042 42.221,84.34 C42.3890008,83.4999958 42.570999,82.5620052 42.767,81.526 C42.963001,80.4899948 43.1729989,79.4400053 43.397,78.376 C43.9010025,75.8839875 44.4469971,73.0980154 45.035,70.018 L59.609,70.018 L59.609,74.26 L48.395,74.26 L46.883,82.408 C47.3590024,81.8759973 47.995996,81.4560015 48.794,81.148 C49.592004,80.8399985 50.5229947,80.686 51.587,80.686 Z M86.405,81.694 C86.405,83.5420092 86.1320027,85.2429922 85.586,86.797 C85.0399973,88.3510078 84.2840048,89.6949943 83.318,90.829 C82.3519952,91.9630057 81.2180065,92.8449969 79.916,93.475 C78.6139935,94.1050032 77.1930077,94.42 75.653,94.42 C74.1129923,94.42 72.6850066,94.1050032 71.369,93.475 C70.0529934,92.8449969 68.9190048,91.9630057 67.967,90.829 C67.0149952,89.6949943 66.2660027,88.3510078 65.72,86.797 C65.1739973,85.2429922 64.901,83.5420092 64.901,81.694 C64.901,79.8459908 65.1739973,78.1450078 65.72,76.591 C66.2660027,75.0369922 67.0149952,73.6930057 67.967,72.559 C68.9190048,71.4249943 70.0529934,70.5360032 71.369,69.892 C72.6850066,69.2479968 74.1129923,68.926 75.653,68.926 C77.1930077,68.926 78.6139935,69.2479968 79.916,69.892 C81.2180065,70.5360032 82.3519952,71.4249943 83.318,72.559 C84.2840048,73.6930057 85.0399973,75.0369922 85.586,76.591 C86.1320027,78.1450078 86.405,79.8459908 86.405,81.694 Z M81.701,81.694 C81.701,80.4339937 81.5540015,79.2860052 81.26,78.25 C80.9659985,77.2139948 80.5460027,76.3180038 80,75.562 C79.4539973,74.8059962 78.8100037,74.225002 78.068,73.819 C77.3259963,73.412998 76.5210043,73.21 75.653,73.21 C74.7289954,73.21 73.8960037,73.412998 73.154,73.819 C72.4119963,74.225002 71.7680027,74.8059962 71.222,75.562 C70.6759973,76.3180038 70.2560015,77.2139948 69.962,78.25 C69.6679985,79.2860052 69.521,80.4339937 69.521,81.694 C69.521,82.9540063 69.6679985,84.1019948 69.962,85.138 C70.2560015,86.1740052 70.6759973,87.0629963 71.222,87.805 C71.7680027,88.5470037 72.4119963,89.120998 73.154,89.527 C73.8960037,89.933002 74.7289954,90.136 75.653,90.136 C76.5210043,90.136 77.3259963,89.933002 78.068,89.527 C78.8100037,89.120998 79.4539973,88.5470037 80,87.805 C80.5460027,87.0629963 80.9659985,86.1740052 81.26,85.138 C81.5540015,84.1019948 81.701,82.9540063 81.701,81.694 Z M96.737,76.234 C95.8129954,76.234 94.9450041,76.0730016 94.133,75.751 C93.3209959,75.4289984 92.614003,74.9880028 92.012,74.428 C91.409997,73.8679972 90.9340017,73.2100038 90.584,72.454 C90.2339982,71.6979962 90.059,70.8860043 90.059,70.018 C90.059,69.1499957 90.2339982,68.3380038 90.584,67.582 C90.9340017,66.8259962 91.409997,66.1610029 92.012,65.587 C92.614003,65.0129971 93.3209959,64.5650016 94.133,64.243 C94.9450041,63.9209984 95.8129954,63.76 96.737,63.76 C97.6610046,63.76 98.5289959,63.9209984 99.341,64.243 C100.153004,64.5650016 100.859997,65.0129971 101.462,65.587 C102.064003,66.1610029 102.539998,66.8259962 102.89,67.582 C103.240002,68.3380038 103.415,69.1499957 103.415,70.018 C103.415,70.8860043 103.240002,71.6979962 102.89,72.454 C102.539998,73.2100038 102.064003,73.8679972 101.462,74.428 C100.859997,74.9880028 100.153004,75.4289984 99.341,75.751 C98.5289959,76.0730016 97.6610046,76.234 96.737,76.234 Z M96.737,73.84 C97.2130024,73.84 97.653998,73.735001 98.06,73.525 C98.466002,73.3149989 98.8229985,73.0350017 99.131,72.685 C99.4390015,72.3349982 99.6839991,71.9290023 99.866,71.467 C100.048001,71.0049977 100.139,70.5220025 100.139,70.018 C100.139,69.4859973 100.048001,68.9820024 99.866,68.506 C99.6839991,68.0299976 99.4390015,67.6170018 99.131,67.267 C98.8229985,66.9169983 98.4590021,66.644001 98.039,66.448 C97.6189979,66.251999 97.1850022,66.154 96.737,66.154 C95.7849952,66.154 94.9800033,66.5389962 94.322,67.309 C93.6639967,68.0790038 93.335,68.9819948 93.335,70.018 C93.335,70.5500027 93.4259991,71.0469977 93.608,71.509 C93.7900009,71.9710023 94.0349985,72.3769982 94.343,72.727 C94.6510015,73.0770017 95.007998,73.349999 95.414,73.546 C95.820002,73.742001 96.2609976,73.84 96.737,73.84 Z M112.193,94.42 C111.268995,94.42 110.401004,94.2590016 109.589,93.937 C108.776996,93.6149984 108.070003,93.1670029 107.468,92.593 C106.865997,92.0189971 106.390002,91.3540038 106.04,90.598 C105.689998,89.8419962 105.515,89.0300043 105.515,88.162 C105.515,87.2939957 105.689998,86.4820038 106.04,85.726 C106.390002,84.9699962 106.865997,84.3120028 107.468,83.752 C108.070003,83.1919972 108.776996,82.7510016 109.589,82.429 C110.401004,82.1069984 111.268995,81.946 112.193,81.946 C113.117005,81.946 113.984996,82.1069984 114.797,82.429 C115.609004,82.7510016 116.315997,83.1919972 116.918,83.752 C117.520003,84.3120028 117.995998,84.9699962 118.346,85.726 C118.696002,86.4820038 118.871,87.2939957 118.871,88.162 C118.871,89.0300043 118.696002,89.8419962 118.346,90.598 C117.995998,91.3540038 117.520003,92.0189971 116.918,92.593 C116.315997,93.1670029 115.609004,93.6149984 114.797,93.937 C113.984996,94.2590016 113.117005,94.42 112.193,94.42 Z M112.193,92.026 C113.145005,92.026 113.949997,91.6480038 114.608,90.892 C115.266003,90.1359962 115.595,89.2260053 115.595,88.162 C115.595,87.6299973 115.504001,87.1330023 115.322,86.671 C115.139999,86.2089977 114.888002,85.8030017 114.566,85.453 C114.243998,85.1029982 113.880002,84.830001 113.474,84.634 C113.067998,84.437999 112.641002,84.34 112.193,84.34 C111.716998,84.34 111.276002,84.4449989 110.87,84.655 C110.463998,84.8650011 110.107002,85.1449983 109.799,85.495 C109.490998,85.8450017 109.246001,86.2509977 109.064,86.713 C108.881999,87.1750023 108.791,87.6579975 108.791,88.162 C108.791,88.6940027 108.881999,89.1979976 109.064,89.674 C109.246001,90.1500024 109.490998,90.5629982 109.799,90.913 C110.107002,91.2630018 110.463998,91.535999 110.87,91.732 C111.276002,91.928001 111.716998,92.026 112.193,92.026 Z M91.949,92.32 L103.751,78.334 L114.839,63.928 L117.023,65.818 L105.431,79.636 L94.091,94.252 L91.949,92.32 Z" id="50%" fill="#0C4B5D"></path>
        </g>
    </g>
</svg>