<?xml version="1.0" encoding="UTF-8"?>
<svg width="160px" height="160px" viewBox="0 0 160 160" version="1.1" xmlns="http://www.w3.org/2000/svg" xmlns:xlink="http://www.w3.org/1999/xlink">
    <!-- Generator: Sketch 49.3 (51167) - http://www.bohemiancoding.com/sketch -->
    <title>donut-25</title>
    <desc>Created with Sketch.</desc>
    <defs>
        <radialGradient cx="0%" cy="198.491211%" fx="0%" fy="198.491211%" r="96.1962891%" id="radialGradient-1">
            <stop stop-color="#FFDB18" offset="0%"></stop>
            <stop stop-color="#FFDB18" stop-opacity="0" offset="100%"></stop>
        </radialGradient>
        <radialGradient cx="0%" cy="0%" fx="0%" fy="0%" r="100%" id="radialGradient-2">
            <stop stop-color="#1EC4E9" offset="0%"></stop>
            <stop stop-color="#1EC4E9" stop-opacity="0" offset="100%"></stop>
        </radialGradient>
        <path d="M0,0 C44.18278,0 80,35.81722 80,80 L70,80 C70,41.3400675 38.6599325,10 0,10 L0,0 Z" id="path-3"></path>
    </defs>
    <g id="Page-1" stroke="none" stroke-width="1" fill="none" fill-rule="evenodd">
        <g id="donut-25">
            <circle id="Oval-Copy-4" stroke="#DBE8FB" stroke-width="10" cx="80" cy="80" r="75"></circle>
            <g id="Group-2" transform="translate(80.000000, 0.000000)">
                <g id="Combined-Shape-Copy">
                    <use fill="#9BD8A0" xlink:href="#path-3"></use>
                    <use fill="url(#radialGradient-1)" xlink:href="#path-3"></use>
                    <use fill="url(#radialGradient-2)" xlink:href="#path-3"></use>
                </g>
            </g>
            <path d="M42.662,94 C42.662,92.8239941 42.759999,91.732005 42.956,90.724 C43.152001,89.715995 43.5019975,88.7710044 44.006,87.889 C44.5100025,87.0069956 45.1959957,86.167004 46.064,85.369 C46.9320043,84.570996 48.0519931,83.7940038 49.424,83.038 C50.4040049,82.5059973 51.3279957,82.0160022 52.196,81.568 C53.0640043,81.1199978 53.8269967,80.6790022 54.485,80.245 C55.1430033,79.8109978 55.667998,79.3490024 56.06,78.859 C56.452002,78.3689976 56.648,77.8020032 56.648,77.158 C56.648,76.2619955 56.2630039,75.4570036 55.493,74.743 C54.7229961,74.0289964 53.6100073,73.672 52.154,73.672 C51.3979962,73.672 50.7050032,73.776999 50.075,73.987 C49.4449969,74.1970011 48.8710026,74.4629984 48.353,74.785 C47.8349974,75.1070016 47.380002,75.463998 46.988,75.856 C46.595998,76.248002 46.2460015,76.6259982 45.938,76.99 L42.998,73.588 C43.2780014,73.2799985 43.718997,72.8950023 44.321,72.433 C44.923003,71.9709977 45.6509957,71.5300021 46.505,71.11 C47.3590043,70.6899979 48.3319945,70.3330015 49.424,70.039 C50.5160055,69.7449985 51.7059936,69.598 52.994,69.598 C54.3380067,69.598 55.5489946,69.7729983 56.627,70.123 C57.7050054,70.4730017 58.6149963,70.9559969 59.357,71.572 C60.0990037,72.1880031 60.665998,72.9229957 61.058,73.777 C61.450002,74.6310043 61.646,75.5479951 61.646,76.528 C61.646,77.5640052 61.4360021,78.4879959 61.016,79.3 C60.5959979,80.1120041 60.0780031,80.8259969 59.462,81.442 C58.8459969,82.0580031 58.1740036,82.5829978 57.446,83.017 C56.7179964,83.4510022 56.0460031,83.8219985 55.43,84.13 C54.8419971,84.4100014 54.1770037,84.7389981 53.435,85.117 C52.6929963,85.4950019 51.9720035,85.9289975 51.272,86.419 C50.5719965,86.9090025 49.9420028,87.4339972 49.382,87.994 C48.8219972,88.5540028 48.4300011,89.1699966 48.206,89.842 L62.108,89.842 L62.108,94 L42.662,94 Z M76.01,80.686 C77.410007,80.686 78.704994,80.9239976 79.895,81.4 C81.0850059,81.8760024 82.1209956,82.5339958 83.003,83.374 C83.8850044,84.2140042 84.5709976,85.2219941 85.061,86.398 C85.5510024,87.5740059 85.796,88.861993 85.796,90.262 C85.796,91.7460074 85.5230027,93.1039938 84.977,94.336 C84.4309973,95.5680062 83.6750048,96.6249956 82.709,97.507 C81.7429952,98.3890044 80.6020066,99.0679976 79.286,99.544 C77.9699934,100.020002 76.5560076,100.258 75.044,100.258 C72.8879892,100.258 70.9560085,99.7750048 69.248,98.809 C67.5399915,97.8429952 66.2380045,96.5340083 65.342,94.882 L68.114,92.236 C68.8980039,93.4120059 69.9059938,94.3639964 71.138,95.092 C72.3700062,95.8200036 73.685993,96.184 75.086,96.184 C76.8220087,96.184 78.2499944,95.6520053 79.37,94.588 C80.4900056,93.5239947 81.05,92.1100088 81.05,90.346 C81.05,89.5059958 80.9030015,88.7430034 80.609,88.057 C80.3149985,87.3709966 79.9160025,86.7830025 79.412,86.293 C78.9079975,85.8029975 78.3130034,85.4180014 77.627,85.138 C76.9409966,84.8579986 76.1920041,84.718 75.38,84.718 C74.3159947,84.718 73.3220046,84.9489977 72.398,85.411 C71.4739954,85.8730023 70.7180029,86.5519955 70.13,87.448 L66.056,87.448 C66.0840001,87.3359994 66.1469995,87.0000028 66.245,86.44 C66.3430005,85.8799972 66.4759992,85.1800042 66.644,84.34 C66.8120008,83.4999958 66.993999,82.5620052 67.19,81.526 C67.386001,80.4899948 67.5959989,79.4400053 67.82,78.376 C68.3240025,75.8839875 68.8699971,73.0980154 69.458,70.018 L84.032,70.018 L84.032,74.26 L72.818,74.26 L71.306,82.408 C71.7820024,81.8759973 72.418996,81.4560015 73.217,81.148 C74.015004,80.8399985 74.9459947,80.686 76.01,80.686 Z M95.372,76.234 C94.4479954,76.234 93.5800041,76.0730016 92.768,75.751 C91.9559959,75.4289984 91.249003,74.9880028 90.647,74.428 C90.044997,73.8679972 89.5690017,73.2100038 89.219,72.454 C88.8689983,71.6979962 88.694,70.8860043 88.694,70.018 C88.694,69.1499957 88.8689983,68.3380038 89.219,67.582 C89.5690017,66.8259962 90.044997,66.1610029 90.647,65.587 C91.249003,65.0129971 91.9559959,64.5650016 92.768,64.243 C93.5800041,63.9209984 94.4479954,63.76 95.372,63.76 C96.2960046,63.76 97.1639959,63.9209984 97.976,64.243 C98.7880041,64.5650016 99.494997,65.0129971 100.097,65.587 C100.699003,66.1610029 101.174998,66.8259962 101.525,67.582 C101.875002,68.3380038 102.05,69.1499957 102.05,70.018 C102.05,70.8860043 101.875002,71.6979962 101.525,72.454 C101.174998,73.2100038 100.699003,73.8679972 100.097,74.428 C99.494997,74.9880028 98.7880041,75.4289984 97.976,75.751 C97.1639959,76.0730016 96.2960046,76.234 95.372,76.234 Z M95.372,73.84 C95.8480024,73.84 96.288998,73.735001 96.695,73.525 C97.101002,73.314999 97.4579985,73.0350017 97.766,72.685 C98.0740015,72.3349983 98.3189991,71.9290023 98.501,71.467 C98.6830009,71.0049977 98.774,70.5220025 98.774,70.018 C98.774,69.4859973 98.6830009,68.9820024 98.501,68.506 C98.3189991,68.0299976 98.0740015,67.6170017 97.766,67.267 C97.4579985,66.9169983 97.0940021,66.644001 96.674,66.448 C96.2539979,66.251999 95.8200022,66.154 95.372,66.154 C94.4199952,66.154 93.6150033,66.5389962 92.957,67.309 C92.2989967,68.0790038 91.97,68.9819948 91.97,70.018 C91.97,70.5500027 92.0609991,71.0469977 92.243,71.509 C92.4250009,71.9710023 92.6699985,72.3769982 92.978,72.727 C93.2860015,73.0770018 93.642998,73.349999 94.049,73.546 C94.455002,73.742001 94.8959976,73.84 95.372,73.84 Z M110.828,94.42 C109.903995,94.42 109.036004,94.2590016 108.224,93.937 C107.411996,93.6149984 106.705003,93.1670029 106.103,92.593 C105.500997,92.0189971 105.025002,91.3540038 104.675,90.598 C104.324998,89.8419962 104.15,89.0300043 104.15,88.162 C104.15,87.2939957 104.324998,86.4820038 104.675,85.726 C105.025002,84.9699962 105.500997,84.3120028 106.103,83.752 C106.705003,83.1919972 107.411996,82.7510016 108.224,82.429 C109.036004,82.1069984 109.903995,81.946 110.828,81.946 C111.752005,81.946 112.619996,82.1069984 113.432,82.429 C114.244004,82.7510016 114.950997,83.1919972 115.553,83.752 C116.155003,84.3120028 116.630998,84.9699962 116.981,85.726 C117.331002,86.4820038 117.506,87.2939957 117.506,88.162 C117.506,89.0300043 117.331002,89.8419962 116.981,90.598 C116.630998,91.3540038 116.155003,92.0189971 115.553,92.593 C114.950997,93.1670029 114.244004,93.6149984 113.432,93.937 C112.619996,94.2590016 111.752005,94.42 110.828,94.42 Z M110.828,92.026 C111.780005,92.026 112.584997,91.6480038 113.243,90.892 C113.901003,90.1359962 114.23,89.2260053 114.23,88.162 C114.23,87.6299973 114.139001,87.1330023 113.957,86.671 C113.774999,86.2089977 113.523002,85.8030018 113.201,85.453 C112.878998,85.1029983 112.515002,84.830001 112.109,84.634 C111.702998,84.437999 111.276002,84.34 110.828,84.34 C110.351998,84.34 109.911002,84.444999 109.505,84.655 C109.098998,84.8650011 108.742002,85.1449982 108.434,85.495 C108.125998,85.8450018 107.881001,86.2509977 107.699,86.713 C107.516999,87.1750023 107.426,87.6579975 107.426,88.162 C107.426,88.6940027 107.516999,89.1979976 107.699,89.674 C107.881001,90.1500024 108.125998,90.5629982 108.434,90.913 C108.742002,91.2630018 109.098998,91.535999 109.505,91.732 C109.911002,91.928001 110.351998,92.026 110.828,92.026 Z M90.584,92.32 L102.386,78.334 L113.474,63.928 L115.658,65.818 L104.066,79.636 L92.726,94.252 L90.584,92.32 Z" id="25%" fill="#0C4B5D"></path>
        </g>
    </g>
</svg>