<?xml version="1.0" encoding="UTF-8"?>
<svg width="160px" height="160px" viewBox="0 0 160 160" version="1.1" xmlns="http://www.w3.org/2000/svg" xmlns:xlink="http://www.w3.org/1999/xlink">
    <!-- Generator: Sketch 49.3 (51167) - http://www.bohemiancoding.com/sketch -->
    <title>donut-75</title>
    <desc>Created with Sketch.</desc>
    <defs>
        <radialGradient cx="50%" cy="100%" fx="50%" fy="100%" r="55.0439453%" id="radialGradient-1">
            <stop stop-color="#FFDB18" offset="0%"></stop>
            <stop stop-color="#FFDB18" stop-opacity="0" offset="100%"></stop>
        </radialGradient>
        <radialGradient cx="50%" cy="0%" fx="50%" fy="0%" r="54.0454102%" id="radialGradient-2">
            <stop stop-color="#1EC4E9" offset="0%"></stop>
            <stop stop-color="#1EC4E9" stop-opacity="0" offset="100%"></stop>
        </radialGradient>
        <path d="M0,80 L10,80 C10,118.659932 41.3400675,150 80,150 C118.659932,150 150,118.659932 150,80 C150,41.3400675 118.659932,10 80,10 L80,0 C124.18278,0 160,35.81722 160,80 C160,124.18278 124.18278,160 80,160 C35.81722,160 0,124.18278 0,80 Z" id="path-3"></path>
    </defs>
    <g id="Page-1" stroke="none" stroke-width="1" fill="none" fill-rule="evenodd">
        <g id="donut-75">
            <circle id="Oval-Copy-4" stroke="#DBE8FB" stroke-width="10" cx="80" cy="80" r="75"></circle>
            <g id="Group-2">
                <g id="Combined-Shape-Copy">
                    <use fill="#9BD8A0" xlink:href="#path-3"></use>
                    <use fill="url(#radialGradient-1)" xlink:href="#path-3"></use>
                    <use fill="url(#radialGradient-2)" xlink:href="#path-3"></use>
                </g>
            </g>
            <path d="M56.627,73.756 L42.179,73.756 L42.179,69.514 L63.935,69.514 L49.025,99.334 L43.775,99.334 L56.627,73.756 Z M75.989,80.686 C77.389007,80.686 78.683994,80.9239976 79.874,81.4 C81.064006,81.8760024 82.0999956,82.5339958 82.982,83.374 C83.8640044,84.2140042 84.5499976,85.2219941 85.04,86.398 C85.5300025,87.5740059 85.775,88.861993 85.775,90.262 C85.775,91.7460074 85.5020027,93.1039938 84.956,94.336 C84.4099973,95.5680062 83.6540048,96.6249956 82.688,97.507 C81.7219952,98.3890044 80.5810066,99.0679976 79.265,99.544 C77.9489934,100.020002 76.5350076,100.258 75.023,100.258 C72.8669892,100.258 70.9350085,99.7750048 69.227,98.809 C67.5189915,97.8429952 66.2170045,96.5340083 65.321,94.882 L68.093,92.236 C68.8770039,93.4120059 69.8849938,94.3639964 71.117,95.092 C72.3490062,95.8200036 73.664993,96.184 75.065,96.184 C76.8010087,96.184 78.2289944,95.6520053 79.349,94.588 C80.4690056,93.5239947 81.029,92.1100088 81.029,90.346 C81.029,89.5059958 80.8820015,88.7430034 80.588,88.057 C80.2939985,87.3709966 79.8950025,86.7830024 79.391,86.293 C78.8869975,85.8029976 78.2920034,85.4180014 77.606,85.138 C76.9199966,84.8579986 76.1710041,84.718 75.359,84.718 C74.2949947,84.718 73.3010046,84.9489977 72.377,85.411 C71.4529954,85.8730023 70.6970029,86.5519955 70.109,87.448 L66.035,87.448 C66.0630001,87.3359994 66.1259995,87.0000028 66.224,86.44 C66.3220005,85.8799972 66.4549992,85.1800042 66.623,84.34 C66.7910008,83.4999958 66.972999,82.5620052 67.169,81.526 C67.365001,80.4899948 67.5749989,79.4400053 67.799,78.376 C68.3030025,75.8839875 68.8489971,73.0980154 69.437,70.018 L84.011,70.018 L84.011,74.26 L72.797,74.26 L71.285,82.408 C71.7610024,81.8759973 72.397996,81.4560015 73.196,81.148 C73.994004,80.8399985 74.9249947,80.686 75.989,80.686 Z M95.351,76.234 C94.4269954,76.234 93.5590041,76.0730016 92.747,75.751 C91.9349959,75.4289984 91.228003,74.9880028 90.626,74.428 C90.023997,73.8679972 89.5480017,73.2100038 89.198,72.454 C88.8479983,71.6979962 88.673,70.8860043 88.673,70.018 C88.673,69.1499957 88.8479983,68.3380038 89.198,67.582 C89.5480017,66.8259962 90.023997,66.1610029 90.626,65.587 C91.228003,65.0129971 91.9349959,64.5650016 92.747,64.243 C93.5590041,63.9209984 94.4269954,63.76 95.351,63.76 C96.2750046,63.76 97.1429959,63.9209984 97.955,64.243 C98.7670041,64.5650016 99.473997,65.0129971 100.076,65.587 C100.678003,66.1610029 101.153998,66.8259962 101.504,67.582 C101.854002,68.3380038 102.029,69.1499957 102.029,70.018 C102.029,70.8860043 101.854002,71.6979962 101.504,72.454 C101.153998,73.2100038 100.678003,73.8679972 100.076,74.428 C99.473997,74.9880028 98.7670041,75.4289984 97.955,75.751 C97.1429959,76.0730016 96.2750046,76.234 95.351,76.234 Z M95.351,73.84 C95.8270024,73.84 96.267998,73.735001 96.674,73.525 C97.080002,73.3149989 97.4369985,73.0350017 97.745,72.685 C98.0530015,72.3349982 98.2979991,71.9290023 98.48,71.467 C98.6620009,71.0049977 98.753,70.5220025 98.753,70.018 C98.753,69.4859973 98.6620009,68.9820024 98.48,68.506 C98.2979991,68.0299976 98.0530015,67.6170018 97.745,67.267 C97.4369985,66.9169983 97.0730021,66.644001 96.653,66.448 C96.2329979,66.251999 95.7990022,66.154 95.351,66.154 C94.3989952,66.154 93.5940033,66.5389962 92.936,67.309 C92.2779967,68.0790038 91.949,68.9819948 91.949,70.018 C91.949,70.5500027 92.0399991,71.0469977 92.222,71.509 C92.4040009,71.9710023 92.6489985,72.3769982 92.957,72.727 C93.2650015,73.0770017 93.621998,73.349999 94.028,73.546 C94.434002,73.742001 94.8749976,73.84 95.351,73.84 Z M110.807,94.42 C109.882995,94.42 109.015004,94.2590016 108.203,93.937 C107.390996,93.6149984 106.684003,93.1670029 106.082,92.593 C105.479997,92.0189971 105.004002,91.3540038 104.654,90.598 C104.303998,89.8419962 104.129,89.0300043 104.129,88.162 C104.129,87.2939957 104.303998,86.4820038 104.654,85.726 C105.004002,84.9699962 105.479997,84.3120028 106.082,83.752 C106.684003,83.1919972 107.390996,82.7510016 108.203,82.429 C109.015004,82.1069984 109.882995,81.946 110.807,81.946 C111.731005,81.946 112.598996,82.1069984 113.411,82.429 C114.223004,82.7510016 114.929997,83.1919972 115.532,83.752 C116.134003,84.3120028 116.609998,84.9699962 116.96,85.726 C117.310002,86.4820038 117.485,87.2939957 117.485,88.162 C117.485,89.0300043 117.310002,89.8419962 116.96,90.598 C116.609998,91.3540038 116.134003,92.0189971 115.532,92.593 C114.929997,93.1670029 114.223004,93.6149984 113.411,93.937 C112.598996,94.2590016 111.731005,94.42 110.807,94.42 Z M110.807,92.026 C111.759005,92.026 112.563997,91.6480038 113.222,90.892 C113.880003,90.1359962 114.209,89.2260053 114.209,88.162 C114.209,87.6299973 114.118001,87.1330023 113.936,86.671 C113.753999,86.2089977 113.502002,85.8030017 113.18,85.453 C112.857998,85.1029982 112.494002,84.830001 112.088,84.634 C111.681998,84.437999 111.255002,84.34 110.807,84.34 C110.330998,84.34 109.890002,84.4449989 109.484,84.655 C109.077998,84.8650011 108.721002,85.1449983 108.413,85.495 C108.104998,85.8450017 107.860001,86.2509977 107.678,86.713 C107.495999,87.1750023 107.405,87.6579975 107.405,88.162 C107.405,88.6940027 107.495999,89.1979976 107.678,89.674 C107.860001,90.1500024 108.104998,90.5629982 108.413,90.913 C108.721002,91.2630018 109.077998,91.535999 109.484,91.732 C109.890002,91.928001 110.330998,92.026 110.807,92.026 Z M90.563,92.32 L102.365,78.334 L113.453,63.928 L115.637,65.818 L104.045,79.636 L92.705,94.252 L90.563,92.32 Z" id="75%" fill="#0C4B5D"></path>
        </g>
    </g>
</svg>