<?xml version="1.0" encoding="UTF-8"?>
<svg width="200px" height="60px" viewBox="0 0 200 60" version="1.1" xmlns="http://www.w3.org/2000/svg" xmlns:xlink="http://www.w3.org/1999/xlink">
    <!-- Generator: Sketch 50.2 (55047) - http://www.bohemiancoding.com/sketch -->
    <title>email-gmail</title>
    <desc>Created with Sketch.</desc>
    <defs>
        <path d="M0.00554083944,1.55154267 C0.00554083944,0.716474209 0.684828629,0.0395174656 1.53086603,0.0395174656 L25.415367,0.0395174656 C26.2577808,0.0395174656 26.9406922,0.724501214 26.9406922,1.55154267 L26.9406922,18.4269317 C26.9406922,19.2620002 26.2614044,19.9389569 25.415367,19.9389569 L1.53086603,19.9389569 C0.688452188,19.9389569 0.00554083944,19.2539732 0.00554083944,18.4269317 L0.00554083944,1.55154267 Z" id="path-1"></path>
        <filter x="-5.6%" y="-7.5%" width="111.1%" height="115.1%" filterUnits="objectBoundingBox" id="filter-3">
            <feOffset dx="0" dy="0" in="SourceAlpha" result="shadowOffsetOuter1"></feOffset>
            <feGaussianBlur stdDeviation="0.5" in="shadowOffsetOuter1" result="shadowBlurOuter1"></feGaussianBlur>
            <feColorMatrix values="0 0 0 0 0   0 0 0 0 0   0 0 0 0 0  0 0 0 0.196388134 0" type="matrix" in="shadowBlurOuter1"></feColorMatrix>
        </filter>
        <polygon id="path-4" points="26.9426875 1.51310526 23.6204394 19.9389569 3.32778893 19.9389569"></polygon>
        <filter x="-6.4%" y="-8.1%" width="112.7%" height="116.3%" filterUnits="objectBoundingBox" id="filter-5">
            <feOffset dx="0" dy="0" in="SourceAlpha" result="shadowOffsetOuter1"></feOffset>
            <feGaussianBlur stdDeviation="0.5" in="shadowOffsetOuter1" result="shadowBlurOuter1"></feGaussianBlur>
            <feColorMatrix values="0 0 0 0 0.874509804   0 0 0 0 0.874509804   0 0 0 0 0.874509804  0 0 0 1 0" type="matrix" in="shadowBlurOuter1"></feColorMatrix>
        </filter>
        <filter x="-8.5%" y="-10.9%" width="116.9%" height="121.7%" filterUnits="objectBoundingBox" id="filter-6">
            <feGaussianBlur stdDeviation="0.5" in="SourceAlpha" result="shadowBlurInner1"></feGaussianBlur>
            <feOffset dx="0" dy="1" in="shadowBlurInner1" result="shadowOffsetInner1"></feOffset>
            <feComposite in="shadowOffsetInner1" in2="SourceAlpha" operator="arithmetic" k2="-1" k3="1" result="shadowInnerInner1"></feComposite>
            <feColorMatrix values="0 0 0 0 1   0 0 0 0 1   0 0 0 0 1  0 0 0 0.5 0" type="matrix" in="shadowInnerInner1"></feColorMatrix>
        </filter>
        <linearGradient x1="2.07569695%" y1="71.3443041%" x2="100%" y2="71.3443032%" id="linearGradient-7">
            <stop stop-color="#4D4C4C" stop-opacity="0.3" offset="0%"></stop>
            <stop stop-color="#E7E7E7" stop-opacity="0.3" offset="100%"></stop>
        </linearGradient>
    </defs>
    <g id="Dashboard---Overview" stroke="none" stroke-width="1" fill="none" fill-rule="evenodd">
        <g id="3g---dashboard---overview---onboarding---create-new-application-7" transform="translate(-730.000000, -595.000000)">
            <g id="Group" transform="translate(480.000000, 455.000000)">
                <g id="email-gmail" transform="translate(250.000000, 140.000000)">
                    <g id="gmail" transform="translate(51.000000, 20.000000)">
                        <mask id="mask-2" fill="white">
                            <use xlink:href="#path-1"></use>
                        </mask>
                        <g id="Rectangle-7">
                            <use fill="black" fill-opacity="1" filter="url(#filter-3)" xlink:href="#path-1"></use>
                            <use fill="#E5E5E5" fill-rule="evenodd" xlink:href="#path-1"></use>
                        </g>
                        <g id="Rectangle-7" mask="url(#mask-2)">
                            <use fill="black" fill-opacity="1" filter="url(#filter-5)" xlink:href="#path-4"></use>
                            <use fill="#EFEFEF" fill-rule="evenodd" xlink:href="#path-4"></use>
                            <use fill="black" fill-opacity="1" filter="url(#filter-6)" xlink:href="#path-4"></use>
                        </g>
                        <rect id="Rectangle-7" fill="#D44739" mask="url(#mask-2)" x="0.00554083944" y="0.0395174656" width="3.32224809" height="19.8994395"></rect>
                        <path d="M14.2888919,0.882611315 L27.0065385,5.83444045 L27.0065385,19.9750432 L18.1392953,19.9750432 L0.136810899,2.52138622 C0.0605060574,2.44740762 0.0843754709,2.37840872 0.191189353,2.36716076 L14.2888919,0.882611315 Z" id="Rectangle-17" fill="url(#linearGradient-7)" mask="url(#mask-2)"></path>
                        <rect id="Rectangle-7" fill="#B53120" mask="url(#mask-2)" x="23.6204394" y="0.0395174656" width="3.32224809" height="19.8994395"></rect>
                        <path d="M1.62176964,0.0395174656 L25.1947189,0.0395174656 L23.5589147,4.87873563 C23.5589147,4.87873563 16.6912525,8.30127075 13.3821,8.30127075 C9.92703586,8.30127075 3.26626477,4.87873563 3.26626477,4.87873563 L1.62176964,0.0395174656 Z" id="Rectangle-7" fill="#EFEFEF" mask="url(#mask-2)"></path>
                        <path d="M13.5157575,12.0573683 L13.4972573,12.0826282 L13.4887688,12.076574 L13.4771032,12.0848755 L13.450923,12.0495816 L0.687292574,2.94628768 C-0.058484853,2.41438329 -0.222673532,1.39090366 0.319728186,0.659683777 L0.308286242,0.675108833 C0.850935183,-0.0564443399 1.89514843,-0.218523848 2.64115401,0.312349707 L13.4835587,8.02803727 L24.3112427,0.32282523 C25.0590859,-0.20935597 26.1056217,-0.0472135609 26.6490128,0.685340115 C27.1922845,1.41773276 27.0267112,2.44268404 26.2786034,2.97505361 L13.5157575,12.0573683 Z" id="Combined-Shape" fill="#DB4639" mask="url(#mask-2)"></path>
                    </g>
                    <path d="M104.264,31.104 C104.264,33.504012 103.552007,35.4159929 102.128,36.84 C100.527992,38.5360085 98.424013,39.384 95.816,39.384 C93.3199875,39.384 91.2080086,38.5200086 89.48,36.792 C87.7519914,35.0639914 86.888,32.9360126 86.888,30.408 C86.888,27.8799874 87.7519914,25.7520086 89.48,24.024 C91.2080086,22.2959914 93.3199875,21.432 95.816,21.432 C97.0800063,21.432 98.2719944,21.6559978 99.392,22.104 C100.512006,22.5520022 101.431996,23.1839959 102.152,24 L100.568,25.584 C100.039997,24.9439968 99.3560042,24.4440018 98.516,24.084 C97.6759958,23.7239982 96.7760048,23.544 95.816,23.544 C93.9439906,23.544 92.3600065,24.1919935 91.064,25.488 C89.7839936,26.8000066 89.144,28.4399902 89.144,30.408 C89.144,32.3760098 89.7839936,34.0159934 91.064,35.328 C92.3600065,36.6240065 93.9439906,37.272 95.816,37.272 C97.5280086,37.272 98.9519943,36.7920048 100.088,35.832 C101.224006,34.8719952 101.879999,33.5520084 102.056,31.872 L95.816,31.872 L95.816,29.808 L104.144,29.808 C104.224,30.2560022 104.264,30.6879979 104.264,31.104 Z M108.776,39 L106.568,39 L106.568,27.24 L108.68,27.24 L108.68,28.872 L108.776,28.872 C109.112002,28.2959971 109.627997,27.8160019 110.324,27.432 C111.020003,27.0479981 111.711997,26.856 112.4,26.856 C113.264004,26.856 114.023997,27.055998 114.68,27.456 C115.336003,27.856002 115.815998,28.4079965 116.12,29.112 C117.096005,27.6079925 118.447991,26.856 120.176,26.856 C121.536007,26.856 122.583996,27.2719958 123.32,28.104 C124.056004,28.9360042 124.424,30.1199923 124.424,31.656 L124.424,39 L122.216,39 L122.216,31.992 C122.216,30.8879945 122.016002,30.0920024 121.616,29.604 C121.215998,29.1159976 120.544005,28.872 119.6,28.872 C118.751996,28.872 118.040003,29.2319964 117.464,29.952 C116.887997,30.6720036 116.6,31.5199951 116.6,32.496 L116.6,39 L114.392,39 L114.392,31.992 C114.392,30.8879945 114.192002,30.0920024 113.792,29.604 C113.391998,29.1159976 112.720005,28.872 111.776,28.872 C110.927996,28.872 110.216003,29.2319964 109.64,29.952 C109.063997,30.6720036 108.776,31.5199951 108.776,32.496 L108.776,39 Z M128.624,35.4 C128.624,35.9760029 128.867998,36.4559981 129.356,36.84 C129.844002,37.2240019 130.415997,37.416 131.072,37.416 C132.000005,37.416 132.827996,37.0720034 133.556,36.384 C134.284004,35.6959966 134.648,34.8880046 134.648,33.96 C133.959997,33.4159973 133.000006,33.144 131.768,33.144 C130.871996,33.144 130.124003,33.3599978 129.524,33.792 C128.923997,34.2240022 128.624,34.7599968 128.624,35.4 Z M131.48,26.856 C133.112008,26.856 134.399995,27.2919956 135.344,28.164 C136.288005,29.0360044 136.76,30.2319924 136.76,31.752 L136.76,39 L134.648,39 L134.648,37.368 L134.552,37.368 C133.639995,38.7120067 132.424008,39.384 130.904,39.384 C129.607994,39.384 128.524004,39.0000038 127.652,38.232 C126.779996,37.4639962 126.344,36.5040058 126.344,35.352 C126.344,34.1359939 126.803995,33.1680036 127.724,32.448 C128.644005,31.7279964 129.871992,31.368 131.408,31.368 C132.720007,31.368 133.799996,31.6079976 134.648,32.088 L134.648,31.584 C134.648,30.8159962 134.344003,30.1640027 133.736,29.628 C133.127997,29.0919973 132.416004,28.824 131.6,28.824 C130.367994,28.824 129.392004,29.3439948 128.672,30.384 L126.728,29.16 C127.800005,27.6239923 129.38399,26.856 131.48,26.856 Z M142.112,23.184 C142.112,23.6160022 141.960002,23.9839985 141.656,24.288 C141.351998,24.5920015 140.984002,24.744 140.552,24.744 C140.119998,24.744 139.752002,24.5920015 139.448,24.288 C139.143998,23.9839985 138.992,23.6160022 138.992,23.184 C138.992,22.7519978 139.143998,22.3840015 139.448,22.08 C139.752002,21.7759985 140.119998,21.624 140.552,21.624 C140.984002,21.624 141.351998,21.7759985 141.656,22.08 C141.960002,22.3840015 142.112,22.7519978 142.112,23.184 Z M141.656,27.24 L141.656,39 L139.448,39 L139.448,27.24 L141.656,27.24 Z M146.744,21.816 L146.744,39 L144.536,39 L144.536,21.816 L146.744,21.816 Z" id="Gmail" fill="#38535E"></path>
                    <rect id="Rectangle-Copy" stroke="#EDF3FD" stroke-width="2" x="1" y="1" width="198" height="58" rx="4"></rect>
                </g>
            </g>
        </g>
    </g>
</svg>