<?xml version="1.0" encoding="UTF-8"?>
<svg width="200px" height="60px" viewBox="0 0 200 60" version="1.1" xmlns="http://www.w3.org/2000/svg" xmlns:xlink="http://www.w3.org/1999/xlink">
    <!-- Generator: Sketch 50.2 (55047) - http://www.bohemiancoding.com/sketch -->
    <title>email-yahoo</title>
    <desc>Created with Sketch.</desc>
    <defs></defs>
    <g id="Dashboard---Overview" stroke="none" stroke-width="1" fill="none" fill-rule="evenodd">
        <g id="3g---dashboard---overview---onboarding---create-new-application-7" transform="translate(-730.000000, -675.000000)">
            <g id="Group" transform="translate(480.000000, 455.000000)">
                <g id="email-yahoo" transform="translate(250.000000, 220.000000)">
                    <rect id="Rectangle-Copy-3" stroke="#EDF3FD" stroke-width="2" x="1" y="1" width="198" height="58" rx="4"></rect>
                    <path d="M139.947437,35.7226183 L139.949144,35.7255189 C139.658196,35.6078664 139.359428,35.5066202 138.973507,35.5722615 L138.967531,35.5737196 C138.966755,35.5734252 138.965916,35.573572 138.965077,35.5737196 L138.967895,35.5711421 C139.607856,31.0380572 139.99729,26.2745498 140.370862,21.5247016 C140.370862,20.5773841 140.995667,20.2074508 141.625678,20.2074508 C141.736011,20.2074508 141.899154,20.2303077 141.899154,20.2303077 L141.899028,20.2311442 L141.89965,20.2303077 C142.559166,20.3406169 143,20.7450839 143,21.4419697 C143,21.6722774 142.905536,21.9967454 142.842063,22.2712761 C142.40005,24.2232805 140.674567,31.118703 139.947437,35.7226183 Z M137.648996,38.7893318 C137.648996,38.1110794 138.061069,37.4795344 138.886704,37.4795344 C139.676883,37.4795344 140.268216,37.9530689 140.268216,38.7098297 C140.268216,39.6524267 139.646139,40 139.075633,40 C138.286693,40 137.648996,39.5898188 137.648996,38.7893318 Z M117.578886,29.9633545 C117.578886,24.0965951 121.818135,20.9411063 127.363771,20.9411063 C133.60537,20.9411063 137.220806,24.6429237 137.220806,30.0485708 C137.220806,35.7814189 133.345283,39.0511919 127.409887,39.0511919 C120.398688,39.0511919 117.578886,34.7968348 117.578886,29.9633545 Z M120.200833,29.9288208 C120.200833,35.8894921 123.62139,38.0979118 127.376912,38.0979118 C130.891685,38.0979118 134.602578,36.1267562 134.602578,30.0485708 C134.602578,24.4575844 131.534837,21.922709 127.369969,21.922709 C123.992554,21.922709 120.200833,23.7505124 120.200833,29.9288208 Z M99.6482357,30.0160246 C99.6482357,25.4294978 102.569941,21.8914051 108.138883,21.8914051 C113.309884,21.8914051 116.647382,24.9634166 116.647382,30.0686948 C116.647382,34.6472715 113.852621,38.0979118 108.130701,38.0979118 C102.837714,38.0979118 99.6482357,35.0360865 99.6482357,30.0160246 Z M102.262001,30.0421113 C102.262001,34.5382045 104.443115,37.2037614 108.154751,37.2037614 C111.557456,37.2037614 114.054939,34.8798152 114.054939,30.0289437 C114.054939,25.1723581 111.553985,22.8484118 108.148553,22.8484118 C108.099709,22.8484118 108.050865,22.8469212 108.002517,22.8484118 C104.949653,22.9110197 102.262001,24.9574539 102.262001,30.0421113 Z M96.2750016,37.8835941 L96.2658614,37.8867343 C96.3952976,35.4367519 96.4632231,32.9888633 96.4715062,30.5429938 C93.5364193,30.5032743 90.6013323,30.5052713 87.6662454,30.5465025 L87.6644526,30.5455562 C87.6728068,32.990573 87.7407837,35.4376074 87.8701746,37.8867343 L87.8634942,37.8848526 L87.8669266,37.886784 C86.9706297,37.6718799 86.0976389,37.6810723 85.245227,37.886784 L85.2455338,37.8866118 L85.245227,37.886784 C85.4540148,32.6344042 85.4738507,27.3746209 85.245227,22.1043217 C86.1357743,22.3180423 87.0101799,22.3123426 87.8699596,22.1044422 L87.8701746,22.1043217 C87.7428795,24.5576928 87.6737535,27.0130159 87.6646169,29.4703669 L87.6661214,29.469696 C90.5977159,29.5439801 93.5332773,29.5385152 96.471318,29.469698 C96.4621466,27.0125703 96.3930292,24.5574702 96.2658614,22.1043217 L96.2660948,22.1044527 C97.1257951,22.3123269 98.0001186,22.3180378 98.8905524,22.1044518 L98.8907842,22.1043217 C98.6621851,27.3745668 98.6820202,32.6343772 98.8907842,37.886784 L98.8906073,37.8866847 L98.8907842,37.886784 C98.0383724,37.6810723 97.1653816,37.6718799 96.2693326,37.886784 L96.2750016,37.8835941 Z M73.3980634,33.2555283 C72.7620181,34.8669577 72.126064,36.4689837 71.5677354,37.8830077 L71.5643237,37.8817968 C71.5656495,37.8824507 71.5669768,37.8831027 71.5683056,37.883753 C70.9347136,37.7121156 69.975225,37.6350941 68.9705701,37.8865696 L68.9905758,37.8797655 L68.9699122,37.8887219 L68.9699122,37.8867343 C71.1603907,33.4127084 73.5961264,27.413056 75.7100406,22.0973653 L75.7203918,22.0983093 L75.7102389,22.0983093 C76.3524724,22.3139821 76.8850982,22.3273471 77.5387197,22.0990253 L77.5405691,22.0988559 C79.5531072,27.2024378 82.7197514,34.9263702 84.29875,37.8814218 L84.3018714,37.8838524 L84.2997649,37.8833207 L84.2969435,37.8826103 C83.5922911,37.7054016 82.6399401,37.6379799 81.683147,37.8883244 C81.0848479,36.3438685 80.471016,34.7993595 79.8591445,33.257253 L79.8586186,33.2575744 C77.7060183,33.1877616 75.5539138,33.1959603 73.4013135,33.2575744 L73.3980634,33.2555283 Z M73.8316385,32.155423 L73.8328997,32.1548801 C75.6944205,32.2212146 77.5561892,32.2199724 79.41771,32.1548801 L79.4230707,32.1572205 C78.4506715,29.700795 77.4938459,27.2520203 76.6235747,24.8212491 C76.0522741,26.4680715 74.9704634,29.2610032 73.8316385,32.155423 Z M63.7723072,31.468429 C62.5995822,29.43719 59.1518652,23.2491482 57,20 L57.0002283,20.0002577 L57.0001839,20.0002256 C58.0841345,20.24709 58.5386305,20.232173 59.6249191,20.0001756 L59.6250432,20 C60.9951503,22.4332617 63.0984109,25.8371946 64.8751368,28.7854809 C66.6265729,25.8998025 69.378936,21.3927777 70.1249824,20 L70.1252355,20.0001581 C70.9719023,20.2222325 71.8245235,20.2150175 72.7703601,20.0001242 L72.7696043,20.0009224 L72.7709799,20 C71.7792267,21.3430889 68.1660219,27.6205265 65.9774705,31.468429 L66.1351592,39.9383859 C66.13506,39.9383859 65.4378575,39.8111825 64.877269,39.8111825 C64.3717228,39.8111825 63.6150151,39.9383859 63.6150151,39.9383859 L63.7723072,31.468429 Z" fill="#6759B7"></path>
                </g>
            </g>
        </g>
    </g>
</svg>