<?xml version="1.0" encoding="UTF-8"?>
<svg width="200px" height="60px" viewBox="0 0 200 60" version="1.1" xmlns="http://www.w3.org/2000/svg" xmlns:xlink="http://www.w3.org/1999/xlink">
    <!-- Generator: Sketch 50.2 (55047) - http://www.bohemiancoding.com/sketch -->
    <title>email-icloud</title>
    <desc>Created with Sketch.</desc>
    <defs>
        <linearGradient x1="50%" y1="2.42277818%" x2="50%" y2="100%" id="linearGradient-1">
            <stop stop-color="#1EA0E9" offset="0%"></stop>
            <stop stop-color="#3ECFF0" offset="100%"></stop>
        </linearGradient>
    </defs>
    <g id="Dashboard---Overview" stroke="none" stroke-width="1" fill="none" fill-rule="evenodd">
        <g id="3g---dashboard---overview---onboarding---create-new-application-7" transform="translate(-510.000000, -595.000000)">
            <g id="Group" transform="translate(480.000000, 455.000000)">
                <g id="email-icloud" transform="translate(30.000000, 140.000000)">
                    <path d="M91.3359375,38 L91.3359375,25.671875 L93.8671875,25.671875 L93.8671875,38 L91.3359375,38 Z M92.6015625,23.8671875 C91.7929688,23.8671875 91.1367188,23.2226562 91.1367188,22.4257812 C91.1367188,21.6171875 91.7929688,20.9726562 92.6015625,20.9726562 C93.421875,20.9726562 94.078125,21.6171875 94.078125,22.4257812 C94.078125,23.2226562 93.421875,23.8671875 92.6015625,23.8671875 Z M103.898438,38.28125 C99.1523438,38.28125 96.1523438,34.9296875 96.1523438,29.5390625 C96.1523438,24.1835938 99.1757812,20.8085938 103.898438,20.8085938 C107.730469,20.8085938 110.625,23.1640625 111.070312,26.6914062 L108.46875,26.6914062 C108,24.5234375 106.195312,23.1054688 103.898438,23.1054688 C100.828125,23.1054688 98.8359375,25.625 98.8359375,29.5390625 C98.8359375,33.4882812 100.804688,35.984375 103.910156,35.984375 C106.265625,35.984375 107.941406,34.7773438 108.46875,32.7382812 L111.082031,32.7382812 C110.4375,36.2304688 107.789062,38.28125 103.898438,38.28125 Z M113.238281,38 L113.238281,21.0898438 L115.769531,21.0898438 L115.769531,38 L113.238281,38 Z M123.667969,38.234375 C120.140625,38.234375 117.820312,35.8085938 117.820312,31.8359375 C117.820312,27.875 120.152344,25.4492188 123.667969,25.4492188 C127.183594,25.4492188 129.515625,27.875 129.515625,31.8359375 C129.515625,35.8085938 127.195312,38.234375 123.667969,38.234375 Z M123.667969,36.1484375 C125.660156,36.1484375 126.9375,34.578125 126.9375,31.8359375 C126.9375,29.1054688 125.648438,27.5351562 123.667969,27.5351562 C121.6875,27.5351562 120.398438,29.1054688 120.398438,31.8359375 C120.398438,34.578125 121.6875,36.1484375 123.667969,36.1484375 Z M142.042969,25.671875 L142.042969,38 L139.617188,38 L139.617188,35.9140625 L139.558594,35.9140625 C138.878906,37.390625 137.625,38.2226562 135.738281,38.2226562 C133.054688,38.2226562 131.414062,36.4765625 131.414062,33.6523438 L131.414062,25.671875 L133.945312,25.671875 L133.945312,33.1601562 C133.945312,35.0351562 134.835938,36.0429688 136.582031,36.0429688 C138.410156,36.0429688 139.511719,34.7773438 139.511719,32.8554688 L139.511719,25.671875 L142.042969,25.671875 Z M149.167969,38.2109375 C146.050781,38.2109375 143.988281,35.7265625 143.988281,31.8359375 C143.988281,27.9453125 146.050781,25.4726562 149.144531,25.4726562 C150.914062,25.4726562 152.320312,26.3632812 153.011719,27.7226562 L153.058594,27.7226562 L153.058594,21.0898438 L155.601562,21.0898438 L155.601562,38 L153.140625,38 L153.140625,35.9023438 L153.09375,35.9023438 C152.367188,37.3085938 150.960938,38.2109375 149.167969,38.2109375 Z M149.835938,27.6054688 C147.832031,27.6054688 146.578125,29.2460938 146.578125,31.8359375 C146.578125,34.4375 147.832031,36.0664062 149.835938,36.0664062 C151.78125,36.0664062 153.082031,34.4140625 153.082031,31.8359375 C153.082031,29.28125 151.78125,27.6054688 149.835938,27.6054688 Z" id="iCloud" fill="#38535E"></path>
                    <path d="M74.7435952,27.9769745 C74.4872886,22.9194954 70.3846645,19 65.2564703,19 C61.6668031,19 58.3333279,21.023082 56.7948009,24.057705 C56.0255374,23.5518215 55.1281778,23.2989363 54.2307038,23.2989363 C51.6666067,23.2989363 49.6153519,25.3217923 49.4871413,27.8505319 C46.7948336,28.8619599 45,31.3906994 45,34.1723242 C45,37.965377 48.0769394,41 51.9231424,41 L73.2051828,41 C76.922946,41 80,37.965603 80,34.2987668 C79.7436934,31.3905864 77.6924386,28.7356302 74.7435952,27.9769745 Z" id="Path" fill="url(#linearGradient-1)"></path>
                    <rect id="Rectangle" stroke="#EDF3FD" stroke-width="2" x="1" y="1" width="198" height="58" rx="4"></rect>
                </g>
            </g>
        </g>
    </g>
</svg>