<?xml version="1.0" encoding="UTF-8"?>
<svg width="200px" height="60px" viewBox="0 0 200 60" version="1.1" xmlns="http://www.w3.org/2000/svg" xmlns:xlink="http://www.w3.org/1999/xlink">
    <!-- Generator: Sketch 50.2 (55047) - http://www.bohemiancoding.com/sketch -->
    <title>email-outlook</title>
    <desc>Created with Sketch.</desc>
    <defs></defs>
    <g id="Dashboard---Overview" stroke="none" stroke-width="1" fill="none" fill-rule="evenodd">
        <g id="3g---dashboard---overview---onboarding---create-new-application-7" transform="translate(-510.000000, -675.000000)">
            <g id="Group" transform="translate(480.000000, 455.000000)">
                <g id="email-outlook" transform="translate(30.000000, 220.000000)">
                    <path d="M58.0365416,21.7882114 L58.0365416,27.3028797 L59.9685945,28.5163611 C60.0195498,28.5311854 60.1299526,28.5322449 60.1809079,28.5163611 L68.4961651,22.9243941 C68.4961651,22.2625914 67.877271,21.7882114 67.5280163,21.7882114 L58.0365416,21.7882114 Z" id="path3" fill="#0072C6" fill-rule="nonzero"></path>
                    <path d="M58.0365416,29.3602916 L59.7998051,30.5684784 C60.048212,30.7506065 60.3475741,30.5684784 60.3475741,30.5684784 C60.0492736,30.7506065 68.4972273,25.1533451 68.4972273,25.1533451 L68.4972273,35.2889838 C68.4972273,36.3923411 67.7891618,36.8550732 66.9929863,36.8550732 L58.03548,36.8550732 L58.03548,29.3602916 L58.0365416,29.3602916 Z" id="path5" fill="#0072C6" fill-rule="nonzero"></path>
                    <path d="M48.9070617,26.817911 C48.3062145,26.817911 47.8274476,27.0995741 47.4739457,27.6618416 C47.1204437,28.2241091 46.9431619,28.9685046 46.9431619,29.8950282 C46.9431619,30.8353173 47.1204437,31.5786539 47.4739457,32.1250381 C47.8274476,32.6724812 48.2913526,32.9446144 48.864599,32.9446144 C49.4558921,32.9446144 49.9251049,32.6788345 50.2711759,32.1472747 C50.6172469,31.6157149 50.7913439,30.8776726 50.7913439,29.9342069 C50.7913439,28.9505036 50.6236163,28.1849304 50.2870994,27.6374873 C49.9505825,27.0911031 49.4909238,26.817911 48.9070617,26.817911 Z" id="path25" fill="#0072C6" fill-rule="nonzero"></path>
                    <path d="M40.5419103,18.987463 L40.5419103,40.5622267 L56.9962056,44.0036001 L56.9962056,15.8108107 L40.5419103,18.987463 Z M51.5524878,33.4221712 C50.8571611,34.3349293 49.9505825,34.7923672 48.8316904,34.7923672 C47.7414607,34.7923672 46.8539903,34.3497536 46.1671561,33.4655854 C45.4813836,32.5803583 45.1374357,31.4282924 45.1374357,30.0072699 C45.1374357,28.5068311 45.4856298,27.2933499 46.1830797,26.3668263 C46.8805295,25.4403028 47.8040931,24.9765115 48.9537707,24.9765115 C50.0397542,24.9765115 50.918732,25.4191251 51.5885811,26.30647 C52.2594917,27.1938148 52.594947,28.3628229 52.594947,29.814553 C52.5960086,31.3065207 52.2478144,32.5094131 51.5524878,33.4221712 Z" id="path27" fill="#0072C6" fill-rule="nonzero"></path>
                    <path d="M85.9013766,39.5665928 C83.3263471,39.5665928 81.2644709,38.7231686 79.7148218,37.0363202 C78.1651727,35.3494717 77.3908113,33.1552797 77.3908113,30.4528233 C77.3908113,27.5496393 78.179993,25.232985 79.7592827,23.5037813 C81.3376462,21.7754982 83.4865917,20.9108963 86.2051931,20.9108963 C88.712605,20.9108963 90.732799,21.7506375 92.264849,23.4282782 C93.796899,25.1068397 94.5629239,27.3019525 94.5629239,30.0117751 C94.5629239,32.9573144 93.7774473,35.2859387 92.2074203,36.9976479 C90.6373933,38.7093571 88.5347612,39.5665928 85.9013766,39.5665928 Z M86.0532849,22.8242539 C84.1451694,22.8242539 82.5964466,23.5083851 81.4052639,24.8766475 C80.2150074,26.2449099 79.619416,28.0413299 79.619416,30.2649865 C79.619416,32.4895639 80.1992608,34.2786176 81.3608029,35.6349101 C82.5214188,36.9902817 84.0349433,37.6670468 85.9004504,37.6670468 C87.8928563,37.6670468 89.4628834,37.0215879 90.6114577,35.7288285 C91.7591058,34.4379106 92.333393,32.6286 92.333393,30.3036588 C92.333393,27.9207091 91.7757786,26.0782508 90.6614763,24.7772045 C89.5481002,23.4743167 88.0114189,22.8242539 86.0532849,22.8242539 Z" id="path9" fill="#0072C6" fill-rule="nonzero"></path>
                    <path d="M107.692796,39.2645806 L105.616099,39.2645806 L105.616099,37.2250778 L105.565155,37.2250778 C104.703724,38.7857809 103.369896,39.5665928 101.56367,39.5665928 C98.4736343,39.5665928 96.9286166,37.737946 96.9286166,34.07789 L96.9286166,26.3738176 L98.9932716,26.3738176 L98.9932716,33.7500963 C98.9932716,36.4691266 100.039956,37.8291021 102.134252,37.8291021 C103.147591,37.8291021 103.981234,37.458953 104.63518,36.7158926 C105.289126,35.9728322 105.617026,35.0023419 105.617026,33.8007386 L105.617026,26.3738176 L107.693722,26.3738176 L107.693722,39.2645806 L107.692796,39.2645806 Z" id="path11" fill="#0072C6" fill-rule="nonzero"></path>
                    <path d="M117.251899,39.1384353 C116.761902,39.4082206 116.116292,39.541732 115.314142,39.541732 C113.042929,39.541732 111.907323,38.2830411 111.907323,35.7647385 L111.907323,28.136169 L109.678718,28.136169 L109.678718,26.3738176 L111.907323,26.3738176 L111.907323,23.2266299 L113.984019,22.5590725 L113.984019,26.3738176 L117.250972,26.3738176 L117.250972,28.136169 L113.984019,28.136169 L113.984019,35.3991933 C113.984019,36.2637951 114.131296,36.8807102 114.427702,37.2499385 C114.723182,37.6200876 115.213179,37.8042413 115.896766,37.8042413 C116.420108,37.8042413 116.872128,37.6624429 117.251899,37.3760838 L117.251899,39.1384353 Z" id="path13" fill="#0072C6" fill-rule="nonzero"></path>
                    <polygon id="path31" fill="#0072C6" fill-rule="nonzero" points="122.062017 39.2645806 119.98532 39.2645806 119.98532 20.1798059 122.062017 20.1798059 122.062017 39.2645806"></polygon>
                    <path d="M131.037569,39.5665928 C129.121118,39.5665928 127.59092,38.96441 126.446977,37.7600444 C125.303034,36.5556789 124.730599,34.9590658 124.730599,32.9702052 C124.730599,30.804557 125.326191,29.1140255 126.516447,27.8967692 C127.706704,26.6804336 129.314708,26.0718054 131.34046,26.0718054 C133.274511,26.0718054 134.783404,26.6638597 135.868992,27.8470476 C136.952727,29.0302355 137.495521,30.6710455 137.495521,32.7694776 C137.495521,34.8255543 136.911045,36.4718889 135.742093,37.7103229 C134.572214,38.9478362 133.004966,39.5665928 131.037569,39.5665928 Z M131.189478,27.8083754 C129.855649,27.8083754 128.800628,28.2595521 128.024414,29.1619055 C127.247274,30.0642589 126.859167,31.3082175 126.859167,32.8947021 C126.859167,34.4222576 127.251905,35.6266231 128.036456,36.5077989 C128.821006,37.3889746 129.872322,37.8300229 131.189478,37.8300229 C132.531642,37.8300229 133.564433,37.3981823 134.286923,36.5335804 C135.008487,35.6698993 135.368806,34.4406729 135.368806,32.8449806 C135.368806,31.2336352 135.008487,29.9915182 134.286923,29.1186293 C133.564433,28.2448198 132.531642,27.8083754 131.189478,27.8083754 Z" id="path33" fill="#0072C6" fill-rule="nonzero"></path>
                    <path d="M145.586486,39.5665928 C143.670035,39.5665928 142.139837,38.96441 140.995894,37.7600444 C139.851951,36.5556789 139.279517,34.9590658 139.279517,32.9702052 C139.279517,30.804557 139.875108,29.1140255 141.065364,27.8967692 C142.255621,26.6804336 143.863625,26.0718054 145.890303,26.0718054 C147.823428,26.0718054 149.333247,26.6638597 150.417909,27.8470476 C151.502571,29.0302355 152.045365,30.6710455 152.045365,32.7694776 C152.045365,34.8255543 151.460888,36.4718889 150.29101,37.7103229 C149.121131,38.9487569 147.552957,39.5665928 145.586486,39.5665928 Z M145.738395,27.8083754 C144.404566,27.8083754 143.348619,28.2595521 142.572405,29.1619055 C141.795265,30.0642589 141.407158,31.3082175 141.407158,32.8947021 C141.407158,34.4222576 141.799896,35.6266231 142.584447,36.5077989 C143.368997,37.3889746 144.420313,37.8300229 145.737468,37.8300229 C147.079633,37.8300229 148.111497,37.3981823 148.833988,36.5335804 C149.555552,35.6698993 149.916797,34.4406729 149.916797,32.8449806 C149.916797,31.2336352 149.555552,29.9915182 148.833988,29.1186293 C148.112424,28.2448198 147.080559,27.8083754 145.738395,27.8083754 Z" id="path35" fill="#0072C6" fill-rule="nonzero"></path>
                    <polygon id="path37" fill="#0072C6" fill-rule="nonzero" points="165.478127 39.2645806 162.565009 39.2645806 156.840662 33.070569 156.789718 33.070569 156.789718 39.2645806 154.713021 39.2645806 154.713021 20.1798059 156.789718 20.1798059 156.789718 32.2777871 156.840662 32.2777871 162.286202 26.3738176 165.008508 26.3738176 158.993313 32.59269 165.478127 39.2645806"></polygon>
                    <rect id="Rectangle-Copy-2" stroke="#EDF3FD" stroke-width="2" x="1" y="1" width="198" height="58" rx="4"></rect>
                </g>
            </g>
        </g>
    </g>
</svg>