<?xml version="1.0" encoding="UTF-8"?>
<svg width="345px" height="512px" viewBox="0 0 345 512" version="1.1" xmlns="http://www.w3.org/2000/svg" xmlns:xlink="http://www.w3.org/1999/xlink">
    <!-- Generator: Sketch 52.6 (67491) - http://www.bohemiancoding.com/sketch -->
    <title>flames</title>
    <desc>Created with Sketch.</desc>
    <g id="Page-1" stroke="none" stroke-width="1" fill="none" fill-rule="evenodd">
        <g id="flames" transform="translate(0.000000, -1.000000)">
            <path d="M0.880636325,357.709017 C6.30879133,445.051305 80.244,513 168,513 C255.756,513 334.738501,442.062823 343.280133,353.95142 C351.821765,265.840018 315.916242,151.416419 285.963705,76.1616609 C261.942506,130.294143 257.874633,145.082803 226.637694,164.166631 C213.070298,90.3297667 190.091774,107.827936 187.227,0.999 C187.227,0.999 113.517693,36.3847935 103.751835,151.068 C99.1564435,205.032976 93.35215,203.117197 93.35215,203.117197 C93.35215,164.166631 72.5401515,143.850715 46.7763514,120.731484 C38.3812797,213.62177 -5.55039206,254.229892 0.880636325,357.709017 Z" id="Path" fill="#F46464"></path>
            <path d="M291.593786,375.061068 C291.593786,441.154068 231.663,514.25 165.582,512.975 C103.394,511.777 47.9696207,439.601408 54.2031519,378.061012 C60.3708058,317.170989 83.4467427,302.65292 77.5190122,254.269578 C95.1961555,259.690582 108.004094,265.626129 115.942828,272.076221 C125.152518,279.558944 133.922909,288.510203 142.254,298.93 C142.254,241.106563 168,168.724 168,168.724 C182.629996,219.586194 200.793652,226.043962 218.680343,259.727091 C232.020358,250.474252 241.973758,238.154643 253.883226,218.210841 C272.314377,247.571432 291.593786,311.957366 291.593786,375.061068 Z" id="Path" fill="#FFAF48"></path>
            <path d="M123.862,336.448 C120.577138,364.179732 85.1406377,384.793298 89.3113355,433.674525 C93.4820333,482.555753 128.962949,508.005668 168.246949,508.005668 C207.530949,508.005668 242.839953,472.552673 246.719099,433.674525 C254.629354,354.395188 201.575624,293.317556 201.575624,293.317556 C197.605163,336.448 160.98889,349.766291 157.478433,372.025046 C150.040808,353.545535 133.929522,339.638379 123.862,336.448 Z" id="Path" fill="#FFD978"></path>
        </g>
    </g>
</svg>