<?xml version="1.0" encoding="UTF-8"?>
<svg width="48px" height="72px" viewBox="0 0 48 72" version="1.1" xmlns="http://www.w3.org/2000/svg" xmlns:xlink="http://www.w3.org/1999/xlink">
    <!-- Generator: Sketch 50 (54983) - http://www.bohemiancoding.com/sketch -->
    <title>help-tooltip-top-checked</title>
    <desc>Created with Sketch.</desc>
    <defs>
        <path d="M44.0002183,20.0000243 L44.0000225,52.2918757 C44.0000087,54.5644893 42.7160028,56.6420464 40.6833181,57.6583955 L24.0001213,66.0000485 L7.3167304,57.6583996 C5.28401965,56.6420499 4,54.5644676 4,52.2918305 L4,20.0000243 C4,17.7908853 5.790861,16.0000243 8,16.0000243 L40.0002425,16 C42.2093815,16 44.0002425,17.790861 44.0002425,20 L44.0002425,20.0000243 L44.0002183,20.0000243 Z" id="path-1"></path>
        <filter x="-17.5%" y="-10.0%" width="135.0%" height="128.0%" filterUnits="objectBoundingBox" id="filter-2">
            <feOffset dx="0" dy="2" in="SourceAlpha" result="shadowOffsetOuter1"></feOffset>
            <feGaussianBlur stdDeviation="2" in="shadowOffsetOuter1" result="shadowBlurOuter1"></feGaussianBlur>
            <feColorMatrix values="0 0 0 0 0.258823529   0 0 0 0 0.462745098   0 0 0 0 0.57254902  0 0 0 0.404495018 0" type="matrix" in="shadowBlurOuter1"></feColorMatrix>
        </filter>
    </defs>
    <g id="Page-1" stroke="none" stroke-width="1" fill="none" fill-rule="evenodd">
        <g id="Rectangle">
            <use fill="black" fill-opacity="1" filter="url(#filter-2)" xlink:href="#path-1"></use>
            <use fill="#7A68E8" fill-rule="evenodd" xlink:href="#path-1"></use>
        </g>
        <g id="icon/status/alert" transform="translate(14.000000, 26.000024)">
            <g id="icon-status-success-large">
                <circle id="Combined-Shape" fill="#6759B7" cx="10" cy="10" r="10"></circle>
                <path d="M13.1807681,5.42653766 C13.4974826,4.97408836 14.121013,4.86405357 14.5734623,5.18076808 C15.0259116,5.49748259 15.1359464,6.12101305 14.8192319,6.57346234 L9.56923192,14.0734623 C9.212653,14.5828608 8.48257226,14.6467858 8.04289322,14.2071068 L5.04289322,11.2071068 C4.65236893,10.8165825 4.65236893,10.1834175 5.04289322,9.79289322 C5.43341751,9.40236893 6.06658249,9.40236893 6.45710678,9.79289322 L8.61429055,11.950077 L13.1807681,5.42653766 Z" id="Path-2" fill="#FFFFFF" fill-rule="nonzero"></path>
            </g>
        </g>
    </g>
</svg>