<?xml version="1.0" encoding="UTF-8"?>
<svg width="80px" height="80px" viewBox="0 0 80 80" version="1.1" xmlns="http://www.w3.org/2000/svg" xmlns:xlink="http://www.w3.org/1999/xlink">
    <!-- Generator: Sketch 48.2 (47327) - http://www.bohemiancoding.com/sketch -->
    <title>icon-services-analytics-jaeger-large</title>
    <desc>Created with Sketch.</desc>
    <defs></defs>
    <g id="icon/services/analytics/jaeger/large-copy" stroke="none" stroke-width="1" fill="none" fill-rule="evenodd">
        <g id="icon-services-analytics-jaeger-large">
            <circle id="Oval-4" fill="#FFFFFF" cx="40" cy="40" r="40"></circle>
            <path d="M23.5855856,50.3300971 C23.7117123,50.4133153 23.9849829,50.5589449 24.4054054,50.7669903 C24.8258279,50.9750357 25.3513482,51.183078 25.981982,51.3911234 C26.6126158,51.5991689 27.3378337,51.7864069 28.1576577,51.9528433 C28.9774816,52.1192796 29.8288244,52.2024965 30.7117117,52.2024965 C32.0150215,52.2024965 33.0660621,51.9944542 33.8648649,51.5783634 C34.6636677,51.1622725 35.2732712,50.4861351 35.6936937,49.5499307 C36.1141162,48.6137262 36.3873868,47.4070809 36.5135135,45.9299584 C36.6396403,44.4528359 36.7027027,42.65327 36.7027027,40.5312067 L36.7027027,18 L49,18 L49,40.5312067 C49,43.9015425 48.8108127,46.9701665 48.4324324,49.7371706 C48.0540522,52.5041747 47.2342405,54.8654549 45.972973,56.8210818 C44.7117054,58.7767088 42.8723845,60.2954176 40.454955,61.3772538 C38.0375255,62.45909 34.7898102,63 30.7117117,63 C26.927909,63 23.6907041,62.0846139 21,60.2538141 L23.5855856,50.3300971 Z" id="J" fill-opacity="0.896144701" fill="#FF5198"></path>
            <path d="M30.5855856,54.3300971 C30.7117123,54.4133153 30.9849829,54.5589449 31.4054054,54.7669903 C31.8258279,54.9750357 32.3513482,55.183078 32.981982,55.3911234 C33.6126158,55.5991689 34.3378337,55.7864069 35.1576577,55.9528433 C35.9774816,56.1192796 36.8288244,56.2024965 37.7117117,56.2024965 C39.0150215,56.2024965 40.0660621,55.9944542 40.8648649,55.5783634 C41.6636677,55.1622725 42.2732712,54.4861351 42.6936937,53.5499307 C43.1141162,52.6137262 43.3873868,51.4070809 43.5135135,49.9299584 C43.6396403,48.4528359 43.7027027,46.65327 43.7027027,44.5312067 L43.7027027,22 L56,22 L56,44.5312067 C56,47.9015425 55.8108127,50.9701665 55.4324324,53.7371706 C55.0540522,56.5041747 54.2342405,58.8654549 52.972973,60.8210818 C51.7117054,62.7767088 49.8723845,64.2954176 47.454955,65.3772538 C45.0375255,66.45909 41.7898102,67 37.7117117,67 C33.927909,67 30.6907041,66.0846139 28,64.2538141 L30.5855856,54.3300971 Z" id="J-Copy" fill="#FFF817" opacity="0.600000024"></path>
            <path d="M28.0748092,49.0838433 C28.4837889,49.2939005 28.9950058,49.5039546 29.6084753,49.7140118 C30.2219448,49.924069 30.9274241,50.1131176 31.7249345,50.2811634 C32.5224448,50.4492091 33.3506162,50.5332307 34.2094735,50.5332307 C35.4773105,50.5332307 36.4997443,50.3231767 37.2768057,49.9030623 C38.053867,49.4829479 38.6468787,48.8002722 39.0558583,47.8550148 C39.464838,46.9097575 39.7306708,45.691444 39.8533647,44.2000379 C39.9760586,42.7086318 40.0374046,40.8916643 40.0374046,38.7490808 L40.0374046,16 L52,16 L52,38.7490808 C52,42.1520074 51.8159619,45.2503046 51.4478802,48.0440654 C51.0797985,50.8378261 50.2823001,53.2219396 49.0553611,55.1964772 C47.8284221,57.1710149 46.4053101,59.2558304 44.0069407,60.7422554 C41.6085713,62.2286804 38.8808622,63 34.9137594,63 C31.2329425,63 27.6174699,62.5907587 25,60.7422554 L28.0748092,49.0838433 Z" id="J" fill="#1EC4E9" opacity="0.800000012"></path>
        </g>
    </g>
</svg>