<?xml version="1.0" encoding="UTF-8"?>
<svg width="40px" height="40px" viewBox="0 0 40 40" version="1.1" xmlns="http://www.w3.org/2000/svg" xmlns:xlink="http://www.w3.org/1999/xlink">
    <!-- Generator: Sketch 46.2 (44496) - http://www.bohemiancoding.com/sketch -->
    <title>icon-nav-switch-to-market-glyph</title>
    <desc>Created with Sketch.</desc>
    <defs></defs>
    <g id="Symbols" stroke="none" stroke-width="1" fill="none" fill-rule="evenodd">
        <g id="nav/narrow/dashboard/regular" transform="translate(-100.000000, -10.000000)">
            <g id="icon-nav-switch-to-market-glyph">
                <g transform="translate(100.000000, 10.000000)">
                    <rect id="Rectangle-11" stroke="#EDF3FD" x="0.5" y="0.5" width="39" height="39" rx="4"></rect>
                    <path d="M12,20 L12,17 L12,17 C12,15.8954305 12.8954305,15 14,15 L25,15" id="Path-2" stroke="#83A7F3" stroke-width="2" stroke-linecap="round" stroke-linejoin="round"></path>
                    <polyline id="Path-3" stroke="#83A7F3" stroke-width="2" stroke-linecap="round" stroke-linejoin="round" points="22 11 26 15 22 19"></polyline>
                    <path d="M15,20 L15,23 L15,23 C15,24.1045695 15.8954305,25 17,25 L28,25" id="Path-2-Copy" stroke="#A295EE" stroke-width="2" stroke-linecap="round" stroke-linejoin="round" transform="translate(21.500000, 22.500000) scale(-1, 1) translate(-21.500000, -22.500000) "></path>
                    <polyline id="Path-3-Copy" stroke="#A295EE" stroke-width="2" stroke-linecap="round" stroke-linejoin="round" transform="translate(16.000000, 25.000000) scale(-1, 1) translate(-16.000000, -25.000000) " points="14 21 18 25 14 29"></polyline>
                </g>
            </g>
        </g>
    </g>
</svg>