<?xml version="1.0" encoding="UTF-8"?>
<svg width="50px" height="50px" viewBox="0 0 50 50" version="1.1" xmlns="http://www.w3.org/2000/svg" xmlns:xlink="http://www.w3.org/1999/xlink">
    <!-- Generator: Sketch 46.2 (44496) - http://www.bohemiancoding.com/sketch -->
    <title>icon-generic-kintoblock-small-border-9</title>
    <desc>Created with Sketch.</desc>
    <defs>
        <linearGradient x1="50%" y1="0%" x2="50%" y2="100%" id="linearGradient-1">
            <stop stop-color="#B9D5EC" offset="0%"></stop>
            <stop stop-color="#98B4CD" offset="100%"></stop>
        </linearGradient>
        <path d="M27,6.15470054 L40.3205081,13.8452995 L40.3205081,13.8452995 C41.5581124,14.5598306 42.3205081,15.8803387 42.3205081,17.3094011 L42.3205081,32.6905989 L42.3205081,32.6905989 C42.3205081,34.1196613 41.5581124,35.4401694 40.3205081,36.1547005 L27,43.8452995 L27,43.8452995 C25.7623957,44.5598306 24.2376043,44.5598306 23,43.8452995 L9.67949192,36.1547005 L9.67949192,36.1547005 C8.44188762,35.4401694 7.67949192,34.1196613 7.67949192,32.6905989 L7.67949192,17.3094011 L7.67949192,17.3094011 C7.67949192,15.8803387 8.44188762,14.5598306 9.67949192,13.8452995 L23,6.15470054 L23,6.15470054 C24.2376043,5.44016936 25.7623957,5.44016936 27,6.15470054 Z" id="path-2"></path>
    </defs>
    <g id="Page-1" stroke="none" stroke-width="1" fill="none" fill-rule="evenodd">
        <g id="small-kintoblock-copy-9">
            <use fill="url(#linearGradient-1)" fill-rule="evenodd" xlink:href="#path-2"></use>
            <path stroke="#F6F8FC" stroke-width="4" d="M28,4.42264973 L41.3205081,12.1132487 C43.1769145,13.1850454 44.3205081,15.1658075 44.3205081,17.3094011 L44.3205081,32.6905989 C44.3205081,34.8341925 43.1769145,36.8149546 41.3205081,37.8867513 L28,45.5773503 C26.1435935,46.649147 23.8564065,46.649147 22,45.5773503 L8.67949192,37.8867513 C6.82308546,36.8149546 5.67949192,34.8341925 5.67949192,32.6905989 L5.67949192,17.3094011 C5.67949192,15.1658075 6.82308546,13.1850454 8.67949192,12.1132487 L22,4.42264973 C23.8564065,3.35085296 26.1435935,3.35085296 28,4.42264973 Z"></path>
        </g>
    </g>
</svg>