<?xml version="1.0" encoding="UTF-8"?>
<svg width="60px" height="60px" viewBox="0 0 60 60" version="1.1" xmlns="http://www.w3.org/2000/svg" xmlns:xlink="http://www.w3.org/1999/xlink">
    <!-- Generator: Sketch 52.4 (67378) - http://www.bohemiancoding.com/sketch -->
    <title>icon-pricing-tier-1</title>
    <desc>Created with Sketch.</desc>
    <defs>
        <linearGradient x1="100%" y1="1.72203635%" x2="0%" y2="100%" id="linearGradient-1">
            <stop stop-color="#50F6D6" offset="0%"></stop>
            <stop stop-color="#B6FF95" offset="100%"></stop>
        </linearGradient>
        <circle id="path-2" cx="30" cy="30" r="30"></circle>
        <circle id="path-3" cx="20" cy="20" r="20"></circle>
        <linearGradient x1="50%" y1="0%" x2="50%" y2="100%" id="linearGradient-5">
            <stop stop-color="#FFDB18" offset="0%"></stop>
            <stop stop-color="#FFF817" stop-opacity="0.602383379" offset="100%"></stop>
        </linearGradient>
    </defs>
    <g id="Account" stroke="none" stroke-width="1" fill="none" fill-rule="evenodd">
        <g id="4---dashboard---account---billing---1-workspace---free-tooltips-copy-2" transform="translate(-490.000000, -540.000000)">
            <g id="content">
                <g id="Rectangle-+-DEV-+-FREE-Mask" transform="translate(350.000000, 460.000000)">
                    <g id="icon/pricing/tier-1" transform="translate(140.000000, 80.000000)">
                        <g id="Oval-6-Copy" opacity="0.600000024" fill-rule="nonzero">
                            <use fill="url(#linearGradient-1)" xlink:href="#path-2"></use>
                            <use fill-opacity="0.203832654" fill="#000000" xlink:href="#path-2"></use>
                        </g>
                        <g id="Group" stroke-width="1" fill-rule="evenodd" transform="translate(10.000000, 16.000000)">
                            <mask id="mask-4" fill="white">
                                <use xlink:href="#path-3"></use>
                            </mask>
                            <g id="Oval-6" fill-rule="nonzero">
                                <use fill="url(#linearGradient-1)" xlink:href="#path-3"></use>
                                <use fill-opacity="0.203832654" fill="#000000" xlink:href="#path-3"></use>
                            </g>
                            <path d="M20.4214162,34.3470161 C22.8429793,30.5544414 24.3691739,27.4387694 25,25 C26,21.1340068 21.1045695,18 20,18 C18.8954305,18 14,21.1340068 15,25 C15.6308268,27.4387722 17.1570242,30.5544486 19.5785921,34.3470292 L19.5786125,34.3470162 C19.7272134,34.57975 20.0363462,34.6479532 20.26908,34.4993523 C20.3303255,34.460247 20.3823109,34.4082616 20.4214162,34.3470161 Z" id="Oval" fill="#B3E04A" mask="url(#mask-4)"></path>
                            <path d="M20.4786241,30.4580679 C20.9857494,28.779899 21.4928747,26.960543 22,25 C23,21.1340068 21.1045695,18 20,18 C18.8954305,18 17,21.1340068 18,25 C18.5071253,26.9605429 19.0142506,28.7798988 19.5213759,30.4580676 L19.5213751,30.4580679 C19.601255,30.7224049 19.880298,30.8719369 20.144635,30.792057 C20.3048467,30.7436427 20.4302098,30.6182796 20.4786241,30.4580679 Z" id="Oval-Copy" fill="url(#linearGradient-5)" mask="url(#mask-4)"></path>
                        </g>
                        <g id="rocket" stroke-width="1" fill-rule="evenodd" transform="translate(18.000000, 19.000000)">
                            <path d="M5.48637148,0.821274444 C7.11006469,0.273758148 9.2812742,2.85070354e-16 12,0 C14.7187418,0 16.8899609,0.273761377 18.5136573,0.821284132 L18.5136554,0.821289676 C18.8160444,0.923257549 19.0516079,1.16342494 19.1477044,1.46773072 L22,10.5 L22,12.8377223 C22,12.9452044 21.9826721,13.0519836 21.9486833,13.1539501 L21.1746547,15.47597 C21.064745,15.8056989 20.7915081,16.054707 20.4530192,16.1336156 C17.9753715,16.7112052 15.157711,17 12.0000374,17 C8.84237095,17 6.02469435,16.7112065 3.54700758,16.1336195 L3.54700049,16.1336499 C3.20849205,16.0547384 2.93523888,15.8057166 2.825323,15.475969 L2.0513167,13.1539501 C2.01732788,13.0519836 2,12.9452044 2,12.8377223 L2,10.5 L4.8523333,1.46770246 C4.9484281,1.16340225 5.18398771,0.923239545 5.48637148,0.821274444 Z" id="Mask" fill="#FFFFFF"></path>
                            <rect id="Rectangle" fill="#EDF3FD" transform="translate(3.500000, 18.000000) rotate(20.000000) translate(-3.500000, -18.000000) " x="3" y="15" width="1" height="6" rx="0.5"></rect>
                            <rect id="Rectangle-2" fill="#FFFFFF" x="0" y="20" width="4" height="2" rx="1"></rect>
                            <rect id="Rectangle-Copy" fill="#EDF3FD" transform="translate(20.500000, 18.000000) rotate(-20.000000) translate(-20.500000, -18.000000) " x="20" y="15" width="1" height="6" rx="0.5"></rect>
                            <rect id="Rectangle-2-Copy" fill="#FFFFFF" x="20" y="20" width="4" height="2" rx="1"></rect>
                            <circle id="Oval-3" fill="#53D9EB" cx="12" cy="8" r="4"></circle>
                        </g>
                    </g>
                </g>
            </g>
        </g>
    </g>
</svg>