<?xml version="1.0" encoding="UTF-8"?>
<svg width="40px" height="40px" viewBox="0 0 40 40" version="1.1" xmlns="http://www.w3.org/2000/svg" xmlns:xlink="http://www.w3.org/1999/xlink">
    <!-- Generator: Sketch 51.1 (57501) - http://www.bohemiancoding.com/sketch -->
    <title>icon-search-public-kintoblocks</title>
    <desc>Created with Sketch.</desc>
    <defs></defs>
    <g id="Page-1" stroke="none" stroke-width="1" fill="none" fill-rule="evenodd">
        <g id="icon/search/public-kintoblocks" fill="#083A45">
            <g id="Group-7" transform="translate(5.000000, 5.000000)">
                <path d="M16,7.69087674 L16,11 C16,11.5522847 15.5522847,12 15,12 C14.4477153,12 14,11.5522847 14,11 L14,7.70789626 L12.9913753,8.27290964 C12.509541,8.54282458 11.9001277,8.37102994 11.6302128,7.88919556 C11.3602978,7.40736118 11.5320925,6.79794794 12.0139269,6.528033 L14.5112758,5.12906311 C14.8121738,4.96050546 15.178693,4.95889887 15.4810572,5.12481219 L18.030571,6.52378208 C18.5147531,6.78946261 18.6918836,7.39734637 18.426203,7.88152847 C18.1605225,8.36571057 17.5526388,8.54284108 17.0684567,8.27716056 L16,7.69087674 Z M16,22.3106247 L17.0684567,21.7243409 C17.5526388,21.4586603 18.1605225,21.6357909 18.426203,22.1199729 C18.6918836,22.604155 18.5147531,23.2120388 18.030571,23.4777193 L15.4810572,24.8766892 C15.178693,25.0426026 14.8121738,25.040996 14.5112758,24.8724383 L12.0139269,23.4734684 C11.5320925,23.2035535 11.3602978,22.5941402 11.6302128,22.1123059 C11.9001277,21.6304715 12.509541,21.4586768 12.9913753,21.7285918 L14,22.2936052 L14,19.0015014 C14,18.4492167 14.4477153,18.0015014 15,18.0015014 C15.5522847,18.0015014 16,18.4492167 16,19.0015014 L16,22.3106247 Z M21.8435798,12.1892476 L18.977795,13.8438093 C18.4995023,14.1199516 17.8879119,13.9560765 17.6117696,13.4777839 C17.3356272,12.9994912 17.4995023,12.3879008 17.977795,12.1117584 L20.8288404,10.4657066 L19.8352122,9.87471869 C19.3605418,9.59239535 19.2046137,8.97873068 19.486937,8.5040603 C19.7692604,8.02938991 20.382925,7.87346182 20.8575954,8.15578516 L23.3178133,9.6190678 C23.6142375,9.7953743 23.7988885,10.111986 23.8063854,10.4567977 L23.8695989,13.3642263 C23.8816038,13.9163806 23.4437263,14.373722 22.891572,14.385727 C22.3394178,14.3977319 21.8820764,13.9598544 21.8700714,13.4077001 L21.8435798,12.1892476 Z M9.18250665,19.4991216 L10.2244717,20.1312903 C10.6966488,20.417764 10.8471911,21.0327721 10.5607174,21.5049492 C10.2742437,21.9771263 9.65923565,22.1276687 9.18705851,21.841195 L6.70075814,20.3327362 C6.40589093,20.1538378 6.22402265,19.8356195 6.21954885,19.4907554 L6.18241787,16.6285029 C6.17525388,16.0762646 6.6171239,15.6227794 7.16936218,15.6156154 C7.72160047,15.6084515 8.17508561,16.0503215 8.1822496,16.6025598 L8.19724599,17.758561 L11.0482915,16.1125092 C11.5265841,15.8363668 12.1381745,16.0002419 12.4143169,16.4785346 C12.6904592,16.9568272 12.5265841,17.5684176 12.0482915,17.84456 L9.18250665,19.4991216 Z M9.18250665,10.5023798 L12.0482915,12.1569415 C12.5265841,12.4330838 12.6904592,13.0446742 12.4143169,13.5229669 C12.1381745,14.0012595 11.5265841,14.1651346 11.0482915,13.8889923 L8.19724599,12.2429404 L8.1822496,13.3989417 C8.17508561,13.9511799 7.72160047,14.39305 7.16936218,14.385886 C6.6171239,14.378722 6.17525388,13.9252368 6.18241787,13.3729986 L6.21954885,10.510746 C6.22402265,10.1658819 6.40589093,9.84766359 6.70075814,9.66876524 L9.18705851,8.16030646 C9.65923565,7.87383273 10.2742437,8.02437508 10.5607174,8.49655222 C10.8471911,8.96872935 10.6966488,9.58373739 10.2244717,9.87021113 L9.18250665,10.5023798 Z M21.8435798,17.8122538 L21.8700714,16.5938013 C21.8820764,16.041647 22.3394178,15.6037695 22.891572,15.6157745 C23.4437263,15.6277794 23.8816038,16.0851208 23.8695989,16.6372751 L23.8063854,19.5447038 C23.7988885,19.8895154 23.6142375,20.2061271 23.3178133,20.3824336 L20.8575954,21.8457163 C20.382925,22.1280396 19.7692604,21.9721115 19.486937,21.4974411 C19.2046137,21.0227707 19.3605418,20.4091061 19.8352122,20.1267827 L20.8288404,19.5357948 L17.977795,17.889743 C17.4995023,17.6136006 17.3356272,17.0020102 17.6117696,16.5237176 C17.8879119,16.0454249 18.4995023,15.8815498 18.977795,16.1576922 L21.8435798,17.8122538 Z" id="Combined-Shape" fill-rule="nonzero"></path>
            </g>
        </g>
    </g>
</svg>