<svg height="120" viewBox="0 0 120 120" width="120" xmlns="http://www.w3.org/2000/svg" xmlns:xlink="http://www.w3.org/1999/xlink"><defs><circle id="a" cx="60" cy="60" r="60"/><filter id="b" height="139.3%" width="127.5%" x="-13.8%" y="-12.5%"><feOffset dx="0" dy="4" in="SourceAlpha" result="shadowOffsetOuter1"/><feGaussianBlur in="shadowOffsetOuter1" result="shadowBlurOuter1" stdDeviation="3"/><feColorMatrix in="shadowBlurOuter1" type="matrix" values="0 0 0 0 0.258823529   0 0 0 0 0.462745098   0 0 0 0 0.57254902  0 0 0 0.143653759 0"/></filter><linearGradient id="c"><stop offset="0" stop-color="#53d9eb"/><stop offset="1" stop-color="#53d9eb" stop-opacity="0"/></linearGradient><linearGradient id="d" x1="100%" x2="0%" xlink:href="#c" y1="0%" y2="100%"/><linearGradient id="e" x1="100%" x2="50%" y1="0%" y2="98.148483%"><stop offset="0" stop-color="#06ecfe"/><stop offset="1" stop-color="#06ecfe" stop-opacity="0"/></linearGradient><linearGradient id="f" x1="0%" x2="100%" xlink:href="#c" y1="0%" y2="100%"/><linearGradient id="g" x1="50%" x2="50%" y1="0%" y2="72.807018%"><stop offset="0" stop-color="#1ec4e9"/><stop offset="1" stop-color="#53d9eb" stop-opacity="0"/></linearGradient><mask id="h" fill="#fff"><use fill="#fff" fill-rule="evenodd" xlink:href="#a"/></mask></defs><g fill="none" fill-rule="evenodd"><use fill="#f5f9ff" xlink:href="#a"/><g mask="url(#h)"><g transform="translate(20 28)"><path d="m7.96335076 34.4244998c-1.24943277-2.1891533-1.96335076-4.7234543-1.96335076-7.4244998 0-8.2842712 6.7157288-15 15-15 .4409687 0 .8774931.0190283 1.3087969.0563086 2.7727804-7.05898769 9.6483983-12.0563086 17.6912031-12.0563086 10.4934102 0 19 8.50658975 19 19 0 .3759078-.0109165.749266-.0324499 1.1197747 7.9083268.9697632 14.0324499 7.7098114 14.0324499 15.8802253 0 .1524422-.0021319.3043865-.0063675.4558047 4.0603949 1.2722962 7.0063675 5.0642113 7.0063675 9.5441953 0 5.1853481-3.9466773 9.4489003-9 9.9506248v.0493752h-60c-6.07513225 0-11-4.9248678-11-11 0-5.0217764 3.36509893-9.2575918 7.96335076-10.5755002z" fill="#000" filter="url(#b)"/><path d="m7.96335076 34.4244998c-1.24943277-2.1891533-1.96335076-4.7234543-1.96335076-7.4244998 0-8.2842712 6.7157288-15 15-15 .4409687 0 .8774931.0190283 1.3087969.0563086 2.7727804-7.05898769 9.6483983-12.0563086 17.6912031-12.0563086 10.4934102 0 19 8.50658975 19 19 0 .3759078-.0109165.749266-.0324499 1.1197747 7.9083268.9697632 14.0324499 7.7098114 14.0324499 15.8802253 0 .1524422-.0021319.3043865-.0063675.4558047 4.0603949 1.2722962 7.0063675 5.0642113 7.0063675 9.5441953 0 5.1853481-3.9466773 9.4489003-9 9.9506248v.0493752h-60c-6.07513225 0-11-4.9248678-11-11 0-5.0217764 3.36509893-9.2575918 7.96335076-10.5755002z" fill="#49bfff" fill-rule="nonzero"/><g fill-rule="evenodd"><circle cx="57" cy="36" fill="url(#d)" r="16"/><circle cx="40" cy="19" fill="url(#e)" r="19"/><circle cx="70" cy="46" fill="url(#e)" opacity=".4" r="10"/><circle cx="11" cy="45" fill="url(#f)" opacity=".4" r="11"/></g></g></g><g fill-rule="nonzero" mask="url(#h)"><g transform="translate(48 61)"><rect fill="#365aa6" height="14" rx="2" width="24"/><g fill="#b9d5ec"><path d="m7 4h2v2h-2z"/><path d="m11 4h2v2h-2z"/><path d="m15 4h2v2h-2z"/></g><path d="m6 6h12c.5522847 0 1 .44771525 1 1v13c0 3.3137085-2.6862915 6-6 6h-2c-3.3137085 0-6-2.6862915-6-6v-13c0-.55228475.44771525-1 1-1z" fill="#6cead2"/><path d="m12 26c0 6.627417 5.372583 12 12 12h18" fill="none" stroke="url(#g)" stroke-linecap="round" stroke-width="4"/></g></g></g></svg>