<svg height="20" viewBox="0 0 20 20" width="20" xmlns="http://www.w3.org/2000/svg"><g fill="none" fill-rule="evenodd" transform=""><circle cx="10" cy="10" fill="#ffb476" r="10"/><path d="m8 19.7999638v-19.59992757c.64621988-.13117571 1.31506832-.20003623 2-.20003623.6849317 0 1.3537801.06886052 2 .20003623v19.59992757c-.6462199.1311757-1.3150683.2000362-2 .2000362-.68493168 0-1.35378012-.0688605-2-.2000362z" fill="#ff943c" fill-rule="nonzero"/><path d="m10.8741573 5.5734831 3.3004855 5.940874c.2682132.4827837.0942694 1.091587-.3885143 1.3598002-.148558.0825322-.3156987.1258427-.485643.1258427h-6.60097104c-.55228475 0-1-.4477153-1-1 0-.1699442.0433105-.3370849.12584272-.4856429l3.30048554-5.940874c.26821319-.48278374.87701648-.65672753 1.35980018-.38851435.1632401.09068893.2978255.22527428.3885144.38851435z" fill="#d6792c"/></g></svg>