<?xml version="1.0" encoding="UTF-8"?>
<svg width="80px" height="80px" viewBox="0 0 80 80" version="1.1" xmlns="http://www.w3.org/2000/svg" xmlns:xlink="http://www.w3.org/1999/xlink">
    <!-- Generator: Sketch 52.4 (67378) - http://www.bohemiancoding.com/sketch -->
    <title>icon-deployment-type-standard</title>
    <desc>Created with Sketch.</desc>
    <g id="Deployments" stroke="none" stroke-width="1" fill="none" fill-rule="evenodd">
        <g id="19---dashboard---applications" transform="translate(-1170.000000, -570.000000)">
            <g id="content" transform="translate(320.000000, 0.000000)">
                <g id="standard-release-timeline" transform="translate(30.000000, 480.000000)">
                    <g id="data" transform="translate(540.000000, 20.000000)">
                        <g id="Group-15" transform="translate(280.000000, 70.000000)">
                            <g id="icon/deployment/type/standard">
                                <g id="rocket">
                                    <g transform="translate(42.500000, 38.000000) rotate(45.000000) translate(-42.500000, -38.000000) translate(15.000000, -4.000000)">
                                        <path d="M3.22681877,55.8918919 C5.38368151,53.009009 8.61897563,49.045045 12.9327011,44 L16.1679952,66.7027027 C14.0111325,69.5855856 11.4947926,71.027027 8.61897563,71.027027 L1.08103763,71.027027 L1.08103763,71.0269836 C0.483997032,71.0269836 -2.72842859e-12,70.5429865 -2.72848411e-12,69.9459459 C-2.72848411e-12,69.9402047 4.57366013e-05,69.9344635 0.000137205456,69.928723 C0.105679223,63.3049756 1.18123974,58.6260319 3.22681877,55.8918919 Z" id="Rectangle" fill="#F46464"></path>
                                        <path d="M50.9411765,55.8918919 C52.9867555,58.6260319 54.062316,63.3049756 54.167858,69.928723 C54.1679495,69.9344635 54.1679952,69.9402047 54.1679952,69.9459459 C54.1679952,70.5429865 53.6839982,71.0269836 53.0869576,71.0269836 L53.0869576,71.027027 L45.5490196,71.027027 C42.6732026,71.027027 40.1568627,69.5855856 38,66.7027027 L41.2352941,44 C45.5490196,49.045045 48.7843137,53.009009 50.9411765,55.8918919 Z" id="Rectangle-Copy-3" fill="#F46464"></path>
                                        <path d="M27.1629772,72.2779923 C37.1358345,72.2779923 46.4242631,60.9165454 45.2204327,38.5482625 C44.0166023,16.1799797 29.9128523,0 27.1629772,0 C24.4131021,6.73974322e-16 10.309352,16.1799797 9.10552164,38.5482625 C7.90169127,60.9165454 17.1901199,72.2779923 27.1629772,72.2779923 Z" id="Mask" fill="#E0E6F0"></path>
                                        <circle id="Oval-3" fill="#53D9EB" cx="27" cy="37" r="10"></circle>
                                        <path d="M27,83.5019305 C25.2978132,83.5019305 23.3994644,78.1086039 23.2744458,71.4555985 C23.1494273,64.802593 21.6972777,57 27,57 C32.3027223,57 30.8505727,64.802593 30.7255542,71.4555985 C30.6005356,78.1086039 28.7021868,83.5019305 27,83.5019305 Z" id="Oval-6" fill="#F46464"></path>
                                    </g>
                                </g>
                            </g>
                        </g>
                    </g>
                </g>
            </g>
        </g>
    </g>
</svg>