<?xml version="1.0" encoding="UTF-8"?>
<svg width="20px" height="20px" viewBox="0 0 20 20" version="1.1" xmlns="http://www.w3.org/2000/svg" xmlns:xlink="http://www.w3.org/1999/xlink">
    <!-- Generator: Sketch 46.2 (44496) - http://www.bohemiancoding.com/sketch -->
    <title>icon-gray-locked</title>
    <desc>Created with Sketch.</desc>
    <defs></defs>
    <g id="Page-1" stroke="none" stroke-width="1" fill="none" fill-rule="evenodd">
        <g id="icon-gray-locked">
            <rect id="Rectangle-20" fill="#A2B0BD" x="0" y="0" width="20" height="20" rx="4"></rect>
            <rect id="Rectangle-3" stroke="#FFFFFF" stroke-width="1.5" x="7.75" y="4.75" width="4.5" height="6.5" rx="2.25"></rect>
            <path d="M6,9 C7.33333333,9 8.66666667,9 10,9 C11.3333333,9 12.6666667,9 14,9 L14,9 C14.5522847,9 15,9.44771525 15,10 L15,14.4805501 L14.9999609,14.4805501 C14.9999609,14.8665574 14.7777866,15.2180944 14.4291316,15.3837488 C13.5679368,15.7929234 12.0915596,15.9983404 10,16 C7.90651859,16.0016611 6.4293506,15.796582 5.56849603,15.3847627 L5.56847785,15.3848007 C5.22110143,15.2186213 5,14.867751 5,14.4826718 L5,10 L5,10 C5,9.44771525 5.44771525,9 6,9 Z" id="Rectangle-2" fill="#FFFFFF"></path>
        </g>
    </g>
</svg>