<?xml version="1.0" encoding="UTF-8"?>
<svg width="120px" height="120px" viewBox="0 0 120 120" version="1.1" xmlns="http://www.w3.org/2000/svg" xmlns:xlink="http://www.w3.org/1999/xlink">
    <!-- Generator: Sketch 52.4 (67378) - http://www.bohemiancoding.com/sketch -->
    <title>icon-kintoblock-type-custom</title>
    <desc>Created with Sketch.</desc>
    <defs>
        <circle id="path-1" cx="60" cy="60" r="60"></circle>
        <path d="M82.7846097,46.8452995 L93.1410162,52.8245735 C93.6193088,53.1007159 93.7831839,53.7123063 93.5070416,54.1905989 C93.4192732,54.3426181 93.2930354,54.468856 93.1410162,54.5566243 L83.3826859,60.1905989 L93.1410162,65.8245735 C93.6193088,66.1007159 93.7831839,66.7123063 93.5070416,67.1905989 C93.4192732,67.3426181 93.2930354,67.468856 93.1410162,67.5566243 L83.3826859,73.1905989 L93.1410162,78.8245735 C93.6193088,79.1007159 93.7831839,79.7123063 93.5070416,80.1905989 C93.4192732,80.3426181 93.2930354,80.468856 93.1410162,80.5566243 L61,99.1132487 C60.3811978,99.4705142 59.6188022,99.4705142 59,99.1132487 L26.8589838,80.5566243 C26.3806912,80.280482 26.2168161,79.6688915 26.4929584,79.1905989 C26.5807268,79.0385797 26.7069646,78.9123419 26.8589838,78.8245735 L36.6173141,73.1905989 L26.8589838,67.5566243 C26.3806912,67.280482 26.2168161,66.6688915 26.4929584,66.1905989 C26.5807268,66.0385797 26.7069646,65.9123419 26.8589838,65.8245735 L36.6173141,60.1905989 L26.8589838,54.5566243 C26.3806912,54.280482 26.2168161,53.6688915 26.4929584,53.1905989 C26.5807268,53.0385797 26.7069646,52.9123419 26.8589838,52.8245735 L37.2153903,46.8452995 L26.8589838,40.8660254 C26.3806912,40.589883 26.2168161,39.9782926 26.4929584,39.5 C26.5807268,39.3479808 26.7069646,39.2217429 26.8589838,39.1339746 L59,20.5773503 C59.6188022,20.2200847 60.3811978,20.2200847 61,20.5773503 L93.1410162,39.1339746 C93.6193088,39.410117 93.7831839,40.0217074 93.5070416,40.5 C93.4192732,40.6520192 93.2930354,40.7782571 93.1410162,40.8660254 L82.7846097,46.8452995 Z" id="path-3"></path>
        <filter x="-16.3%" y="-8.9%" width="132.7%" height="127.8%" filterUnits="objectBoundingBox" id="filter-4">
            <feOffset dx="0" dy="4" in="SourceAlpha" result="shadowOffsetOuter1"></feOffset>
            <feGaussianBlur stdDeviation="3" in="shadowOffsetOuter1" result="shadowBlurOuter1"></feGaussianBlur>
            <feColorMatrix values="0 0 0 0 0.258823529   0 0 0 0 0.462745098   0 0 0 0 0.57254902  0 0 0 0.143653759 0" type="matrix" in="shadowBlurOuter1"></feColorMatrix>
        </filter>
    </defs>
    <g id="KintoBlocks" stroke="none" stroke-width="1" fill="none" fill-rule="evenodd">
        <g id="2---dashboard---kintoblocks---create-new-kintoblock---choose-type" transform="translate(-910.000000, -520.000000)">
            <g id="content" transform="translate(320.000000, 0.000000)">
                <g id="desktop/kintoblock-type" transform="translate(30.000000, 240.000000)">
                    <g id="Group-Copy-3" transform="translate(540.000000, 260.000000)">
                        <g id="icon-kintoblock-type-custom" transform="translate(20.000000, 20.000000)">
                            <mask id="mask-2" fill="white">
                                <use xlink:href="#path-1"></use>
                            </mask>
                            <use id="Oval-Copy" fill="#F5F9FF" xlink:href="#path-1"></use>
                            <g id="Combined-Shape" mask="url(#mask-2)" fill="black" fill-opacity="1">
                                <use filter="url(#filter-4)" xlink:href="#path-3"></use>
                            </g>
                            <g id="icon/kintoblock/custom/large" fill="" mask="url(#mask-2)">
                                <g transform="translate(20.000000, 20.000000)">
                                    <path d="M41,40.2679492 L73.1410162,58.8245735 C73.6193088,59.1007159 73.7831839,59.7123063 73.5070416,60.1905989 C73.4192732,60.3426181 73.2930354,60.468856 73.1410162,60.5566243 L41,79.1132487 C40.3811978,79.4705142 39.6188022,79.4705142 39,79.1132487 L6.85898385,60.5566243 C6.38069123,60.280482 6.21681607,59.6688915 6.49295844,59.1905989 C6.58072678,59.0385797 6.70696464,58.9123419 6.85898385,58.8245735 L39,40.2679492 C39.6188022,39.9106836 40.3811978,39.9106836 41,40.2679492 Z" id="Polygon" fill="#FF943C"></path>
                                    <path d="M41,27.2679492 L73.1410162,45.8245735 C73.6193088,46.1007159 73.7831839,46.7123063 73.5070416,47.1905989 C73.4192732,47.3426181 73.2930354,47.468856 73.1410162,47.5566243 L41,66.1132487 C40.3811978,66.4705142 39.6188022,66.4705142 39,66.1132487 L6.85898385,47.5566243 C6.38069123,47.280482 6.21681607,46.6688915 6.49295844,46.1905989 C6.58072678,46.0385797 6.70696464,45.9123419 6.85898385,45.8245735 L39,27.2679492 C39.6188022,26.9106836 40.3811978,26.9106836 41,27.2679492 Z" id="Polygon-Copy" fill="#FFB476"></path>
                                    <path d="M41,14.2679492 L73.1410162,32.8245735 C73.6193088,33.1007159 73.7831839,33.7123063 73.5070416,34.1905989 C73.4192732,34.3426181 73.2930354,34.468856 73.1410162,34.5566243 L41,53.1132487 C40.3811978,53.4705142 39.6188022,53.4705142 39,53.1132487 L6.85898385,34.5566243 C6.38069123,34.280482 6.21681607,33.6688915 6.49295844,33.1905989 C6.58072678,33.0385797 6.70696464,32.9123419 6.85898385,32.8245735 L39,14.2679492 C39.6188022,13.9106836 40.3811978,13.9106836 41,14.2679492 Z" id="Polygon-Copy-3" fill="#FFD978"></path>
                                    <path d="M41,0.577350269 L73.1410162,19.1339746 C73.6193088,19.410117 73.7831839,20.0217074 73.5070416,20.5 C73.4192732,20.6520192 73.2930354,20.7782571 73.1410162,20.8660254 L41,39.4226497 C40.3811978,39.7799153 39.6188022,39.7799153 39,39.4226497 L6.85898385,20.8660254 C6.38069123,20.589883 6.21681607,19.9782926 6.49295844,19.5 C6.58072678,19.3479808 6.70696464,19.2217429 6.85898385,19.1339746 L39,0.577350269 C39.6188022,0.220084679 40.3811978,0.220084679 41,0.577350269 Z" id="Polygon-Copy-2" fill="#FFF37C"></path>
                                </g>
                            </g>
                        </g>
                    </g>
                </g>
            </g>
        </g>
    </g>
</svg>