<?xml version="1.0" encoding="UTF-8"?>
<svg width="80px" height="80px" viewBox="0 0 80 80" version="1.1" xmlns="http://www.w3.org/2000/svg" xmlns:xlink="http://www.w3.org/1999/xlink">
    <!-- Generator: Sketch 52.4 (67378) - http://www.bohemiancoding.com/sketch -->
    <title>icon-status-build-failed</title>
    <desc>Created with Sketch.</desc>
    <g id="KintoBlocks" stroke="none" stroke-width="1" fill="none" fill-rule="evenodd">
        <g id="29---dashboard---kintoblocks---progress" transform="translate(-900.000000, -800.000000)">
            <g id="progress-copy-5" transform="translate(240.000000, 780.000000)">
                <g id="failed" transform="translate(650.000000, 11.000000)">
                    <path d="M50,85 C69.3299662,85 85,69.3299662 85,50 C85,30.6700338 69.3299662,15 50,15 C30.6700338,15 15,30.6700338 15,50 C15,69.3299662 30.6700338,85 50,85 Z" id="Oval" stroke="#F46464" stroke-width="4" stroke-linecap="round" stroke-linejoin="round" stroke-dasharray="160,90" transform="translate(50.000000, 50.000000) rotate(-50.000000) translate(-50.000000, -50.000000) "></path>
                    <g id="icon/status/failed" transform="translate(30.000000, 29.000000)">
                        <g id="Group">
                            <circle id="Combined-Shape" fill="#F46464" cx="20" cy="20" r="20"></circle>
                            <path d="M11.6313615,21.476189 C10.5998866,19.9031025 10,18.0216067 10,16 C10,10.4771525 14.4771525,6 20,6 C25.5228475,6 30,10.4771525 30,16 C30,18.0216067 29.4001134,19.9031025 28.3686385,21.476189 C28.3721246,21.4890451 28.3754897,21.5019587 28.3787322,21.5149287 L29,24 C29.4312109,25.7248436 28.3825144,27.4726711 26.6576708,27.903882 C26.40232,27.9677197 26.1401039,28 25.8768944,28 L14.1231056,28 C12.3451775,28 10.903882,26.5587045 10.903882,24.7807764 C10.903882,24.5175669 10.9361623,24.2553508 11,24 L11.6212678,21.5149287 C11.6245103,21.5019587 11.6278754,21.4890451 11.6313615,21.476189 Z M15.618034,30 L24.381966,30 C24.9342508,30 25.381966,30.4477153 25.381966,31 C25.381966,31.1552451 25.3458209,31.3083582 25.2763932,31.4472136 L24.5527864,32.8944272 C24.2140024,33.5719952 23.5214761,34 22.763932,34 L17.236068,34 C16.4785239,34 15.7859976,33.5719952 15.4472136,32.8944272 L14.7236068,31.4472136 C14.4766175,30.9532351 14.6768419,30.3525621 15.1708204,30.1055728 C15.3096758,30.0361451 15.4627889,30 15.618034,30 Z M16,22 C17.1045695,22 18,21.1045695 18,20 C18,18.8954305 17.1045695,18 16,18 C14.8954305,18 14,18.8954305 14,20 C14,21.1045695 14.8954305,22 16,22 Z M24,22 C25.1045695,22 26,21.1045695 26,20 C26,18.8954305 25.1045695,18 24,18 C22.8954305,18 22,18.8954305 22,20 C22,21.1045695 22.8954305,22 24,22 Z M20.8944272,21.7888544 C20.7976635,21.595327 20.640741,21.4384045 20.4472136,21.3416408 C19.9532351,21.0946515 19.3525621,21.2948759 19.1055728,21.7888544 L18.3618034,23.2763932 C18.3270895,23.3458209 18.309017,23.4223775 18.309017,23.5 C18.309017,23.7761424 18.5328746,24 18.809017,24 L21.190983,24 C21.2686056,24 21.3451621,23.9819275 21.4145898,23.9472136 C21.6615791,23.823719 21.7616912,23.5233825 21.6381966,23.2763932 L20.8944272,21.7888544 Z" id="Combined-Shape" fill="#FFFFFF"></path>
                        </g>
                    </g>
                    <g id="text" transform="translate(10.000000, 49.000000)" fill="#98B4CD">
                        <path d="M61.7773398,30.8869264 C61.9822015,30.9958127 62.1126498,31.1466849 62.1686887,31.3395477 C62.2247276,31.5324105 62.1983043,31.7312697 62.089418,31.9361314 L58.7946866,38.1349333 C58.6858003,38.339795 58.5430421,38.4677613 58.3664077,38.5188359 C58.1897733,38.5699105 57.9990281,38.5410052 57.7941664,38.4321189 L54.0748852,36.45528 C53.6439692,36.2262434 53.5261351,35.9280605 53.7213795,35.5607222 C53.9128691,35.2004482 54.2240672,35.1348305 54.6549833,35.3638671 L57.6855086,36.9746247 L58.7668564,34.9401461 L55.9482559,33.4420289 C55.5173398,33.2129923 55.3995058,32.9148093 55.5947501,32.5474711 C55.7862397,32.187197 56.0974379,32.1215793 56.5283539,32.3506159 L59.3469544,33.8487331 L60.7436952,31.220865 C60.8525815,31.0160032 61.0008604,30.8819116 61.1885363,30.8185859 C61.3762122,30.7552602 61.5724781,30.7780402 61.7773398,30.8869264 Z M47.5490595,26.7216893 C47.5282241,26.6090571 47.5306457,26.5023523 47.5563244,26.4015718 C47.6017559,26.2232678 47.7119815,26.0903704 47.8870045,26.0028755 C48.0620275,25.9153807 48.2425644,25.895337 48.4286208,25.9427438 C48.5526583,25.9743483 48.660547,26.0369241 48.7522899,26.130473 C48.8440329,26.224022 48.9031353,26.3484668 48.929599,26.5038113 L49.2302769,28.2398001 L53.323496,29.2827444 L54.4182338,27.9023049 C54.5158077,27.7785649 54.6272543,27.6975757 54.7525771,27.6593347 C54.8778999,27.6210937 55.0064543,27.6187631 55.1382442,27.6523429 C55.3165482,27.6977745 55.463543,27.8012726 55.5792331,27.9628406 C55.6949232,28.1244085 55.7300519,28.294342 55.6846204,28.472646 C55.6589417,28.5734265 55.6100067,28.6682797 55.537814,28.7572085 L50.5713523,34.8351242 C50.4620755,34.9723936 50.3253597,35.0634554 50.1612008,35.1083123 C49.9970419,35.1531692 49.8335653,35.1548572 49.670766,35.1133762 C49.5079667,35.0718953 49.3652302,34.9921848 49.2425522,34.8742424 C49.1198743,34.7563 49.0434037,34.6109188 49.0131382,34.4380943 L47.5490595,26.7216893 Z M52.5155526,30.3152227 L49.4456382,29.5330145 L50.1006111,33.3777723 L52.5155526,30.3152227 Z M43.8868234,25.10759 C44.118576,25.118327 44.3010427,25.1988572 44.434229,25.3491829 C44.5674153,25.4995085 44.628639,25.6905448 44.617902,25.9222974 L44.2919045,32.9587497 C44.2811675,33.1905023 44.2026352,33.3730615 44.0563052,33.506433 C43.9099753,33.6398044 43.7209368,33.7011207 43.4891843,33.6903836 C43.2494402,33.6792763 43.0628853,33.6005589 42.9295139,33.454229 C42.7961424,33.307899 42.7348262,33.1188606 42.7455632,32.887108 L43.0715607,25.8506557 C43.0822977,25.6189031 43.1609226,25.434346 43.3074376,25.2969788 C43.4539527,25.1596117 43.6470794,25.0964827 43.8868234,25.10759 Z M38.5621712,25.2165762 C38.7922973,25.1871392 38.9789611,25.2277826 39.1221683,25.3385076 C39.2653755,25.4492327 39.3511887,25.615688 39.3796106,25.8378787 L40.2718506,32.8130441 C40.3012876,33.0431701 40.255454,33.2365467 40.1343485,33.3931795 C40.013243,33.5498124 39.8376299,33.6428459 39.6075038,33.6722829 C39.3694424,33.7027349 39.1720982,33.6574088 39.0154653,33.5363033 C38.8588325,33.4151979 38.765799,33.2395847 38.736362,33.0094587 L37.9141613,26.5818319 L34.5694148,27.0096807 C34.0932919,27.0705848 33.8283352,26.8907519 33.7745366,26.4701767 C33.720738,26.0496015 33.931897,25.8088655 34.4080198,25.7479614 L38.5621712,25.2165762 Z M30.0638618,26.6742419 C30.28178,26.5946417 30.4746889,26.5923121 30.6425942,26.667253 C30.8104995,26.742194 30.9342504,26.8886214 31.0138506,27.1065396 L33.4141973,33.6778676 C33.4937976,33.8957858 33.4935624,34.0875022 33.4134918,34.2530228 C33.3334212,34.4185433 33.1844291,34.5411018 32.9665109,34.620702 L28.8974725,36.1070231 C28.6795543,36.1866233 28.4926412,36.1995382 28.3367276,36.1457681 C28.180814,36.091998 28.0699208,35.9749416 28.0040448,35.7945955 C27.9354239,35.606735 27.942701,35.4401262 28.0258765,35.2947642 C28.1090519,35.1494021 28.2595965,35.0369227 28.4775147,34.9573225 L31.8251724,33.7345043 L31.0264292,31.5478189 L27.904203,32.6882923 C27.6862849,32.7678926 27.4993718,32.7808074 27.3434582,32.7270373 C27.1875446,32.6732672 27.075279,32.5524537 27.0066581,32.3645932 C26.9407821,32.1842471 26.9501178,32.0232741 27.0346657,31.8816692 C27.1192136,31.7400644 27.2704443,31.6294635 27.4883625,31.5498633 L30.6105887,30.4093898 L29.7624388,28.0874454 L26.4147811,29.3102636 C26.1968629,29.3898638 26.0092636,29.4009001 25.8519776,29.3433728 C25.6946916,29.2858455 25.5817398,29.1631534 25.5131189,28.9752929 C25.4472429,28.7949468 25.4565787,28.6339737 25.5411265,28.4923689 C25.6256744,28.3507641 25.7769052,28.2401632 25.9948234,28.160563 L30.0638618,26.6742419 Z M21.7496913,30.1500957 C21.9408539,30.018637 22.1270794,29.9682451 22.3083732,29.9989186 C22.4896671,30.0295921 22.6460411,30.1405085 22.7774999,30.3316711 L26.7416416,36.0961829 C26.8731004,36.2873454 26.9207111,36.4730562 26.8844751,36.6533207 C26.8482392,36.8335852 26.7345416,36.9894445 26.543379,37.1209033 L24.5856203,38.4672156 C23.4452367,39.2514351 22.3506481,39.5551226 21.3018218,39.3782872 C20.2529956,39.2014517 19.3500854,38.5626272 18.5930643,37.4617944 C17.8315101,36.3543698 17.5558421,35.2793486 17.7660522,34.2366986 C17.9762622,33.1940486 18.6515489,32.2806275 19.7919326,31.496408 L21.7496913,30.1500957 Z M20.5849875,32.480217 C18.9831769,33.5817507 18.7443747,34.9498819 19.8685737,36.5846515 C20.9882397,38.2128294 22.3489576,38.4761475 23.9507682,37.3746137 L25.1669516,36.5382682 L21.8011709,31.6438714 L20.5849875,32.480217 Z" id="FAILED" transform="translate(39.947547, 32.266719) scale(-1, -1) translate(-39.947547, -32.266719) "></path>
                    </g>
                </g>
            </g>
        </g>
    </g>
</svg>