<?xml version="1.0" encoding="UTF-8"?>
<svg width="80px" height="80px" viewBox="0 0 80 80" version="1.1" xmlns="http://www.w3.org/2000/svg" xmlns:xlink="http://www.w3.org/1999/xlink">
    <!-- Generator: Sketch 47.1 (45422) - http://www.bohemiancoding.com/sketch -->
    <title>icon/status/hints</title>
    <desc>Created with Sketch.</desc>
    <defs></defs>
    <g id="Page-1" stroke="none" stroke-width="1" fill="none" fill-rule="evenodd">
        <g id="icon/status/hints">
            <path d="M40,80 C17.90861,80 0,62.09139 0,40 C0,17.90861 17.90861,0 40,0 C62.09139,0 80,17.90861 80,40 C80,62.09139 62.09139,80 40,80 Z" fill="#7A68E8"></path>
            <circle id="Oval-2" fill="#FFFFFF" cx="40" cy="60" r="6"></circle>
            <path d="M36,46 C36,45.3175456 36,44.6350911 36,43.9526367 C36,41.7415196 36,40.4257812 36.44,39.4128418 C37.1533037,37.7707203 38.370656,36.3413395 40.504,35.104 C42.1875,34.1115723 49.3286133,31.6248789 49.3286133,27.4008789 C49.3286133,23.1768789 45.7671133,20.1564941 40.504,20.3540039 C36.9952578,20.4856771 34.1131465,22.4664714 31.857666,26.2963867 L26.1992188,23.4980469 C26.7538882,22.1753736 29.5890312,14 40.504,14 C51.4189688,14 56.3325195,19.7184909 56.3325195,27.4008789 C56.3325195,34.3225508 49.775501,38.1572266 47.8640137,39.036377 C45.9525264,39.9155273 44.6781026,40.9377257 44.3007813,41.7478027 C44,42.3935547 44,43.3958441 44,45.8083496 C44,45.8722331 44,45.9361165 44,46 L44,46 C44,48.209139 42.209139,50 40,50 L40,50 L40,50 C37.790861,50 36,48.209139 36,46 Z" id="?" fill="#FFFFFF"></path>
        </g>
    </g>
</svg>