<?xml version="1.0" encoding="UTF-8"?>
<svg width="20px" height="20px" viewBox="0 0 20 20" version="1.1" xmlns="http://www.w3.org/2000/svg" xmlns:xlink="http://www.w3.org/1999/xlink">
    <!-- Generator: Sketch 46.2 (44496) - http://www.bohemiancoding.com/sketch -->
    <title>icon-dashboard-services</title>
    <desc>Created with Sketch.</desc>
    <defs>
        <linearGradient x1="50%" y1="100%" x2="50%" y2="3.061617e-15%" id="linearGradient-1">
            <stop stop-color="#B9D5EC" offset="0%"></stop>
            <stop stop-color="#98B4CD" offset="100%"></stop>
        </linearGradient>
    </defs>
    <g id="Symbols" stroke="none" stroke-width="1" fill="none" fill-rule="evenodd">
        <g id="desktop/sidebar/home" transform="translate(-50.000000, -430.000000)">
            <g id="desktop/sidebar/analytics">
                <g id="icon-dashboard-services" transform="translate(50.000000, 430.000000)">
                    <path d="M19,14 L19,6 L1,6 L1,14 C1,17.3137085 5.02943725,20 10,20 C14.9705627,20 19,17.3137085 19,14 Z" id="Combined-Shape" fill="url(#linearGradient-1)"></path>
                    <ellipse id="Oval-2" fill="#B9D5EC" cx="10" cy="6" rx="9" ry="6"></ellipse>
                    <path d="M3.29168048,10 C4.93964214,11.2274987 7.33450056,12 10,12 C12.6654994,12 15.0603579,11.2274987 16.7083195,10 C15.0603579,8.77250128 12.6654994,8 10,8 C7.33450056,8 4.93964214,8.77250128 3.29168048,10 Z" id="Oval-2-Copy" fill="#CBE3F9"></path>
                </g>
            </g>
        </g>
    </g>
</svg>