<svg height="20" viewBox="0 0 20 20" width="20" xmlns="http://www.w3.org/2000/svg" xmlns:xlink="http://www.w3.org/1999/xlink"><linearGradient id="a"><stop offset="0" stop-color="#b9d5ec"/><stop offset="1" stop-color="#b9d5ec" stop-opacity="0"/></linearGradient><linearGradient id="b" x1="100%" x2="51.081557%" xlink:href="#a" y1="0%" y2="96.025419%"/><linearGradient id="c" x1="100%" x2="51.081557%" y1="0%" y2="96.025419%"><stop offset="0" stop-color="#c5e5ff"/><stop offset="1" stop-color="#c8e6ff" stop-opacity="0"/></linearGradient><linearGradient id="d" x1="0%" x2="81.494573%" xlink:href="#a" y1="0%" y2="79.869975%"/><g fill="none" fill-rule="evenodd" transform="translate(0 2)"><path d="m1.99083769 8.60612496c-.31235819-.54728833-.49083769-1.18086359-.49083769-1.85612496 0-2.07106781 1.67893219-3.75 3.75-3.75.11024244 0 .2193738.0047571.32720001.01407722.6931943-1.76474699 2.41209879-3.01407722 4.42279999-3.01407722 2.6233526 0 4.75 2.12664744 4.75 4.75 0 .09397696-.0027291.18731649-.0081125.27994368 1.9770817.24244079 3.5081125 1.92745286 3.5081125 3.97005632 0 .03811056-.000533.07609663-.0015919.11395118 1.0150988.31807403 1.7515919 1.26605282 1.7515919 2.38604882 0 1.296337-.9866693 2.3622251-2.25 2.4876562v.0123438h-15c-1.51878306 0-2.75-1.2312169-2.75-2.75 0-1.25544409.84127473-2.31439794 1.99083769-2.64387504z" fill="#98b4cd" fill-rule="nonzero"/><path d="m8.75 9.5 5-.75-.4912785.61409817c-.330599.41324872-.7838095.71092583-1.2943785.85017193l-1.964343.5357299-.5 1 2.25-.25-.5700582.7125728c-.2813936.351742-.6525944.6209219-1.0743635.7790853l-1.3555783.5083419-.46556188.9311238c-.35022246.7004449-.87717523 1.2973676-1.52877148 1.7317651l-.50566664.3371111z" fill="#ffdb18" fill-rule="nonzero"/><circle cx="14.25" cy="9" fill="url(#b)" opacity=".6" r="4"/><circle cx="10" cy="4.75" fill="url(#c)" r="4.75"/><circle cx="17.5" cy="11.5" fill="url(#b)" opacity=".4" r="2.5"/><circle cx="2.75" cy="11.25" fill="url(#d)" opacity=".4" r="2.75"/></g></svg>