<?xml version="1.0" encoding="UTF-8"?>
<svg width="80px" height="80px" viewBox="0 0 80 80" version="1.1" xmlns="http://www.w3.org/2000/svg" xmlns:xlink="http://www.w3.org/1999/xlink">
    <!-- Generator: Sketch 52.4 (67378) - http://www.bohemiancoding.com/sketch -->
    <title>icon-deployment-type-blue-green</title>
    <desc>Created with Sketch.</desc>
    <g id="Deployments" stroke="none" stroke-width="1" fill="none" fill-rule="evenodd">
        <g id="19---dashboard---applications" transform="translate(-1170.000000, -570.000000)">
            <g id="content" transform="translate(320.000000, 0.000000)">
                <g id="standard-release-timeline" transform="translate(30.000000, 480.000000)">
                    <g id="data" transform="translate(540.000000, 20.000000)">
                        <g id="Group-15" transform="translate(280.000000, 70.000000)">
                            <g id="icon/deployment/type/canary">
                                <g id="ab" transform="translate(0.000000, 11.000000)">
                                    <path d="M4,-2.42230478e-16 L44,-2.66453526e-15 L34,48 L4,48 C1.790861,48 -8.06713365e-17,46.209139 -1.33226763e-15,44 L0,4 C-2.705415e-16,1.790861 1.790861,4.05812251e-16 4,0 Z" id="Rectangle-11-Copy-2" fill="#4E82EE" fill-rule="nonzero"></path>
                                    <path d="M40,10 L80,10 L70,58 L40,58 C37.790861,58 36,56.209139 36,54 L36,14 C36,11.790861 37.790861,10 40,10 Z" id="Rectangle-11-Copy" fill="#00BC98" fill-rule="nonzero" transform="translate(58.000000, 34.000000) scale(-1, -1) translate(-58.000000, -34.000000) "></path>
                                    <path d="M22.37,23.72 C23.1833374,23.9466678 23.8133311,24.359997 24.26,24.96 C24.7066689,25.560003 24.93,26.293329 24.93,27.16 C24.93,28.360006 24.5000043,29.2999966 23.64,29.98 C22.7799957,30.6600034 21.5966742,31 20.09,31 L14.93,31 C14.5433314,31 14.2400011,30.8933344 14.02,30.68 C13.7999989,30.4666656 13.69,30.1666686 13.69,29.78 L13.69,18.12 C13.69,17.7333314 13.7999989,17.4333344 14.02,17.22 C14.2400011,17.0066656 14.5433314,16.9 14.93,16.9 L19.89,16.9 C21.356674,16.9 22.5066625,17.2233301 23.34,17.87 C24.1733375,18.5166699 24.59,19.4199942 24.59,20.58 C24.59,21.3266704 24.3933353,21.9733306 24,22.52 C23.6066647,23.0666694 23.0633368,23.4666654 22.37,23.72 Z M16.21,22.84 L19.47,22.84 C21.2433422,22.84 22.13,22.1800066 22.13,20.86 C22.13,20.19333 21.9100022,19.7000016 21.47,19.38 C21.0299978,19.0599984 20.3633378,18.9 19.47,18.9 L16.21,18.9 L16.21,22.84 Z M19.81,29 C20.743338,29 21.4233312,28.833335 21.85,28.5 C22.2766688,28.166665 22.49,27.6466702 22.49,26.94 C22.49,26.2333298 22.2733355,25.7066684 21.84,25.36 C21.4066645,25.0133316 20.7300046,24.84 19.81,24.84 L16.21,24.84 L16.21,29 L19.81,29 Z" id="B-Copy" fill="#FFFFFF"></path>
                                    <path d="M65.93,33.38 C66.2366682,33.38 66.4833324,33.4699991 66.67,33.65 C66.8566676,33.8300009 66.95,34.0666652 66.95,34.36 L66.95,38.66 C66.95,39.2733364 66.8700008,39.7066654 66.71,39.96 C66.5499992,40.2133346 66.2233358,40.4199992 65.73,40.58 C65.196664,40.7666676 64.5766702,40.9133328 63.87,41.02 C63.1633298,41.1266672 62.4833366,41.18 61.83,41.18 C60.3766594,41.18 59.116672,40.8933362 58.05,40.32 C56.983328,39.7466638 56.1666695,38.9166721 55.6,37.83 C55.0333305,36.7433279 54.75,35.4466742 54.75,33.94 C54.75,32.4599926 55.0333305,31.1766721 55.6,30.09 C56.1666695,29.0033279 56.9699948,28.1700029 58.01,27.59 C59.0500052,27.0099971 60.2766596,26.72 61.69,26.72 C63.5700094,26.72 65.109994,27.2266616 66.31,28.24 C66.4700008,28.3866674 66.5866663,28.5333326 66.66,28.68 C66.7333337,28.8266674 66.77,28.999999 66.77,29.2 C66.77,29.4933348 66.6900008,29.739999 66.53,29.94 C66.3699992,30.140001 66.1766678,30.24 65.95,30.24 C65.8033326,30.24 65.6700006,30.2166669 65.55,30.17 C65.4299994,30.1233331 65.2900008,30.0466672 65.13,29.94 C64.5433304,29.5266646 63.9966692,29.2366675 63.49,29.07 C62.9833308,28.9033325 62.4100032,28.82 61.77,28.82 C60.3166594,28.82 59.2200037,29.2499957 58.48,30.11 C57.7399963,30.9700043 57.37,32.2466582 57.37,33.94 C57.37,37.406684 58.8899848,39.14 61.93,39.14 C62.8366712,39.14 63.7433288,39.0133346 64.65,38.76 L64.65,35.22 L62.39,35.22 C62.0699984,35.22 61.8200009,35.1400008 61.64,34.98 C61.4599991,34.8199992 61.37,34.5933348 61.37,34.3 C61.37,34.0066652 61.4599991,33.7800008 61.64,33.62 C61.8200009,33.4599992 62.0699984,33.38 62.39,33.38 L65.93,33.38 Z" id="G-Copy" fill="#FFFFFF"></path>
                                </g>
                            </g>
                        </g>
                    </g>
                </g>
            </g>
        </g>
    </g>
</svg>