<?xml version="1.0" encoding="UTF-8"?>
<svg width="20px" height="20px" viewBox="0 0 20 20" version="1.1" xmlns="http://www.w3.org/2000/svg" xmlns:xlink="http://www.w3.org/1999/xlink">
    <!-- Generator: Sketch 46.2 (44496) - http://www.bohemiancoding.com/sketch -->
    <title>icon-red-delete</title>
    <desc>Created with Sketch.</desc>
    <defs></defs>
    <g id="Dashboard" stroke="none" stroke-width="1" fill="none" fill-rule="evenodd">
        <g id="1440---dashboard---kintoblocks---edit-or-create-new-version---data-entered" transform="translate(-1350.000000, -900.000000)">
            <g id="content" transform="translate(320.000000, 0.000000)">
                <g id="content-box-copy-4" transform="translate(570.000000, 760.000000)">
                    <g id="Group-4-Copy" transform="translate(40.000000, 130.000000)">
                        <g id="icon-red-delete" transform="translate(420.000000, 10.000000)">
                            <circle id="Oval-10" fill="#F46464" cx="10" cy="10" r="10"></circle>
                            <path d="M9,9 L6,9 L6,9 C5.44771525,9 5,9.44771525 5,10 C5,10.5522847 5.44771525,11 6,11 L9,11 L9,14 C9,14.5522847 9.44771525,15 10,15 C10.5522847,15 11,14.5522847 11,14 L11,11 L14,11 C14.5522847,11 15,10.5522847 15,10 C15,9.44771525 14.5522847,9 14,9 L11,9 L11,6 C11,5.44771525 10.5522847,5 10,5 C9.44771525,5 9,5.44771525 9,6 L9,6 L9,9 Z" id="Combined-Shape" fill="#FFFFFF" transform="translate(10.000000, 10.000000) rotate(45.000000) translate(-10.000000, -10.000000) "></path>
                        </g>
                    </g>
                </g>
            </g>
        </g>
    </g>
</svg>