<?xml version="1.0" encoding="UTF-8"?>
<svg width="40px" height="40px" viewBox="0 0 40 40" version="1.1" xmlns="http://www.w3.org/2000/svg" xmlns:xlink="http://www.w3.org/1999/xlink">
    <!-- Generator: Sketch 47.1 (45422) - http://www.bohemiancoding.com/sketch -->
    <title>icon-red-exit-double</title>
    <desc>Created with Sketch.</desc>
    <defs></defs>
    <g id="Page-1" stroke="none" stroke-width="1" fill="none" fill-rule="evenodd">
        <g id="icon/destructive/large/leave">
            <g id="icon/blue/large-new">
                <circle id="Oval-10" fill="#F46464" cx="20" cy="20" r="20"></circle>
                <path d="M28,15.5 L26,14 L26,12 L14,12 L14,28 L26,28 L26,26 L28,24.5 L28,28 C28,29.1045695 27.1045695,30 26,30 L14,30 C12.8954305,30 12,29.1045695 12,28 L12,12 C12,10.8954305 12.8954305,10 14,10 L26,10 C27.1045695,10 28,10.8954305 28,12 L28,15.5 Z" id="Rectangle" fill="#FFFFFF" fill-rule="nonzero" opacity="0.400000006"></path>
                <path d="M19,20 L28,20" id="Path-3" stroke="#FFFFFF" stroke-width="2" stroke-linecap="round" stroke-linejoin="round"></path>
                <polyline id="Path-3-Copy" stroke="#FFFFFF" stroke-width="2" stroke-linecap="round" stroke-linejoin="round" points="25 17 29 20 25 23"></polyline>
            </g>
        </g>
    </g>
</svg>