<?xml version="1.0" encoding="UTF-8"?>
<svg width="150px" height="40px" viewBox="0 0 150 40" version="1.1" xmlns="http://www.w3.org/2000/svg" xmlns:xlink="http://www.w3.org/1999/xlink">
    <!-- Generator: Sketch 46.2 (44496) - http://www.bohemiancoding.com/sketch -->
    <title>icon-nav-dashboard-full</title>
    <desc>Created with Sketch.</desc>
    <defs>
        <linearGradient x1="50%" y1="100%" x2="50%" y2="3.061617e-15%" id="linearGradient-1">
            <stop stop-color="#2FADF6" offset="0%"></stop>
            <stop stop-color="#4E82EE" offset="100%"></stop>
        </linearGradient>
    </defs>
    <g id="Symbols" stroke="none" stroke-width="1" fill="none" fill-rule="evenodd">
        <g id="nav/full/dashboard" transform="translate(-345.000000, -10.000000)">
            <g id="icon-nav-dashboard-full">
                <g transform="translate(345.000000, 10.000000)">
                    <circle id="Mask" fill="url(#linearGradient-1)" cx="20" cy="20" r="15"></circle>
                    <path d="M8.81946746,30 C11.5660702,33.0687468 15.5575009,35 20,35 C24.4424991,35 28.4339298,33.0687468 31.1805325,30 C29.2825553,27.8794125 26.7901496,26.3019993 23.9652388,25.529684 C23.7060946,27.4884479 22.0295683,29 20,29 C17.9704317,29 16.2939054,27.4884479 16.0347612,25.529684 L16.0347612,25.529684 C13.2098504,26.3019993 10.7174447,27.8794125 8.81946746,30 Z" id="Combined-Shape" fill="#4DD0B7"></path>
                    <path d="M20,7 C20.5522847,7 21,7.44771525 21,8 L21,12 C21,12.5522847 20.5522847,13 20,13 C19.4477153,13 19,12.5522847 19,12 L19,8 C19,7.44771525 19.4477153,7 20,7 Z M8.74166975,26.5 C8.46552738,26.0217074 8.62940253,25.410117 9.10769515,25.1339746 L9.71891109,24.7810889 C10.1972037,24.5049465 10.8087941,24.6688217 11.0849365,25.1471143 C11.3610789,25.6254069 11.1972037,26.2369973 10.7189111,26.5131397 L10.1076952,26.8660254 C9.62940253,27.1421678 9.01781213,26.9782926 8.74166975,26.5 Z M7,20 C7,19.4477153 7.44771525,19 8,19 L9,19 C9.55228475,19 10,19.4477153 10,20 C10,20.5522847 9.55228475,21 9,21 L8,21 C7.44771525,21 7,20.5522847 7,20 Z M8.74166975,13.5 C9.01781213,13.0217074 9.62940253,12.8578322 10.1076952,13.1339746 L11.9019238,14.169873 C12.3802164,14.4460154 12.5440916,15.0576058 12.2679492,15.5358984 C11.9918068,16.014191 11.3802164,16.1780662 10.9019238,15.9019238 L9.10769515,14.8660254 C8.62940253,14.589883 8.46552738,13.9782926 8.74166975,13.5 Z M13.5,8.74166975 C13.9782926,8.46552738 14.589883,8.62940253 14.8660254,9.10769515 L16.1961524,11.4115427 C16.4722948,11.8898354 16.3084196,12.5014258 15.830127,12.7775681 C15.3518344,13.0537105 14.740244,12.8898354 14.4641016,12.4115427 L13.1339746,10.1076952 C12.8578322,9.62940253 13.0217074,9.01781213 13.5,8.74166975 Z" id="dial" fill="#FFFFFF" opacity="0.400000006"></path>
                    <path d="M18.9320478,27.0621778 C19.888633,27.6144626 21.1118138,27.2867123 21.6640986,26.330127 C22.7163833,24.5075164 26.2225342,15.0844727 25.9320478,14.9378222 C25.6415613,14.7911717 19.2522817,22.5075164 18.1999969,24.330127 C17.6477122,25.2867123 17.9754625,26.5098931 18.9320478,27.0621778 Z" id="dial" fill="#FFFFFF"></path>
                    <path d="M45.85,26.68 C45.6299989,26.4666656 45.52,26.1666686 45.52,25.78 L45.52,14.12 C45.52,13.7333314 45.6299989,13.4333344 45.85,13.22 C46.0700011,13.0066656 46.3733314,12.9 46.76,12.9 L50.72,12.9 C53.0266782,12.9 54.8166603,13.5166605 56.09,14.75 C57.3633397,15.9833395 58,17.7133222 58,19.94 C58,22.1800112 57.3633397,23.9166605 56.09,25.15 C54.8166603,26.3833395 53.0266782,27 50.72,27 L46.76,27 C46.3733314,27 46.0700011,26.8933344 45.85,26.68 Z M50.56,24.9 C53.8000162,24.9 55.42,23.2466832 55.42,19.94 C55.42,16.6466502 53.8000162,15 50.56,15 L48.1,15 L48.1,24.9 L50.56,24.9 Z M67.65,17.99 C68.3100033,18.6633367 68.64,19.6866598 68.64,21.06 L68.64,25.94 C68.64,26.3000018 68.5333344,26.5833323 68.32,26.79 C68.1066656,26.9966677 67.8133352,27.1 67.44,27.1 C67.0933316,27.1 66.8100011,26.9933344 66.59,26.78 C66.3699989,26.5666656 66.26,26.2866684 66.26,25.94 L66.26,25.5 C66.0333322,26.0200026 65.6766691,26.4266652 65.19,26.72 C64.7033309,27.0133348 64.1400032,27.16 63.5,27.16 C62.8466634,27.16 62.253336,27.026668 61.72,26.76 C61.186664,26.493332 60.7666682,26.126669 60.46,25.66 C60.1533318,25.193331 60,24.6733362 60,24.1 C60,23.3799964 60.1833315,22.8133354 60.55,22.4 C60.9166685,21.9866646 61.5133292,21.6866676 62.34,21.5 C63.1666708,21.3133324 64.3066594,21.22 65.76,21.22 L66.26,21.22 L66.26,20.76 C66.26,20.1066634 66.1200014,19.6300015 65.84,19.33 C65.5599986,19.0299985 65.1066698,18.88 64.48,18.88 C64.0933314,18.88 63.700002,18.9366661 63.3,19.05 C62.899998,19.1633339 62.4266694,19.3266656 61.88,19.54 C61.5333316,19.7133342 61.2800008,19.8 61.12,19.8 C60.8799988,19.8 60.6833341,19.7133342 60.53,19.54 C60.3766659,19.3666658 60.3,19.1400014 60.3,18.86 C60.3,18.6333322 60.3566661,18.4366675 60.47,18.27 C60.5833339,18.1033325 60.773332,17.9466674 61.04,17.8 C61.506669,17.5466654 62.0633301,17.3466674 62.71,17.2 C63.3566699,17.0533326 63.9933302,16.98 64.62,16.98 C65.9800068,16.98 66.9899967,17.3166633 67.65,17.99 Z M65.63,24.69 C66.0500021,24.2433311 66.26,23.6666702 66.26,22.96 L66.26,22.54 L65.9,22.54 C65.0066622,22.54 64.3133358,22.5799996 63.82,22.66 C63.3266642,22.7400004 62.9733344,22.879999 62.76,23.08 C62.5466656,23.280001 62.44,23.5533316 62.44,23.9 C62.44,24.3266688 62.5899985,24.6766653 62.89,24.95 C63.1900015,25.2233347 63.5599978,25.36 64,25.36 C64.66667,25.36 65.2099979,25.1366689 65.63,24.69 Z M71.2,26.3 C70.7733312,26.0466654 70.56,25.686669 70.56,25.22 C70.56,24.953332 70.6333326,24.7366675 70.78,24.57 C70.9266674,24.4033325 71.1066656,24.32 71.32,24.32 C71.5466678,24.32 71.859998,24.4266656 72.26,24.64 C72.6866688,24.840001 73.0766649,24.9933328 73.43,25.1 C73.7833351,25.2066672 74.2333306,25.26 74.78,25.26 C75.3400028,25.26 75.7766651,25.1666676 76.09,24.98 C76.4033349,24.7933324 76.56,24.533335 76.56,24.2 C76.56,23.9733322 76.4966673,23.793334 76.37,23.66 C76.2433327,23.526666 76.0166683,23.4033339 75.69,23.29 C75.3633317,23.1766661 74.86667,23.0466674 74.2,22.9 C73.0133274,22.6599988 72.1633359,22.3200022 71.65,21.88 C71.1366641,21.4399978 70.88,20.8333372 70.88,20.06 C70.88,19.4733304 71.0533316,18.9433357 71.4,18.47 C71.7466684,17.9966643 72.2233303,17.6300013 72.83,17.37 C73.4366697,17.1099987 74.1266628,16.98 74.9,16.98 C75.4600028,16.98 75.9999974,17.0499993 76.52,17.19 C77.0400026,17.3300007 77.5066646,17.533332 77.92,17.8 C78.3466688,18.066668 78.56,18.4199978 78.56,18.86 C78.56,19.126668 78.4866674,19.3499991 78.34,19.53 C78.1933326,19.7100009 78.0133344,19.8 77.8,19.8 C77.6533326,19.8 77.5100007,19.7700003 77.37,19.71 C77.2299993,19.6499997 77.0533344,19.5600006 76.84,19.44 C76.4533314,19.239999 76.1200014,19.0900005 75.84,18.99 C75.5599986,18.8899995 75.2133354,18.84 74.8,18.84 C74.3066642,18.84 73.9166681,18.939999 73.63,19.14 C73.3433319,19.340001 73.2,19.6133316 73.2,19.96 C73.2,20.293335 73.3466652,20.5466658 73.64,20.72 C73.9333348,20.8933342 74.4999958,21.0666658 75.34,21.24 C76.2333378,21.4266676 76.9333308,21.6399988 77.44,21.88 C77.9466692,22.1200012 78.3099989,22.4199982 78.53,22.78 C78.7500011,23.1400018 78.86,23.5999972 78.86,24.16 C78.86,25.0666712 78.4833371,25.7933306 77.73,26.34 C76.9766629,26.8866694 75.9733396,27.16 74.72,27.16 C73.2666594,27.16 72.0933378,26.8733362 71.2,26.3 Z M90.04,21 L90.04,25.92 C90.04,26.2933352 89.9300011,26.5866656 89.71,26.8 C89.4899989,27.0133344 89.1866686,27.12 88.8,27.12 C88.4133314,27.12 88.1066678,27.0133344 87.88,26.8 C87.6533322,26.5866656 87.54,26.2933352 87.54,25.92 L87.54,21 C87.54,20.2933298 87.3966681,19.7766683 87.11,19.45 C86.8233319,19.1233317 86.3733364,18.96 85.76,18.96 C85.0399964,18.96 84.4633355,19.1866644 84.03,19.64 C83.5966645,20.0933356 83.38,20.6999962 83.38,21.46 L83.38,25.92 C83.38,26.2933352 83.2666678,26.5866656 83.04,26.8 C82.8133322,27.0133344 82.5066686,27.12 82.12,27.12 C81.7333314,27.12 81.4300011,27.0133344 81.21,26.8 C80.9899989,26.5866656 80.88,26.2933352 80.88,25.92 L80.88,13.96 C80.88,13.6133316 80.9966655,13.3333344 81.23,13.12 C81.4633345,12.9066656 81.7666648,12.8 82.14,12.8 C82.5133352,12.8 82.8133322,12.899999 83.04,13.1 C83.2666678,13.300001 83.38,13.5733316 83.38,13.92 L83.38,18.58 C83.713335,18.0599974 84.1566639,17.6633347 84.71,17.39 C85.2633361,17.1166653 85.8933298,16.98 86.6,16.98 C88.8933448,16.98 90.04,18.3199866 90.04,21 Z M100.46,17.6 C101.113337,18.0133354 101.623332,18.5999962 101.99,19.36 C102.356669,20.1200038 102.54,21.0066616 102.54,22.02 C102.54,23.0333384 102.356669,23.9299961 101.99,24.71 C101.623332,25.4900039 101.110003,26.0933312 100.45,26.52 C99.7899967,26.9466688 99.0400042,27.16 98.2,27.16 C97.4933298,27.16 96.8633361,27.0066682 96.31,26.7 C95.7566639,26.3933318 95.3333348,25.9666694 95.04,25.42 L95.04,25.92 C95.04,26.2800018 94.9266678,26.5666656 94.7,26.78 C94.4733322,26.9933344 94.1733352,27.1 93.8,27.1 C93.4266648,27.1 93.1300011,26.9933344 92.91,26.78 C92.6899989,26.5666656 92.58,26.2800018 92.58,25.92 L92.58,13.96 C92.58,13.6133316 92.6966655,13.3333344 92.93,13.12 C93.1633345,12.9066656 93.4666648,12.8 93.84,12.8 C94.2133352,12.8 94.5133322,12.899999 94.74,13.1 C94.9666678,13.300001 95.08,13.5733316 95.08,13.92 L95.08,18.64 C95.3733348,18.106664 95.7933306,17.6966681 96.34,17.41 C96.8866694,17.1233319 97.5066632,16.98 98.2,16.98 C99.0533376,16.98 99.8066634,17.1866646 100.46,17.6 Z M99.38,24.38 C99.8200022,23.8199972 100.04,23.0333384 100.04,22.02 C100.04,21.019995 99.8233355,20.253336 99.39,19.72 C98.9566645,19.186664 98.340004,18.92 97.54,18.92 C96.739996,18.92 96.1233355,19.1899973 95.69,19.73 C95.2566645,20.2700027 95.04,21.0466616 95.04,22.06 C95.04,23.0733384 95.2566645,23.8533306 95.69,24.4 C96.1233355,24.9466694 96.739996,25.22 97.54,25.22 C98.3266706,25.22 98.9399978,24.9400028 99.38,24.38 Z M106.43,26.54 C105.676663,26.1266646 105.093335,25.5333372 104.68,24.76 C104.266665,23.9866628 104.06,23.0866718 104.06,22.06 C104.06,21.0333282 104.266665,20.1366705 104.68,19.37 C105.093335,18.6033295 105.676663,18.0133354 106.43,17.6 C107.183337,17.1866646 108.059995,16.98 109.06,16.98 C110.060005,16.98 110.936663,17.1866646 111.69,17.6 C112.443337,18.0133354 113.023331,18.6033295 113.43,19.37 C113.836669,20.1366705 114.04,21.0333282 114.04,22.06 C114.04,23.0866718 113.836669,23.9866628 113.43,24.76 C113.023331,25.5333372 112.443337,26.1266646 111.69,26.54 C110.936663,26.9533354 110.060005,27.16 109.06,27.16 C108.059995,27.16 107.183337,26.9533354 106.43,26.54 Z M110.9,24.42 C111.326669,23.886664 111.54,23.1000052 111.54,22.06 C111.54,21.0333282 111.326669,20.2500027 110.9,19.71 C110.473331,19.1699973 109.860004,18.9 109.06,18.9 C108.259996,18.9 107.643336,19.1699973 107.21,19.71 C106.776665,20.2500027 106.56,21.0333282 106.56,22.06 C106.56,23.1000052 106.773331,23.886664 107.2,24.42 C107.626669,24.953336 108.239996,25.22 109.04,25.22 C109.853337,25.22 110.473331,24.953336 110.9,24.42 Z M123.37,17.99 C124.030003,18.6633367 124.36,19.6866598 124.36,21.06 L124.36,25.94 C124.36,26.3000018 124.253334,26.5833323 124.04,26.79 C123.826666,26.9966677 123.533335,27.1 123.16,27.1 C122.813332,27.1 122.530001,26.9933344 122.31,26.78 C122.089999,26.5666656 121.98,26.2866684 121.98,25.94 L121.98,25.5 C121.753332,26.0200026 121.396669,26.4266652 120.91,26.72 C120.423331,27.0133348 119.860003,27.16 119.22,27.16 C118.566663,27.16 117.973336,27.026668 117.44,26.76 C116.906664,26.493332 116.486668,26.126669 116.18,25.66 C115.873332,25.193331 115.72,24.6733362 115.72,24.1 C115.72,23.3799964 115.903332,22.8133354 116.27,22.4 C116.636669,21.9866646 117.233329,21.6866676 118.06,21.5 C118.886671,21.3133324 120.026659,21.22 121.48,21.22 L121.98,21.22 L121.98,20.76 C121.98,20.1066634 121.840001,19.6300015 121.56,19.33 C121.279999,19.0299985 120.82667,18.88 120.2,18.88 C119.813331,18.88 119.420002,18.9366661 119.02,19.05 C118.619998,19.1633339 118.146669,19.3266656 117.6,19.54 C117.253332,19.7133342 117.000001,19.8 116.84,19.8 C116.599999,19.8 116.403334,19.7133342 116.25,19.54 C116.096666,19.3666658 116.02,19.1400014 116.02,18.86 C116.02,18.6333322 116.076666,18.4366675 116.19,18.27 C116.303334,18.1033325 116.493332,17.9466674 116.76,17.8 C117.226669,17.5466654 117.78333,17.3466674 118.43,17.2 C119.07667,17.0533326 119.71333,16.98 120.34,16.98 C121.700007,16.98 122.709997,17.3166633 123.37,17.99 Z M121.35,24.69 C121.770002,24.2433311 121.98,23.6666702 121.98,22.96 L121.98,22.54 L121.62,22.54 C120.726662,22.54 120.033336,22.5799996 119.54,22.66 C119.046664,22.7400004 118.693334,22.879999 118.48,23.08 C118.266666,23.280001 118.16,23.5533316 118.16,23.9 C118.16,24.3266688 118.309999,24.6766653 118.61,24.95 C118.910002,25.2233347 119.279998,25.36 119.72,25.36 C120.38667,25.36 120.929998,25.1366689 121.35,24.69 Z M133.18,17.24 C133.380001,17.4133342 133.48,17.6733316 133.48,18.02 C133.48,18.3800018 133.393334,18.6466658 133.22,18.82 C133.046666,18.9933342 132.733336,19.1066664 132.28,19.16 L131.68,19.22 C130.893329,19.3000004 130.316669,19.5666644 129.95,20.02 C129.583332,20.4733356 129.4,21.0399966 129.4,21.72 L129.4,25.92 C129.4,26.3066686 129.280001,26.6033323 129.04,26.81 C128.799999,27.0166677 128.500002,27.12 128.14,27.12 C127.779998,27.12 127.483335,27.0166677 127.25,26.81 C127.016666,26.6033323 126.9,26.3066686 126.9,25.92 L126.9,18.18 C126.9,17.8066648 127.016666,17.520001 127.25,17.32 C127.483335,17.119999 127.773332,17.02 128.12,17.02 C128.466668,17.02 128.746666,17.1166657 128.96,17.31 C129.173334,17.5033343 129.28,17.7799982 129.28,18.14 L129.28,18.94 C129.533335,18.3533304 129.909998,17.9000016 130.41,17.58 C130.910003,17.2599984 131.466664,17.0800002 132.08,17.04 L132.36,17.02 C132.706668,16.9933332 132.979999,17.0666658 133.18,17.24 Z M143.64,13.12 C143.880001,13.3333344 144,13.6133316 144,13.96 L144,25.92 C144,26.2800018 143.886668,26.5666656 143.66,26.78 C143.433332,26.9933344 143.133335,27.1 142.76,27.1 C142.386665,27.1 142.086668,26.9933344 141.86,26.78 C141.633332,26.5666656 141.52,26.2800018 141.52,25.92 L141.52,25.42 C141.226665,25.9666694 140.803336,26.3933318 140.25,26.7 C139.696664,27.0066682 139.06667,27.16 138.36,27.16 C137.519996,27.16 136.770003,26.9466688 136.11,26.52 C135.449997,26.0933312 134.936669,25.4900039 134.57,24.71 C134.203332,23.9299961 134.02,23.0333384 134.02,22.02 C134.02,21.0066616 134.203332,20.1200038 134.57,19.36 C134.936669,18.5999962 135.446663,18.0133354 136.1,17.6 C136.753337,17.1866646 137.506662,16.98 138.36,16.98 C139.06667,16.98 139.693331,17.1266652 140.24,17.42 C140.786669,17.7133348 141.206665,18.126664 141.5,18.66 L141.5,13.92 C141.5,13.586665 141.609999,13.3166677 141.83,13.11 C142.050001,12.9033323 142.346665,12.8 142.72,12.8 C143.093335,12.8 143.399999,12.9066656 143.64,13.12 Z M140.87,24.4 C141.303336,23.8533306 141.52,23.0733384 141.52,22.06 C141.52,21.0466616 141.303336,20.2700027 140.87,19.73 C140.436665,19.1899973 139.826671,18.92 139.04,18.92 C138.239996,18.92 137.620002,19.186664 137.18,19.72 C136.739998,20.253336 136.52,21.019995 136.52,22.02 C136.52,23.0333384 136.739998,23.8199972 137.18,24.38 C137.620002,24.9400028 138.233329,25.22 139.02,25.22 C139.820004,25.22 140.436665,24.9466694 140.87,24.4 Z" id="Dashboard" fill="#245B70"></path>
                </g>
            </g>
        </g>
    </g>
</svg>