<?xml version="1.0" encoding="UTF-8"?>
<svg width="20px" height="20px" viewBox="0 0 20 20" version="1.1" xmlns="http://www.w3.org/2000/svg" xmlns:xlink="http://www.w3.org/1999/xlink">
    <!-- Generator: Sketch 47.1 (45422) - http://www.bohemiancoding.com/sketch -->
    <title>icon-status-owner</title>
    <desc>Created with Sketch.</desc>
    <defs></defs>
    <g id="Page-1" stroke="none" stroke-width="1" fill="none" fill-rule="evenodd">
        <g id="Group-Copy">
            <g id="icon/status/owner">
                <g>
                    <circle id="Combined-Shape-Copy" fill="#FF943C" cx="10" cy="10" r="10"></circle>
                    <path d="M5.91521597,12.7091232 L4.72958866,8.64147739 L4.72958866,8.64147739 C4.65231501,8.37636723 4.80458658,8.09881032 5.06969674,8.02153667 C5.22456844,7.97639505 5.39170547,8.00874734 5.51854597,8.10841929 L8,10.0583592 L9.52520297,5.43824547 L9.52520297,5.43824547 C9.61176871,5.17602231 9.89451797,5.03362383 10.1567411,5.12018957 C10.3071539,5.1698442 10.4251424,5.28783267 10.474797,5.43824547 L12,10.0583592 L14.481454,8.10841929 L14.481454,8.10841929 C14.6985802,7.93780036 15.0129098,7.97550195 15.1835287,8.19262815 C15.2832007,8.31946866 15.315553,8.48660568 15.2704113,8.64147739 L14.0847985,12.7090735 L14.0847922,12.7090716 C14.0193781,12.9334943 13.8774083,13.1279085 13.6835496,13.2585354 C12.9499626,13.7528451 11.7220938,14 9.99994336,14 C8.27784592,14 7.05002774,13.7528604 6.31648883,13.2585811 L6.31647184,13.2586063 C6.12260681,13.1279746 5.98063237,12.9335536 5.91521597,12.7091232 Z" id="Combined-Shape" fill="#FFFFFF"></path>
                </g>
            </g>
        </g>
    </g>
</svg>