<?xml version="1.0" encoding="UTF-8"?>
<svg width="40px" height="40px" viewBox="0 0 40 40" version="1.1" xmlns="http://www.w3.org/2000/svg" xmlns:xlink="http://www.w3.org/1999/xlink">
    <!-- Generator: Sketch 50.2 (55047) - http://www.bohemiancoding.com/sketch -->
    <title>icon/kintoblock/task/small</title>
    <desc>Created with Sketch.</desc>
    <defs></defs>
    <g id="icon/kintoblock/task/small" stroke="none" stroke-width="1" fill="none" fill-rule="evenodd">
        <g id="Group" transform="translate(3.000000, 4.000000)">
            <path d="M2,2 L32,2 C33.1045695,2 34,2.8954305 34,4 L34,28 C34,29.1045695 33.1045695,30 32,30 L2,30 C0.8954305,30 1.3527075e-16,29.1045695 0,28 L0,4 C-1.3527075e-16,2.8954305 0.8954305,2 2,2 Z" id="Mask-Copy" fill="#F78496"></path>
            <path d="M0,10 L34,10 L34,28 C34,29.1045695 33.1045695,30 32,30 L6,30 L0,24 L0,10 Z" id="Mask" fill="#FF9E9E"></path>
            <path d="M0,24 L5,24 C5.55228475,24 6,24.4477153 6,25 L6,30 L0,24 Z" id="Rectangle-5" fill="#EF7893"></path>
            <path d="M18.3220033,24.3526368 C20.6569982,24.1925492 22.5,22.3049806 22.5,20 C22.5,18.9124326 22.0891348,17.8887545 21.3572805,17.094283 C21.0813369,16.7947298 21.1080649,16.3349762 21.4169791,16.0673945 C21.7258934,15.7998128 22.2000143,15.8257309 22.4759579,16.1252841 C23.4510782,17.1838352 24,18.551484 24,20 C24,23.1147181 21.4759964,25.6577877 18.3031353,25.8108851 L19.2803299,26.7584678 C19.5732232,27.0424855 19.5732232,27.5029691 19.2803299,27.7869867 C18.9874367,28.0710044 18.512563,28.0710044 18.2196697,27.7869867 L15.9696697,25.6051686 C15.6767764,25.3211509 15.6767764,24.8606673 15.9696697,24.5766496 L18.2196697,22.3948314 C18.512563,22.1108138 18.9874367,22.1108138 19.2803299,22.3948314 C19.5732232,22.6788491 19.5732232,23.1393327 19.2803299,23.4233504 L18.3220033,24.3526368 Z M17.6780203,15.64734 C15.3405242,15.8073629 13.5008114,17.6973908 13.5,19.9982213 C13.4999997,21.1198185 13.9357996,22.1718254 14.7076129,22.9746744 C14.9900566,23.2684756 14.9734066,23.7286761 14.6704241,24.0025609 C14.3674416,24.2764458 13.8928598,24.2603003 13.6104161,23.9664991 C12.5821871,22.8969235 11.9999996,21.4915417 12,19.9979724 C12.0010964,16.8886794 14.5200213,14.3424518 17.6968727,14.189123 L16.7196697,13.2415322 C16.4267765,12.9575145 16.4267765,12.4970309 16.7196697,12.2130133 C17.0125629,11.9289956 17.4874367,11.9289956 17.7803299,12.2130133 L20.03033,14.3948314 C20.3232232,14.6788491 20.3232232,15.1393327 20.03033,15.4233504 L17.7803299,17.6051686 C17.4874367,17.8891862 17.0125629,17.8891862 16.7196697,17.6051686 C16.4267765,17.3211509 16.4267765,16.8606673 16.7196697,16.5766496 L17.6780203,15.64734 Z" id="Combined-Shape" fill="#AA4545"></path>
            <path d="M2,2 L32,2 C33.1045695,2 34,2.8954305 34,4 L34,10 L0,10 L0,4 C-1.3527075e-16,2.8954305 0.8954305,2 2,2 Z" id="Rectangle-2" fill="#F46464"></path>
            <path d="M5,4 C6.1045695,4 7,4.8954305 7,6 C7,7.1045695 6.1045695,8 5,8 C3.8954305,8 3,7.1045695 3,6 C3,4.8954305 3.8954305,4 5,4 Z" id="Rectangle-Copy" fill="#AA4545"></path>
            <path d="M29,4 C30.1045695,4 31,4.8954305 31,6 C31,7.1045695 30.1045695,8 29,8 C27.8954305,8 27,7.1045695 27,6 C27,4.8954305 27.8954305,4 29,4 Z" id="Rectangle-Copy-2" fill="#AA4545"></path>
            <path d="M29,0 C29.5522847,-1.01453063e-16 30,0.44771525 30,1 L30,6 C30,6.55228475 29.5522847,7 29,7 C28.4477153,7 28,6.55228475 28,6 L28,1 C28,0.44771525 28.4477153,1.01453063e-16 29,0 Z" id="Rectangle" fill="#A2B0BD"></path>
            <path d="M5,0 C5.55228475,-1.01453063e-16 6,0.44771525 6,1 L6,6 C6,6.55228475 5.55228475,7 5,7 C4.44771525,7 4,6.55228475 4,6 L4,1 C4,0.44771525 4.44771525,1.01453063e-16 5,0 Z" id="Rectangle-Copy" fill="#A2B0BD"></path>
        </g>
    </g>
</svg>