<?xml version="1.0" encoding="UTF-8"?>
<svg width="80px" height="80px" viewBox="0 0 80 80" version="1.1" xmlns="http://www.w3.org/2000/svg" xmlns:xlink="http://www.w3.org/1999/xlink">
    <!-- Generator: Sketch 52.4 (67378) - http://www.bohemiancoding.com/sketch -->
    <title>icon-deployment-type-a-b</title>
    <desc>Created with Sketch.</desc>
    <g id="Deployments" stroke="none" stroke-width="1" fill="none" fill-rule="evenodd">
        <g id="19---dashboard---applications" transform="translate(-1170.000000, -570.000000)">
            <g id="content" transform="translate(320.000000, 0.000000)">
                <g id="standard-release-timeline" transform="translate(30.000000, 480.000000)">
                    <g id="data" transform="translate(540.000000, 20.000000)">
                        <g id="Group-15" transform="translate(280.000000, 70.000000)">
                            <g id="icon/deployment/type/testing">
                                <g id="ab" transform="translate(5.000000, 6.000000)">
                                    <g id="Group" transform="translate(17.000000, 50.000000) rotate(-10.000000) translate(-17.000000, -50.000000) translate(3.000000, 36.000000)">
                                        <rect id="Rectangle" fill="#41D5B9" x="0" y="0" width="28" height="28" rx="6"></rect>
                                        <path d="M17.37,13.72 C18.1833374,13.9466678 18.8133311,14.359997 19.26,14.96 C19.7066689,15.560003 19.93,16.293329 19.93,17.16 C19.93,18.360006 19.5000043,19.2999966 18.64,19.98 C17.7799957,20.6600034 16.5966742,21 15.09,21 L9.93,21 C9.5433314,21 9.2400011,20.8933344 9.02,20.68 C8.7999989,20.4666656 8.69,20.1666686 8.69,19.78 L8.69,8.12 C8.69,7.7333314 8.7999989,7.4333344 9.02,7.22 C9.2400011,7.0066656 9.5433314,6.9 9.93,6.9 L14.89,6.9 C16.356674,6.9 17.5066625,7.2233301 18.34,7.87 C19.1733375,8.5166699 19.59,9.4199942 19.59,10.58 C19.59,11.3266704 19.3933353,11.9733306 19,12.52 C18.6066647,13.0666694 18.0633368,13.4666654 17.37,13.72 Z M11.21,12.84 L14.47,12.84 C16.2433422,12.84 17.13,12.1800066 17.13,10.86 C17.13,10.19333 16.9100022,9.7000016 16.47,9.38 C16.0299978,9.0599984 15.3633378,8.9 14.47,8.9 L11.21,8.9 L11.21,12.84 Z M14.81,19 C15.743338,19 16.4233312,18.833335 16.85,18.5 C17.2766688,18.166665 17.49,17.6466702 17.49,16.94 C17.49,16.2333298 17.2733355,15.7066684 16.84,15.36 C16.4066645,15.0133316 15.7300046,14.84 14.81,14.84 L11.21,14.84 L11.21,19 L14.81,19 Z" id="B-Copy" fill="#FFFFFF"></path>
                                    </g>
                                    <circle id="Oval" fill="#53D9EB" cx="53" cy="50" r="16"></circle>
                                    <path d="M36.1755705,0.854101966 L49.9923903,10.8926091 C50.6933651,11.4018971 50.9866814,12.3046318 50.7189328,13.1286771 L45.4413773,29.3713229 C45.1736287,30.1953682 44.4057168,30.7532889 43.5392642,30.7532889 L26.4607358,30.7532889 C25.5942832,30.7532889 24.8263713,30.1953682 24.5586227,29.3713229 L19.2810672,13.1286771 C19.0133186,12.3046318 19.3066349,11.4018971 20.0076097,10.8926091 L33.8244295,0.854101966 C34.5254043,0.344813951 35.4745957,0.344813951 36.1755705,0.854101966 Z" id="Polygon" fill="#5D8EF5"></path>
                                    <path d="M54.04,57.18 C52.6799932,57.18 51.4900051,56.8866696 50.47,56.3 C49.4499949,55.7133304 48.6666694,54.8733388 48.12,53.78 C47.5733306,52.6866612 47.3,51.406674 47.3,49.94 C47.3,48.473326 47.5733306,47.1966721 48.12,46.11 C48.6666694,45.0233279 49.4499949,44.1866696 50.47,43.6 C51.4900051,43.0133304 52.6799932,42.72 54.04,42.72 C54.9200044,42.72 55.7466628,42.8499987 56.52,43.11 C57.2933372,43.3700013 57.979997,43.7466642 58.58,44.24 C58.7533342,44.373334 58.873333,44.5133326 58.94,44.66 C59.006667,44.8066674 59.04,44.9866656 59.04,45.2 C59.04,45.4933348 58.9600008,45.739999 58.8,45.94 C58.6399992,46.140001 58.4466678,46.24 58.22,46.24 C57.953332,46.24 57.6800014,46.1466676 57.4,45.96 C56.8266638,45.5333312 56.2933358,45.2366675 55.8,45.07 C55.3066642,44.9033325 54.760003,44.82 54.16,44.82 C52.7733264,44.82 51.7233369,45.253329 51.01,46.12 C50.2966631,46.986671 49.94,48.2599916 49.94,49.94 C49.94,51.6333418 50.2966631,52.913329 51.01,53.78 C51.7233369,54.646671 52.7733264,55.08 54.16,55.08 C54.7333362,55.08 55.2633309,54.9933342 55.75,54.82 C56.2366691,54.6466658 56.7866636,54.3533354 57.4,53.94 C57.533334,53.8599996 57.666666,53.7933336 57.8,53.74 C57.933334,53.6866664 58.0733326,53.66 58.22,53.66 C58.4466678,53.66 58.6399992,53.759999 58.8,53.96 C58.9600008,54.160001 59.04,54.4066652 59.04,54.7 C59.04,54.900001 59.006667,55.0766659 58.94,55.23 C58.873333,55.3833341 58.7533342,55.526666 58.58,55.66 C57.979997,56.1533358 57.2933372,56.5299987 56.52,56.79 C55.7466628,57.0500013 54.9200044,57.18 54.04,57.18 Z" id="C-Copy" fill="#FFFFFF"></path>
                                    <path d="M41.88,21.46 C41.9600004,21.6333342 42,21.8066658 42,21.98 C42,22.2866682 41.8766679,22.5466656 41.63,22.76 C41.3833321,22.9733344 41.1000016,23.08 40.78,23.08 C40.5666656,23.08 40.3666676,23.0233339 40.18,22.91 C39.9933324,22.7966661 39.8466672,22.6200012 39.74,22.38 L38.54,19.7 L31.5,19.7 L30.3,22.38 C30.1933328,22.6200012 30.0466676,22.7966661 29.86,22.91 C29.6733324,23.0233339 29.4666678,23.08 29.24,23.08 C28.9333318,23.08 28.6533346,22.9733344 28.4,22.76 C28.1466654,22.5466656 28.02,22.2866682 28.02,21.98 C28.02,21.8066658 28.0599996,21.6333342 28.14,21.46 L33.66,9.6 C33.7800006,9.333332 33.9633321,9.1300007 34.21,8.99 C34.4566679,8.8499993 34.7199986,8.78 35,8.78 C35.2800014,8.78 35.5433321,8.8499993 35.79,8.99 C36.0366679,9.1300007 36.2199994,9.333332 36.34,9.6 L41.88,21.46 Z M32.38,17.7 L37.66,17.7 L35.02,11.76 L32.38,17.7 Z" id="A-Copy" fill="#FFFFFF"></path>
                                </g>
                            </g>
                        </g>
                    </g>
                </g>
            </g>
        </g>
    </g>
</svg>