<?xml version="1.0" encoding="UTF-8"?>
<svg width="80px" height="80px" viewBox="0 0 80 80" version="1.1" xmlns="http://www.w3.org/2000/svg" xmlns:xlink="http://www.w3.org/1999/xlink">
    <!-- Generator: Sketch 52.4 (67378) - http://www.bohemiancoding.com/sketch -->
    <title>icon/status/success large</title>
    <desc>Created with Sketch.</desc>
    <g id="KintoBlocks" stroke="none" stroke-width="1" fill="none" fill-rule="evenodd">
        <g id="29---dashboard---kintoblocks---progress" transform="translate(-760.000000, -680.000000)">
            <g id="progress-copy-7" transform="translate(240.000000, 640.000000)">
                <g id="deploy" transform="translate(500.000000, 26.000000)">
                    <g id="icon/status/deploying" transform="translate(20.000000, 14.000000)">
                        <circle id="Combined-Shape-Copy" fill="#FF943C" cx="40" cy="40" r="40"></circle>
                        <path d="M56,56 C58.209139,56 60,57.790861 60,60 C60,62.209139 58.209139,64 56,64 L44,64 C41.790861,64 40,62.209139 40,60 L40,48 C40,45.790861 41.790861,44 44,44 C46.209139,44 48,45.790861 48,48 L48,56 L56,56 Z M24,24 C21.790861,24 20,22.209139 20,20 C20,17.790861 21.790861,16 24,16 L36,16 C38.209139,16 40,17.790861 40,20 L40,32 C40,34.209139 38.209139,36 36,36 C33.790861,36 32,34.209139 32,32 L32,24 L24,24 Z" id="Combined-Shape" fill="#FFFFFF"></path>
                        <path d="M47.3470783,60.7421384 C45.2647179,61.4797494 42.9786793,60.3896147 42.2410682,58.3072542 C41.5034571,56.2248938 42.5935919,53.9388552 44.6759523,53.2012441 C50.2186052,51.2379327 54,45.977908 54,40 C54,34.6867123 51.016305,29.9078088 46.3691866,27.5284218 C44.4028122,26.5216116 43.6249316,24.1113693 44.6317417,22.1449948 C45.6385519,20.1786204 48.0487942,19.4007398 50.0151686,20.40755 C57.3096865,24.1424412 62,31.6547892 62,40 C62,49.3927327 56.0595935,57.6560023 47.3470783,60.7421384 Z" id="Oval-2" fill="#FFFFFF"></path>
                        <path d="M33.0702313,19.1147652 C35.1670527,18.4193263 37.4306269,19.5553713 38.1260657,21.6521927 C38.8215046,23.7490141 37.6854596,26.0125882 35.5886382,26.7080271 C29.9109893,28.5910953 26,33.9205331 26,40 C26,45.4246526 29.1110982,50.2871957 33.9091645,52.6101997 C35.8975206,53.5728706 36.7290026,55.9651506 35.7663317,57.9535067 C34.8036608,59.9418627 32.4113807,60.7733448 30.4230247,59.8106739 C22.889908,56.1634838 18,48.5207201 18,40 C18,30.4472095 24.1436287,22.0753924 33.0702313,19.1147652 Z" id="Oval-2-Copy" fill="#FFFFFF"></path>
                    </g>
                </g>
            </g>
        </g>
    </g>
</svg>