<?xml version="1.0" encoding="UTF-8"?>
<svg width="80px" height="80px" viewBox="0 0 80 80" version="1.1" xmlns="http://www.w3.org/2000/svg" xmlns:xlink="http://www.w3.org/1999/xlink">
    <!-- Generator: Sketch 48.2 (47327) - http://www.bohemiancoding.com/sketch -->
    <title>icon-services-analytics-prometheus-large</title>
    <desc>Created with Sketch.</desc>
    <defs></defs>
    <g id="icon/services/analytics/prometheus/large" stroke="none" stroke-width="1" fill="none" fill-rule="evenodd">
        <g id="icon-services-analytics-prometheus-large">
            <circle id="Oval-4" fill="#FFFFFF" cx="40" cy="40" r="40"></circle>
            <circle id="Oval-4-Copy" fill="#FFFFFF" cx="40" cy="40" r="30"></circle>
            <path d="M40.0002647,10 C23.4322748,10 10,23.4309236 10,39.9997353 C10,56.5680176 23.4322748,70 40.0002647,70 C56.5682546,70 70,56.5680176 70,39.9997353 C70,23.4309236 56.5677252,10 40.0002647,10 Z M39.5,66 C34.8058364,66 31,62.8654671 31,59 L48,59 C48,62.8649401 44.1941636,66 39.5,66 Z M53.9994743,57 L26,57 L26,52 L54,52 L54,57 L53.9994743,57 Z M53.4793611,49 L25.4989871,49 C25.4059306,48.8911787 25.3107593,48.7839657 25.2208752,48.6735362 C22.3382411,45.1247841 21.6593522,43.2721425 21.0000263,41.3841206 C20.988923,41.321937 24.4954581,42.110489 26.9820738,42.6776461 C26.9820738,42.6776461 28.2615996,42.9778426 30.1322451,43.3236047 C28.3361505,41.1889928 27.2697027,38.4754303 27.2697027,35.7018286 C27.2697027,29.6126631 31.8759956,24.2916791 30.2141982,19.9908273 C31.8315823,20.1243076 33.5615858,23.4516648 33.678435,28.6541783 C35.3978639,26.245101 36.117465,21.8456132 36.117465,19.1481327 C36.117465,16.3552326 37.9325939,13.1109655 39.7482516,13 C38.1298101,15.7044493 40.1675342,18.0229317 41.9789621,23.7743761 C42.6583797,25.9347192 42.571668,29.5703139 43.0961679,31.8759307 C43.2701199,27.0872595 44.0822487,20.1001846 47.0785597,17.6878909 C45.7567356,20.7257728 47.2741897,24.5270117 48.3120861,26.3544583 C49.9865729,29.3028173 51.0017339,31.5366013 51.0017339,35.7613318 C51.0017339,38.5939008 49.9701823,41.2608255 48.230133,43.3455834 C50.2086394,42.9692656 51.5748768,42.6299363 51.5748768,42.6299363 L57.9999998,41.3589255 C58.0005285,41.3583894 57.0667919,45.2512955 53.4793611,49 Z" id="Shape" fill="#E6522C" fill-rule="nonzero"></path>
        </g>
    </g>
</svg>