<?xml version="1.0" encoding="UTF-8"?>
<svg width="10px" height="10px" viewBox="0 0 10 10" version="1.1" xmlns="http://www.w3.org/2000/svg" xmlns:xlink="http://www.w3.org/1999/xlink">
    <!-- Generator: Sketch 51.3 (57544) - http://www.bohemiancoding.com/sketch -->
    <title>icon/secondary/small/processing</title>
    <desc>Created with Sketch.</desc>
    <defs></defs>
    <g id="KintoBlocks" stroke="none" stroke-width="1" fill="none" fill-rule="evenodd">
        <g id="16---dashboard---kintoblocks---edit-branch---data-entered" transform="translate(-1325.000000, -1565.000000)" fill="#96B2CC" fill-rule="nonzero">
            <g id="content" transform="translate(320.000000, 0.000000)">
                <g id="content-box-copy-2" transform="translate(30.000000, 1030.000000)">
                    <g id="search-dropdown-options-copy" transform="translate(40.000000, 110.000000)">
                        <g id="icon/secondary/small/processing" transform="translate(935.000000, 425.000000)">
                            <path d="M3.62024007,0.117237167 C4.17959766,-0.00987547383 5,-0.145806192 5,0.364981209 L5,3.14502998 C5,3.65682283 4.59298614,4.07171291 4.09090909,4.07171291 C3.58883205,4.07171291 3.18181818,3.65682283 3.18181818,3.14502998 L3.18181818,2.33552023 C2.34734698,2.92841187 1.81818182,3.9116817 1.81818182,4.99839583 C1.81818182,6.25512907 2.52524959,7.38163798 3.61571921,7.91981001 C4.06761831,8.14283269 4.25659151,8.69705396 4.03780266,9.15769786 C3.81901381,9.61834176 3.2753138,9.81097182 2.8234147,9.58794914 C1.11134273,8.74300194 0,6.9723973 0,4.99839583 C0,2.78529387 1.39627924,0.845788873 3.42505257,0.159898207 C3.48974546,0.138026741 3.55513677,0.123974609 3.62024007,0.117237167 Z M6.81818182,7.66123538 C7.6535096,7.06783119 8.18181818,6.08423263 8.18181818,4.99839583 C8.18181818,3.76746258 7.50370568,2.66033053 6.44754241,2.10909618 C6.00063913,1.87584774 5.82384809,1.31746514 6.05266858,0.861913734 C6.28148906,0.406362329 6.82927141,0.22615017 7.27617469,0.459398612 C8.93401966,1.32466358 10,3.06505475 10,4.99839583 C10,7.17441709 8.64990762,9.0887748 6.66979053,9.8037422 C6.61979132,9.82179557 6.56927545,9.83512281 6.51871247,9.84395215 C6.47949126,9.86148827 6.43688652,9.87505692 6.39089824,9.8846581 C5.78259866,10.0116555 5,10.1436033 5,9.63181046 L5,6.85176168 C5,6.33996884 5.40701386,5.92507876 5.90909091,5.92507876 C6.41116795,5.92507876 6.81818182,6.33996884 6.81818182,6.85176168 L6.81818182,7.66123538 Z" id="Combined-Shape"></path>
                        </g>
                    </g>
                </g>
            </g>
        </g>
    </g>
</svg>