<?xml version="1.0" encoding="UTF-8"?>
<svg width="90px" height="40px" viewBox="0 0 90 40" version="1.1" xmlns="http://www.w3.org/2000/svg" xmlns:xlink="http://www.w3.org/1999/xlink">
    <!-- Generator: Sketch 49.3 (51167) - http://www.bohemiancoding.com/sketch -->
    <title>icon-nav-docs-full</title>
    <desc>Created with Sketch.</desc>
    <defs></defs>
    <g id="Components" stroke="none" stroke-width="1" fill="none" fill-rule="evenodd">
        <g id="nav/half/dashboard/regular" transform="translate(-278.000000, -10.000000)">
            <g id="docs">
                <g transform="translate(278.000000, 10.000000)">
                    <rect id="Rectangle" stroke="#EDF3FD" x="0.5" y="0.5" width="89" height="39" rx="4"></rect>
                    <path d="M40.208,26 C39.8986651,26 39.6560009,25.9146675 39.48,25.744 C39.3039991,25.5733325 39.216,25.3333349 39.216,25.024 L39.216,15.696 C39.216,15.3866651 39.3039991,15.1466675 39.48,14.976 C39.6560009,14.8053325 39.8986651,14.72 40.208,14.72 L43.376,14.72 C45.2213426,14.72 46.6533282,15.2133284 47.672,16.2 C48.6906718,17.1866716 49.2,18.5706578 49.2,20.352 C49.2,22.144009 48.6906718,23.5333284 47.672,24.52 C46.6533282,25.5066716 45.2213426,26 43.376,26 L40.208,26 Z M43.248,24.32 C45.840013,24.32 47.136,22.9973466 47.136,20.352 C47.136,17.7173202 45.840013,16.4 43.248,16.4 L41.28,16.4 L41.28,24.32 L43.248,24.32 Z M54.672,26.128 C53.871996,26.128 53.1706697,25.9626683 52.568,25.632 C51.9653303,25.3013317 51.4986683,24.8266698 51.168,24.208 C50.8373317,23.5893302 50.672,22.8693374 50.672,22.048 C50.672,21.2266626 50.8373317,20.5093364 51.168,19.896 C51.4986683,19.2826636 51.9653303,18.8106683 52.568,18.48 C53.1706697,18.1493317 53.871996,17.984 54.672,17.984 C55.472004,17.984 56.1733303,18.1493317 56.776,18.48 C57.3786697,18.8106683 57.842665,19.2826636 58.168,19.896 C58.493335,20.5093364 58.656,21.2266626 58.656,22.048 C58.656,22.8693374 58.493335,23.5893302 58.168,24.208 C57.842665,24.8266698 57.3786697,25.3013317 56.776,25.632 C56.1733303,25.9626683 55.472004,26.128 54.672,26.128 Z M54.656,24.576 C55.3066699,24.576 55.802665,24.3626688 56.144,23.936 C56.485335,23.5093312 56.656,22.8800042 56.656,22.048 C56.656,21.2266626 56.485335,20.6000022 56.144,20.168 C55.802665,19.7359978 55.3120032,19.52 54.672,19.52 C54.0319968,19.52 53.5386684,19.7359978 53.192,20.168 C52.8453316,20.6000022 52.672,21.2266626 52.672,22.048 C52.672,22.8800042 52.842665,23.5093312 53.184,23.936 C53.525335,24.3626688 54.0159968,24.576 54.656,24.576 Z M63.776,26.128 C62.9973294,26.128 62.312003,25.9626683 61.72,25.632 C61.127997,25.3013317 60.6720016,24.832003 60.352,24.224 C60.0319984,23.615997 59.872,22.9066707 59.872,22.096 C59.872,21.2853293 60.0399983,20.5680031 60.376,19.944 C60.7120017,19.3199969 61.183997,18.837335 61.792,18.496 C62.400003,18.154665 63.0986627,17.984 63.888,17.984 C64.3040021,17.984 64.7226646,18.0426661 65.144,18.16 C65.5653354,18.2773339 65.9359984,18.4373323 66.256,18.64 C66.597335,18.8640011 66.768,19.146665 66.768,19.488 C66.768,19.7226678 66.7120006,19.9119993 66.6,20.056 C66.4879994,20.2000007 66.3413342,20.272 66.16,20.272 C66.0426661,20.272 65.9200006,20.2453336 65.792,20.192 C65.6639994,20.1386664 65.5360006,20.074667 65.408,20 C65.1733322,19.8613326 64.9493344,19.7520004 64.736,19.672 C64.5226656,19.5919996 64.2773347,19.552 64,19.552 C63.3386634,19.552 62.8293351,19.7679978 62.472,20.2 C62.1146649,20.6320022 61.936,21.2533293 61.936,22.064 C61.936,22.864004 62.1146649,23.4799978 62.472,23.912 C62.8293351,24.3440022 63.3386634,24.56 64,24.56 C64.266668,24.56 64.503999,24.5200004 64.712,24.44 C64.920001,24.3599996 65.1519987,24.2506674 65.408,24.112 C65.5680008,24.0159995 65.7066661,23.9440002 65.824,23.896 C65.9413339,23.8479998 66.0586661,23.824 66.176,23.824 C66.3466675,23.824 66.4906661,23.8986659 66.608,24.048 C66.7253339,24.1973341 66.784,24.3839989 66.784,24.608 C66.784,24.7893342 66.7440004,24.946666 66.664,25.08 C66.5839996,25.213334 66.4533342,25.3333328 66.272,25.44 C65.9413317,25.6533344 65.5573355,25.8213327 65.12,25.944 C64.6826645,26.0666673 64.234669,26.128 63.776,26.128 Z M70.944,26.128 C69.7813275,26.128 68.8426702,25.898669 68.128,25.44 C67.786665,25.2373323 67.616,24.9493352 67.616,24.576 C67.616,24.3626656 67.6746661,24.189334 67.792,24.056 C67.9093339,23.922666 68.0533325,23.856 68.224,23.856 C68.4053342,23.856 68.6559984,23.9413325 68.976,24.112 C69.317335,24.2720008 69.6293319,24.3946662 69.912,24.48 C70.1946681,24.5653338 70.5546645,24.608 70.992,24.608 C71.4400022,24.608 71.7893321,24.5333341 72.04,24.384 C72.2906679,24.2346659 72.416,24.026668 72.416,23.76 C72.416,23.5786658 72.3653338,23.4346672 72.264,23.328 C72.1626662,23.2213328 71.9813346,23.1226671 71.72,23.032 C71.4586654,22.9413329 71.061336,22.8373339 70.528,22.72 C69.5786619,22.527999 68.8986687,22.2560018 68.488,21.904 C68.0773313,21.5519982 67.872,21.0666698 67.872,20.448 C67.872,19.9786643 68.0106653,19.5546686 68.288,19.176 C68.5653347,18.7973314 68.9466642,18.504001 69.432,18.296 C69.9173358,18.087999 70.4693302,17.984 71.088,17.984 C71.5360022,17.984 71.9679979,18.0399994 72.384,18.152 C72.8000021,18.2640006 73.1733317,18.4266656 73.504,18.64 C73.845335,18.8533344 74.016,19.1359982 74.016,19.488 C74.016,19.7013344 73.9573339,19.8799993 73.84,20.024 C73.7226661,20.1680007 73.5786675,20.24 73.408,20.24 C73.2906661,20.24 73.1760006,20.2160002 73.064,20.168 C72.9519994,20.1199998 72.8106675,20.0480005 72.64,19.952 C72.3306651,19.7919992 72.0640011,19.6720004 71.84,19.592 C71.6159989,19.5119996 71.3386683,19.472 71.008,19.472 C70.6133314,19.472 70.3013345,19.5519992 70.072,19.712 C69.8426655,19.8720008 69.728,20.0906653 69.728,20.368 C69.728,20.634668 69.8453322,20.8373326 70.08,20.976 C70.3146678,21.1146674 70.7679966,21.2533326 71.44,21.392 C72.1546702,21.5413341 72.7146646,21.711999 73.12,21.904 C73.5253354,22.096001 73.8159991,22.3359986 73.992,22.624 C74.1680009,22.9120014 74.256,23.2799978 74.256,23.728 C74.256,24.453337 73.9546697,25.0346645 73.352,25.472 C72.7493303,25.9093355 71.9466717,26.128 70.944,26.128 Z" id="Docs" fill="#556F7D"></path>
                    <g id="icon/status/hints" transform="translate(10.000000, 10.000000)">
                        <path d="M10,20 C4.4771525,20 0,15.5228475 0,10 C0,4.4771525 4.4771525,0 10,0 C15.5228475,0 20,4.4771525 20,10 C20,15.5228475 15.5228475,20 10,20 Z" fill="#A295EE" opacity="0.199558424"></path>
                        <path d="M10,16.5 C9.17157288,16.5 8.5,15.8284271 8.5,15 C8.5,14.1715729 9.17157288,13.5 10,13.5 C10.8284271,13.5 11.5,14.1715729 11.5,15 C11.5,15.8284271 10.8284271,16.5 10,16.5 Z M9,11.5 C9,11.3293864 9,11.1587728 9,10.9881592 C9,10.4353799 9,10.1064453 9.11,9.85321045 C9.28832593,9.44268007 9.592664,9.08533488 10.126,8.776 C10.546875,8.52789307 12.3321533,7.90621973 12.3321533,6.85021973 C12.3321533,5.79421973 11.4417783,5.03912354 10.126,5.08850098 C9.24881445,5.12141927 8.52828662,5.61661784 7.9644165,6.57409668 L6.54980469,5.87451172 C6.68847205,5.5438434 7.39725781,3.5 10.126,3.5 C12.8547422,3.5 14.0831299,4.92962272 14.0831299,6.85021973 C14.0831299,8.5806377 12.4438752,9.53930664 11.9660034,9.75909424 C11.4881316,9.97888184 11.1695256,10.2344314 11.0751953,10.4369507 C11,10.5983887 11,10.848961 11,11.4520874 C11,11.4680583 11,11.4840291 11,11.5 C11,12.0522847 10.5522847,12.5 10,12.5 C9.44771525,12.5 9,12.0522847 9,11.5 Z" id="Combined-Shape" fill="#7A68E8"></path>
                    </g>
                </g>
            </g>
        </g>
    </g>
</svg>