<?xml version="1.0" encoding="UTF-8"?>
<svg width="20px" height="20px" viewBox="0 0 20 20" version="1.1" xmlns="http://www.w3.org/2000/svg" xmlns:xlink="http://www.w3.org/1999/xlink">
    <!-- Generator: Sketch 48.1 (47250) - http://www.bohemiancoding.com/sketch -->
    <title>icon/kintoblock/task</title>
    <desc>Created with Sketch.</desc>
    <defs></defs>
    <g id="Components" stroke="none" stroke-width="1" fill="none" fill-rule="evenodd">
        <g id="icon/kintoblock/task">
            <g id="illustration/kintoblock/task" transform="translate(0.750000, 0.000000)">
                <rect id="Mask-Copy" fill="#E4E0FA" x="0.25" y="2" width="18" height="16" rx="0.5"></rect>
                <polygon id="Mask" fill="#D6D1F8" points="0.25 5 18.25 5 18.25 18 3.25 18 0.25 15"></polygon>
                <path d="M0.25,15 L2.75,15 C3.02614237,15 3.25,15.2238576 3.25,15.5 L3.25,18 L0.25,15 Z" id="Rectangle-5" fill="#F5F4FD"></path>
                <path d="M9.4646689,14.4924378 C11.0213321,14.3823776 12.25,13.0846742 12.25,11.5 C12.25,10.7522974 11.9760899,10.0485187 11.488187,9.50231958 C11.3042246,9.29637675 11.3220432,8.98029611 11.5279861,8.79633372 C11.7339289,8.61237132 12.0500096,8.63018998 12.233972,8.83613281 C12.8840522,9.56388669 13.25,10.5041452 13.25,11.5 C13.25,13.6413687 11.5673309,15.389729 9.45209019,15.4949835 L10.1035533,16.1464466 C10.2988154,16.3417088 10.2988154,16.6582912 10.1035533,16.8535534 C9.90829115,17.0488155 9.59170865,17.0488155 9.39644649,16.8535534 L7.89644645,15.3535534 C7.7011843,15.1582912 7.7011843,14.8417088 7.89644645,14.6464466 L9.39644649,13.1464466 C9.59170865,12.9511845 9.90829115,12.9511845 10.1035533,13.1464466 C10.2988154,13.3417088 10.2988154,13.6582912 10.1035533,13.8535534 L9.4646689,14.4924378 Z M9.03534684,8.50754626 C7.47701615,8.61756201 6.25054092,9.9169562 6.25,11.4987771 C6.24999983,12.2698752 6.54053309,12.9931299 7.05507524,13.5450886 C7.24337107,13.747077 7.23227109,14.0634648 7.03028274,14.2517606 C6.82829439,14.4400565 6.51190654,14.4289565 6.32361071,14.2269681 C5.63812473,13.4916349 5.24999974,12.5254349 5.25,11.498606 C5.25073095,9.36096708 6.93001422,7.61043562 9.04791515,7.50502206 L8.39644646,6.85355339 C8.20118431,6.65829124 8.20118431,6.34170876 8.39644646,6.14644661 C8.59170862,5.95118446 8.90829112,5.95118446 9.10355327,6.14644661 L10.6035533,7.64644661 C10.7988155,7.84170876 10.7988155,8.15829124 10.6035533,8.35355339 L9.10355327,9.85355339 C8.90829112,10.0488155 8.59170862,10.0488155 8.39644646,9.85355339 C8.20118431,9.65829124 8.20118431,9.34170876 8.39644646,9.14644661 L9.03534684,8.50754626 Z" id="Combined-Shape" fill="#9486EC"></path>
                <path d="M0.75,2 L17.75,2 C18.0261424,2 18.25,2.22385763 18.25,2.5 L18.25,5 L0.25,5 L0.25,2.5 C0.25,2.22385763 0.473857625,2 0.75,2 Z" id="Rectangle-2" fill="#9486EC"></path>
                <rect id="Rectangle" fill="#F5B9EA" x="14.25" y="0" width="1" height="4" rx="0.5"></rect>
                <rect id="Rectangle-Copy" fill="#F5B9EA" x="3.25" y="0" width="1" height="4" rx="0.5"></rect>
            </g>
        </g>
    </g>
</svg>