<svg height="40" viewBox="0 0 40 40" width="40" xmlns="http://www.w3.org/2000/svg" xmlns:xlink="http://www.w3.org/1999/xlink"><linearGradient id="a"><stop offset="0" stop-color="#53d9eb"/><stop offset="1" stop-color="#53d9eb" stop-opacity="0"/></linearGradient><linearGradient id="b" x1="100%" x2="0%" xlink:href="#a" y1="0%" y2="100%"/><linearGradient id="c" x1="100%" x2="50%" y1="0%" y2="98.148483%"><stop offset="0" stop-color="#06ecfe"/><stop offset="1" stop-color="#06ecfe" stop-opacity="0"/></linearGradient><linearGradient id="d" x1="0%" x2="100%" xlink:href="#a" y1="0%" y2="100%"/><linearGradient id="e" x1="50%" x2="50%" y1="0%" y2="72.807018%"><stop offset="0" stop-color="#1ec4e9"/><stop offset="1" stop-color="#53d9eb" stop-opacity="0"/></linearGradient><g fill="none" fill-rule="evenodd"><g transform="translate(0 4)"><path d="m3.98167538 17.2122499c-.62471639-1.0945766-.98167538-2.3617272-.98167538-3.7122499 0-4.14213562 3.35786438-7.5 7.5-7.5.2204849 0 .4387476.0095142.6544.02815444 1.3863886-3.52949398 4.8241976-6.02815444 8.8456-6.02815444 5.2467051 0 9.5 4.25329488 9.5 9.5 0 .18795392-.0054583.37463299-.0162249.5598874 3.9541633.4848815 7.0162249 3.8549057 7.0162249 7.9401126 0 .0762211-.0010659.1521933-.0031838.2279024 2.0301975.636148 3.5031838 2.5321056 3.5031838 4.7720976 0 2.5926741-1.9733387 4.7244502-4.5 4.9753124v.0246876h-30c-3.03756612 0-5.5-2.4624339-5.5-5.5 0-2.5108882 1.68254946-4.6287959 3.98167538-5.2877501z" fill="#49bfff" fill-rule="nonzero"/><circle cx="28.5" cy="18" fill="url(#b)" r="8"/><circle cx="20" cy="9.5" fill="url(#c)" r="9.5"/><circle cx="35" cy="23" fill="url(#c)" opacity=".4" r="5"/><circle cx="5.5" cy="22.5" fill="url(#d)" opacity=".4" r="5.5"/></g><g fill-rule="nonzero" transform="translate(14 20.5)"><rect fill="#365aa6" height="7" rx="1" width="12"/><g fill="#b9d5ec"><path d="m3.5 2h1v1h-1z"/><path d="m5.5 2h1v1h-1z"/><path d="m7.5 2h1v1h-1z"/></g><path d="m3 3h6c.27614237 0 .5.22385763.5.5v6.5c0 1.6568542-1.34314575 3-3 3h-1c-1.65685425 0-3-1.3431458-3-3v-6.5c0-.27614237.22385763-.5.5-.5z" fill="#6cead2"/><path d="m6 13c0 3.3137085 2.6862915 6 6 6h9" stroke="url(#e)" stroke-linecap="round" stroke-width="2"/></g></g></svg>