<?xml version="1.0" encoding="UTF-8"?>
<svg width="80px" height="80px" viewBox="0 0 80 80" version="1.1" xmlns="http://www.w3.org/2000/svg" xmlns:xlink="http://www.w3.org/1999/xlink">
    <!-- Generator: Sketch 52.4 (67378) - http://www.bohemiancoding.com/sketch -->
    <title>icon-status-build-success</title>
    <desc>Created with Sketch.</desc>
    <g id="KintoBlocks" stroke="none" stroke-width="1" fill="none" fill-rule="evenodd">
        <g id="29---dashboard---kintoblocks---progress" transform="translate(-900.000000, -940.000000)">
            <g id="progress-copy-6" transform="translate(240.000000, 920.000000)">
                <g id="success" transform="translate(653.000000, 14.000000)">
                    <path d="M47,82 C66.3299662,82 82,66.3299662 82,47 C82,27.6700338 66.3299662,12 47,12 C27.6700338,12 12,27.6700338 12,47 C12,66.3299662 27.6700338,82 47,82 Z" id="Oval" stroke="#19BF7B" stroke-width="4" stroke-linecap="round" stroke-linejoin="round" stroke-dasharray="140,90" transform="translate(47.000000, 47.000000) rotate(-66.000000) translate(-47.000000, -47.000000) "></path>
                    <g id="icon/status/success-large" transform="translate(27.000000, 26.000000)">
                        <g id="icon-status-success-large">
                            <circle id="Combined-Shape" fill="#19BF7B" cx="20" cy="20" r="20"></circle>
                            <path d="M26.3615362,10.8530753 C26.9949652,9.94817672 28.2420261,9.72810714 29.1469247,10.3615362 C30.0518233,10.9949652 30.2718929,12.2420261 29.6384638,13.1469247 L19.1384638,28.1469247 C18.425306,29.1657216 16.9651445,29.2935716 16.0857864,28.4142136 L10.0857864,22.4142136 C9.30473785,21.633165 9.30473785,20.366835 10.0857864,19.5857864 C10.866835,18.8047379 12.133165,18.8047379 12.9142136,19.5857864 L17.2285811,23.900154 L26.3615362,10.8530753 Z" id="Path-2" fill="#FFFFFF"></path>
                        </g>
                    </g>
                    <g id="text" transform="translate(7.000000, 46.000000)" fill="#98B4CD">
                        <path d="M66.3299189,28.2603131 C66.8145435,28.6405746 67.221794,29.064353 67.5516826,29.531661 C67.8815712,29.998969 68.0954065,30.4489351 68.1931948,30.8815728 C68.253999,31.1021525 68.2078556,31.3099935 68.0547633,31.5051021 C67.9510556,31.6372724 67.8215943,31.7212681 67.6663753,31.7570916 C67.5111563,31.7929152 67.3800513,31.7688504 67.2730562,31.6848965 C67.1597674,31.5960042 67.0653146,31.4507112 66.9896951,31.249013 C66.8721528,30.8415506 66.7000486,30.4777142 66.4733773,30.157493 C66.2467059,29.8372718 65.9540006,29.5364195 65.5952525,29.2549272 C65.1358033,28.8944196 64.7203899,28.698115 64.3489999,28.6660076 C63.97761,28.6339001 63.6709273,28.7720431 63.4289427,29.0804405 C63.2412812,29.3196059 63.2116939,29.5938231 63.3401801,29.9031004 C63.4686663,30.2123776 63.7534774,30.6366858 64.1946218,31.1760377 C64.6546477,31.730205 64.996005,32.2217617 65.2187039,32.6507227 C65.4414027,33.0796837 65.5445642,33.4860262 65.5281913,33.8697623 C65.5118185,34.2534984 65.3554806,34.6341756 65.0591729,35.0118051 C64.7529883,35.4020223 64.3687675,35.6649026 63.906499,35.8004539 C63.4442306,35.9360053 62.9485178,35.9359941 62.4193461,35.8004205 C61.8901743,35.6648469 61.3801368,35.404464 60.8892184,35.019264 C59.9892013,34.3130641 59.4436403,33.4985802 59.2525191,32.575788 C59.2250224,32.4423559 59.2198931,32.3290182 59.2371309,32.2357715 C59.2543687,32.1425248 59.3024945,32.0455523 59.3815099,31.9448511 C59.4852176,31.8126808 59.614679,31.7286851 59.7698979,31.6928615 C59.9251169,31.657038 60.0562219,31.6811028 60.163217,31.7650566 C60.2261552,31.8144412 60.2769647,31.8695619 60.3156468,31.9304203 C60.3543289,31.9912787 60.3979723,32.0814511 60.4465782,32.2009402 C60.5564712,32.5922318 60.6967679,32.9285682 60.8674725,33.2099595 C61.0381771,33.4913507 61.2997526,33.770319 61.6522068,34.0468728 C62.080187,34.3826882 62.4863779,34.5615877 62.8707917,34.5835767 C63.2552055,34.6055657 63.5684,34.4623636 63.8103845,34.1539662 C64.0128615,33.8959193 64.0582803,33.611245 63.9466426,33.2999347 C63.8350048,32.9886244 63.5617648,32.5657689 63.1269142,32.0313554 C62.6655329,31.4659559 62.3206899,30.9691219 62.0923749,30.5408386 C61.8640598,30.1125553 61.7509009,29.7059947 61.7528945,29.3211447 C61.7548882,28.9362948 61.896629,28.5645013 62.1781213,28.2057533 C62.4843059,27.8155361 62.8632494,27.5561414 63.3149633,27.4275616 C63.7666772,27.2989818 64.2546435,27.3056255 64.7788768,27.447493 C65.3031102,27.5893604 65.820119,27.8602977 66.3299189,28.2603131 Z M57.7063002,22.9140882 C58.7702983,23.3761721 59.4579545,24.001881 59.7692894,24.7912337 C60.0806244,25.5805865 60.0068444,26.5035791 59.5479473,27.5602393 L57.8223117,31.533702 C57.7298949,31.7465016 57.5934319,31.8900183 57.4129186,31.9642566 C57.2324052,32.0384948 57.0357517,32.0294056 56.8229521,31.9369889 C56.6101525,31.8445721 56.4692668,31.7070713 56.400291,31.5244824 C56.3313151,31.3418935 56.3430354,31.1442022 56.4354522,30.9314026 L58.1945488,26.8808921 C58.4845463,26.2131416 58.5458716,25.6401524 58.3785267,25.1619075 C58.2111817,24.6836625 57.8229915,24.312294 57.2139443,24.0477909 C56.612235,23.7864745 56.0787337,23.7597419 55.6134243,23.9675922 C55.1481149,24.1754426 54.7720606,24.6095676 54.4852499,25.2699802 L52.7261532,29.3204906 C52.6337364,29.5332903 52.4972734,29.676807 52.3167601,29.7510452 C52.1362467,29.8252835 51.9395932,29.8161943 51.7267936,29.7237775 C51.5139939,29.6313608 51.3731083,29.49386 51.3041324,29.3112711 C51.2351566,29.1286822 51.2468769,28.9309909 51.3392936,28.7181912 L53.0649293,24.7447285 C53.5206395,23.6954063 54.1439584,23.0132534 54.9349045,22.6982495 C55.7258507,22.3832456 56.64964,22.4551911 57.7063002,22.9140882 Z M47.2070622,19.6848108 C48.0141354,19.8052077 48.6943463,20.0846254 49.2477154,20.5230724 C49.8010844,20.9615193 50.1915741,21.5293435 50.4191962,22.226562 C50.6468183,22.9237804 50.6957087,23.7075644 50.5658689,24.5779375 C50.436029,25.4483107 50.1608076,26.1817225 49.7401963,26.778195 C49.319585,27.3746675 48.780667,27.8018231 48.1234261,28.0596747 C47.4661852,28.3175262 46.7340392,28.3862525 45.9269659,28.2658556 C45.404742,28.1879517 44.9256838,28.0376248 44.4897769,27.8148703 C44.0538699,27.5921159 43.6797279,27.3078039 43.3673396,26.9619257 C43.2762809,26.8674562 43.2174632,26.7737533 43.1908848,26.6808142 C43.1643064,26.587875 43.1604601,26.4781073 43.1793459,26.3515075 C43.2053139,26.1774329 43.2746244,26.0381362 43.3872796,25.9336133 C43.4999349,25.8290904 43.6235167,25.7868627 43.7580289,25.8069289 C43.9162786,25.8305361 44.0702197,25.9101197 44.2198567,26.0456821 C44.5223219,26.3496371 44.8125538,26.572901 45.0905612,26.7154804 C45.3685685,26.8580598 45.6855983,26.9559062 46.04166,27.0090225 C46.8645582,27.1317802 47.5260181,26.9675805 48.0260595,26.5164184 C48.5261008,26.0652564 48.8504795,25.3411999 48.9992051,24.344227 C49.1491111,23.3393417 49.0507684,22.5481805 48.7041741,21.9707198 C48.3575798,21.393259 47.7728423,21.043155 46.9499441,20.9203974 C46.6097073,20.8696418 46.2875186,20.8741535 45.9833683,20.9339326 C45.6792179,20.9937116 45.3268653,21.1190944 44.9262999,21.3100847 C44.8400929,21.345756 44.7550675,21.3735144 44.6712213,21.3933607 C44.587375,21.413207 44.5019345,21.4166381 44.4148972,21.4036541 C44.2803849,21.383588 44.1745082,21.3071303 44.0972639,21.1742787 C44.0200195,21.0414271 43.9943817,20.8879663 44.0203497,20.7138917 C44.0380551,20.5952044 44.0734756,20.4933165 44.1266122,20.4082247 C44.1797487,20.323133 44.2636487,20.2486982 44.3783146,20.184918 C44.7780497,19.9452725 45.2188812,19.7825359 45.7008223,19.6967035 C46.1827634,19.6108711 46.6848383,19.6069069 47.2070622,19.6848108 Z M37.3051187,19.3766374 C38.1169795,19.294512 38.8450602,19.397758 39.4893825,19.6863785 C40.1337048,19.9749989 40.6520374,20.429133 41.044396,21.0487943 C41.4367546,21.6684556 41.6772136,22.4160431 41.7657802,23.2915793 C41.8543468,24.1671156 41.7682731,24.945724 41.5075567,25.6274279 C41.2468402,26.3091319 40.8297538,26.8558799 40.2562847,27.2676884 C39.6828157,27.679497 38.9901612,27.9264602 38.1783003,28.0085856 C37.6529785,28.0617255 37.1516518,28.0340409 36.674305,27.925531 C36.1969581,27.817021 35.764309,27.6336354 35.3763445,27.3753687 C35.2648205,27.3062414 35.1847328,27.229915 35.1360791,27.1463871 C35.0874253,27.0628593 35.0566577,26.9574215 35.0437753,26.8300708 C35.026062,26.6549636 35.0589227,26.5028857 35.1423585,26.3738326 C35.2257943,26.2447794 35.3351656,26.1734102 35.4704757,26.1597226 C35.6296642,26.1436196 35.7984658,26.1828294 35.9768857,26.2773531 C36.3449056,26.497433 36.681192,26.6423219 36.9857549,26.7120241 C37.2903179,26.7817263 37.6216813,26.7984612 37.9798552,26.7622295 C38.807635,26.6784938 39.4082629,26.3564118 39.7817571,25.7959739 C40.1552513,25.2355361 40.2912718,24.4538854 40.1898229,23.4509984 C40.0875687,22.440152 39.7973641,21.6975966 39.3192003,21.2233098 C38.8410365,20.7490231 38.1880746,20.5537505 37.3602948,20.6374861 C37.0180398,20.6721076 36.706891,20.7558473 36.4268391,20.8887078 C36.1467872,21.0215683 35.8361791,21.2298849 35.4950054,21.5136638 C35.4202421,21.5694718 35.3446748,21.6173197 35.2683012,21.6572089 C35.1919276,21.6970981 35.1099652,21.7214707 35.0224116,21.7303273 C34.8871014,21.7440149 34.765653,21.6959947 34.6580627,21.5862652 C34.5504724,21.4765357 34.4878216,21.3341194 34.4701082,21.1590122 C34.458031,21.0396209 34.4672611,20.9321473 34.497799,20.8365882 C34.5283369,20.7410291 34.5913154,20.6482204 34.6867363,20.5581592 C35.0151196,20.2274289 35.4022785,19.961114 35.8482244,19.7592065 C36.2941704,19.5572991 36.7797969,19.4297773 37.3051187,19.3766374 Z M30.3753989,20.5844358 C30.5940739,20.5069388 30.7869963,20.506468 30.9541717,20.5830232 C31.1213472,20.6595784 31.2436816,20.8071913 31.3211785,21.0258664 L33.6580998,27.6200164 C33.7355967,27.8386914 33.7335144,28.0303967 33.6518528,28.1951381 C33.5701912,28.3598795 33.4200251,28.4809968 33.2013501,28.5584937 L29.11818,30.005541 C28.8995049,30.083038 28.7124761,30.0941513 28.5570878,30.0388815 C28.4016995,29.9836117 28.2919393,29.8654924 28.227804,29.6845199 C28.1609963,29.496007 28.1698784,29.3294761 28.2544505,29.1849221 C28.3390226,29.0403682 28.4906439,28.9293445 28.709319,28.8518475 L32.0686029,27.6613405 L31.2909653,25.4670607 L28.1578957,26.5773989 C27.9392207,26.6548959 27.7521919,26.6660093 27.5968036,26.6107394 C27.4414153,26.5554696 27.330319,26.4335801 27.2635113,26.2450671 C27.1993759,26.0640947 27.2102622,25.9032191 27.2961705,25.7624354 C27.3820788,25.6216518 27.5343681,25.5125131 27.7530432,25.4350162 L30.8861127,24.3246779 L30.0603738,21.9946695 L26.7010898,23.1851766 C26.4824148,23.2626735 26.2947179,23.2719018 26.1379934,23.2128617 C25.981269,23.1538217 25.8695046,23.030047 25.8026969,22.841534 C25.7385615,22.6605616 25.7494478,22.499686 25.8353561,22.3589023 C25.9212644,22.2181187 26.0735538,22.10898 26.2922288,22.0314831 L30.3753989,20.5844358 Z M20.2383687,25.0044721 C20.7556946,24.6700567 21.2889752,24.4229677 21.8382264,24.2631979 C22.3874776,24.103428 22.8825474,24.0477423 23.3234507,24.0961389 C23.5518086,24.1104634 23.7333022,24.221761 23.867937,24.4300351 C23.9591413,24.571124 23.9964108,24.7208788 23.9797467,24.879304 C23.9630826,25.0377293 23.8976441,25.1538562 23.7834293,25.2276882 C23.662496,25.3058632 23.4943675,25.3478656 23.2790388,25.3536967 C22.8555077,25.3321741 22.4554616,25.3764444 22.0788884,25.4865089 C21.7023152,25.5965733 21.3225566,25.77538 20.939601,26.0229343 C20.4491492,26.3399776 20.128291,26.668845 19.9770167,27.0095465 C19.8257425,27.3502479 19.8565098,27.6851974 20.0693197,28.0144047 C20.2343559,28.2697084 20.4839995,28.3869625 20.8182581,28.3661705 C21.1525167,28.3453786 21.6464347,28.2142305 22.3000269,27.9727224 C22.9737746,27.7181852 23.5496873,27.5554664 24.0277822,27.4845611 C24.5058772,27.4136559 24.9236673,27.4484111 25.281165,27.5888277 C25.6386628,27.7292443 25.9476988,28.001004 26.2082823,28.4041151 C26.4775519,28.8206633 26.6010156,29.2695378 26.5786773,29.7507522 C26.556339,30.2319666 26.3949357,30.700667 26.0944624,31.1568674 C25.7939891,31.6130678 25.3817364,32.0105412 24.857692,32.3492998 C23.8969438,32.970357 22.9492145,33.2210158 22.0144754,33.1012837 C21.8793611,33.0838397 21.7705285,33.0517894 21.6879746,33.0051318 C21.6054206,32.9584742 21.5294003,32.8813984 21.4599114,32.7739021 C21.3687072,32.6328132 21.3314376,32.4830584 21.3481017,32.3246331 C21.3647658,32.1662078 21.4302043,32.050081 21.5444191,31.976249 C21.6116043,31.9328184 21.6802641,31.9027233 21.7504007,31.8859629 C21.8205373,31.8692025 21.9200059,31.8572951 22.0488097,31.8502404 C22.4545606,31.8737306 22.8182493,31.8505814 23.1398866,31.7807922 C23.4615239,31.711003 23.8104558,31.5545051 24.1866929,31.3112939 C24.6435521,31.0159659 24.9449509,30.6901518 25.0908983,30.3338418 C25.2368457,29.9775318 25.2034149,29.6347782 24.9906051,29.3055708 C24.8125397,29.0301115 24.5581631,28.8944838 24.2274677,28.8986834 C23.8967723,28.902883 23.4079951,29.0235635 22.7611215,29.2607285 C22.0763122,29.5128903 21.4942749,29.6771868 21.0149923,29.7536228 C20.5357096,29.8300588 20.1144583,29.8046854 19.7512258,29.677502 C19.3879933,29.5503185 19.0826045,29.2952528 18.8350502,28.9122972 C18.5657806,28.4957491 18.4438945,28.0529991 18.4693881,27.584034 C18.4948817,27.1150689 18.6600342,26.6558523 18.9648506,26.2063704 C19.269667,25.7568886 19.6941688,25.3562598 20.2383687,25.0044721 Z M12.7028293,30.966908 C13.1257359,30.5190131 13.5849157,30.1521413 14.0803826,29.8662814 C14.5758494,29.5804215 15.0434544,29.4085477 15.4832116,29.3506549 C15.7084203,29.3102371 15.9111822,29.3751578 16.0915035,29.5454189 C16.2136566,29.6607571 16.2854856,29.7973445 16.3069926,29.9551853 C16.3284996,30.113026 16.2925691,30.2413874 16.1992001,30.3402733 C16.1003388,30.444976 15.9470314,30.5257734 15.7392732,30.5826681 C15.3227833,30.6625301 14.9447574,30.8007081 14.6051841,30.9972064 C14.2656109,31.1937046 13.9392988,31.457729 13.6262381,31.7892876 C13.2253006,32.2139151 12.9919001,32.6096776 12.9260294,32.976587 C12.8601588,33.3434963 12.9697338,33.6615074 13.2547578,33.9306298 C13.4757968,34.1393369 13.746169,34.1938288 14.0658824,34.094107 C14.3855959,33.9943853 14.8341281,33.7494902 15.4114926,33.3594144 C16.005334,32.9518881 16.5259951,32.6568207 16.9734917,32.4742031 C17.4209882,32.2915856 17.8350503,32.2259421 18.2156904,32.2772707 C18.5963304,32.3285993 18.9611495,32.5190296 19.3101584,32.8485672 C19.670801,33.1890894 19.8975158,33.5956999 19.9903095,34.0684109 C20.0831032,34.5411218 20.0378478,35.0347644 19.8545418,35.5493535 C19.6712359,36.0639426 19.3653881,36.5480857 18.9369892,37.0017974 C18.1515912,37.8336021 17.2907129,38.3025469 16.3543284,38.4086461 C16.2189436,38.4238494 16.1056108,38.4186129 16.0143266,38.3929363 C15.9230425,38.3672597 15.8308672,38.3104839 15.7377982,38.2226072 C15.615645,38.1072691 15.543816,37.9706816 15.5223091,37.8128409 C15.5008021,37.6550001 15.5367326,37.5266387 15.6301015,37.4277529 C15.6850245,37.3695847 15.7445525,37.3240183 15.8086875,37.2910522 C15.8728224,37.2580862 15.9666018,37.2228551 16.0900284,37.1853581 C16.489717,37.1116374 16.8374546,37.0026241 17.1332517,36.858315 C17.4290489,36.7140058 17.7307271,36.4789839 18.0382956,36.1532422 C18.4117716,35.7576987 18.6269979,35.3695316 18.6839811,34.9887293 C18.7409642,34.607927 18.6269455,34.2829695 18.3419215,34.0138471 C18.1034321,33.7886631 17.8240914,33.7174512 17.5038912,33.8002093 C17.1836909,33.8829674 16.7376614,34.1164724 16.1657893,34.5007314 C15.5606388,34.9085822 15.0344043,35.2066391 14.58707,35.3949112 C14.1397357,35.5831833 13.7245439,35.6587627 13.3414823,35.6216516 C12.9584206,35.5845405 12.6011159,35.4094572 12.2695573,35.0963965 C11.9089147,34.7558743 11.6851895,34.3548371 11.5983749,33.893273 C11.5115602,33.4317089 11.5627135,32.9463857 11.7518362,32.4372889 C11.940959,31.9281922 12.2579535,31.4380701 12.7028293,30.966908 Z" id="SUCCESS" transform="translate(39.888263, 28.883238) scale(-1, -1) translate(-39.888263, -28.883238) "></path>
                    </g>
                </g>
            </g>
        </g>
    </g>
</svg>