<?xml version="1.0" encoding="UTF-8"?>
<svg width="40px" height="40px" viewBox="0 0 40 40" version="1.1" xmlns="http://www.w3.org/2000/svg" xmlns:xlink="http://www.w3.org/1999/xlink">
    <!-- Generator: Sketch 46.2 (44496) - http://www.bohemiancoding.com/sketch -->
    <title>icon-nav-market</title>
    <desc>Created with Sketch.</desc>
    <defs>
        <linearGradient x1="50%" y1="100%" x2="50%" y2="32.9833984%" id="linearGradient-1">
            <stop stop-color="#B393E5" offset="0%"></stop>
            <stop stop-color="#7A68E8" offset="100%"></stop>
        </linearGradient>
    </defs>
    <g id="Symbols" stroke="none" stroke-width="1" fill="none" fill-rule="evenodd">
        <g id="nav/half/market/regular" transform="translate(-70.000000, -10.000000)">
            <g id="nav/half/dashboard/regular">
                <g id="icon-nav-market" transform="translate(70.000000, 10.000000)">
                    <path d="M7,8 L29,8 L29,8 C31.209139,8 33,9.790861 33,12 L33,32 L7,32 L7,8 Z" id="Rectangle-6" fill="url(#linearGradient-1)"></path>
                    <rect id="Rectangle-7" fill="#FFFFFF" x="21" y="22" width="8" height="6" rx="1"></rect>
                    <path d="M14,22 L14,22 L14,22 C15.6568542,22 17,23.3431458 17,25 L17,32 L11,32 L11,25 L11,25 C11,23.3431458 12.3431458,22 14,22 Z" id="Rectangle-8" fill="#FFFFFF" opacity="0.400000006"></path>
                    <path d="M7,8 L31.763932,8 L31.763932,8 C32.5214761,8 33.2140024,8.42800475 33.5527864,9.10557281 L37,16 L12.236068,16 L12.236068,16 C11.4785239,16 10.7859976,15.5719952 10.4472136,14.8944272 L7,8 Z" id="Rectangle-6-Copy" fill="#1EC4E9"></path>
                </g>
            </g>
        </g>
    </g>
</svg>