<?xml version="1.0" encoding="UTF-8"?>
<svg width="20px" height="20px" viewBox="0 0 20 20" version="1.1" xmlns="http://www.w3.org/2000/svg" xmlns:xlink="http://www.w3.org/1999/xlink">
    <!-- Generator: Sketch 46.2 (44496) - http://www.bohemiancoding.com/sketch -->
    <title>icon-dashboard-hosting</title>
    <desc>Created with Sketch.</desc>
    <defs>
        <linearGradient x1="50%" y1="100%" x2="50%" y2="3.061617e-15%" id="linearGradient-1">
            <stop stop-color="#B9D5EC" offset="0%"></stop>
            <stop stop-color="#98B4CD" offset="100%"></stop>
        </linearGradient>
    </defs>
    <g id="Symbols" stroke="none" stroke-width="1" fill="none" fill-rule="evenodd">
        <g id="desktop/sidebar/home" transform="translate(-50.000000, -450.000000)">
            <g id="desktop/sidebar/analytics">
                <g id="icon-dashboard-hosting" transform="translate(50.000000, 450.000000)">
                    <path d="M5.09160224,8.1507652 C4.74460995,8.05255517 4.37844243,8 4,8 C1.790861,8 0,9.790861 0,12 C0,14.209139 1.790861,16 4,16 L20,16 C18.0837402,15.5513509 16.4185791,15.0659993 15.0045166,14.5439453 C12.8834229,13.7608643 7.28442383,9.47473145 6.36315918,8.76171875 C5.99998702,8.48064168 5.5761347,8.2769905 5.09160224,8.1507652 Z" id="Combined-Shape" fill="#B9D5EC"></path>
                    <path d="M4.25310292,9.79850708 C3.91063599,9.15852175 3.71724138,8.43217139 3.71724138,7.66222962 C3.71724138,5.0873513 5.88016919,3 8.54827586,3 C9.81881863,3 10.9748055,3.47333405 11.8372266,4.24724716 C12.5161284,4.80974253 13.0513432,5.51551447 13.4428711,6.36456299 C14.3494172,8.33045518 15.051714,9.90565529 16.2392477,11.5484252 C16.9160453,12.4846704 18.1696294,13.9596546 20,15.9733777 C16.6984456,15.9045374 13.5611572,15.4373779 10.5881348,14.5718994 C7.6151123,13.7064209 5.50036621,12.1178385 4.24389648,9.80615234 L4.25310292,9.79850708 Z" id="Combined-Shape" fill="url(#linearGradient-1)"></path>
                    <path d="M15.7163441,8.38591064 C15.1962465,8.13847423 14.6142944,8 14,8 C11.790861,8 10,9.790861 10,12 C10,14.209139 11.790861,16 14,16 L20,16 C18.9802246,12.4365234 17.9064535,10.1356201 16.7786865,9.09729004 C16.4556261,8.79984976 16.101512,8.56272329 15.7163441,8.38591064 Z" id="Combined-Shape" fill="#CBE3F9"></path>
                </g>
            </g>
        </g>
    </g>
</svg>