<?xml version="1.0" encoding="UTF-8"?>
<svg width="40px" height="40px" viewBox="0 0 40 40" version="1.1" xmlns="http://www.w3.org/2000/svg" xmlns:xlink="http://www.w3.org/1999/xlink">
    <!-- Generator: Sketch 48.2 (47327) - http://www.bohemiancoding.com/sketch -->
    <title>icon-services-kintoblocks-mongodb-small</title>
    <desc>Created with Sketch.</desc>
    <defs></defs>
    <g id="icon/services/kintoblocks/mongodb/small" stroke="none" stroke-width="1" fill="none" fill-rule="evenodd">
        <g id="icon-services-kintoblocks-mongodb-small">
            <circle id="Oval-4" fill="#D3E0EB" cx="20" cy="20" r="20"></circle>
            <path d="M20.7052066,34.9656667 L19.8682149,34.6995 C19.8682149,34.6995 19.9748926,30.6316111 18.4472149,30.3468333 C17.4397934,29.2258333 18.6021983,-17.5361667 22.2620413,30.1865 C22.2620413,30.1865 21.0093306,30.7906111 20.7722562,31.8162778 C20.5352397,32.8426111 20.7052066,34.9656667 20.7052066,34.9656667 Z" id="Clip-2" fill="#999875"></path>
            <path d="M13,19.893381 L13,19.2920776 C13.0026894,19.1753412 13.0069546,19.0578327 13.012843,18.9395556 C13.4054215,11.0537778 18.2237934,7.17661111 19.1622562,6.47322222 C19.7689421,5.85194444 19.7940496,5.61261111 19.8409669,5 C20.2662314,5.87705556 20.195595,18.1028333 20.2406033,19.5317222 C20.4154876,25.0943333 19.9198182,30.2443889 19.4424298,31.2943889 C19.4424298,31.2943889 13.1689004,27.1845798 13,19.893381 Z" id="Clip-8" fill="#69B655"></path>
            <path d="M21.1563884,31.0373889 C21.1563884,31.0373889 28.429157,26.4374444 26.7252645,16.8842222 C25.0843719,9.94366667 21.2104215,7.66216667 20.7940661,6.791 C20.3358264,6.17455556 19.8742314,5.082 19.8742314,5.082 L20.183562,24.4202778 C20.183562,24.4202778 19.5436116,30.3251111 21.1563884,31.0373889" id="Fill-4" fill="#3F9143"></path>
        </g>
    </g>
</svg>