<?xml version="1.0" encoding="UTF-8"?>
<svg width="120px" height="120px" viewBox="0 0 120 120" version="1.1" xmlns="http://www.w3.org/2000/svg" xmlns:xlink="http://www.w3.org/1999/xlink">
    <!-- Generator: Sketch 52 (66869) - http://www.bohemiancoding.com/sketch -->
    <title>icon-kintoblock-type-task</title>
    <desc>Created with Sketch.</desc>
    <defs>
        <circle id="path-1" cx="60" cy="60" r="60"></circle>
        <rect id="path-3" x="20" y="26" width="80" height="68" rx="2"></rect>
        <filter x="-13.8%" y="-10.3%" width="127.5%" height="132.4%" filterUnits="objectBoundingBox" id="filter-4">
            <feOffset dx="0" dy="4" in="SourceAlpha" result="shadowOffsetOuter1"></feOffset>
            <feGaussianBlur stdDeviation="3" in="shadowOffsetOuter1" result="shadowBlurOuter1"></feGaussianBlur>
            <feColorMatrix values="0 0 0 0 0.258823529   0 0 0 0 0.462745098   0 0 0 0 0.57254902  0 0 0 0.143653759 0" type="matrix" in="shadowBlurOuter1"></feColorMatrix>
        </filter>
    </defs>
    <g id="KintoBlocks" stroke="none" stroke-width="1" fill="none" fill-rule="evenodd">
        <g id="2---dashboard---kintoblocks---create-new-kintoblock---choose-type" transform="translate(-1180.000000, -300.000000)">
            <g id="content" transform="translate(320.000000, 0.000000)">
                <g id="desktop/kintoblock-type" transform="translate(30.000000, 240.000000)">
                    <g id="Group-3" transform="translate(720.000000, 0.000000)">
                        <g id="icon-kintoblock-type-task" transform="translate(110.000000, 60.000000)">
                            <mask id="mask-2" fill="white">
                                <use xlink:href="#path-1"></use>
                            </mask>
                            <use id="Mask" fill="#F5F9FF" xlink:href="#path-1"></use>
                            <g id="Rectangle" mask="url(#mask-2)" fill="black" fill-opacity="1">
                                <use filter="url(#filter-4)" xlink:href="#path-3"></use>
                            </g>
                            <g id="icon/kintoblock/task/large" fill="" mask="url(#mask-2)">
                                <g transform="translate(20.000000, 20.000000)" fill="none" id="illustration/kintoblock/task">
                                    <g>
                                        <path d="M2,6 L78,6 C79.1045695,6 80,6.8954305 80,8 L80,72 C80,73.1045695 79.1045695,74 78,74 L2,74 C0.8954305,74 1.3527075e-16,73.1045695 0,72 L0,8 C-1.3527075e-16,6.8954305 0.8954305,6 2,6 Z" id="Mask-Copy" fill="#E0E6F0"></path>
                                        <polygon id="Mask" fill="#EFF2F7" points="0 22 80 22 80 74 10 74 0 64"></polygon>
                                        <path d="M38.02,57.92 C38.820004,57.92 39.22,58.2599966 39.22,58.94 C39.22,59.6466702 38.820004,60 38.02,60 L31.26,60 C30.4466626,60 30.04,59.6466702 30.04,58.94 C30.04,58.2599966 30.4466626,57.92 31.26,57.92 L33.34,57.92 L33.34,48.8 L31.42,49.98 C31.2333324,50.0866672 31.0666674,50.14 30.92,50.14 C30.6399986,50.14 30.4033343,50.0200012 30.21,49.78 C30.0166657,49.5399988 29.92,49.2733348 29.92,48.98 C29.92,48.5933314 30.0933316,48.2933344 30.44,48.08 L33.54,46.16 C33.940002,45.9199988 34.3199982,45.8 34.68,45.8 C35.0533352,45.8 35.3533322,45.9133322 35.58,46.14 C35.8066678,46.3666678 35.92,46.679998 35.92,47.08 L35.92,57.92 L38.02,57.92 Z M50.5,55.24 C50.900002,55.24 51.199999,55.3266658 51.4,55.5 C51.600001,55.6733342 51.7,55.9199984 51.7,56.24 C51.7,56.90667 51.300004,57.24 50.5,57.24 L49.48,57.24 L49.48,58.82 C49.48,59.2333354 49.3633345,59.5533322 49.13,59.78 C48.8966655,60.0066678 48.5933352,60.12 48.22,60.12 C47.8466648,60.12 47.5433345,60.0066678 47.31,59.78 C47.0766655,59.5533322 46.96,59.2333354 46.96,58.82 L46.96,57.24 L41.72,57.24 C41.3599982,57.24 41.080001,57.1366677 40.88,56.93 C40.679999,56.7233323 40.58,56.4666682 40.58,56.16 C40.58,55.8399984 40.6866656,55.5333348 40.9,55.24 L47.08,46.36 C47.213334,46.1733324 47.379999,46.0300005 47.58,45.93 C47.780001,45.8299995 47.9866656,45.78 48.2,45.78 C48.5466684,45.78 48.8466654,45.8933322 49.1,46.12 C49.3533346,46.3466678 49.48,46.6666646 49.48,47.08 L49.48,55.24 L50.5,55.24 Z M43.24,55.24 L46.96,49.86 L46.96,55.24 L43.24,55.24 Z M26.82,40.06 C26.5133318,40.0733334 26.2816674,40.0266672 26.125,39.92 C25.9683325,39.8133328 25.89,39.6500011 25.89,39.43 C25.89,39.229999 25.9399995,39.0816671 26.04,38.985 C26.1400005,38.8883328 26.2966656,38.8333334 26.51,38.82 L26.83,38.8 C27.3100024,38.7799999 27.55,38.4966694 27.55,37.95 L27.55,33.67 C27.55,33.4366655 27.6233326,33.2500007 27.77,33.11 C27.9166674,32.9699993 28.1066655,32.9 28.34,32.9 C28.5733345,32.9 28.7616659,32.9699993 28.905,33.11 C29.048334,33.2500007 29.12,33.4366655 29.12,33.67 L29.12,37.93 C29.12,39.2500066 28.4600066,39.9533329 27.14,40.04 L26.82,40.06 Z M35.51,40.09 C34.5233284,40.09 33.7716692,39.8350025 33.255,39.325 C32.7383307,38.8149974 32.48,38.0700049 32.48,37.09 L32.48,33.67 C32.48,33.4366655 32.5499993,33.2500007 32.69,33.11 C32.8300007,32.9699993 33.0166655,32.9 33.25,32.9 C33.4833345,32.9 33.6683326,32.9699993 33.805,33.11 C33.9416673,33.2500007 34.01,33.4366655 34.01,33.67 L34.01,37.16 C34.01,37.7200028 34.138332,38.1466652 34.395,38.44 C34.6516679,38.7333348 35.0233309,38.88 35.51,38.88 C35.9966691,38.88 36.3699987,38.7316681 36.63,38.435 C36.8900013,38.1383318 37.02,37.7133361 37.02,37.16 L37.02,33.67 C37.02,33.4366655 37.0883326,33.2500007 37.225,33.11 C37.3616673,32.9699993 37.5466655,32.9 37.78,32.9 C38.0133345,32.9 38.1999993,32.9699993 38.34,33.11 C38.4800007,33.2500007 38.55,33.4366655 38.55,33.67 L38.55,37.09 C38.55,38.0633382 38.2900026,38.8066641 37.77,39.32 C37.2499974,39.8333359 36.4966716,40.09 35.51,40.09 Z M42.64,40 C42.4066655,40 42.2266673,39.9366673 42.1,39.81 C41.9733327,39.6833327 41.91,39.5033345 41.91,39.27 L41.91,33.67 C41.91,33.4366655 41.9799993,33.2500007 42.12,33.11 C42.2600007,32.9699993 42.4499988,32.9 42.69,32.9 C42.9300012,32.9 43.1199993,32.9699993 43.26,33.11 C43.4000007,33.2500007 43.47,33.4366655 43.47,33.67 L43.47,38.73 L46.03,38.73 C46.5166691,38.73 46.76,38.9433312 46.76,39.37 C46.76,39.7900021 46.5166691,40 46.03,40 L42.64,40 Z M52.68,33.15 C52.8266674,32.9766658 52.999999,32.89 53.2,32.89 C53.3866676,32.89 53.5549992,32.9616659 53.705,33.105 C53.8550007,33.248334 53.93,33.4133324 53.93,33.6 C53.93,33.7666675 53.8666673,33.9233326 53.74,34.07 L51.55,36.67 L51.55,39.28 C51.55,39.5333346 51.4766674,39.726666 51.33,39.86 C51.1833326,39.993334 51.0000011,40.06 50.78,40.06 C50.5466655,40.06 50.3566674,39.993334 50.21,39.86 C50.0633326,39.726666 49.99,39.5333346 49.99,39.28 L49.99,36.67 L47.82,34.07 C47.6933327,33.936666 47.63,33.7800009 47.63,33.6 C47.63,33.4133324 47.7016659,33.248334 47.845,33.105 C47.988334,32.9616659 48.1533324,32.89 48.34,32.89 C48.540001,32.89 48.7133326,32.9766658 48.86,33.15 L50.77,35.48 L52.68,33.15 Z" id="Combined-Shape" fill="#A2B0BD"></path>
                                        <path d="M0,64 L8,64 C9.1045695,64 10,64.8954305 10,66 L10,74 L0,64 Z" id="Rectangle-5" fill="#FFFFFF"></path>
                                        <path d="M63.429338,64.9848755 C66.5426644,64.7647552 69,62.1693483 69,59 C69,57.5045948 68.4521798,56.0970374 67.4763741,55.0046392 C67.1084493,54.5927535 67.1440866,53.9605922 67.5559723,53.5926674 C67.9678579,53.2247426 68.6000192,53.26038 68.967944,53.6722656 C70.2681043,55.1277734 71,57.0082905 71,59 C71,63.2827374 67.6346619,66.779458 63.4041806,66.9899671 L64.7071068,68.2928932 C65.0976311,68.6834175 65.0976311,69.3165825 64.7071068,69.7071068 C64.3165825,70.0976311 63.6834175,70.0976311 63.2928932,69.7071068 L60.2928932,66.7071068 C59.9023689,66.3165825 59.9023689,65.6834175 60.2928932,65.2928932 L63.2928932,62.2928932 C63.6834175,61.9023689 64.3165825,61.9023689 64.7071068,62.2928932 C65.0976311,62.6834175 65.0976311,63.3165825 64.7071068,63.7071068 L63.429338,64.9848755 Z M62.5706939,53.0150925 C59.4540326,53.235124 57.0010823,55.8339124 57.0000004,58.9975543 C57.0000001,60.5397504 57.5810666,61.9862599 58.6101509,63.0901772 C58.9867425,63.4941539 58.9645425,64.1269296 58.5605659,64.5035213 C58.1565892,64.8801129 57.5238135,64.857913 57.1472218,64.4539363 C55.7762499,62.9832699 55,61.0508699 55.0000005,58.9972121 C55.0014624,54.7219342 58.3600288,51.2208712 62.5958306,51.0100441 L61.2928932,49.7071068 C60.9023689,49.3165825 60.9023689,48.6834175 61.2928932,48.2928932 C61.6834175,47.9023689 62.3165825,47.9023689 62.7071068,48.2928932 L65.7071068,51.2928932 C66.0976311,51.6834175 66.0976311,52.3165825 65.7071068,52.7071068 L62.7071068,55.7071068 C62.3165825,56.0976311 61.6834175,56.0976311 61.2928932,55.7071068 C60.9023689,55.3165825 60.9023689,54.6834175 61.2928932,54.2928932 L62.5706939,53.0150925 Z" id="Combined-Shape" fill="#F78496"></path>
                                        <path d="M2,6 L78,6 C79.1045695,6 80,6.8954305 80,8 L80,22 L0,22 L0,8 C-1.3527075e-16,6.8954305 0.8954305,6 2,6 Z" id="Rectangle-2" fill="#F46464"></path>
                                        <rect id="Rectangle-Copy" fill="#AA4545" x="10" y="10" width="8" height="8" rx="4"></rect>
                                        <path d="M16,2 L16,14 C16,16.6666667 12,16.6666667 12,14 L12,2 C12,-0.666666667 16,-0.666666667 16,2 Z" id="Path-2-Copy" fill="#A2B0BD" fill-rule="nonzero"></path>
                                        <rect id="Rectangle-Copy" fill="#AA4545" x="62" y="10" width="8" height="8" rx="4"></rect>
                                        <path d="M68,2 L68,14 C68,16.6666667 64,16.6666667 64,14 L64,2 C64,-0.666666667 68,-0.666666667 68,2 Z" id="Path-2-Copy" fill="#A2B0BD" fill-rule="nonzero"></path>
                                    </g>
                                </g>
                            </g>
                        </g>
                    </g>
                </g>
            </g>
        </g>
    </g>
</svg>