<?xml version="1.0" encoding="UTF-8"?>
<svg width="60px" height="60px" viewBox="0 0 60 60" version="1.1" xmlns="http://www.w3.org/2000/svg" xmlns:xlink="http://www.w3.org/1999/xlink">
    <!-- Generator: Sketch 52.4 (67378) - http://www.bohemiancoding.com/sketch -->
    <title>icon-pricing-tier-3</title>
    <desc>Created with Sketch.</desc>
    <defs>
        <linearGradient x1="0%" y1="100%" x2="100%" y2="0%" id="linearGradient-1">
            <stop stop-color="#40D9FF" offset="0%"></stop>
            <stop stop-color="#A696FF" offset="100%"></stop>
        </linearGradient>
        <circle id="path-2" cx="30" cy="30" r="30"></circle>
        <circle id="path-3" cx="30" cy="36" r="20"></circle>
    </defs>
    <g id="Account" stroke="none" stroke-width="1" fill="none" fill-rule="evenodd">
        <g id="4---dashboard---account---billing---1-workspace---free-tooltips-copy-2" transform="translate(-1210.000000, -540.000000)">
            <g id="content">
                <g id="BUSINESS" transform="translate(1070.000000, 460.000000)">
                    <g id="icon/pricing/tier-3" transform="translate(140.000000, 80.000000)">
                        <g id="Oval-6-Copy" opacity="0.600000024" fill-rule="nonzero">
                            <use fill="url(#linearGradient-1)" xlink:href="#path-2"></use>
                            <use fill-opacity="0.203832654" fill="#000000" xlink:href="#path-2"></use>
                        </g>
                        <g id="Oval-6" fill-rule="nonzero">
                            <use fill="url(#linearGradient-1)" xlink:href="#path-3"></use>
                            <use fill-opacity="0.203832654" fill="#000000" xlink:href="#path-3"></use>
                        </g>
                        <path d="M24,31 L36,31 C36,38.3333333 37.3333333,42.6666667 40,44 C42.6666667,45.3333333 45.4666667,45.3333333 48.4,44 C44.3067074,52 38.1733741,56 30,56 C21.8266259,56 15.6932926,52 11.6,44 C14.5333333,45.3333333 17.3333333,45.3333333 20,44 C22.6666667,42.6666667 24,38.3333333 24,31 Z" id="Rectangle" fill="#A899FF" fill-rule="evenodd"></path>
                        <path d="M26,31 L34,31 C34,38.3333333 34.6666667,43.3333333 36,46 C37.3333333,48.6666667 40.1,50 44.3,50 C40.2333333,54 35.4666667,56 30,56 C24.5333333,56 19.7666667,54 15.7,50 C19.9,50 22.6666667,48.6666667 24,46 C25.3333333,43.3333333 26,38.3333333 26,31 Z" id="Rectangle-Copy-2" fill="#49BFFF" fill-rule="evenodd"></path>
                        <path d="M28,31 L32,31 C32,38.3333333 32.3333333,43.3333333 33,46 C33.6666667,48.6666667 34.6666667,51.7 36,55.1 C34,55.7 32,56 30,56 C28,56 26,55.7 24,55.1 C25.3333333,51.7 26.3333333,48.6666667 27,46 C27.6666667,43.3333333 28,38.3333333 28,31 Z" id="Rectangle-Copy" fill="#06ECFE" fill-rule="evenodd"></path>
                        <path d="M30,45 C34.9705627,45 39,42.6568542 39,41 C39,40.2781045 39,37.3959684 39,32.3535917 L21,32.3535917 C21,37.1979759 21,40.080112 21,41 C21,42.6568542 25.0294373,45 30,45 Z" id="Oval-2-Copy" fill-opacity="0.202582" fill="#FFFFFF" fill-rule="evenodd"></path>
                        <path d="M30,42 C34.9705627,42 39,39.6568542 39,38 C39,37.2781045 39,36.0626351 39,34.3535917 L21,34.3535917 C21,35.8646425 21,37.080112 21,38 C21,39.6568542 25.0294373,42 30,42 Z" id="Oval-2" fill-opacity="0.402582" fill="#FFFFFF" fill-rule="evenodd"></path>
                        <path d="M27,12 L28.5,12 C28.7761424,12 29,12.2238576 29,12.5 L29,19.5 C29,19.7761424 29.2238576,20 29.5,20 L30.5,20 C30.7761424,20 31,19.7761424 31,19.5 L31,12.5 C31,12.2238576 31.2238576,12 31.5,12 L33,12 C38.3333333,19.025641 41,24.6923077 41,29 C41,35.4615385 36,40 30,40 C24,40 19,35.4615385 19,29 C19,24.6923077 21.6666667,19.025641 27,12 Z" id="Rectangle-2" fill="#FFFFFF" fill-rule="evenodd"></path>
                        <path d="M21.7255745,32.5 C21.2585946,31.4259817 21,30.2427965 21,29 C21,27.7572035 21.2585946,26.5740183 21.7255745,25.5 L30,29 L38.2744255,25.5 C38.7414054,26.5740183 39,27.7572035 39,29 C39,30.2427965 38.7414054,31.4259817 38.2744255,32.5 L30,29 L21.7255745,32.5 Z" id="Combined-Shape" fill="#F5F9FF" fill-rule="evenodd"></path>
                        <path d="M21.7255745,32.4988348 C21.2585946,31.4248164 21,30.2416313 21,28.9988348 C21,27.7560382 21.2585946,26.5728531 21.7255745,25.4988348 L30,28.9988348 L38.2744255,25.4988348 C38.7414054,26.5728531 39,27.7560382 39,28.9988348 C39,30.2416313 38.7414054,31.4248164 38.2744255,32.4988348 L30,28.9988348 L21.7255745,32.4988348 Z" id="Combined-Shape-Copy" fill="#EFF2F7" fill-rule="evenodd" transform="translate(30.000000, 28.998835) rotate(45.000000) translate(-30.000000, -28.998835) "></path>
                        <path d="M19.0444118,30 C19.0150158,29.6706164 19,29.3370702 19,29 C19,28.6629298 19.0150158,28.3293836 19.0444118,28 L30,29 L40.9555882,28 C40.9849842,28.3293836 41,28.6629298 41,29 C41,29.3370702 40.9849842,29.6706164 40.9555882,30 L30,29 L19.0444118,30 Z" id="Combined-Shape-Copy-2" fill="#FFFFFF" fill-rule="evenodd"></path>
                        <circle id="Oval" fill="#DBE8FB" fill-rule="evenodd" cx="30" cy="29" r="3"></circle>
                        <path d="M36.4413911,14 L37.5586089,14 C37.8107705,14 38.023471,14.1877682 38.0547478,14.4379826 L39,22 L35,22 L35.9452522,14.4379826 C35.976529,14.1877682 36.1892295,14 36.4413911,14 Z" id="Rectangle-3" fill="#FFFFFF" fill-rule="evenodd"></path>
                        <path d="M28.9132146,18 L31.0867854,18 C31.6039886,18 32.0358532,18.3943851 32.0826786,18.9094643 L32.9504302,28.4547321 C32.9754309,28.7297404 32.7727598,28.9729458 32.4977515,28.9979466 C32.482701,28.9993148 32.4675962,29 32.4524836,29 L27.5475164,29 C27.271374,29 27.0475164,28.7761424 27.0475164,28.5 C27.0475164,28.4848874 27.0482016,28.4697826 27.0495698,28.4547321 L27.9173214,18.9094643 C27.9641468,18.3943851 28.3960114,18 28.9132146,18 Z" id="Rectangle-5" fill="#DBE8FB" fill-rule="evenodd"></path>
                    </g>
                </g>
            </g>
        </g>
    </g>
</svg>