<?xml version="1.0" encoding="UTF-8"?>
<svg width="20px" height="20px" viewBox="0 0 20 20" version="1.1" xmlns="http://www.w3.org/2000/svg" xmlns:xlink="http://www.w3.org/1999/xlink">
    <!-- Generator: Sketch 47 (45396) - http://www.bohemiancoding.com/sketch -->
    <title>icon-lapis-alert-message</title>
    <desc>Created with Sketch.</desc>
    <defs></defs>
    <g id="Page-1" stroke="none" stroke-width="1" fill="none" fill-rule="evenodd">
        <g id="icon-lapis-alert-message">
            <circle id="Combined-Shape" fill="#4E82EE" cx="10" cy="10" r="10"></circle>
            <path d="M8.77959331,2.72352396 C9.26524112,2.57450799 9.67287049,2.5 10.0024814,2.5 C10.3316126,2.5 10.7377979,2.57429125 11.2210372,2.72287374 L11.2210364,2.72287624 C11.6762221,2.862833 11.9695637,3.30436261 11.9221785,3.77821542 L11.0900496,12.0995037 L11.0900496,12.0995037 C11.0389294,12.6107055 10.6087639,13 10.0950124,13 L9.90498756,13 L9.90498756,13 C9.39123611,13 8.96107055,12.6107055 8.90995037,12.0995037 L8.07790663,3.77906634 L8.07787458,3.77906954 C8.03046604,3.30498414 8.32410343,2.86328629 8.77959331,2.72352396 Z" id="Rectangle-2" fill="#FFFFFF"></path>
            <circle id="Oval-2" fill="#FFFFFF" cx="10" cy="16" r="1.5"></circle>
        </g>
    </g>
</svg>