<svg height="20" viewBox="0 0 20 20" width="20" xmlns="http://www.w3.org/2000/svg"><g fill="none" fill-rule="evenodd"><path d="m10.2347365 10.0462464 8.9014754 4.7330169c.1219096.0648207.1681892.2161954.1033685.3381049-.0233876.0439856-.0593829.0799809-.1033685.1033685l-8.9014754 4.7330169c-.1467628.0780354-.32271024.0780354-.46947299 0l-8.90147546-4.7330169c-.12190951-.0648207-.16818915-.2161954-.10336846-.3381049.02338761-.0439856.05938294-.0799809.10336846-.1033685l8.90147546-4.7330169c.14676275-.07803543.32271019-.07803543.46947299 0z" fill="#ff943c"/><path d="m10.2347365 7.04624641 8.9014754 4.73301689c.1219096.0648207.1681892.2161954.1033685.3381049-.0233876.0439856-.0593829.0799809-.1033685.1033685l-8.9014754 4.7330169c-.1467628.0780354-.32271024.0780354-.46947299 0l-8.90147546-4.7330169c-.12190951-.0648207-.16818915-.2161954-.10336846-.3381049.02338761-.0439856.05938294-.0799809.10336846-.1033685l8.90147546-4.73301689c.14676275-.07803544.32271019-.07803544.46947299 0z" fill="#ffb476"/><path d="m10.2347365 4.04624641 8.9014754 4.73301688c.1219096.06482069.1681892.21619544.1033685.33810496-.0233876.04398552-.0593829.07998085-.1033685.10336846l-8.9014754 4.73301689c-.1467628.0780354-.32271024.0780354-.46947299 0l-8.90147546-4.73301689c-.12190951-.06482069-.16818915-.21619544-.10336846-.33810496.02338761-.04398552.05938294-.07998085.10336846-.10336846l8.90147546-4.73301688c.14676275-.07803544.32271019-.07803544.46947299 0z" fill="#ffd978"/><path d="m10.2347365.04624641 8.9014754 4.73301688c.1219096.06482069.1681892.21619544.1033685.33810496-.0233876.04398552-.0593829.07998085-.1033685.10336846l-8.9014754 4.73301688c-.1467628.07803541-.32271024.07803541-.46947299 0l-8.90147546-4.73301688c-.12190951-.06482069-.16818915-.21619544-.10336846-.33810496.02338761-.04398552.05938294-.07998085.10336846-.10336846l8.90147546-4.73301688c.14676275-.07803544.32271019-.07803544.46947299 0z" fill="#fff37c"/></g></svg>