<svg height="80" viewBox="0 0 80 80" width="80" xmlns="http://www.w3.org/2000/svg"><g fill="none" fill-rule="evenodd"><circle cx="40" cy="40" fill="#f46464" r="40"/><path d="m23.262723 42.9523779c-2.0629499-3.146173-3.262723-6.9091644-3.262723-10.9523779 0-11.045695 8.954305-20 20-20s20 8.954305 20 20c0 4.0432135-1.1997731 7.8062049-3.262723 10.9523779.0069723.0257123.0137024.0515395.0201874.0774796l1.2425356 4.9701425c.8624218 3.4496872-1.2349712 6.9453423-4.6846584 7.8077641-.5107016.1276753-1.0351338.1922359-1.5615529.1922359h-23.5075774c-3.5558562 0-6.4384472-2.882591-6.4384472-6.4384472 0-.5264191.0645605-1.0508513.1922359-1.5615528l1.2425356-4.9701425c.006485-.0259401.0132151-.0517673.0201874-.0774796zm7.973345 17.0476221h17.527864c1.1045695 0 2 .8954305 2 2 0 .3104902-.0722902.6167163-.2111456.8944272l-1.4472136 2.8944272c-.677568 1.3551361-2.0626205 2.2111456-3.5777088 2.2111456h-11.055728c-1.5150883 0-2.9001408-.8560095-3.5777088-2.2111456l-1.4472136-2.8944272c-.4939785-.987957-.0935298-2.1893031.8944272-2.6832816.2777109-.1388554.583937-.2111456.8944272-.2111456zm.763932-16c2.209139 0 4-1.790861 4-4s-1.790861-4-4-4-4 1.790861-4 4 1.790861 4 4 4zm16 0c2.209139 0 4-1.790861 4-4s-1.790861-4-4-4-4 1.790861-4 4 1.790861 4 4 4zm-6.2111456-.4222912c-.1935274-.3870548-.5073724-.7008998-.8944272-.8944272-.987957-.4939785-2.1893031-.0935298-2.6832816.8944272l-1.4875388 2.9750776c-.0694277.1388554-.1055728.2919685-.1055728.4472136 0 .5522847.4477152 1 1 1h4.763932c.1552451 0 .3083582-.0361451.4472136-.1055728.4939785-.2469893.6942029-.8476623.4472136-1.3416408z" fill="#fff" fill-rule="nonzero"/></g></svg>