<?xml version="1.0" encoding="UTF-8"?>
<svg width="40px" height="40px" viewBox="0 0 40 40" version="1.1" xmlns="http://www.w3.org/2000/svg" xmlns:xlink="http://www.w3.org/1999/xlink">
    <!-- Generator: Sketch 46.2 (44496) - http://www.bohemiancoding.com/sketch -->
    <title>icon-nav-dashboard</title>
    <desc>Created with Sketch.</desc>
    <defs>
        <linearGradient x1="50%" y1="100%" x2="50%" y2="3.061617e-15%" id="linearGradient-1">
            <stop stop-color="#2FADF6" offset="0%"></stop>
            <stop stop-color="#4E82EE" offset="100%"></stop>
        </linearGradient>
    </defs>
    <g id="Symbols" stroke="none" stroke-width="1" fill="none" fill-rule="evenodd">
        <g id="nav/half/dashboard/regular" transform="translate(-70.000000, -10.000000)">
            <g id="icon-nav-dashboard">
                <g transform="translate(70.000000, 10.000000)">
                    <circle id="Mask" fill="url(#linearGradient-1)" cx="20" cy="20" r="15"></circle>
                    <path d="M8.81946746,30 C11.5660702,33.0687468 15.5575009,35 20,35 C24.4424991,35 28.4339298,33.0687468 31.1805325,30 C29.2825553,27.8794125 26.7901496,26.3019993 23.9652388,25.529684 C23.7060946,27.4884479 22.0295683,29 20,29 C17.9704317,29 16.2939054,27.4884479 16.0347612,25.529684 L16.0347612,25.529684 C13.2098504,26.3019993 10.7174447,27.8794125 8.81946746,30 Z" id="Combined-Shape" fill="#4DD0B7"></path>
                    <path d="M20,7 C20.5522847,7 21,7.44771525 21,8 L21,12 C21,12.5522847 20.5522847,13 20,13 C19.4477153,13 19,12.5522847 19,12 L19,8 C19,7.44771525 19.4477153,7 20,7 Z M8.74166975,26.5 C8.46552738,26.0217074 8.62940253,25.410117 9.10769515,25.1339746 L9.71891109,24.7810889 C10.1972037,24.5049465 10.8087941,24.6688217 11.0849365,25.1471143 C11.3610789,25.6254069 11.1972037,26.2369973 10.7189111,26.5131397 L10.1076952,26.8660254 C9.62940253,27.1421678 9.01781213,26.9782926 8.74166975,26.5 Z M7,20 C7,19.4477153 7.44771525,19 8,19 L9,19 C9.55228475,19 10,19.4477153 10,20 C10,20.5522847 9.55228475,21 9,21 L8,21 C7.44771525,21 7,20.5522847 7,20 Z M8.74166975,13.5 C9.01781213,13.0217074 9.62940253,12.8578322 10.1076952,13.1339746 L11.9019238,14.169873 C12.3802164,14.4460154 12.5440916,15.0576058 12.2679492,15.5358984 C11.9918068,16.014191 11.3802164,16.1780662 10.9019238,15.9019238 L9.10769515,14.8660254 C8.62940253,14.589883 8.46552738,13.9782926 8.74166975,13.5 Z M13.5,8.74166975 C13.9782926,8.46552738 14.589883,8.62940253 14.8660254,9.10769515 L16.1961524,11.4115427 C16.4722948,11.8898354 16.3084196,12.5014258 15.830127,12.7775681 C15.3518344,13.0537105 14.740244,12.8898354 14.4641016,12.4115427 L13.1339746,10.1076952 C12.8578322,9.62940253 13.0217074,9.01781213 13.5,8.74166975 Z" id="dial" fill="#FFFFFF" opacity="0.400000006"></path>
                    <path d="M18.9320478,27.0621778 C19.888633,27.6144626 21.1118138,27.2867123 21.6640986,26.330127 C22.7163833,24.5075164 26.2225342,15.0844727 25.9320478,14.9378222 C25.6415613,14.7911717 19.2522817,22.5075164 18.1999969,24.330127 C17.6477122,25.2867123 17.9754625,26.5098931 18.9320478,27.0621778 Z" id="dial" fill="#FFFFFF"></path>
                </g>
            </g>
        </g>
    </g>
</svg>