<?xml version="1.0" encoding="UTF-8"?>
<svg width="30px" height="30px" viewBox="0 0 30 30" version="1.1" xmlns="http://www.w3.org/2000/svg" xmlns:xlink="http://www.w3.org/1999/xlink">
    <!-- Generator: Sketch 46.2 (44496) - http://www.bohemiancoding.com/sketch -->
    <title>icon-nav-notifications</title>
    <desc>Created with Sketch.</desc>
    <defs></defs>
    <g id="Symbols" stroke="none" stroke-width="1" fill="none" fill-rule="evenodd">
        <g id="nav/half/dashboard/regular" transform="translate(-648.000000, -15.000000)" fill-rule="nonzero" fill="#0C4B5D">
            <g id="icon-nav-notifications">
                <g transform="translate(648.000000, 15.000000)">
                    <path d="M15.9970539,6.07733585 C18.8791221,6.52866685 21.1479965,8.90588959 21.3854822,11.8988817 C21.5903413,14.4803091 21.7951707,16.1806826 22,17 C22.3333333,18.3333333 22.6666667,19.3333333 23,20 L24,20 L24,22 L6,22 L6,20 L7,20 C7.33333333,19.3333333 7.66666667,18.3333333 8,17 C8.20482934,16.1806826 8.40965868,14.4803091 8.61448802,11.8988793 C8.85200049,8.90588934 11.1208776,6.5286668 14.0029461,6.07733584 C14.000994,6.05181332 14,6.02602274 14,6 C14,5.44771525 14.4477153,5 15,5 C15.5522847,5 16,5.44771525 16,6 C16,6.02602274 15.999006,6.05181332 15.9970539,6.07733585 Z M20.8205792,20 C20.557329,19.3101244 20.3063585,18.4716452 20.059715,17.4850713 C19.8189148,16.5218705 19.6054379,14.7497747 19.3917486,12.0570789 C19.2099815,9.76629886 17.2979801,8 15,8 C12.7020203,8 10.7900089,9.76630186 10.6082216,12.0570766 C10.3945724,14.7496617 10.1810939,16.5218358 9.940285,17.4850713 C9.69302444,18.4741135 9.44141524,19.3090038 9.17744472,19.9998866 L20.8205792,20 Z M15,25 C13.8954305,25 13,24.1045695 13,23 L17,23 C17,24.1045695 16.1045695,25 15,25 Z" id="Rectangle-4"></path>
                </g>
            </g>
        </g>
    </g>
</svg>