<?xml version="1.0" encoding="UTF-8"?>
<svg width="20px" height="20px" viewBox="0 0 20 20" version="1.1" xmlns="http://www.w3.org/2000/svg" xmlns:xlink="http://www.w3.org/1999/xlink">
    <!-- Generator: Sketch 46.2 (44496) - http://www.bohemiancoding.com/sketch -->
    <title>icon-menu-close</title>
    <desc>Created with Sketch.</desc>
    <defs></defs>
    <g id="Symbols" stroke="none" stroke-width="1" fill="none" fill-rule="evenodd">
        <g id="nav/half/dashboard/expanded" transform="translate(-30.000000, -20.000000)" fill="#0C4B5D">
            <g id="Group">
                <g transform="translate(30.000000, 20.000000)">
                    <path d="M8.58578644,10 L2.92893219,15.6568542 L2.92893219,15.6568542 C2.5384079,16.0473785 2.5384079,16.6805435 2.92893219,17.0710678 L2.92893219,17.0710678 L2.92893219,17.0710678 C3.31945648,17.4615921 3.95262146,17.4615921 4.34314575,17.0710678 L10,11.4142136 L15.6568542,17.0710678 C16.0473785,17.4615921 16.6805435,17.4615921 17.0710678,17.0710678 C17.4615921,16.6805435 17.4615921,16.0473785 17.0710678,15.6568542 L11.4142136,10 L17.0710678,4.34314575 C17.4615921,3.95262146 17.4615921,3.31945648 17.0710678,2.92893219 C16.6805435,2.5384079 16.0473785,2.5384079 15.6568542,2.92893219 L10,8.58578644 L4.34314575,2.92893219 L4.34314575,2.92893219 C3.95262146,2.5384079 3.31945648,2.5384079 2.92893219,2.92893219 L2.92893219,2.92893219 L2.92893219,2.92893219 C2.5384079,3.31945648 2.5384079,3.95262146 2.92893219,4.34314575 L8.58578644,10 Z" id="menu-button"></path>
                </g>
            </g>
        </g>
    </g>
</svg>