<?xml version="1.0" encoding="UTF-8"?>
<svg width="20px" height="20px" viewBox="0 0 20 20" version="1.1" xmlns="http://www.w3.org/2000/svg" xmlns:xlink="http://www.w3.org/1999/xlink">
    <!-- Generator: Sketch 47 (45396) - http://www.bohemiancoding.com/sketch -->
    <title>icon-purple-download</title>
    <desc>Created with Sketch.</desc>
    <defs></defs>
    <g id="Page-1" stroke="none" stroke-width="1" fill="none" fill-rule="evenodd">
        <g id="icon-purple-download">
            <circle id="icon-press-kit" fill="#7A68E8" cx="10" cy="10" r="10"></circle>
            <path d="M3.5,14.5 L16.5,14.5 C16.3333333,14.8333333 16.0833333,15.1666667 15.75,15.5 C15.6065231,15.6434769 15.4476069,15.7869538 15.2732516,15.9304308 L15.2732462,15.9304242 C14.8257557,16.2986639 14.2642324,16.5 13.6847083,16.5 L6.31526492,16.5 L6.31526492,16.4999895 C5.73573704,16.4999895 5.17421034,16.2986506 4.72671875,15.9304063 C4.55237503,15.7869376 4.39346878,15.6434688 4.25,15.5 C3.91666667,15.1666667 3.66666667,14.8333333 3.5,14.5 Z" id="Rectangle-11" fill="#FFFFFF" opacity="0.504812047"></path>
            <path d="M9,10.0857864 L7.20710678,8.29289322 C6.81658249,7.90236893 6.18341751,7.90236893 5.79289322,8.29289322 C5.40236893,8.68341751 5.40236893,9.31658249 5.79289322,9.70710678 L9.29289322,13.2071068 C9.68341751,13.5976311 10.3165825,13.5976311 10.7071068,13.2071068 L14.2071068,9.70710678 C14.5976311,9.31658249 14.5976311,8.68341751 14.2071068,8.29289322 C13.8165825,7.90236893 13.1834175,7.90236893 12.7928932,8.29289322 L11,10.0857864 L11,4.5 C11,3.94771525 10.5522847,3.5 10,3.5 C9.44771525,3.5 9,3.94771525 9,4.5 L9,4.5 L9,10.0857864 Z" id="Combined-Shape" fill="#FFFFFF"></path>
        </g>
    </g>
</svg>