<?xml version="1.0" encoding="UTF-8"?>
<svg width="120px" height="40px" viewBox="0 0 120 40" version="1.1" xmlns="http://www.w3.org/2000/svg" xmlns:xlink="http://www.w3.org/1999/xlink">
    <!-- Generator: Sketch 46.2 (44496) - http://www.bohemiancoding.com/sketch -->
    <title>icon-nav-market-full</title>
    <desc>Created with Sketch.</desc>
    <defs>
        <linearGradient x1="50%" y1="100%" x2="50%" y2="32.9833984%" id="linearGradient-1">
            <stop stop-color="#B393E5" offset="0%"></stop>
            <stop stop-color="#7A68E8" offset="100%"></stop>
        </linearGradient>
    </defs>
    <g id="Symbols" stroke="none" stroke-width="1" fill="none" fill-rule="evenodd">
        <g id="nav/full/market" transform="translate(-341.000000, -10.000000)">
            <g id="icon-nav-market-full">
                <g transform="translate(341.000000, 10.000000)">
                    <path d="M7,8 L29,8 L29,8 C31.209139,8 33,9.790861 33,12 L33,32 L7,32 L7,8 Z" id="Rectangle-6" fill="url(#linearGradient-1)"></path>
                    <rect id="Rectangle-7" fill="#FFFFFF" x="21" y="22" width="8" height="6" rx="1"></rect>
                    <path d="M14,22 L14,22 L14,22 C15.6568542,22 17,23.3431458 17,25 L17,32 L11,32 L11,25 L11,25 C11,23.3431458 12.3431458,22 14,22 Z" id="Rectangle-8" fill="#FFFFFF" opacity="0.400000006"></path>
                    <path d="M7,8 L31.763932,8 L31.763932,8 C32.5214761,8 33.2140024,8.42800475 33.5527864,9.10557281 L37,16 L12.236068,16 L12.236068,16 C11.4785239,16 10.7859976,15.5719952 10.4472136,14.8944272 L7,8 Z" id="Rectangle-6-Copy" fill="#1EC4E9"></path>
                    <path d="M62.94,13.15 C63.1666678,13.3833345 63.28,13.6933314 63.28,14.08 L63.28,25.92 C63.28,26.2933352 63.1733344,26.5866656 62.96,26.8 C62.7466656,27.0133344 62.4666684,27.12 62.12,27.12 C61.7733316,27.12 61.500001,27.0133344 61.3,26.8 C61.099999,26.5866656 61,26.2933352 61,25.92 L61,17.68 L57.6,24.12 C57.4399992,24.4133348 57.2666676,24.6299993 57.08,24.77 C56.8933324,24.9100007 56.6733346,24.98 56.42,24.98 C56.1666654,24.98 55.9466676,24.913334 55.76,24.78 C55.5733324,24.646666 55.4000008,24.4266682 55.24,24.12 L51.82,17.78 L51.82,25.92 C51.82,26.2800018 51.7166677,26.5699989 51.51,26.79 C51.3033323,27.0100011 51.0266684,27.12 50.68,27.12 C50.3333316,27.12 50.060001,27.0133344 49.86,26.8 C49.659999,26.5866656 49.56,26.2933352 49.56,25.92 L49.56,14.08 C49.56,13.6933314 49.6699989,13.3833345 49.89,13.15 C50.1100011,12.9166655 50.4066648,12.8 50.78,12.8 C51.3000026,12.8 51.7066652,13.0866638 52,13.66 L56.44,22.12 L60.86,13.66 C61.1533348,13.0866638 61.5466642,12.8 62.04,12.8 C62.4133352,12.8 62.7133322,12.9166655 62.94,13.15 Z M73.39,17.99 C74.0500033,18.6633367 74.38,19.6866598 74.38,21.06 L74.38,25.94 C74.38,26.3000018 74.2733344,26.5833323 74.06,26.79 C73.8466656,26.9966677 73.5533352,27.1 73.18,27.1 C72.8333316,27.1 72.5500011,26.9933344 72.33,26.78 C72.1099989,26.5666656 72,26.2866684 72,25.94 L72,25.5 C71.7733322,26.0200026 71.4166691,26.4266652 70.93,26.72 C70.4433309,27.0133348 69.8800032,27.16 69.24,27.16 C68.5866634,27.16 67.993336,27.026668 67.46,26.76 C66.926664,26.493332 66.5066682,26.126669 66.2,25.66 C65.8933318,25.193331 65.74,24.6733362 65.74,24.1 C65.74,23.3799964 65.9233315,22.8133354 66.29,22.4 C66.6566685,21.9866646 67.2533292,21.6866676 68.08,21.5 C68.9066708,21.3133324 70.0466594,21.22 71.5,21.22 L72,21.22 L72,20.76 C72,20.1066634 71.8600014,19.6300015 71.58,19.33 C71.2999986,19.0299985 70.8466698,18.88 70.22,18.88 C69.8333314,18.88 69.440002,18.9366661 69.04,19.05 C68.639998,19.1633339 68.1666694,19.3266656 67.62,19.54 C67.2733316,19.7133342 67.0200008,19.8 66.86,19.8 C66.6199988,19.8 66.4233341,19.7133342 66.27,19.54 C66.1166659,19.3666658 66.04,19.1400014 66.04,18.86 C66.04,18.6333322 66.0966661,18.4366675 66.21,18.27 C66.3233339,18.1033325 66.513332,17.9466674 66.78,17.8 C67.246669,17.5466654 67.8033301,17.3466674 68.45,17.2 C69.0966699,17.0533326 69.7333302,16.98 70.36,16.98 C71.7200068,16.98 72.7299967,17.3166633 73.39,17.99 Z M71.37,24.69 C71.7900021,24.2433311 72,23.6666702 72,22.96 L72,22.54 L71.64,22.54 C70.7466622,22.54 70.0533358,22.5799996 69.56,22.66 C69.0666642,22.7400004 68.7133344,22.879999 68.5,23.08 C68.2866656,23.280001 68.18,23.5533316 68.18,23.9 C68.18,24.3266688 68.3299985,24.6766653 68.63,24.95 C68.9300015,25.2233347 69.2999978,25.36 69.74,25.36 C70.40667,25.36 70.9499979,25.1366689 71.37,24.69 Z M83.2,17.24 C83.400001,17.4133342 83.5,17.6733316 83.5,18.02 C83.5,18.3800018 83.4133342,18.6466658 83.24,18.82 C83.0666658,18.9933342 82.7533356,19.1066664 82.3,19.16 L81.7,19.22 C80.9133294,19.3000004 80.3366685,19.5666644 79.97,20.02 C79.6033315,20.4733356 79.42,21.0399966 79.42,21.72 L79.42,25.92 C79.42,26.3066686 79.3000012,26.6033323 79.06,26.81 C78.8199988,27.0166677 78.5200018,27.12 78.16,27.12 C77.7999982,27.12 77.5033345,27.0166677 77.27,26.81 C77.0366655,26.6033323 76.92,26.3066686 76.92,25.92 L76.92,18.18 C76.92,17.8066648 77.0366655,17.520001 77.27,17.32 C77.5033345,17.119999 77.7933316,17.02 78.14,17.02 C78.4866684,17.02 78.7666656,17.1166657 78.98,17.31 C79.1933344,17.5033343 79.3,17.7799982 79.3,18.14 L79.3,18.94 C79.5533346,18.3533304 79.9299975,17.9000016 80.43,17.58 C80.9300025,17.2599984 81.4866636,17.0800002 82.1,17.04 L82.38,17.02 C82.7266684,16.9933332 82.999999,17.0666658 83.2,17.24 Z M93.68,25.92 C93.68,26.2266682 93.5700011,26.4999988 93.35,26.74 C93.1299989,26.9800012 92.8733348,27.1 92.58,27.1 C92.2866652,27.1 92.0133346,26.9800012 91.76,26.74 L87.08,22.5 L87.08,25.92 C87.08,26.3066686 86.9600012,26.599999 86.72,26.8 C86.4799988,27.000001 86.1800018,27.1 85.82,27.1 C85.4599982,27.1 85.1633345,27.000001 84.93,26.8 C84.6966655,26.599999 84.58,26.3066686 84.58,25.92 L84.58,13.98 C84.58,13.5933314 84.6966655,13.300001 84.93,13.1 C85.1633345,12.899999 85.4599982,12.8 85.82,12.8 C86.1800018,12.8 86.4799988,12.899999 86.72,13.1 C86.9600012,13.300001 87.08,13.5933314 87.08,13.98 L87.08,21.5 L91.36,17.4 C91.6000012,17.1599988 91.8733318,17.04 92.18,17.04 C92.4866682,17.04 92.7533322,17.1533322 92.98,17.38 C93.2066678,17.6066678 93.32,17.8733318 93.32,18.18 C93.32,18.4866682 93.1933346,18.7666654 92.94,19.02 L89.8,21.94 L93.28,25.06 C93.546668,25.3133346 93.68,25.5999984 93.68,25.92 Z M103.59,24.58 C103.730001,24.7533342 103.8,24.9866652 103.8,25.28 C103.8,25.6933354 103.553336,26.0399986 103.06,26.32 C102.606664,26.5733346 102.093336,26.7766659 101.52,26.93 C100.946664,27.0833341 100.400003,27.16 99.88,27.16 C98.3066588,27.16 97.0600046,26.7066712 96.14,25.8 C95.2199954,24.8933288 94.76,23.6533412 94.76,22.08 C94.76,21.079995 94.959998,20.1933372 95.36,19.42 C95.760002,18.6466628 96.3233297,18.0466688 97.05,17.62 C97.7766703,17.1933312 98.5999954,16.98 99.52,16.98 C100.400004,16.98 101.166663,17.1733314 101.82,17.56 C102.473337,17.9466686 102.979998,18.4933298 103.34,19.2 C103.700002,19.9066702 103.88,20.7399952 103.88,21.7 C103.88,22.2733362 103.626669,22.56 103.12,22.56 L97.22,22.56 C97.3000004,23.4800046 97.5599978,24.1566645 98,24.59 C98.4400022,25.0233355 99.0799958,25.24 99.92,25.24 C100.346669,25.24 100.723332,25.1866672 101.05,25.08 C101.376668,24.9733328 101.746665,24.8266676 102.16,24.64 C102.560002,24.4266656 102.853332,24.32 103.04,24.32 C103.266668,24.32 103.449999,24.4066658 103.59,24.58 Z M97.95,19.38 C97.5433313,19.8066688 97.3000004,20.419996 97.22,21.22 L101.74,21.22 C101.713333,20.4066626 101.513335,19.7900021 101.14,19.37 C100.766665,18.9499979 100.24667,18.74 99.58,18.74 C98.8999966,18.74 98.3566687,18.9533312 97.95,19.38 Z M112,26.16 C112,26.4800016 111.870001,26.7233325 111.61,26.89 C111.349999,27.0566675 110.980002,27.1266668 110.5,27.1 L109.96,27.06 C107.719989,26.8999992 106.6,25.7000112 106.6,23.46 L106.6,19.1 L105.6,19.1 C105.239998,19.1 104.963334,19.0200008 104.77,18.86 C104.576666,18.6999992 104.48,18.4666682 104.48,18.16 C104.48,17.8533318 104.576666,17.6200008 104.77,17.46 C104.963334,17.2999992 105.239998,17.22 105.6,17.22 L106.6,17.22 L106.6,15.38 C106.6,15.0199982 106.713332,14.7333344 106.94,14.52 C107.166668,14.3066656 107.473331,14.2 107.86,14.2 C108.233335,14.2 108.533332,14.3066656 108.76,14.52 C108.986668,14.7333344 109.1,15.0199982 109.1,15.38 L109.1,17.22 L110.8,17.22 C111.160002,17.22 111.436666,17.2999992 111.63,17.46 C111.823334,17.6200008 111.92,17.8533318 111.92,18.16 C111.92,18.4666682 111.823334,18.6999992 111.63,18.86 C111.436666,19.0200008 111.160002,19.1 110.8,19.1 L109.1,19.1 L109.1,23.64 C109.1,24.6266716 109.553329,25.153333 110.46,25.22 L111,25.26 C111.66667,25.3000002 112,25.5999972 112,26.16 Z" id="Market" fill="#245B70"></path>
                </g>
            </g>
        </g>
    </g>
</svg>