<?xml version="1.0" encoding="UTF-8"?>
<svg width="40px" height="40px" viewBox="0 0 40 40" version="1.1" xmlns="http://www.w3.org/2000/svg" xmlns:xlink="http://www.w3.org/1999/xlink">
    <title>sharing</title>
    <defs>
        <linearGradient x1="0%" y1="100%" x2="100%" y2="0%" id="linearGradient-1">
            <stop stop-color="#40D9FF" offset="0%"></stop>
            <stop stop-color="#8473EB" offset="100%"></stop>
        </linearGradient>
        <linearGradient x1="50%" y1="45.8156972%" x2="50%" y2="0%" id="linearGradient-2">
            <stop stop-color="#FFFFFF" stop-opacity="0" offset="0%"></stop>
            <stop stop-color="#FFFFFF" offset="100%"></stop>
        </linearGradient>
        <linearGradient x1="50%" y1="56.7033331%" x2="0%" y2="21.6536127%" id="linearGradient-3">
            <stop stop-color="#FFFFFF" stop-opacity="0" offset="0%"></stop>
            <stop stop-color="#FFFFFF" offset="100%"></stop>
        </linearGradient>
        <linearGradient x1="50%" y1="43.9736852%" x2="0%" y2="81.0786797%" id="linearGradient-4">
            <stop stop-color="#FFFFFF" stop-opacity="0" offset="0%"></stop>
            <stop stop-color="#FFFFFF" offset="100%"></stop>
        </linearGradient>
        <linearGradient x1="50%" y1="53.6627022%" x2="50%" y2="100%" id="linearGradient-5">
            <stop stop-color="#FFFFFF" stop-opacity="0" offset="0%"></stop>
            <stop stop-color="#FFFFFF" offset="100%"></stop>
        </linearGradient>
        <linearGradient x1="53.5539423%" y1="42.4886559%" x2="100%" y2="79.9254304%" id="linearGradient-6">
            <stop stop-color="#FFFFFF" stop-opacity="0" offset="0%"></stop>
            <stop stop-color="#FFFFFF" offset="100%"></stop>
        </linearGradient>
        <linearGradient x1="50%" y1="57.7388085%" x2="100%" y2="19.8419627%" id="linearGradient-7">
            <stop stop-color="#FFFFFF" stop-opacity="0" offset="0%"></stop>
            <stop stop-color="#FFFFFF" offset="100%"></stop>
        </linearGradient>
    </defs>
    <g id="Components" stroke="none" stroke-width="1" fill="none" fill-rule="evenodd">
        <g id="icon/kintoblock/public-kintoblocks">
            <g id="sharing" transform="translate(2.000000, 0.000000)">
                <path d="M19.9894319,0.501968774 L33.9894319,8.52807515 C35.2329881,9.24099759 36,10.5648377 36,11.9982568 L36,28.0017432 C36,29.4351623 35.2329881,30.7590024 33.9894319,31.4719249 L19.9894319,39.4980312 C18.7572102,40.2044557 17.2427898,40.2044557 16.0105681,39.4980312 L2.01056807,31.4719249 C0.767011894,30.7590024 6.21724894e-15,29.4351623 3.55271368e-15,28.0017432 L0,11.9982568 C-8.8817842e-16,10.5648377 0.767011894,9.24099759 2.01056807,8.52807515 L16.0105681,0.501968774 C17.2427898,-0.204455707 18.7572102,-0.204455707 19.9894319,0.501968774 Z" id="base" fill="url(#linearGradient-1)"></path>
                <path d="M19,4.69087674 L19,16 C19,16.5522847 18.5522847,17 18,17 C17.4477153,17 17,16.5522847 17,16 L17,4.70789626 L15.9913753,5.27290964 C15.509541,5.54282458 14.9001277,5.37102994 14.6302128,4.88919556 C14.3602978,4.40736118 14.5320925,3.79794794 15.0139269,3.528033 L17.5112758,2.12906311 C17.8121738,1.96050546 18.178693,1.95889887 18.4810572,2.12481219 L21.030571,3.52378208 C21.5147531,3.78946261 21.6918836,4.39734637 21.426203,4.88152847 C21.1605225,5.36571057 20.5526388,5.54284108 20.0684567,5.27716056 L19,4.69087674 Z" id="66" fill="url(#linearGradient-2)" fill-rule="nonzero" opacity="0.400000006"></path>
                <path d="M5.18250665,11.5023798 L15.0482915,17.1569415 C15.5265841,17.4330838 15.6904592,18.0446742 15.4143169,18.5229669 C15.1381745,19.0012595 14.5265841,19.1651346 14.0482915,18.8889923 L4.19724599,13.2429404 L4.1822496,14.3989417 C4.17508561,14.9511799 3.72160047,15.39305 3.16936218,15.385886 C2.6171239,15.378722 2.17525388,14.9252368 2.18241787,14.3729986 L2.21954885,11.510746 C2.22402265,11.1658819 2.40589093,10.8476636 2.70075814,10.6687652 L5.18705851,9.16030646 C5.65923565,8.87383273 6.27424369,9.02437508 6.56071742,9.49655222 C6.84719115,9.96872935 6.6966488,10.5837374 6.22447166,10.8702111 L5.18250665,11.5023798 Z" id="55" fill="url(#linearGradient-3)" fill-rule="nonzero" opacity="0.400000006"></path>
                <path d="M5.18250665,28.4991216 L6.22447166,29.1312903 C6.6966488,29.417764 6.84719115,30.0327721 6.56071742,30.5049492 C6.27424369,30.9771263 5.65923565,31.1276687 5.18705851,30.841195 L2.70075814,29.3327362 C2.40589093,29.1538378 2.22402265,28.8356195 2.21954885,28.4907554 L2.18241787,25.6285029 C2.17525388,25.0762646 2.6171239,24.6227794 3.16936218,24.6156154 C3.72160047,24.6084515 4.17508561,25.0503215 4.1822496,25.6025598 L4.19724599,26.758561 L14.0482915,21.1125092 C14.5265841,20.8363668 15.1381745,21.0002419 15.4143169,21.4785346 C15.6904592,21.9568272 15.5265841,22.5684176 15.0482915,22.84456 L5.18250665,28.4991216 Z" id="44" fill="url(#linearGradient-4)" fill-rule="nonzero" opacity="0.400000006"></path>
                <path d="M19,35.3106247 L20.0684567,34.7243409 C20.5526388,34.4586603 21.1605225,34.6357909 21.426203,35.1199729 C21.6918836,35.604155 21.5147531,36.2120388 21.030571,36.4777193 L18.4810572,37.8766892 C18.178693,38.0426026 17.8121738,38.040996 17.5112758,37.8724383 L15.0139269,36.4734684 C14.5320925,36.2035535 14.3602978,35.5941402 14.6302128,35.1123059 C14.9001277,34.6304715 15.509541,34.4586768 15.9913753,34.7285918 L17,35.2936052 L17,24.0015014 C17,23.4492167 17.4477153,23.0015014 18,23.0015014 C18.5522847,23.0015014 19,23.4492167 19,24.0015014 L19,35.3106247 Z" id="33" fill="url(#linearGradient-5)" fill-rule="nonzero" opacity="0.400000006"></path>
                <path d="M31.8435798,26.8122538 L31.8700714,25.5938013 C31.8820764,25.041647 32.3394178,24.6037695 32.891572,24.6157745 C33.4437263,24.6277794 33.8816038,25.0851208 33.8695989,25.6372751 L33.8063854,28.5447038 C33.7988885,28.8895154 33.6142375,29.2061271 33.3178133,29.3824336 L30.8575954,30.8457163 C30.382925,31.1280396 29.7692604,30.9721115 29.486937,30.4974411 C29.2046137,30.0227707 29.3605418,29.4091061 29.8352122,29.1267827 L30.8288404,28.5357948 L20.977795,22.889743 C20.4995023,22.6136006 20.3356272,22.0020102 20.6117696,21.5237176 C20.8879119,21.0454249 21.4995023,20.8815498 21.977795,21.1576922 L31.8435798,26.8122538 Z" id="22" fill="url(#linearGradient-6)" fill-rule="nonzero" opacity="0.400000006"></path>
                <path d="M31.8435798,13.1892476 L21.977795,18.8438093 C21.4995023,19.1199516 20.8879119,18.9560765 20.6117696,18.4777839 C20.3356272,17.9994912 20.4995023,17.3879008 20.977795,17.1117584 L30.8288404,11.4657066 L29.8352122,10.8747187 C29.3605418,10.5923953 29.2046137,9.97873068 29.486937,9.5040603 C29.7692604,9.02938991 30.382925,8.87346182 30.8575954,9.15578516 L33.3178133,10.6190678 C33.6142375,10.7953743 33.7988885,11.111986 33.8063854,11.4567977 L33.8695989,14.3642263 C33.8816038,14.9163806 33.4437263,15.373722 32.891572,15.385727 C32.3394178,15.3977319 31.8820764,14.9598544 31.8700714,14.4077001 L31.8435798,13.1892476 Z" id="11" fill="url(#linearGradient-7)" fill-rule="nonzero" opacity="0.400000006"></path>
                <path d="M19,12.6908767 L19,16 C19,16.5522847 18.5522847,17 18,17 C17.4477153,17 17,16.5522847 17,16 L17,12.7078963 L15.9913753,13.2729096 C15.509541,13.5428246 14.9001277,13.3710299 14.6302128,12.8891956 C14.3602978,12.4073612 14.5320925,11.7979479 15.0139269,11.528033 L17.5112758,10.1290631 C17.8121738,9.96050546 18.178693,9.95889887 18.4810572,10.1248122 L21.030571,11.5237821 C21.5147531,11.7894626 21.6918836,12.3973464 21.426203,12.8815285 C21.1605225,13.3657106 20.5526388,13.5428411 20.0684567,13.2771606 L19,12.6908767 Z" id="top" fill="#FFFFFF" fill-rule="nonzero"></path>
                <path d="M12.1825067,15.5023798 L15.0482915,17.1569415 C15.5265841,17.4330838 15.6904592,18.0446742 15.4143169,18.5229669 C15.1381745,19.0012595 14.5265841,19.1651346 14.0482915,18.8889923 L11.197246,17.2429404 L11.1822496,18.3989417 C11.1750856,18.9511799 10.7216005,19.39305 10.1693622,19.385886 C9.6171239,19.378722 9.17525388,18.9252368 9.18241787,18.3729986 L9.21954885,15.510746 C9.22402265,15.1658819 9.40589093,14.8476636 9.70075814,14.6687652 L12.1870585,13.1603065 C12.6592356,12.8738327 13.2742437,13.0243751 13.5607174,13.4965522 C13.8471911,13.9687294 13.6966488,14.5837374 13.2244717,14.8702111 L12.1825067,15.5023798 Z" id="top-left" fill="#FFFFFF" fill-rule="nonzero"></path>
                <path d="M12.1825067,24.4991216 L13.2244717,25.1312903 C13.6966488,25.417764 13.8471911,26.0327721 13.5607174,26.5049492 C13.2742437,26.9771263 12.6592356,27.1276687 12.1870585,26.841195 L9.70075814,25.3327362 C9.40589093,25.1538378 9.22402265,24.8356195 9.21954885,24.4907554 L9.18241787,21.6285029 C9.17525388,21.0762646 9.6171239,20.6227794 10.1693622,20.6156154 C10.7216005,20.6084515 11.1750856,21.0503215 11.1822496,21.6025598 L11.197246,22.758561 L14.0482915,21.1125092 C14.5265841,20.8363668 15.1381745,21.0002419 15.4143169,21.4785346 C15.6904592,21.9568272 15.5265841,22.5684176 15.0482915,22.84456 L12.1825067,24.4991216 Z" id="bottom-left" fill="#FFFFFF" fill-rule="nonzero"></path>
                <path d="M19,27.3106247 L20.0684567,26.7243409 C20.5526388,26.4586603 21.1605225,26.6357909 21.426203,27.1199729 C21.6918836,27.604155 21.5147531,28.2120388 21.030571,28.4777193 L18.4810572,29.8766892 C18.178693,30.0426026 17.8121738,30.040996 17.5112758,29.8724383 L15.0139269,28.4734684 C14.5320925,28.2035535 14.3602978,27.5941402 14.6302128,27.1123059 C14.9001277,26.6304715 15.509541,26.4586768 15.9913753,26.7285918 L17,27.2936052 L17,24.0015014 C17,23.4492167 17.4477153,23.0015014 18,23.0015014 C18.5522847,23.0015014 19,23.4492167 19,24.0015014 L19,27.3106247 Z" id="bottom" fill="#FFFFFF" fill-rule="nonzero"></path>
                <path d="M24.8435798,22.8122538 L24.8700714,21.5938013 C24.8820764,21.041647 25.3394178,20.6037695 25.891572,20.6157745 C26.4437263,20.6277794 26.8816038,21.0851208 26.8695989,21.6372751 L26.8063854,24.5447038 C26.7988885,24.8895154 26.6142375,25.2061271 26.3178133,25.3824336 L23.8575954,26.8457163 C23.382925,27.1280396 22.7692604,26.9721115 22.486937,26.4974411 C22.2046137,26.0227707 22.3605418,25.4091061 22.8352122,25.1267827 L23.8288404,24.5357948 L20.977795,22.889743 C20.4995023,22.6136006 20.3356272,22.0020102 20.6117696,21.5237176 C20.8879119,21.0454249 21.4995023,20.8815498 21.977795,21.1576922 L24.8435798,22.8122538 Z" id="bottom-right" fill="#FFFFFF" fill-rule="nonzero"></path>
                <path d="M24.8435798,17.1892476 L21.977795,18.8438093 C21.4995023,19.1199516 20.8879119,18.9560765 20.6117696,18.4777839 C20.3356272,17.9994912 20.4995023,17.3879008 20.977795,17.1117584 L23.8288404,15.4657066 L22.8352122,14.8747187 C22.3605418,14.5923953 22.2046137,13.9787307 22.486937,13.5040603 C22.7692604,13.0293899 23.382925,12.8734618 23.8575954,13.1557852 L26.3178133,14.6190678 C26.6142375,14.7953743 26.7988885,15.111986 26.8063854,15.4567977 L26.8695989,18.3642263 C26.8816038,18.9163806 26.4437263,19.373722 25.891572,19.385727 C25.3394178,19.3977319 24.8820764,18.9598544 24.8700714,18.4077001 L24.8435798,17.1892476 Z" id="top-right" fill="#FFFFFF" fill-rule="nonzero"></path>
            </g>
        </g>
    </g>
</svg>
