<svg height="40" viewBox="0 0 40 40" width="40" xmlns="http://www.w3.org/2000/svg"><g fill="none" fill-rule="evenodd" transform="translate(3)"><path d="m17.4905847 20.1190622 16.7769652 9.445241c.2406287.1354712.3258757.4403605.1904045.6809891-.0448622.0796858-.1107187.1455423-.1904045.1904045l-16.7769652 9.445241c-.3045804.1714753-.676589.1714753-.9811694 0l-16.77696522-9.445241c-.24062868-.1354712-.32587565-.4403605-.19040444-.6809891.04486218-.0796858.11071869-.1455423.19040444-.1904045l16.77696522-9.445241c.3045804-.1714753.676589-.1714753.9811694 0z" fill="#ff943c"/><path d="m17.4905847 13.1190622 16.7769652 9.445241c.2406287.1354712.3258757.4403605.1904045.6809891-.0448622.0796858-.1107187.1455423-.1904045.1904045l-16.7769652 9.445241c-.3045804.1714753-.676589.1714753-.9811694 0l-16.77696522-9.445241c-.24062868-.1354712-.32587565-.4403605-.19040444-.6809891.04486218-.0796858.11071869-.1455423.19040444-.1904045l16.77696522-9.445241c.3045804-.1714753.676589-.1714753.9811694 0z" fill="#ffb476"/><path d="m17.4905847 7.11906223 16.7769652 9.44524097c.2406287.1354712.3258757.4403605.1904045.6809891-.0448622.0796858-.1107187.1455423-.1904045.1904045l-16.7769652 9.445241c-.3045804.1714753-.676589.1714753-.9811694 0l-16.77696522-9.445241c-.24062868-.1354712-.32587565-.4403605-.19040444-.6809891.04486218-.0796858.11071869-.1455423.19040444-.1904045l16.77696522-9.44524097c.3045804-.17147529.676589-.17147529.9811694 0z" fill="#ffd978"/><path d="m17.4905847.11906223 16.7769652 9.445241c.2406287.13547122.3258757.44036047.1904045.68098907-.0448622.0796858-.1107187.1455423-.1904045.1904045l-16.7769652 9.445241c-.3045804.1714753-.676589.1714753-.9811694 0l-16.77696522-9.445241c-.24062868-.1354712-.32587565-.44036045-.19040444-.68098913.04486218-.07968575.11071869-.14554226.19040444-.19040444l16.77696522-9.445241c.3045804-.17147529.676589-.17147529.9811694 0z" fill="#fff37c"/></g></svg>