<?xml version="1.0" encoding="UTF-8"?>
<svg width="20px" height="20px" viewBox="0 0 20 20" version="1.1" xmlns="http://www.w3.org/2000/svg" xmlns:xlink="http://www.w3.org/1999/xlink">
    <!-- Generator: Sketch 52.4 (67378) - http://www.bohemiancoding.com/sketch -->
    <title>icon-drag-handle</title>
    <desc>Created with Sketch.</desc>
    <g id="Deployments" stroke="none" stroke-width="1" fill="none" fill-rule="evenodd">
        <g id="19---dashboard---applications" transform="translate(-260.000000, -820.000000)" fill="#EDF3FD" fill-rule="nonzero">
            <g id="desktop/sidebar/analytics">
                <g id="Group-2-Copy" transform="translate(30.000000, 790.000000)">
                    <g id="Group-14" transform="translate(230.000000, 30.000000)">
                        <path d="M1,9 L19,9 C19.5522847,9 20,9.44771525 20,10 C20,10.5522847 19.5522847,11 19,11 L1,11 C0.44771525,11 6.76353751e-17,10.5522847 0,10 C-6.76353751e-17,9.44771525 0.44771525,9 1,9 Z M2.25,14.25 C2.38807082,13.8357875 2.8357849,13.6119305 3.24999737,13.7500013 L9.99993418,16 L16.7499993,13.749998 C17.1642136,13.6119278 17.6119287,13.8357861 17.75,14.25 C17.8895432,14.6686295 17.6729447,15.1226457 17.2597668,15.2775875 L10.3511234,17.8683287 C10.1247383,17.9532231 9.8752617,17.9532231 9.64887656,17.8683287 L2.74023321,15.2775875 C2.32705527,15.1226457 2.11045684,14.6686295 2.25,14.25 Z M10.3511234,2.13167129 L17.2597668,4.72241255 C17.6729447,4.87735427 17.8895432,5.33137051 17.75,5.75 C17.6119292,6.16421247 17.1642151,6.38806951 16.7500026,6.24999868 L10.0000658,4 L3.25000066,6.25000197 C2.83578641,6.38807218 2.38807129,6.16421388 2.25,5.75 C2.11045684,5.33137051 2.32705527,4.87735427 2.74023321,4.72241255 L9.64887656,2.13167129 C9.8752617,2.04677686 10.1247383,2.04677686 10.3511234,2.13167129 Z" id="Combined-Shape"></path>
                    </g>
                </g>
            </g>
        </g>
    </g>
</svg>