<?xml version="1.0" encoding="UTF-8"?>
<svg width="20px" height="20px" viewBox="0 0 20 20" version="1.1" xmlns="http://www.w3.org/2000/svg" xmlns:xlink="http://www.w3.org/1999/xlink">
    <!-- Generator: Sketch 46.2 (44496) - http://www.bohemiancoding.com/sketch -->
    <title>icon-dashboard-settings</title>
    <desc>Created with Sketch.</desc>
    <defs>
        <linearGradient x1="50%" y1="100%" x2="50%" y2="0%" id="linearGradient-1">
            <stop stop-color="#B9D5EC" offset="0%"></stop>
            <stop stop-color="#98B4CD" offset="100%"></stop>
        </linearGradient>
    </defs>
    <g id="Symbols" stroke="none" stroke-width="1" fill="none" fill-rule="evenodd">
        <g id="desktop/sidebar/home" transform="translate(-50.000000, -410.000000)">
            <g id="desktop/sidebar/analytics">
                <g id="icon-dashboard-settings" transform="translate(60.000000, 420.000000) scale(-1, 1) translate(-60.000000, -420.000000) translate(50.000000, 411.000000)">
                    <path d="M19.2783122,10.25 L15.7216878,16.410254 L15.7216878,16.410254 C15.2751058,17.1837567 14.4497883,17.660254 13.5566243,17.660254 L6.44337567,17.660254 L6.44337567,17.660254 C5.5502117,17.660254 4.72489415,17.1837567 4.27831216,16.410254 L0.721687836,10.25 C0.275105849,9.47649731 0.275105849,8.52350269 0.721687836,7.75 L4.27831216,1.58974596 L4.27831216,1.58974596 C4.72489415,0.81624327 5.5502117,0.339745962 6.44337567,0.339745962 L13.5566243,0.339745962 L13.5566243,0.339745962 C14.4497883,0.339745962 15.2751058,0.81624327 15.7216878,1.58974596 L19.2783122,7.75 L19.2783122,7.75 C19.7248942,8.52350269 19.7248942,9.47649731 19.2783122,10.25 Z M10,13 C12.209139,13 14,11.209139 14,9 C14,6.790861 12.209139,5 10,5 C7.790861,5 6,6.790861 6,9 C6,11.209139 7.790861,13 10,13 Z" id="Combined-Shape" fill="url(#linearGradient-1)"></path>
                    <path d="M14.7529306,17.3554433 C14.3919337,17.5521885 13.9819725,17.660254 13.5566243,17.660254 L6.44337567,17.660254 C5.5502117,17.660254 4.72489415,17.1837567 4.27831216,16.410254 L0.721687836,10.25 C0.498396843,9.86324865 0.386751346,9.43162433 0.386751346,9 L6,9 C6,11.209139 7.790861,13 10,13 C10.7087538,13 11.3744539,12.8156655 11.9517736,12.4923234 L14.7529306,17.3554433 L14.7529306,17.3554433 Z" id="Combined-Shape" fill="#B9D5EC"></path>
                    <path d="M5.01529801,17.2122396 C4.718486,17.0057135 4.46522596,16.7339982 4.27831216,16.410254 L0.721687836,10.25 C0.48670895,9.84300463 0.375369347,9.38631569 0.387669029,8.9322279 L6.00066101,8.92654029 C6.00022096,8.95097399 6,8.97546119 6,9 C6,10.4404914 6.7614425,11.7031383 7.90378649,12.4073998 L5.01529801,17.2122396 L5.01529801,17.2122396 Z" id="Combined-Shape" fill="#CBE3F9"></path>
                </g>
            </g>
        </g>
    </g>
</svg>