<?xml version="1.0" encoding="UTF-8"?>
<svg width="20px" height="20px" viewBox="0 0 20 20" version="1.1" xmlns="http://www.w3.org/2000/svg" xmlns:xlink="http://www.w3.org/1999/xlink">
    <!-- Generator: Sketch 47.1 (45422) - http://www.bohemiancoding.com/sketch -->
    <title>icon-status-admin</title>
    <desc>Created with Sketch.</desc>
    <defs></defs>
    <g id="Page-1" stroke="none" stroke-width="1" fill="none" fill-rule="evenodd">
        <g id="Group">
            <g id="icon/status/admin">
                <g id="icon/status/owner">
                    <circle id="Combined-Shape-Copy" fill="#FFDB18" cx="10" cy="10" r="10"></circle>
                    <path d="M10,12.4 L7.65399236,14.0324959 L7.65399236,14.0324959 C7.42732787,14.1902229 7.11571696,14.1343381 6.95798992,13.9076736 C6.87066423,13.7821806 6.84555254,13.6236316 6.88982475,13.4772956 L7.71746433,10.7416408 L5.43991229,9.0149239 L5.43991229,9.0149239 C5.21986178,8.8480935 5.17671836,8.53446455 5.34354877,8.31441404 C5.43591455,8.19258291 5.57894365,8.11970594 5.73179835,8.116591 L8.58931537,8.05835918 L9.52771844,5.35869362 L9.52771844,5.35869362 C9.61838424,5.09785971 9.90333105,4.95991121 10.1641649,5.05057701 C10.3085758,5.1007742 10.4220844,5.21428273 10.4722816,5.35869362 L11.4106846,8.05835918 L14.2682017,8.116591 L14.2682017,8.116591 C14.5442867,8.12221719 14.7635369,8.35058927 14.7579107,8.62667433 C14.7547958,8.77952903 14.6819188,8.92255812 14.5600877,9.0149239 L12.2825357,10.7416408 L13.1101753,13.4772956 L13.1101753,13.4772956 C13.1901394,13.7416067 13.0406967,14.0206969 12.7763856,14.100661 C12.6300496,14.1449333 12.4715006,14.1198216 12.3460076,14.0324959 L10,12.4 Z" id="Star" fill="#FFFFFF"></path>
                </g>
            </g>
        </g>
    </g>
</svg>