<svg height="120" viewBox="0 0 120 120" width="120" xmlns="http://www.w3.org/2000/svg" xmlns:xlink="http://www.w3.org/1999/xlink"><defs><circle id="a" cx="60" cy="60" r="60"/><filter id="b" height="133.3%" width="127.5%" x="-13.8%" y="-10.6%"><feOffset dx="0" dy="4" in="SourceAlpha" result="shadowOffsetOuter1"/><feGaussianBlur in="shadowOffsetOuter1" result="shadowBlurOuter1" stdDeviation="3"/><feColorMatrix in="shadowBlurOuter1" type="matrix" values="0 0 0 0 0.258823529   0 0 0 0 0.462745098   0 0 0 0 0.57254902  0 0 0 0.143653759 0"/></filter><linearGradient id="c"><stop offset="0" stop-color="#b9d5ec"/><stop offset="1" stop-color="#b9d5ec" stop-opacity="0"/></linearGradient><linearGradient id="d" x1="100%" x2="51.081557%" xlink:href="#c" y1="0%" y2="96.025419%"/><linearGradient id="e" x1="100%" x2="51.081557%" y1="0%" y2="96.025419%"><stop offset="0" stop-color="#c5e5ff"/><stop offset="1" stop-color="#c8e6ff" stop-opacity="0"/></linearGradient><linearGradient id="f" x1="0%" x2="81.494573%" xlink:href="#c" y1="0%" y2="79.869975%"/><mask id="g" fill="#fff"><use fill="#fff" fill-rule="evenodd" xlink:href="#a"/></mask></defs><g fill="none" fill-rule="evenodd"><use fill="#f5f9ff" xlink:href="#a"/><g mask="url(#g)"><g transform="translate(20 28)"><path d="m7.96335076 34.4244998c-1.24943277-2.1891533-1.96335076-4.7234543-1.96335076-7.4244998 0-8.2842712 6.7157288-15 15-15 .4409687 0 .8774931.0190283 1.3087969.0563086 2.7727804-7.05898769 9.6483983-12.0563086 17.6912031-12.0563086 10.4934102 0 19 8.50658975 19 19 0 .3759078-.0109165.749266-.0324499 1.1197747 7.9083268.9697632 14.0324499 7.7098114 14.0324499 15.8802253 0 .1524422-.0021319.3043865-.0063675.4558047 4.0603949 1.2722962 7.0063675 5.0642113 7.0063675 9.5441953 0 5.1853481-3.9466773 9.4489003-9 9.9506248v.0493752h-60c-6.07513225 0-11-4.9248678-11-11 0-5.0217764 3.36509893-9.2575918 7.96335076-10.5755002zm27.03664924 3.5755002 20-3-1.9651141 2.4563927c-1.322396 1.6529949-3.135238 2.8437033-5.1775141 3.4006877l-7.8573718 2.1429196-2 4 9-1-2.2802329 2.8502912c-1.1255745 1.406968-2.6103775 2.4836877-4.2974537 3.1163413l-5.4223134 2.0333675-1.8622475 3.724495c-1.4008899 2.8017797-3.5087009 5.1894706-6.1150859 6.9270606l-2.0226666 1.3484444z" fill="#000" filter="url(#b)"/><path d="m7.96335076 34.4244998c-1.24943277-2.1891533-1.96335076-4.7234543-1.96335076-7.4244998 0-8.2842712 6.7157288-15 15-15 .4409687 0 .8774931.0190283 1.3087969.0563086 2.7727804-7.05898769 9.6483983-12.0563086 17.6912031-12.0563086 10.4934102 0 19 8.50658975 19 19 0 .3759078-.0109165.749266-.0324499 1.1197747 7.9083268.9697632 14.0324499 7.7098114 14.0324499 15.8802253 0 .1524422-.0021319.3043865-.0063675.4558047 4.0603949 1.2722962 7.0063675 5.0642113 7.0063675 9.5441953 0 5.1853481-3.9466773 9.4489003-9 9.9506248v.0493752h-60c-6.07513225 0-11-4.9248678-11-11 0-5.0217764 3.36509893-9.2575918 7.96335076-10.5755002z" fill="#98b4cd" fill-rule="nonzero"/><path d="m35 38 20-3-1.9651141 2.4563927c-1.322396 1.6529949-3.135238 2.8437033-5.1775141 3.4006877l-7.8573718 2.1429196-2 4 9-1-2.2802329 2.8502912c-1.1255745 1.406968-2.6103775 2.4836877-4.2974537 3.1163413l-5.4223134 2.0333675-1.8622475 3.724495c-1.4008899 2.8017797-3.5087009 5.1894706-6.1150859 6.9270606l-2.0226666 1.3484444z" fill="#ffdb18" fill-rule="nonzero"/><circle cx="57" cy="36" fill="url(#d)" opacity=".6" r="16"/><circle cx="40" cy="19" fill="url(#e)" r="19"/><circle cx="70" cy="46" fill="url(#d)" opacity=".4" r="10"/><circle cx="11" cy="45" fill="url(#f)" opacity=".4" r="11"/></g></g></g></svg>