<?xml version="1.0" encoding="UTF-8"?>
<svg width="10px" height="10px" viewBox="0 0 10 10" version="1.1" xmlns="http://www.w3.org/2000/svg" xmlns:xlink="http://www.w3.org/1999/xlink">
    <!-- Generator: Sketch 51.3 (57544) - http://www.bohemiancoding.com/sketch -->
    <title>icon/secondary/small/retry</title>
    <desc>Created with Sketch.</desc>
    <defs>
        <linearGradient x1="100%" y1="50%" x2="72.2857329%" y2="18.3869417%" id="linearGradient-1">
            <stop stop-color="#96B2CC" offset="0%"></stop>
            <stop stop-color="#96B2CC" stop-opacity="0" offset="100%"></stop>
        </linearGradient>
    </defs>
    <g id="KintoBlocks" stroke="none" stroke-width="1" fill="none" fill-rule="evenodd">
        <g id="16---dashboard---kintoblocks---edit-branch---data-entered" transform="translate(-1325.000000, -1215.000000)">
            <g id="content" transform="translate(320.000000, 0.000000)">
                <g id="content-box-copy-2" transform="translate(30.000000, 1030.000000)">
                    <g id="search-dropdown-options-copy" transform="translate(40.000000, 110.000000)">
                        <g id="Group-2" transform="translate(865.000000, 70.000000)">
                            <g id="icon/secondary/small/retry" transform="translate(70.000000, 5.000000)">
                                <g id="Group">
                                    <path d="M3.58108574,0.209887876 C4.15414909,0.0610264773 5,-0.118331074 5,0.362849099 L5,3.14289787 C5,3.65469072 4.59298614,4.0695808 4.09090909,4.0695808 C3.58883205,4.0695808 3.18181818,3.65469072 3.18181818,3.14289787 L3.18181818,2.61056267 C2.45545785,3.16468075 2,4.03749745 2,4.99786789 C2,6.65472214 3.34314575,7.99786789 5,7.99786789 C6.65685425,7.99786789 8,6.65472214 8,4.99786789 C8,3.92010886 7.42780446,2.9429098 6.51435078,2.40738264 C6.0379082,2.12806039 5.87811061,1.51539195 6.15743286,1.03894938 C6.43675511,0.562506803 7.04942355,0.402709209 7.52586612,0.682031459 C9.04552132,1.57295417 10,3.20301873 10,4.99786789 C10,7.75929164 7.76142375,9.99786789 5,9.99786789 C2.23857625,9.99786789 0,7.75929164 0,4.99786789 C0,2.81744434 1.40823269,0.90851721 3.44950345,0.24321023 C3.49317521,0.228976389 3.53711893,0.217911109 3.58108574,0.209887876 Z" id="Oval-3" fill="url(#linearGradient-1)" fill-rule="nonzero" transform="translate(5.000000, 5.023934) scale(-1, 1) translate(-5.000000, -5.023934) "></path>
                                    <path d="M4.84343336,0.209887876 C5.41649671,0.0610264773 6.26234762,-0.118331074 6.26234762,0.362849099 L6.26234762,3.14289787 C6.26234762,3.65469072 5.85533376,4.0695808 5.35325671,4.0695808 C4.85117966,4.0695808 4.4441658,3.65469072 4.4441658,3.14289787 L4.4441658,2.61056267 C3.71780547,3.16468075 3.26234762,4.03749745 3.26234762,4.99786789 C3.26234762,6.65472214 4.60549337,7.99786789 6.26234762,7.99786789 C6.58713447,7.99786789 7.53905396,7.99786789 8.31697386,7.48438794 C9.0896103,6.97439542 9.46809915,6.95979711 9.56389325,6.95979711 C9.6646266,6.95979711 10.492684,7.68970773 9.56389325,8.57935771 C9.00458274,9.11509795 6.79968856,9.99786789 6.26234762,9.99786789 C3.50092387,9.99786789 1.26234762,7.75929164 1.26234762,4.99786789 C1.26234762,2.81744434 2.67058031,0.90851721 4.71185107,0.24321023 C4.75552283,0.228976389 4.79946654,0.217911109 4.84343336,0.209887876 Z" id="Oval-3-Copy" fill="#96B2CC" fill-rule="nonzero" transform="translate(5.631174, 5.023934) scale(-1, 1) translate(-5.631174, -5.023934) "></path>
                                </g>
                            </g>
                        </g>
                    </g>
                </g>
            </g>
        </g>
    </g>
</svg>