<?xml version="1.0" encoding="UTF-8"?>
<svg width="30px" height="30px" viewBox="0 0 30 30" version="1.1" xmlns="http://www.w3.org/2000/svg" xmlns:xlink="http://www.w3.org/1999/xlink">
    <!-- Generator: Sketch 49.3 (51167) - http://www.bohemiancoding.com/sketch -->
    <title>icon/textfield/add/regular</title>
    <desc>Created with Sketch.</desc>
    <defs></defs>
    <g id="Components" stroke="none" stroke-width="1" fill="none" fill-rule="evenodd">
        <g id="icon/textfield/add/regular" fill="#C3D1DD">
            <path d="M14,14 L14,6 C14,5.44771525 14.4477153,5 15,5 C15.5522847,5 16,5.44771525 16,6 L16,14 L24,14 C24.5522847,14 25,14.4477153 25,15 C25,15.5522847 24.5522847,16 24,16 L16,16 L16,24 C16,24.5522847 15.5522847,25 15,25 C14.4477153,25 14,24.5522847 14,24 L14,16 L6,16 C5.44771525,16 5,15.5522847 5,15 C5,14.4477153 5.44771525,14 6,14 L14,14 Z" id="Combined-Shape"></path>
        </g>
    </g>
</svg>