<?xml version="1.0" encoding="UTF-8"?>
<svg width="20px" height="10px" viewBox="0 0 20 10" version="1.1" xmlns="http://www.w3.org/2000/svg" xmlns:xlink="http://www.w3.org/1999/xlink">
    <!-- Generator: Sketch 46.2 (44496) - http://www.bohemiancoding.com/sketch -->
    <title>icon/textfield/entry visible</title>
    <desc>Created with Sketch.</desc>
    <defs></defs>
    <g id="Style-Guide" stroke="none" stroke-width="1" fill="none" fill-rule="evenodd">
        <g id="Design-System" transform="translate(-1580.000000, -2863.000000)" fill="#1EC4E9">
            <g id="UI-Elements" transform="translate(120.000000, 361.000000)">
                <g id="icon/textfield/entry-visible" transform="translate(1460.000000, 2497.000000)">
                    <path d="M10.0132441,5 C14.0944122,5.07467205 17.3385429,7.27043391 19.2653346,8.78136562 C19.3581836,8.85334679 19.9878815,9.31954255 19.9997494,9.91557349 C20.0081267,10.3353515 19.805674,10.645476 19.5131647,10.9051463 C17.9382219,12.3723512 14.51328,14.9811638 9.98881015,15 C5.49784975,14.9811638 2.06243608,12.3723512 0.48819145,10.9051463 C0.195682137,10.645476 -0.0074687219,10.3353515 0.000210520196,9.91557349 C0.010682214,9.31954255 0.641776292,8.85334679 0.733927197,8.78136562 C2.66071885,7.27043391 5.90834014,5.07467205 10.0132441,5 Z M6,9.99965251 C6,12.1999826 7.78858092,13.9854053 10.0003497,14 C12.2177144,13.9847103 14,12.1999826 14,9.99965251 C14,7.79932239 12.2177144,6.01389975 10.0003497,6 C7.78858092,6.01389975 6,7.79932239 6,9.99965251 Z M10,8 C10.0054521,8 10.0109041,8 10.0163562,8.00089346 C11.1240345,8.02769712 12,8.912218 12,9.99955327 C12,11.0868885 11.1240345,11.9723029 10.0163562,12 C10.0099955,12 10.0045434,11.9982131 10,11.9982131 C9.99454793,11.9982131 9.98909587,12 9.9836438,11.9982131 C8.88323489,11.9723029 8,11.0868885 8,9.99955327 C8,8.912218 8.88414357,8.02769712 9.9836438,8 L10,8 Z"></path>
                </g>
            </g>
        </g>
    </g>
</svg>