<?xml version="1.0" encoding="UTF-8"?>
<svg width="80px" height="80px" viewBox="0 0 80 80" version="1.1" xmlns="http://www.w3.org/2000/svg" xmlns:xlink="http://www.w3.org/1999/xlink">
    <!-- Generator: Sketch 48.2 (47327) - http://www.bohemiancoding.com/sketch -->
    <title>icon-services-kintoblocks-mongodb-large</title>
    <desc>Created with Sketch.</desc>
    <defs></defs>
    <g id="icon/services/kintoblocks/mongodb/large" stroke="none" stroke-width="1" fill="none" fill-rule="evenodd">
        <g id="icon-services-kintoblocks-mongodb-large">
            <circle id="Oval-4" fill="#F6F8FC" cx="40" cy="40" r="40"></circle>
            <path d="M41.8600413,69.9313333 L40.245843,69.399 C40.245843,69.399 40.4515785,61.2632222 37.505343,60.6936667 C35.5624587,58.4516667 37.8042397,-35.0723333 44.8625083,60.373 C44.8625083,60.373 42.4465661,61.5812222 41.9893512,63.6325556 C41.5322479,65.6852222 41.8600413,69.9313333 41.8600413,69.9313333 Z" id="Clip-2" fill="#999875"></path>
            <path d="M27,39.7867621 L27,38.5841552 C27.0051868,38.3506825 27.0134125,38.1156654 27.0247686,37.8791111 C27.7818843,22.1075556 37.0744587,14.3532222 38.8843512,12.9464444 C40.0543884,11.7038889 40.1028099,11.2252222 40.1932934,10 C41.0134463,11.7541111 40.877219,36.2056667 40.9640207,39.0634444 C41.3012975,50.1886667 40.3453636,60.4887778 39.424686,62.5887778 C39.424686,62.5887778 27.3257365,54.3691597 27,39.7867621 Z" id="Clip-8" fill="#69B655"></path>
            <path d="M42.7301777,62.0747778 C42.7301777,62.0747778 56.7562314,52.8748889 53.4701529,33.7684444 C50.3055744,19.8873333 42.8343843,15.3243333 42.0314132,13.582 C41.1476653,12.3491111 40.2574463,10.164 40.2574463,10.164 L40.8540124,48.8405556 C40.8540124,48.8405556 39.6198223,60.6502222 42.7301777,62.0747778" id="Fill-4" fill="#3F9143"></path>
        </g>
    </g>
</svg>