<?xml version="1.0" encoding="UTF-8"?>
<svg width="24px" height="24px" viewBox="0 0 24 24" version="1.1" xmlns="http://www.w3.org/2000/svg" xmlns:xlink="http://www.w3.org/1999/xlink">
    <!-- Generator: Sketch 54.1 (76490) - https://sketchapp.com -->
    <title>icon-add-or-create</title>
    <desc>Created with Sketch.</desc>
    <g id="WIP" stroke="none" stroke-width="1" fill="none" fill-rule="evenodd">
        <g id="1---dashboard---kintoblocks---edit-branch---no-branch" transform="translate(-38.000000, -198.000000)">
            <g id="desktop/sidebar/analytics">
                <g id="add-new" transform="translate(30.000000, 190.000000)">
                    <g id="icon-add-or-create" transform="translate(8.000000, 7.000000)">
                        <path d="M11,12 L11,9 C11,8.44771525 11.4477153,8 12,8 C12.5522847,8 13,8.44771525 13,9 L13,12 L16,12 C16.5522847,12 17,12.4477153 17,13 C17,13.5522847 16.5522847,14 16,14 L13,14 L13,17 C13,17.5522847 12.5522847,18 12,18 C11.4477153,18 11,17.5522847 11,17 L11,14 L8,14 C7.44771525,14 7,13.5522847 7,13 C7,12.4477153 7.44771525,12 8,12 L11,12 Z" id="Combined-Shape" fill="#FFFFFF"></path>
                        <circle id="Oval" stroke-opacity="0.402562281" stroke="#FFFFFF" stroke-width="2" cx="12" cy="13" r="11"></circle>
                    </g>
                </g>
            </g>
        </g>
    </g>
</svg>