<?xml version="1.0" encoding="UTF-8"?>
<svg width="40px" height="40px" viewBox="0 0 40 40" version="1.1" xmlns="http://www.w3.org/2000/svg" xmlns:xlink="http://www.w3.org/1999/xlink">
    <!-- Generator: Sketch 51.1 (57501) - http://www.bohemiancoding.com/sketch -->
    <title>icon-search-my-kintoblocks</title>
    <desc>Created with Sketch.</desc>
    <defs></defs>
    <g id="Page-1" stroke="none" stroke-width="1" fill="none" fill-rule="evenodd">
        <g id="icon/search/my-kintoblocks">
            <g id="Group" transform="translate(11.000000, 10.000000)">
                <path d="M9.12600381,1.03285669 C9.04859918,0.98904777 8.95140082,0.98904777 8.87399619,1.03285669 L1.1153755,5.42402572 C1.04256643,5.46523368 1,5.53767396 1,5.61367049 L1,14.3863295 C1,14.462326 1.04256643,14.5347663 1.1153755,14.5759743 L8.87399619,18.9671433 C8.95140082,19.0109522 9.04859918,19.0109522 9.12600381,18.9671433 L16.8846245,14.5759743 C16.9574336,14.5347663 17,14.462326 17,14.3863295 L17,5.61367049 C17,5.53767396 16.9574336,5.46523368 16.8846245,5.42402572 L9.12600381,1.03285669 Z" id="base" stroke="#083A45" stroke-width="2"></path>
                <path d="M16.4,6.98671732 L10.0795826,10.6191411 C10.0303518,10.6474347 10,10.6998855 10,10.7566675 L10,18.0132827 L16.3204174,14.3808589 C16.3696482,14.3525653 16.4,14.3001145 16.4,14.2433325 L16.4,6.98671732 Z" id="right" stroke="#083A45" stroke-width="2"></path>
                <path d="M15.2460048,6.90584871 C15.4164091,6.81770854 15.6054625,6.77170988 15.7973123,6.77170988 C16.460054,6.77170988 16.9973123,7.30896818 16.9973123,7.97170988 L16.9973123,12.6275187 C16.9973123,12.8005683 16.9598845,12.9715709 16.887596,13.1287985 C16.7030298,13.5302299 16.4722845,13.8950535 16.1953601,14.2232694 L10.5588623,11.0124322 C10.3563642,10.9193297 9.79035779,11.1045099 9.68796359,10.9065478 C9.43423132,10.4159987 9.62620926,9.81263949 10.1167583,9.55890722 L15.2460048,6.90584871 Z" id="bottom" fill="#083A45"></path>
            </g>
        </g>
    </g>
</svg>