<?xml version="1.0" encoding="UTF-8"?>
<svg width="40px" height="40px" viewBox="0 0 40 40" version="1.1" xmlns="http://www.w3.org/2000/svg" xmlns:xlink="http://www.w3.org/1999/xlink">
    <!-- Generator: Sketch 47 (45396) - http://www.bohemiancoding.com/sketch -->
    <title>icon-gray-remove-double</title>
    <desc>Created with Sketch.</desc>
    <defs></defs>
    <g id="Page-1" stroke="none" stroke-width="1" fill="none" fill-rule="evenodd">
        <g id="icon-gray-remove-double">
            <g id="icon/blue/large-new">
                <circle id="Oval-10" fill="#EDF3FD" cx="20" cy="20" r="20"></circle>
                <path d="M20,18.5857864 L14.3431458,12.9289322 C13.9526215,12.5384079 13.3194565,12.5384079 12.9289322,12.9289322 C12.5384079,13.3194565 12.5384079,13.9526215 12.9289322,14.3431458 L18.5857864,20 L12.9289322,25.6568542 C12.5384079,26.0473785 12.5384079,26.6805435 12.9289322,27.0710678 C13.3194565,27.4615921 13.9526215,27.4615921 14.3431458,27.0710678 L20,21.4142136 L25.6568542,27.0710678 C26.0473785,27.4615921 26.6805435,27.4615921 27.0710678,27.0710678 C27.4615921,26.6805435 27.4615921,26.0473785 27.0710678,25.6568542 L21.4142136,20 L27.0710678,14.3431458 C27.4615921,13.9526215 27.4615921,13.3194565 27.0710678,12.9289322 C26.6805435,12.5384079 26.0473785,12.5384079 25.6568542,12.9289322 L20,18.5857864 L20,18.5857864 Z" id="Combined-Shape" fill="#083A45"></path>
            </g>
        </g>
    </g>
</svg>