<svg height="20" viewBox="0 0 20 20" width="20" xmlns="http://www.w3.org/2000/svg" xmlns:xlink="http://www.w3.org/1999/xlink"><linearGradient id="a"><stop offset="0" stop-color="#53d9eb"/><stop offset="1" stop-color="#53d9eb" stop-opacity="0"/></linearGradient><linearGradient id="b" x1="100%" x2="0%" xlink:href="#a" y1="0%" y2="100%"/><linearGradient id="c" x1="100%" x2="50%" y1="0%" y2="98.148483%"><stop offset="0" stop-color="#06ecfe"/><stop offset="1" stop-color="#06ecfe" stop-opacity="0"/></linearGradient><linearGradient id="d" x1="0%" x2="100%" xlink:href="#a" y1="0%" y2="100%"/><linearGradient id="e" x1="50%" x2="50%" y1="0%" y2="72.807018%"><stop offset="0" stop-color="#1ec4e9"/><stop offset="1" stop-color="#53d9eb" stop-opacity="0"/></linearGradient><g fill="none" fill-rule="evenodd"><g transform="translate(0 2)"><path d="m1.99083769 8.60612496c-.31235819-.54728833-.49083769-1.18086359-.49083769-1.85612496 0-2.07106781 1.67893219-3.75 3.75-3.75.11024244 0 .2193738.0047571.32720001.01407722.6931943-1.76474699 2.41209879-3.01407722 4.42279999-3.01407722 2.6233526 0 4.75 2.12664744 4.75 4.75 0 .09397696-.0027291.18731649-.0081125.27994368 1.9770817.24244079 3.5081125 1.92745286 3.5081125 3.97005632 0 .03811056-.000533.07609663-.0015919.11395118 1.0150988.31807403 1.7515919 1.26605282 1.7515919 2.38604882 0 1.296337-.9866693 2.3622251-2.25 2.4876562v.0123438h-15c-1.51878306 0-2.75-1.2312169-2.75-2.75 0-1.25544409.84127473-2.31439794 1.99083769-2.64387504z" fill="#49bfff" fill-rule="nonzero"/><circle cx="14.25" cy="9" fill="url(#b)" r="4"/><circle cx="10" cy="4.75" fill="url(#c)" r="4.75"/><circle cx="17.5" cy="11.5" fill="url(#c)" opacity=".4" r="2.5"/><circle cx="2.75" cy="11.25" fill="url(#d)" opacity=".4" r="2.75"/></g><g fill-rule="nonzero" transform="translate(7 10)"><rect fill="#365aa6" height="4" rx=".5" width="6"/><path d="m2 1h2v1h-2z" fill="#b9d5ec"/><path d="m1.25 2h3.5c.13807119 0 .25.11192881.25.25v3.25c0 .82842712-.67157288 1.5-1.5 1.5h-1c-.82842712 0-1.5-.67157288-1.5-1.5v-3.25c0-.13807119.11192881-.25.25-.25z" fill="#6cead2"/><path d="m3.14285714 6.84210526c0 1.74405711 1.41383763 3.15789474 3.15789474 3.15789474h4.69924812" stroke="url(#e)" stroke-linecap="round"/></g></g></svg>