<?xml version="1.0" encoding="UTF-8"?>
<svg width="20px" height="20px" viewBox="0 0 20 20" version="1.1" xmlns="http://www.w3.org/2000/svg" xmlns:xlink="http://www.w3.org/1999/xlink">
    <!-- Generator: Sketch 46.2 (44496) - http://www.bohemiancoding.com/sketch -->
    <title>icon-reorder</title>
    <desc>Created with Sketch.</desc>
    <defs></defs>
    <g id="Page-1" stroke="none" stroke-width="1" fill="none" fill-rule="evenodd">
        <g id="icon-reorder" transform="translate(2.000000, 0.000000)" fill="#C3D1DD">
            <path d="M5,3 L7.29289322,0.707106781 C7.68341751,0.316582489 8.31658249,0.316582489 8.70710678,0.707106781 L11,3 L5,3 Z" id="Path-5-Copy" opacity="0.400000006"></path>
            <path d="M5,17 L7.29289322,19.2928932 C7.68341751,19.6834175 8.31658249,19.6834175 8.70710678,19.2928932 L11,17 L5,17 Z" id="Path-5-Copy-2" opacity="0.400000006"></path>
            <path d="M1,14 L15,14 C15.5522847,14 16,13.5522847 16,13 C16,12.4477153 15.5522847,12 15,12 L1,12 C0.44771525,12 0,12.4477153 0,13 C0,13.5522847 0.44771525,14 1,14 Z" id="Path-5-Copy-4" fill-rule="nonzero"></path>
            <path d="M1,11 L15,11 C15.5522847,11 16,10.5522847 16,10 C16,9.44771525 15.5522847,9 15,9 L1,9 C0.44771525,9 0,9.44771525 0,10 C0,10.5522847 0.44771525,11 1,11 Z" id="Path-5-Copy-3" fill-rule="nonzero"></path>
            <path d="M1,8 L15,8 C15.5522847,8 16,7.55228475 16,7 C16,6.44771525 15.5522847,6 15,6 L1,6 C0.44771525,6 0,6.44771525 0,7 C0,7.55228475 0.44771525,8 1,8 Z" id="Path-5-Copy-5" fill-rule="nonzero"></path>
        </g>
    </g>
</svg>