<?xml version="1.0" encoding="UTF-8"?>
<svg width="80px" height="40px" viewBox="0 0 80 40" version="1.1" xmlns="http://www.w3.org/2000/svg" xmlns:xlink="http://www.w3.org/1999/xlink">
    <!-- Generator: Sketch 46.2 (44496) - http://www.bohemiancoding.com/sketch -->
    <title>icon-nav-switch-to-market</title>
    <desc>Created with Sketch.</desc>
    <defs>
        <linearGradient x1="50%" y1="100%" x2="50%" y2="32.9833984%" id="linearGradient-1">
            <stop stop-color="#B393E5" offset="0%"></stop>
            <stop stop-color="#7A68E8" offset="100%"></stop>
        </linearGradient>
    </defs>
    <g id="Symbols" stroke="none" stroke-width="1" fill="none" fill-rule="evenodd">
        <g id="nav/half/dashboard/regular" transform="translate(-120.000000, -10.000000)">
            <g id="icon-nav-switch-to-market">
                <g transform="translate(120.000000, 10.000000)">
                    <rect id="button" stroke="#EDF3FD" x="0.5" y="0.5" width="79" height="39" rx="4"></rect>
                    <g id="icon-market" opacity="0.400000006" transform="translate(42.000000, 8.000000)">
                        <path d="M0,0 L22,0 L22,0 C24.209139,-4.05812251e-16 26,1.790861 26,4 L26,24 L0,24 L0,0 Z" id="Rectangle-6" fill="url(#linearGradient-1)"></path>
                        <rect id="Rectangle-7" fill="#FFFFFF" x="14" y="14" width="8" height="6" rx="1"></rect>
                        <path d="M7,14 L7,14 L7,14 C8.65685425,14 10,15.3431458 10,17 L10,24 L4,24 L4,17 L4,17 C4,15.3431458 5.34314575,14 7,14 Z" id="Rectangle-8" fill="#FFFFFF"></path>
                        <path d="M0,4.8570461e-15 L24.763932,3.99680289e-15 L24.763932,5.32907052e-15 C25.5214761,3.84424325e-15 26.2140024,0.428004752 26.5527864,1.10557281 L30,8 L5.23606798,8 L5.23606798,8 C4.47852386,8 3.78599762,7.57199525 3.4472136,6.89442719 L0,4.8570461e-15 Z" id="Rectangle-6-Copy" fill="#1EC4E9"></path>
                    </g>
                    <path d="M12,20 L12,17 L12,17 C12,15.8954305 12.8954305,15 14,15 L25,15" id="Path-2" stroke="#83A7F3" stroke-width="2" stroke-linecap="round" stroke-linejoin="round"></path>
                    <polyline id="Path-3" stroke="#83A7F3" stroke-width="2" stroke-linecap="round" stroke-linejoin="round" points="22 11 26 15 22 19"></polyline>
                    <path d="M15,20 L15,23 L15,23 C15,24.1045695 15.8954305,25 17,25 L28,25" id="Path-2-Copy" stroke="#A295EE" stroke-width="2" stroke-linecap="round" stroke-linejoin="round" transform="translate(21.500000, 22.500000) scale(-1, 1) translate(-21.500000, -22.500000) "></path>
                    <polyline id="Path-3-Copy" stroke="#A295EE" stroke-width="2" stroke-linecap="round" stroke-linejoin="round" transform="translate(16.000000, 25.000000) scale(-1, 1) translate(-16.000000, -25.000000) " points="14 21 18 25 14 29"></polyline>
                </g>
            </g>
        </g>
    </g>
</svg>