<?xml version="1.0" encoding="UTF-8"?>
<svg width="40px" height="40px" viewBox="0 0 40 40" version="1.1" xmlns="http://www.w3.org/2000/svg" xmlns:xlink="http://www.w3.org/1999/xlink">
    <!-- Generator: Sketch 49.3 (51167) - http://www.bohemiancoding.com/sketch -->
    <title>icon/primary/large/config</title>
    <desc>Created with Sketch.</desc>
    <defs>
        <rect id="path-1" x="0" y="0" width="40" height="40" rx="20"></rect>
    </defs>
    <g id="icon/primary/large/config" stroke="none" stroke-width="1" fill="none" fill-rule="evenodd">
        <g id="icon/gray/edit">
            <g id="mask">
                <mask id="mask-2" fill="white">
                    <use xlink:href="#path-1"></use>
                </mask>
                <use id="Mask" fill="#53D9EB" xlink:href="#path-1"></use>
            </g>
            <g id="Group" transform="translate(9.000000, 9.000000)">
                <rect id="Rectangle-2" fill="#98B4CD" x="10" y="11" width="2" height="6"></rect>
                <path d="M17.9599644,14.947294 L19.7209836,17.8353656 L17.8353656,19.7209836 L14.947294,17.9599644 C14.3810777,18.2817818 13.7717442,18.5364984 13.1301095,18.7132983 L12.3333333,22 L9.66666667,22 L8.86989049,18.7132983 C8.22825583,18.5364984 7.61892233,18.2817818 7.05270602,17.9599644 L4.16463445,19.7209836 L2.27901637,17.8353656 L4.04003561,14.947294 C3.71821819,14.3810777 3.46350156,13.7717442 3.28670174,13.1301095 L0,12.3333333 L0,9.66666667 L3.28670174,8.86989049 C3.46350156,8.22825583 3.71821819,7.61892233 4.04003561,7.05270602 L2.27901637,4.16463445 L4.16463445,2.27901637 L7.05270602,4.04003561 C7.61892233,3.71821819 8.22825583,3.46350156 8.86989049,3.28670174 L9.66666667,0 L12.3333333,0 L13.1301095,3.28670174 C13.7717442,3.46350156 14.3810777,3.71821819 14.947294,4.04003561 L17.8353656,2.27901637 L19.7209836,4.16463445 L17.9599644,7.05270602 C18.2817818,7.61892233 18.5364984,8.22825583 18.7132983,8.86989049 L22,9.66666667 L22,12.3333333 L18.7132983,13.1301095 C18.5364984,13.7717442 18.2817818,14.3810777 17.9599644,14.947294 Z M11,16 C13.7614237,16 16,13.7614237 16,11 C16,8.23857625 13.7614237,6 11,6 C8.23857625,6 6,8.23857625 6,11 C6,13.7614237 8.23857625,16 11,16 Z" id="Combined-Shape" fill="#083A45"></path>
                <circle id="Oval-Copy-2" fill="#083A45" cx="11" cy="11" r="2"></circle>
            </g>
        </g>
    </g>
</svg>