<?xml version="1.0" encoding="UTF-8"?>
<svg width="20px" height="20px" viewBox="0 0 20 20" version="1.1" xmlns="http://www.w3.org/2000/svg" xmlns:xlink="http://www.w3.org/1999/xlink">
    <!-- Generator: Sketch 47 (45396) - http://www.bohemiancoding.com/sketch -->
    <title>icon-gray-edit</title>
    <desc>Created with Sketch.</desc>
    <defs>
        <rect id="path-1" x="0" y="0" width="20" height="20" rx="10"></rect>
    </defs>
    <g id="Page-1" stroke="none" stroke-width="1" fill="none" fill-rule="evenodd">
        <g id="icon-gray-edit">
            <g id="icon/gray/small/edit">
                <g id="base">
                    <mask id="mask-2" fill="white">
                        <use xlink:href="#path-1"></use>
                    </mask>
                    <use id="Mask" fill="#EDF3FD" xlink:href="#path-1"></use>
                    <rect id="Rectangle-10" fill="#98B4CD" mask="url(#mask-2)" x="-1" y="15" width="8" height="1" rx="0.5"></rect>
                </g>
                <path d="M9.5,5 L10.5,5 L10.5,5 C10.7761424,5 11,5.22385763 11,5.5 L11,13.763932 L11,13.763932 C11,13.9191771 10.9638549,14.0722902 10.8944272,14.2111456 L10,16 L9.10557281,14.2111456 L9.10557281,14.2111456 C9.03614509,14.0722902 9,13.9191771 9,13.763932 L9,5.5 L9,5.5 C9,5.22385763 9.22385763,5 9.5,5 L9.5,5 Z M9,6.5 L9,7 L11,7 L11,6.5 L9,6.5 Z" id="pen" fill="#083A45" transform="translate(10.000000, 10.500000) rotate(30.000000) translate(-10.000000, -10.500000) "></path>
            </g>
        </g>
    </g>
</svg>