<?xml version="1.0" encoding="UTF-8"?>
<svg width="40px" height="40px" viewBox="0 0 40 40" version="1.1" xmlns="http://www.w3.org/2000/svg" xmlns:xlink="http://www.w3.org/1999/xlink">
    <!-- Generator: Sketch 51.1 (57501) - http://www.bohemiancoding.com/sketch -->
    <title>icon-search-more</title>
    <desc>Created with Sketch.</desc>
    <defs></defs>
    <g id="Page-1" stroke="none" stroke-width="1" fill="none" fill-rule="evenodd" opacity="0.400000006">
        <g id="icon/secondary/large/more-actions/glyph" fill="#083A45">
            <g id="icon/gray/more-actions/large">
                <path d="M14,22 C12.8954305,22 12,21.1045695 12,20 C12,18.8954305 12.8954305,18 14,18 C15.1045695,18 16,18.8954305 16,20 C16,21.1045695 15.1045695,22 14,22 Z M20,22 C18.8954305,22 18,21.1045695 18,20 C18,18.8954305 18.8954305,18 20,18 C21.1045695,18 22,18.8954305 22,20 C22,21.1045695 21.1045695,22 20,22 Z M26,22 C24.8954305,22 24,21.1045695 24,20 C24,18.8954305 24.8954305,18 26,18 C27.1045695,18 28,18.8954305 28,20 C28,21.1045695 27.1045695,22 26,22 Z" id="Combined-Shape"></path>
            </g>
        </g>
    </g>
</svg>