<?xml version="1.0" encoding="UTF-8"?>
<svg width="120px" height="40px" viewBox="0 0 120 40" version="1.1" xmlns="http://www.w3.org/2000/svg" xmlns:xlink="http://www.w3.org/1999/xlink">
    <!-- Generator: Sketch 46.2 (44496) - http://www.bohemiancoding.com/sketch -->
    <title>icon-nav-switch-to-market-text</title>
    <desc>Created with Sketch.</desc>
    <defs></defs>
    <g id="Symbols" stroke="none" stroke-width="1" fill="none" fill-rule="evenodd">
        <g id="nav/full/dashboard" transform="translate(-509.000000, -10.000000)">
            <g id="icon-nav-switch-to-market-text">
                <g transform="translate(509.000000, 10.000000)">
                    <rect id="Rectangle-11" stroke="#EDF3FD" x="0.5" y="0.5" width="119" height="39" rx="4"></rect>
                    <path d="M12,20 L12,17 L12,17 C12,15.8954305 12.8954305,15 14,15 L25,15" id="Path-2" stroke="#83A7F3" stroke-width="2" stroke-linecap="round" stroke-linejoin="round"></path>
                    <polyline id="Path-3" stroke="#83A7F3" stroke-width="2" stroke-linecap="round" stroke-linejoin="round" points="22 11 26 15 22 19"></polyline>
                    <path d="M15,20 L15,23 L15,23 C15,24.1045695 15.8954305,25 17,25 L28,25" id="Path-2-Copy" stroke="#A295EE" stroke-width="2" stroke-linecap="round" stroke-linejoin="round" transform="translate(21.500000, 22.500000) scale(-1, 1) translate(-21.500000, -22.500000) "></path>
                    <polyline id="Path-3-Copy" stroke="#A295EE" stroke-width="2" stroke-linecap="round" stroke-linejoin="round" transform="translate(16.000000, 25.000000) scale(-1, 1) translate(-16.000000, -25.000000) " points="14 21 18 25 14 29"></polyline>
                    <path d="M54.94,13.15 C55.1666678,13.3833345 55.28,13.6933314 55.28,14.08 L55.28,25.92 C55.28,26.2933352 55.1733344,26.5866656 54.96,26.8 C54.7466656,27.0133344 54.4666684,27.12 54.12,27.12 C53.7733316,27.12 53.500001,27.0133344 53.3,26.8 C53.099999,26.5866656 53,26.2933352 53,25.92 L53,17.68 L49.6,24.12 C49.4399992,24.4133348 49.2666676,24.6299993 49.08,24.77 C48.8933324,24.9100007 48.6733346,24.98 48.42,24.98 C48.1666654,24.98 47.9466676,24.913334 47.76,24.78 C47.5733324,24.646666 47.4000008,24.4266682 47.24,24.12 L43.82,17.78 L43.82,25.92 C43.82,26.2800018 43.7166677,26.5699989 43.51,26.79 C43.3033323,27.0100011 43.0266684,27.12 42.68,27.12 C42.3333316,27.12 42.060001,27.0133344 41.86,26.8 C41.659999,26.5866656 41.56,26.2933352 41.56,25.92 L41.56,14.08 C41.56,13.6933314 41.6699989,13.3833345 41.89,13.15 C42.1100011,12.9166655 42.4066648,12.8 42.78,12.8 C43.3000026,12.8 43.7066652,13.0866638 44,13.66 L48.44,22.12 L52.86,13.66 C53.1533348,13.0866638 53.5466642,12.8 54.04,12.8 C54.4133352,12.8 54.7133322,12.9166655 54.94,13.15 Z M65.39,17.99 C66.0500033,18.6633367 66.38,19.6866598 66.38,21.06 L66.38,25.94 C66.38,26.3000018 66.2733344,26.5833323 66.06,26.79 C65.8466656,26.9966677 65.5533352,27.1 65.18,27.1 C64.8333316,27.1 64.5500011,26.9933344 64.33,26.78 C64.1099989,26.5666656 64,26.2866684 64,25.94 L64,25.5 C63.7733322,26.0200026 63.4166691,26.4266652 62.93,26.72 C62.4433309,27.0133348 61.8800032,27.16 61.24,27.16 C60.5866634,27.16 59.993336,27.026668 59.46,26.76 C58.926664,26.493332 58.5066682,26.126669 58.2,25.66 C57.8933318,25.193331 57.74,24.6733362 57.74,24.1 C57.74,23.3799964 57.9233315,22.8133354 58.29,22.4 C58.6566685,21.9866646 59.2533292,21.6866676 60.08,21.5 C60.9066708,21.3133324 62.0466594,21.22 63.5,21.22 L64,21.22 L64,20.76 C64,20.1066634 63.8600014,19.6300015 63.58,19.33 C63.2999986,19.0299985 62.8466698,18.88 62.22,18.88 C61.8333314,18.88 61.440002,18.9366661 61.04,19.05 C60.639998,19.1633339 60.1666694,19.3266656 59.62,19.54 C59.2733316,19.7133342 59.0200008,19.8 58.86,19.8 C58.6199988,19.8 58.4233341,19.7133342 58.27,19.54 C58.1166659,19.3666658 58.04,19.1400014 58.04,18.86 C58.04,18.6333322 58.0966661,18.4366675 58.21,18.27 C58.3233339,18.1033325 58.513332,17.9466674 58.78,17.8 C59.246669,17.5466654 59.8033301,17.3466674 60.45,17.2 C61.0966699,17.0533326 61.7333302,16.98 62.36,16.98 C63.7200068,16.98 64.7299967,17.3166633 65.39,17.99 Z M63.37,24.69 C63.7900021,24.2433311 64,23.6666702 64,22.96 L64,22.54 L63.64,22.54 C62.7466622,22.54 62.0533358,22.5799996 61.56,22.66 C61.0666642,22.7400004 60.7133344,22.879999 60.5,23.08 C60.2866656,23.280001 60.18,23.5533316 60.18,23.9 C60.18,24.3266688 60.3299985,24.6766653 60.63,24.95 C60.9300015,25.2233347 61.2999978,25.36 61.74,25.36 C62.40667,25.36 62.9499979,25.1366689 63.37,24.69 Z M75.2,17.24 C75.400001,17.4133342 75.5,17.6733316 75.5,18.02 C75.5,18.3800018 75.4133342,18.6466658 75.24,18.82 C75.0666658,18.9933342 74.7533356,19.1066664 74.3,19.16 L73.7,19.22 C72.9133294,19.3000004 72.3366685,19.5666644 71.97,20.02 C71.6033315,20.4733356 71.42,21.0399966 71.42,21.72 L71.42,25.92 C71.42,26.3066686 71.3000012,26.6033323 71.06,26.81 C70.8199988,27.0166677 70.5200018,27.12 70.16,27.12 C69.7999982,27.12 69.5033345,27.0166677 69.27,26.81 C69.0366655,26.6033323 68.92,26.3066686 68.92,25.92 L68.92,18.18 C68.92,17.8066648 69.0366655,17.520001 69.27,17.32 C69.5033345,17.119999 69.7933316,17.02 70.14,17.02 C70.4866684,17.02 70.7666656,17.1166657 70.98,17.31 C71.1933344,17.5033343 71.3,17.7799982 71.3,18.14 L71.3,18.94 C71.5533346,18.3533304 71.9299975,17.9000016 72.43,17.58 C72.9300025,17.2599984 73.4866636,17.0800002 74.1,17.04 L74.38,17.02 C74.7266684,16.9933332 74.999999,17.0666658 75.2,17.24 Z M85.68,25.92 C85.68,26.2266682 85.5700011,26.4999988 85.35,26.74 C85.1299989,26.9800012 84.8733348,27.1 84.58,27.1 C84.2866652,27.1 84.0133346,26.9800012 83.76,26.74 L79.08,22.5 L79.08,25.92 C79.08,26.3066686 78.9600012,26.599999 78.72,26.8 C78.4799988,27.000001 78.1800018,27.1 77.82,27.1 C77.4599982,27.1 77.1633345,27.000001 76.93,26.8 C76.6966655,26.599999 76.58,26.3066686 76.58,25.92 L76.58,13.98 C76.58,13.5933314 76.6966655,13.300001 76.93,13.1 C77.1633345,12.899999 77.4599982,12.8 77.82,12.8 C78.1800018,12.8 78.4799988,12.899999 78.72,13.1 C78.9600012,13.300001 79.08,13.5933314 79.08,13.98 L79.08,21.5 L83.36,17.4 C83.6000012,17.1599988 83.8733318,17.04 84.18,17.04 C84.4866682,17.04 84.7533322,17.1533322 84.98,17.38 C85.2066678,17.6066678 85.32,17.8733318 85.32,18.18 C85.32,18.4866682 85.1933346,18.7666654 84.94,19.02 L81.8,21.94 L85.28,25.06 C85.546668,25.3133346 85.68,25.5999984 85.68,25.92 Z M95.59,24.58 C95.7300007,24.7533342 95.8,24.9866652 95.8,25.28 C95.8,25.6933354 95.5533358,26.0399986 95.06,26.32 C94.6066644,26.5733346 94.0933362,26.7766659 93.52,26.93 C92.9466638,27.0833341 92.4000026,27.16 91.88,27.16 C90.3066588,27.16 89.0600046,26.7066712 88.14,25.8 C87.2199954,24.8933288 86.76,23.6533412 86.76,22.08 C86.76,21.079995 86.959998,20.1933372 87.36,19.42 C87.760002,18.6466628 88.3233297,18.0466688 89.05,17.62 C89.7766703,17.1933312 90.5999954,16.98 91.52,16.98 C92.4000044,16.98 93.1666634,17.1733314 93.82,17.56 C94.4733366,17.9466686 94.9799982,18.4933298 95.34,19.2 C95.7000018,19.9066702 95.88,20.7399952 95.88,21.7 C95.88,22.2733362 95.6266692,22.56 95.12,22.56 L89.22,22.56 C89.3000004,23.4800046 89.5599978,24.1566645 90,24.59 C90.4400022,25.0233355 91.0799958,25.24 91.92,25.24 C92.3466688,25.24 92.7233317,25.1866672 93.05,25.08 C93.3766683,24.9733328 93.7466646,24.8266676 94.16,24.64 C94.560002,24.4266656 94.8533324,24.32 95.04,24.32 C95.2666678,24.32 95.4499993,24.4066658 95.59,24.58 Z M89.95,19.38 C89.5433313,19.8066688 89.3000004,20.419996 89.22,21.22 L93.74,21.22 C93.7133332,20.4066626 93.5133352,19.7900021 93.14,19.37 C92.7666648,18.9499979 92.24667,18.74 91.58,18.74 C90.8999966,18.74 90.3566687,18.9533312 89.95,19.38 Z M104,26.16 C104,26.4800016 103.870001,26.7233325 103.61,26.89 C103.349999,27.0566675 102.980002,27.1266668 102.5,27.1 L101.96,27.06 C99.7199888,26.8999992 98.6,25.7000112 98.6,23.46 L98.6,19.1 L97.6,19.1 C97.2399982,19.1 96.9633343,19.0200008 96.77,18.86 C96.5766657,18.6999992 96.48,18.4666682 96.48,18.16 C96.48,17.8533318 96.5766657,17.6200008 96.77,17.46 C96.9633343,17.2999992 97.2399982,17.22 97.6,17.22 L98.6,17.22 L98.6,15.38 C98.6,15.0199982 98.7133322,14.7333344 98.94,14.52 C99.1666678,14.3066656 99.4733314,14.2 99.86,14.2 C100.233335,14.2 100.533332,14.3066656 100.76,14.52 C100.986668,14.7333344 101.1,15.0199982 101.1,15.38 L101.1,17.22 L102.8,17.22 C103.160002,17.22 103.436666,17.2999992 103.63,17.46 C103.823334,17.6200008 103.92,17.8533318 103.92,18.16 C103.92,18.4666682 103.823334,18.6999992 103.63,18.86 C103.436666,19.0200008 103.160002,19.1 102.8,19.1 L101.1,19.1 L101.1,23.64 C101.1,24.6266716 101.553329,25.153333 102.46,25.22 L103,25.26 C103.66667,25.3000002 104,25.5999972 104,26.16 Z" id="Market" fill="#245B70"></path>
                </g>
            </g>
        </g>
    </g>
</svg>