<?xml version="1.0" encoding="UTF-8"?>
<svg width="20px" height="20px" viewBox="0 0 20 20" version="1.1" xmlns="http://www.w3.org/2000/svg" xmlns:xlink="http://www.w3.org/1999/xlink">
    <!-- Generator: Sketch 46.2 (44496) - http://www.bohemiancoding.com/sketch -->
    <title>icon-breadcrumb</title>
    <desc>Created with Sketch.</desc>
    <defs></defs>
    <g id="Dashboard---KintoBlocks" stroke="none" stroke-width="1" fill="none" fill-rule="evenodd">
        <g id="8---dashboard---kintoblocks---edit-or-create-new-version" transform="translate(-618.000000, -90.000000)" fill="#C3D1DD">
            <g id="content" transform="translate(320.000000, 0.000000)">
                <g id="breadcrumbs" transform="translate(0.000000, 80.000000)">
                    <g id="icon-breadcrumb" transform="translate(298.000000, 10.000000)">
                        <path d="M4,12 C2.8954305,12 2,11.1045695 2,10 C2,8.8954305 2.8954305,8 4,8 C5.1045695,8 6,8.8954305 6,10 C6,11.1045695 5.1045695,12 4,12 Z M10,12 C8.8954305,12 8,11.1045695 8,10 C8,8.8954305 8.8954305,8 10,8 C11.1045695,8 12,8.8954305 12,10 C12,11.1045695 11.1045695,12 10,12 Z M16,12 C14.8954305,12 14,11.1045695 14,10 C14,8.8954305 14.8954305,8 16,8 C17.1045695,8 18,8.8954305 18,10 C18,11.1045695 17.1045695,12 16,12 Z" id="Combined-Shape"></path>
                    </g>
                </g>
            </g>
        </g>
    </g>
</svg>