<?xml version="1.0" encoding="UTF-8"?>
<svg width="160px" height="40px" viewBox="0 0 160 40" version="1.1" xmlns="http://www.w3.org/2000/svg" xmlns:xlink="http://www.w3.org/1999/xlink">
    <!-- Generator: Sketch 46.2 (44496) - http://www.bohemiancoding.com/sketch -->
    <title>icon-nav-switch-to-dashboard-text</title>
    <desc>Created with Sketch.</desc>
    <defs></defs>
    <g id="Symbols" stroke="none" stroke-width="1" fill="none" fill-rule="evenodd">
        <g id="nav/full/market" transform="translate(-469.000000, -10.000000)">
            <g id="icon-nav-switch-to-dashboard-text">
                <g transform="translate(469.000000, 10.000000)">
                    <rect id="Rectangle-11" stroke="#EDF3FD" x="0.5" y="0.5" width="159" height="39" rx="4"></rect>
                    <path d="M12,20 L12,17 L12,17 C12,15.8954305 12.8954305,15 14,15 L25,15" id="Path-2" stroke="#A295EE" stroke-width="2" stroke-linecap="round" stroke-linejoin="round"></path>
                    <polyline id="Path-3" stroke="#A295EE" stroke-width="2" stroke-linecap="round" stroke-linejoin="round" points="22 11 26 15 22 19"></polyline>
                    <path d="M15,20 L15,23 L15,23 C15,24.1045695 15.8954305,25 17,25 L28,25" id="Path-2-Copy" stroke="#83A7F3" stroke-width="2" stroke-linecap="round" stroke-linejoin="round" transform="translate(21.500000, 22.500000) scale(-1, 1) translate(-21.500000, -22.500000) "></path>
                    <polyline id="Path-3-Copy" stroke="#83A7F3" stroke-width="2" stroke-linecap="round" stroke-linejoin="round" transform="translate(16.000000, 25.000000) scale(-1, 1) translate(-16.000000, -25.000000) " points="14 21 18 25 14 29"></polyline>
                    <path d="M43.85,26.68 C43.6299989,26.4666656 43.52,26.1666686 43.52,25.78 L43.52,14.12 C43.52,13.7333314 43.6299989,13.4333344 43.85,13.22 C44.0700011,13.0066656 44.3733314,12.9 44.76,12.9 L48.72,12.9 C51.0266782,12.9 52.8166603,13.5166605 54.09,14.75 C55.3633397,15.9833395 56,17.7133222 56,19.94 C56,22.1800112 55.3633397,23.9166605 54.09,25.15 C52.8166603,26.3833395 51.0266782,27 48.72,27 L44.76,27 C44.3733314,27 44.0700011,26.8933344 43.85,26.68 Z M48.56,24.9 C51.8000162,24.9 53.42,23.2466832 53.42,19.94 C53.42,16.6466502 51.8000162,15 48.56,15 L46.1,15 L46.1,24.9 L48.56,24.9 Z M65.65,17.99 C66.3100033,18.6633367 66.64,19.6866598 66.64,21.06 L66.64,25.94 C66.64,26.3000018 66.5333344,26.5833323 66.32,26.79 C66.1066656,26.9966677 65.8133352,27.1 65.44,27.1 C65.0933316,27.1 64.8100011,26.9933344 64.59,26.78 C64.3699989,26.5666656 64.26,26.2866684 64.26,25.94 L64.26,25.5 C64.0333322,26.0200026 63.6766691,26.4266652 63.19,26.72 C62.7033309,27.0133348 62.1400032,27.16 61.5,27.16 C60.8466634,27.16 60.253336,27.026668 59.72,26.76 C59.186664,26.493332 58.7666682,26.126669 58.46,25.66 C58.1533318,25.193331 58,24.6733362 58,24.1 C58,23.3799964 58.1833315,22.8133354 58.55,22.4 C58.9166685,21.9866646 59.5133292,21.6866676 60.34,21.5 C61.1666708,21.3133324 62.3066594,21.22 63.76,21.22 L64.26,21.22 L64.26,20.76 C64.26,20.1066634 64.1200014,19.6300015 63.84,19.33 C63.5599986,19.0299985 63.1066698,18.88 62.48,18.88 C62.0933314,18.88 61.700002,18.9366661 61.3,19.05 C60.899998,19.1633339 60.4266694,19.3266656 59.88,19.54 C59.5333316,19.7133342 59.2800008,19.8 59.12,19.8 C58.8799988,19.8 58.6833341,19.7133342 58.53,19.54 C58.3766659,19.3666658 58.3,19.1400014 58.3,18.86 C58.3,18.6333322 58.3566661,18.4366675 58.47,18.27 C58.5833339,18.1033325 58.773332,17.9466674 59.04,17.8 C59.506669,17.5466654 60.0633301,17.3466674 60.71,17.2 C61.3566699,17.0533326 61.9933302,16.98 62.62,16.98 C63.9800068,16.98 64.9899967,17.3166633 65.65,17.99 Z M63.63,24.69 C64.0500021,24.2433311 64.26,23.6666702 64.26,22.96 L64.26,22.54 L63.9,22.54 C63.0066622,22.54 62.3133358,22.5799996 61.82,22.66 C61.3266642,22.7400004 60.9733344,22.879999 60.76,23.08 C60.5466656,23.280001 60.44,23.5533316 60.44,23.9 C60.44,24.3266688 60.5899985,24.6766653 60.89,24.95 C61.1900015,25.2233347 61.5599978,25.36 62,25.36 C62.66667,25.36 63.2099979,25.1366689 63.63,24.69 Z M69.2,26.3 C68.7733312,26.0466654 68.56,25.686669 68.56,25.22 C68.56,24.953332 68.6333326,24.7366675 68.78,24.57 C68.9266674,24.4033325 69.1066656,24.32 69.32,24.32 C69.5466678,24.32 69.859998,24.4266656 70.26,24.64 C70.6866688,24.840001 71.0766649,24.9933328 71.43,25.1 C71.7833351,25.2066672 72.2333306,25.26 72.78,25.26 C73.3400028,25.26 73.7766651,25.1666676 74.09,24.98 C74.4033349,24.7933324 74.56,24.533335 74.56,24.2 C74.56,23.9733322 74.4966673,23.793334 74.37,23.66 C74.2433327,23.526666 74.0166683,23.4033339 73.69,23.29 C73.3633317,23.1766661 72.86667,23.0466674 72.2,22.9 C71.0133274,22.6599988 70.1633359,22.3200022 69.65,21.88 C69.1366641,21.4399978 68.88,20.8333372 68.88,20.06 C68.88,19.4733304 69.0533316,18.9433357 69.4,18.47 C69.7466684,17.9966643 70.2233303,17.6300013 70.83,17.37 C71.4366697,17.1099987 72.1266628,16.98 72.9,16.98 C73.4600028,16.98 73.9999974,17.0499993 74.52,17.19 C75.0400026,17.3300007 75.5066646,17.533332 75.92,17.8 C76.3466688,18.066668 76.56,18.4199978 76.56,18.86 C76.56,19.126668 76.4866674,19.3499991 76.34,19.53 C76.1933326,19.7100009 76.0133344,19.8 75.8,19.8 C75.6533326,19.8 75.5100007,19.7700003 75.37,19.71 C75.2299993,19.6499997 75.0533344,19.5600006 74.84,19.44 C74.4533314,19.239999 74.1200014,19.0900005 73.84,18.99 C73.5599986,18.8899995 73.2133354,18.84 72.8,18.84 C72.3066642,18.84 71.9166681,18.939999 71.63,19.14 C71.3433319,19.340001 71.2,19.6133316 71.2,19.96 C71.2,20.293335 71.3466652,20.5466658 71.64,20.72 C71.9333348,20.8933342 72.4999958,21.0666658 73.34,21.24 C74.2333378,21.4266676 74.9333308,21.6399988 75.44,21.88 C75.9466692,22.1200012 76.3099989,22.4199982 76.53,22.78 C76.7500011,23.1400018 76.86,23.5999972 76.86,24.16 C76.86,25.0666712 76.4833371,25.7933306 75.73,26.34 C74.9766629,26.8866694 73.9733396,27.16 72.72,27.16 C71.2666594,27.16 70.0933378,26.8733362 69.2,26.3 Z M88.04,21 L88.04,25.92 C88.04,26.2933352 87.9300011,26.5866656 87.71,26.8 C87.4899989,27.0133344 87.1866686,27.12 86.8,27.12 C86.4133314,27.12 86.1066678,27.0133344 85.88,26.8 C85.6533322,26.5866656 85.54,26.2933352 85.54,25.92 L85.54,21 C85.54,20.2933298 85.3966681,19.7766683 85.11,19.45 C84.8233319,19.1233317 84.3733364,18.96 83.76,18.96 C83.0399964,18.96 82.4633355,19.1866644 82.03,19.64 C81.5966645,20.0933356 81.38,20.6999962 81.38,21.46 L81.38,25.92 C81.38,26.2933352 81.2666678,26.5866656 81.04,26.8 C80.8133322,27.0133344 80.5066686,27.12 80.12,27.12 C79.7333314,27.12 79.4300011,27.0133344 79.21,26.8 C78.9899989,26.5866656 78.88,26.2933352 78.88,25.92 L78.88,13.96 C78.88,13.6133316 78.9966655,13.3333344 79.23,13.12 C79.4633345,12.9066656 79.7666648,12.8 80.14,12.8 C80.5133352,12.8 80.8133322,12.899999 81.04,13.1 C81.2666678,13.300001 81.38,13.5733316 81.38,13.92 L81.38,18.58 C81.713335,18.0599974 82.1566639,17.6633347 82.71,17.39 C83.2633361,17.1166653 83.8933298,16.98 84.6,16.98 C86.8933448,16.98 88.04,18.3199866 88.04,21 Z M98.46,17.6 C99.1133366,18.0133354 99.6233315,18.5999962 99.99,19.36 C100.356669,20.1200038 100.54,21.0066616 100.54,22.02 C100.54,23.0333384 100.356669,23.9299961 99.99,24.71 C99.6233315,25.4900039 99.1100033,26.0933312 98.45,26.52 C97.7899967,26.9466688 97.0400042,27.16 96.2,27.16 C95.4933298,27.16 94.8633361,27.0066682 94.31,26.7 C93.7566639,26.3933318 93.3333348,25.9666694 93.04,25.42 L93.04,25.92 C93.04,26.2800018 92.9266678,26.5666656 92.7,26.78 C92.4733322,26.9933344 92.1733352,27.1 91.8,27.1 C91.4266648,27.1 91.1300011,26.9933344 90.91,26.78 C90.6899989,26.5666656 90.58,26.2800018 90.58,25.92 L90.58,13.96 C90.58,13.6133316 90.6966655,13.3333344 90.93,13.12 C91.1633345,12.9066656 91.4666648,12.8 91.84,12.8 C92.2133352,12.8 92.5133322,12.899999 92.74,13.1 C92.9666678,13.300001 93.08,13.5733316 93.08,13.92 L93.08,18.64 C93.3733348,18.106664 93.7933306,17.6966681 94.34,17.41 C94.8866694,17.1233319 95.5066632,16.98 96.2,16.98 C97.0533376,16.98 97.8066634,17.1866646 98.46,17.6 Z M97.38,24.38 C97.8200022,23.8199972 98.04,23.0333384 98.04,22.02 C98.04,21.019995 97.8233355,20.253336 97.39,19.72 C96.9566645,19.186664 96.340004,18.92 95.54,18.92 C94.739996,18.92 94.1233355,19.1899973 93.69,19.73 C93.2566645,20.2700027 93.04,21.0466616 93.04,22.06 C93.04,23.0733384 93.2566645,23.8533306 93.69,24.4 C94.1233355,24.9466694 94.739996,25.22 95.54,25.22 C96.3266706,25.22 96.9399978,24.9400028 97.38,24.38 Z M104.43,26.54 C103.676663,26.1266646 103.093335,25.5333372 102.68,24.76 C102.266665,23.9866628 102.06,23.0866718 102.06,22.06 C102.06,21.0333282 102.266665,20.1366705 102.68,19.37 C103.093335,18.6033295 103.676663,18.0133354 104.43,17.6 C105.183337,17.1866646 106.059995,16.98 107.06,16.98 C108.060005,16.98 108.936663,17.1866646 109.69,17.6 C110.443337,18.0133354 111.023331,18.6033295 111.43,19.37 C111.836669,20.1366705 112.04,21.0333282 112.04,22.06 C112.04,23.0866718 111.836669,23.9866628 111.43,24.76 C111.023331,25.5333372 110.443337,26.1266646 109.69,26.54 C108.936663,26.9533354 108.060005,27.16 107.06,27.16 C106.059995,27.16 105.183337,26.9533354 104.43,26.54 Z M108.9,24.42 C109.326669,23.886664 109.54,23.1000052 109.54,22.06 C109.54,21.0333282 109.326669,20.2500027 108.9,19.71 C108.473331,19.1699973 107.860004,18.9 107.06,18.9 C106.259996,18.9 105.643336,19.1699973 105.21,19.71 C104.776665,20.2500027 104.56,21.0333282 104.56,22.06 C104.56,23.1000052 104.773331,23.886664 105.2,24.42 C105.626669,24.953336 106.239996,25.22 107.04,25.22 C107.853337,25.22 108.473331,24.953336 108.9,24.42 Z M121.37,17.99 C122.030003,18.6633367 122.36,19.6866598 122.36,21.06 L122.36,25.94 C122.36,26.3000018 122.253334,26.5833323 122.04,26.79 C121.826666,26.9966677 121.533335,27.1 121.16,27.1 C120.813332,27.1 120.530001,26.9933344 120.31,26.78 C120.089999,26.5666656 119.98,26.2866684 119.98,25.94 L119.98,25.5 C119.753332,26.0200026 119.396669,26.4266652 118.91,26.72 C118.423331,27.0133348 117.860003,27.16 117.22,27.16 C116.566663,27.16 115.973336,27.026668 115.44,26.76 C114.906664,26.493332 114.486668,26.126669 114.18,25.66 C113.873332,25.193331 113.72,24.6733362 113.72,24.1 C113.72,23.3799964 113.903332,22.8133354 114.27,22.4 C114.636669,21.9866646 115.233329,21.6866676 116.06,21.5 C116.886671,21.3133324 118.026659,21.22 119.48,21.22 L119.98,21.22 L119.98,20.76 C119.98,20.1066634 119.840001,19.6300015 119.56,19.33 C119.279999,19.0299985 118.82667,18.88 118.2,18.88 C117.813331,18.88 117.420002,18.9366661 117.02,19.05 C116.619998,19.1633339 116.146669,19.3266656 115.6,19.54 C115.253332,19.7133342 115.000001,19.8 114.84,19.8 C114.599999,19.8 114.403334,19.7133342 114.25,19.54 C114.096666,19.3666658 114.02,19.1400014 114.02,18.86 C114.02,18.6333322 114.076666,18.4366675 114.19,18.27 C114.303334,18.1033325 114.493332,17.9466674 114.76,17.8 C115.226669,17.5466654 115.78333,17.3466674 116.43,17.2 C117.07667,17.0533326 117.71333,16.98 118.34,16.98 C119.700007,16.98 120.709997,17.3166633 121.37,17.99 Z M119.35,24.69 C119.770002,24.2433311 119.98,23.6666702 119.98,22.96 L119.98,22.54 L119.62,22.54 C118.726662,22.54 118.033336,22.5799996 117.54,22.66 C117.046664,22.7400004 116.693334,22.879999 116.48,23.08 C116.266666,23.280001 116.16,23.5533316 116.16,23.9 C116.16,24.3266688 116.309999,24.6766653 116.61,24.95 C116.910002,25.2233347 117.279998,25.36 117.72,25.36 C118.38667,25.36 118.929998,25.1366689 119.35,24.69 Z M131.18,17.24 C131.380001,17.4133342 131.48,17.6733316 131.48,18.02 C131.48,18.3800018 131.393334,18.6466658 131.22,18.82 C131.046666,18.9933342 130.733336,19.1066664 130.28,19.16 L129.68,19.22 C128.893329,19.3000004 128.316669,19.5666644 127.95,20.02 C127.583332,20.4733356 127.4,21.0399966 127.4,21.72 L127.4,25.92 C127.4,26.3066686 127.280001,26.6033323 127.04,26.81 C126.799999,27.0166677 126.500002,27.12 126.14,27.12 C125.779998,27.12 125.483335,27.0166677 125.25,26.81 C125.016666,26.6033323 124.9,26.3066686 124.9,25.92 L124.9,18.18 C124.9,17.8066648 125.016666,17.520001 125.25,17.32 C125.483335,17.119999 125.773332,17.02 126.12,17.02 C126.466668,17.02 126.746666,17.1166657 126.96,17.31 C127.173334,17.5033343 127.28,17.7799982 127.28,18.14 L127.28,18.94 C127.533335,18.3533304 127.909998,17.9000016 128.41,17.58 C128.910003,17.2599984 129.466664,17.0800002 130.08,17.04 L130.36,17.02 C130.706668,16.9933332 130.979999,17.0666658 131.18,17.24 Z M141.64,13.12 C141.880001,13.3333344 142,13.6133316 142,13.96 L142,25.92 C142,26.2800018 141.886668,26.5666656 141.66,26.78 C141.433332,26.9933344 141.133335,27.1 140.76,27.1 C140.386665,27.1 140.086668,26.9933344 139.86,26.78 C139.633332,26.5666656 139.52,26.2800018 139.52,25.92 L139.52,25.42 C139.226665,25.9666694 138.803336,26.3933318 138.25,26.7 C137.696664,27.0066682 137.06667,27.16 136.36,27.16 C135.519996,27.16 134.770003,26.9466688 134.11,26.52 C133.449997,26.0933312 132.936669,25.4900039 132.57,24.71 C132.203332,23.9299961 132.02,23.0333384 132.02,22.02 C132.02,21.0066616 132.203332,20.1200038 132.57,19.36 C132.936669,18.5999962 133.446663,18.0133354 134.1,17.6 C134.753337,17.1866646 135.506662,16.98 136.36,16.98 C137.06667,16.98 137.693331,17.1266652 138.24,17.42 C138.786669,17.7133348 139.206665,18.126664 139.5,18.66 L139.5,13.92 C139.5,13.586665 139.609999,13.3166677 139.83,13.11 C140.050001,12.9033323 140.346665,12.8 140.72,12.8 C141.093335,12.8 141.399999,12.9066656 141.64,13.12 Z M138.87,24.4 C139.303336,23.8533306 139.52,23.0733384 139.52,22.06 C139.52,21.0466616 139.303336,20.2700027 138.87,19.73 C138.436665,19.1899973 137.826671,18.92 137.04,18.92 C136.239996,18.92 135.620002,19.186664 135.18,19.72 C134.739998,20.253336 134.52,21.019995 134.52,22.02 C134.52,23.0333384 134.739998,23.8199972 135.18,24.38 C135.620002,24.9400028 136.233329,25.22 137.02,25.22 C137.820004,25.22 138.436665,24.9466694 138.87,24.4 Z" id="Dashboard" fill="#245B70"></path>
                </g>
            </g>
        </g>
    </g>
</svg>