<svg height="40" viewBox="0 0 40 40" width="40" xmlns="http://www.w3.org/2000/svg" xmlns:xlink="http://www.w3.org/1999/xlink"><linearGradient id="a"><stop offset="0" stop-color="#b9d5ec"/><stop offset="1" stop-color="#b9d5ec" stop-opacity="0"/></linearGradient><linearGradient id="b" x1="100%" x2="51.081557%" xlink:href="#a" y1="0%" y2="96.025419%"/><linearGradient id="c" x1="100%" x2="51.081557%" y1="0%" y2="96.025419%"><stop offset="0" stop-color="#c5e5ff"/><stop offset="1" stop-color="#c8e6ff" stop-opacity="0"/></linearGradient><linearGradient id="d" x1="0%" x2="81.494573%" xlink:href="#a" y1="0%" y2="79.869975%"/><g fill="none" fill-rule="evenodd" transform="translate(0 4)"><path d="m3.98167538 17.2122499c-.62471639-1.0945766-.98167538-2.3617272-.98167538-3.7122499 0-4.14213562 3.35786438-7.5 7.5-7.5.2204849 0 .4387476.0095142.6544.02815444 1.3863886-3.52949398 4.8241976-6.02815444 8.8456-6.02815444 5.2467051 0 9.5 4.25329488 9.5 9.5 0 .18795392-.0054583.37463299-.0162249.5598874 3.9541633.4848815 7.0162249 3.8549057 7.0162249 7.9401126 0 .0762211-.0010659.1521933-.0031838.2279024 2.0301975.636148 3.5031838 2.5321056 3.5031838 4.7720976 0 2.5926741-1.9733387 4.7244502-4.5 4.9753124v.0246876h-30c-3.03756612 0-5.5-2.4624339-5.5-5.5 0-2.5108882 1.68254946-4.6287959 3.98167538-5.2877501z" fill="#98b4cd" fill-rule="nonzero"/><path d="m17.5 19 10-1.5-.9825571 1.2281963c-.6611979.8264975-1.567619 1.4218517-2.588757 1.7003439l-3.9286859 1.0714598-1 2 4.5-.5-1.1401165 1.4251456c-.5627872.703484-1.3051887 1.2418438-2.1487268 1.5581706l-2.7111567 1.0166838-.9311238 1.8622475c-.7004449 1.4008899-1.7543504 2.5947353-3.0575429 3.4635303l-1.0113333.6742222z" fill="#ffdb18" fill-rule="nonzero"/><circle cx="28.5" cy="18" fill="url(#b)" opacity=".6" r="8"/><circle cx="20" cy="9.5" fill="url(#c)" r="9.5"/><circle cx="35" cy="23" fill="url(#b)" opacity=".4" r="5"/><circle cx="5.5" cy="22.5" fill="url(#d)" opacity=".4" r="5.5"/></g></svg>