<?xml version="1.0" encoding="UTF-8"?>
<svg width="20px" height="20px" viewBox="0 0 20 20" version="1.1" xmlns="http://www.w3.org/2000/svg" xmlns:xlink="http://www.w3.org/1999/xlink">
    <!-- Generator: Sketch 46.2 (44496) - http://www.bohemiancoding.com/sketch -->
    <title>icon-dashboard-kintoblocks</title>
    <desc>Created with Sketch.</desc>
    <defs>
        <linearGradient x1="50%" y1="100%" x2="50%" y2="3.061617e-15%" id="linearGradient-1">
            <stop stop-color="#B9D5EC" offset="0%"></stop>
            <stop stop-color="#98B4CD" offset="100%"></stop>
        </linearGradient>
    </defs>
    <g id="Symbols" stroke="none" stroke-width="1" fill="none" fill-rule="evenodd">
        <g id="desktop/sidebar/home" transform="translate(-50.000000, -410.000000)">
            <g id="desktop/sidebar/analytics">
                <g id="icon-dashboard-kintoblocks" transform="translate(50.000000, 410.000000)">
                    <path d="M11,0.577350269 L17.660254,4.42264973 L17.660254,4.42264973 C18.2790562,4.77991532 18.660254,5.44016936 18.660254,6.15470054 L18.660254,13.8452995 L18.660254,13.8452995 C18.660254,14.5598306 18.2790562,15.2200847 17.660254,15.5773503 L11,19.4226497 L11,19.4226497 C10.3811978,19.7799153 9.61880215,19.7799153 9,19.4226497 L2.33974596,15.5773503 L2.33974596,15.5773503 C1.72094381,15.2200847 1.33974596,14.5598306 1.33974596,13.8452995 L1.33974596,6.15470054 L1.33974596,6.15470054 C1.33974596,5.44016936 1.72094381,4.77991532 2.33974596,4.42264973 L9,0.577350269 L9,0.577350269 C9.61880215,0.220084679 10.3811978,0.220084679 11,0.577350269 Z" id="Mask" fill="url(#linearGradient-1)"></path>
                    <path d="M18.4174317,5.19954097 C18.5741774,5.48788014 18.660254,5.81516229 18.660254,6.15470054 L18.660254,13.8452995 C18.660254,14.5598306 18.2790562,15.2200847 17.660254,15.5773503 L11,19.4226497 C10.6905989,19.6012825 10.3452995,19.6905989 10,19.6905989 L10,10.8161904 C10,10.4649275 10.1842988,10.1394207 10.4855042,9.95869745 L18.4174317,5.19954097 L18.4174317,5.19954097 Z" id="Combined-Shape" fill="#CBE3F9"></path>
                    <path d="M18.4007911,14.8304549 C18.2278922,15.1359191 17.9747622,15.3957689 17.660254,15.5773503 L11,19.4226497 C10.6905989,19.6012825 10.3452995,19.6905989 10,19.6905989 L10,10.8161904 C10,10.5658339 10.0936216,10.3285611 10.2564647,10.1474672 L18.4007911,14.8304549 L18.4007911,14.8304549 Z" id="Combined-Shape" fill="#B9D5EC"></path>
                </g>
            </g>
        </g>
    </g>
</svg>