<?xml version="1.0" encoding="UTF-8"?>
<svg width="260px" height="160px" viewBox="0 0 260 160" version="1.1" xmlns="http://www.w3.org/2000/svg" xmlns:xlink="http://www.w3.org/1999/xlink">
    <!-- Generator: Sketch 52.5 (67469) - http://www.bohemiancoding.com/sketch -->
    <title>illustration-email-submitted</title>
    <desc>Created with Sketch.</desc>
    <defs>
        <linearGradient x1="50%" y1="100%" x2="50%" y2="3.061617e-15%" id="linearGradient-1">
            <stop stop-color="#D9F8E9" offset="0%"></stop>
            <stop stop-color="#58ABF1" offset="100%"></stop>
        </linearGradient>
    </defs>
    <g id="Log-In-or-Sign-Up-(Free-Demo)" stroke="none" stroke-width="1" fill="none" fill-rule="evenodd">
        <g id="1---sign-up" transform="translate(-350.000000, -420.000000)">
            <g id="hero">
                <g id="cards" transform="translate(260.000000, 300.000000)">
                    <g id="sign-up">
                        <g id="illustration-email" transform="translate(90.000000, 120.000000)">
                            <circle id="Oval" fill="url(#linearGradient-1)" fill-rule="nonzero" cx="130" cy="80" r="80"></circle>
                            <g id="icon/status/success-large" transform="translate(90.000000, 40.000000)">
                                <g id="icon-status-success-large">
                                    <circle id="Combined-Shape" fill="#19BF7B" cx="40" cy="40" r="40"></circle>
                                    <path d="M52.7230723,21.7061506 C53.9899303,19.8963534 56.4840522,19.4562143 58.2938494,20.7230723 C60.1036466,21.9899303 60.5437857,24.4840522 59.2769277,26.2938494 L38.2769277,56.2938494 C36.850612,58.3314432 33.930289,58.5871433 32.1715729,56.8284271 L20.1715729,44.8284271 C18.6094757,43.26633 18.6094757,40.73367 20.1715729,39.1715729 C21.73367,37.6094757 24.26633,37.6094757 25.8284271,39.1715729 L34.4571622,47.8003079 L52.7230723,21.7061506 Z" id="Path-2" fill="#FFFFFF"></path>
                                </g>
                            </g>
                        </g>
                    </g>
                </g>
            </g>
        </g>
    </g>
</svg>