<?xml version="1.0" encoding="UTF-8"?>
<svg width="80px" height="80px" viewBox="0 0 80 80" version="1.1" xmlns="http://www.w3.org/2000/svg" xmlns:xlink="http://www.w3.org/1999/xlink">
    <!-- Generator: Sketch 48.1 (47250) - http://www.bohemiancoding.com/sketch -->
    <title>illustration/kintoblock/task</title>
    <desc>Created with Sketch.</desc>
    <defs></defs>
    <g id="Components" stroke="none" stroke-width="1" fill="none" fill-rule="evenodd">
        <g id="illustration/kintoblock/task">
            <g transform="translate(3.000000, 0.000000)">
                <rect id="Mask-Copy" fill="#ECE9FB" x="0" y="6" width="74" height="68" rx="2"></rect>
                <polygon id="Mask" fill="#ECE9FB" points="0 22 74 22 74 74 10 74 0 64"></polygon>
                <path d="M35.02,57.92 C35.820004,57.92 36.22,58.2599966 36.22,58.94 C36.22,59.6466702 35.820004,60 35.02,60 L28.26,60 C27.4466626,60 27.04,59.6466702 27.04,58.94 C27.04,58.2599966 27.4466626,57.92 28.26,57.92 L30.34,57.92 L30.34,48.8 L28.42,49.98 C28.2333324,50.0866672 28.0666674,50.14 27.92,50.14 C27.6399986,50.14 27.4033343,50.0200012 27.21,49.78 C27.0166657,49.5399988 26.92,49.2733348 26.92,48.98 C26.92,48.5933314 27.0933316,48.2933344 27.44,48.08 L30.54,46.16 C30.940002,45.9199988 31.3199982,45.8 31.68,45.8 C32.0533352,45.8 32.3533322,45.9133322 32.58,46.14 C32.8066678,46.3666678 32.92,46.679998 32.92,47.08 L32.92,57.92 L35.02,57.92 Z M47.5,55.24 C47.900002,55.24 48.199999,55.3266658 48.4,55.5 C48.600001,55.6733342 48.7,55.9199984 48.7,56.24 C48.7,56.90667 48.300004,57.24 47.5,57.24 L46.48,57.24 L46.48,58.82 C46.48,59.2333354 46.3633345,59.5533322 46.13,59.78 C45.8966655,60.0066678 45.5933352,60.12 45.22,60.12 C44.8466648,60.12 44.5433345,60.0066678 44.31,59.78 C44.0766655,59.5533322 43.96,59.2333354 43.96,58.82 L43.96,57.24 L38.72,57.24 C38.3599982,57.24 38.080001,57.1366677 37.88,56.93 C37.679999,56.7233323 37.58,56.4666682 37.58,56.16 C37.58,55.8399984 37.6866656,55.5333348 37.9,55.24 L44.08,46.36 C44.213334,46.1733324 44.379999,46.0300005 44.58,45.93 C44.780001,45.8299995 44.9866656,45.78 45.2,45.78 C45.5466684,45.78 45.8466654,45.8933322 46.1,46.12 C46.3533346,46.3466678 46.48,46.6666646 46.48,47.08 L46.48,55.24 L47.5,55.24 Z M40.24,55.24 L43.96,49.86 L43.96,55.24 L40.24,55.24 Z M23.82,40.06 C23.5133318,40.0733334 23.2816674,40.0266672 23.125,39.92 C22.9683325,39.8133328 22.89,39.6500011 22.89,39.43 C22.89,39.229999 22.9399995,39.0816671 23.04,38.985 C23.1400005,38.8883328 23.2966656,38.8333334 23.51,38.82 L23.83,38.8 C24.3100024,38.7799999 24.55,38.4966694 24.55,37.95 L24.55,33.67 C24.55,33.4366655 24.6233326,33.2500007 24.77,33.11 C24.9166674,32.9699993 25.1066655,32.9 25.34,32.9 C25.5733345,32.9 25.7616659,32.9699993 25.905,33.11 C26.048334,33.2500007 26.12,33.4366655 26.12,33.67 L26.12,37.93 C26.12,39.2500066 25.4600066,39.9533329 24.14,40.04 L23.82,40.06 Z M32.51,40.09 C31.5233284,40.09 30.7716692,39.8350025 30.255,39.325 C29.7383307,38.8149974 29.48,38.0700049 29.48,37.09 L29.48,33.67 C29.48,33.4366655 29.5499993,33.2500007 29.69,33.11 C29.8300007,32.9699993 30.0166655,32.9 30.25,32.9 C30.4833345,32.9 30.6683326,32.9699993 30.805,33.11 C30.9416673,33.2500007 31.01,33.4366655 31.01,33.67 L31.01,37.16 C31.01,37.7200028 31.138332,38.1466652 31.395,38.44 C31.6516679,38.7333348 32.0233309,38.88 32.51,38.88 C32.9966691,38.88 33.3699987,38.7316681 33.63,38.435 C33.8900013,38.1383318 34.02,37.7133361 34.02,37.16 L34.02,33.67 C34.02,33.4366655 34.0883326,33.2500007 34.225,33.11 C34.3616673,32.9699993 34.5466655,32.9 34.78,32.9 C35.0133345,32.9 35.1999993,32.9699993 35.34,33.11 C35.4800007,33.2500007 35.55,33.4366655 35.55,33.67 L35.55,37.09 C35.55,38.0633382 35.2900026,38.8066641 34.77,39.32 C34.2499974,39.8333359 33.4966716,40.09 32.51,40.09 Z M39.64,40 C39.4066655,40 39.2266673,39.9366673 39.1,39.81 C38.9733327,39.6833327 38.91,39.5033345 38.91,39.27 L38.91,33.67 C38.91,33.4366655 38.9799993,33.2500007 39.12,33.11 C39.2600007,32.9699993 39.4499988,32.9 39.69,32.9 C39.9300012,32.9 40.1199993,32.9699993 40.26,33.11 C40.4000007,33.2500007 40.47,33.4366655 40.47,33.67 L40.47,38.73 L43.03,38.73 C43.5166691,38.73 43.76,38.9433312 43.76,39.37 C43.76,39.7900021 43.5166691,40 43.03,40 L39.64,40 Z M49.68,33.15 C49.8266674,32.9766658 49.999999,32.89 50.2,32.89 C50.3866676,32.89 50.5549992,32.9616659 50.705,33.105 C50.8550007,33.248334 50.93,33.4133324 50.93,33.6 C50.93,33.7666675 50.8666673,33.9233326 50.74,34.07 L48.55,36.67 L48.55,39.28 C48.55,39.5333346 48.4766674,39.726666 48.33,39.86 C48.1833326,39.993334 48.0000011,40.06 47.78,40.06 C47.5466655,40.06 47.3566674,39.993334 47.21,39.86 C47.0633326,39.726666 46.99,39.5333346 46.99,39.28 L46.99,36.67 L44.82,34.07 C44.6933327,33.936666 44.63,33.7800009 44.63,33.6 C44.63,33.4133324 44.7016659,33.248334 44.845,33.105 C44.988334,32.9616659 45.1533324,32.89 45.34,32.89 C45.540001,32.89 45.7133326,32.9766658 45.86,33.15 L47.77,35.48 L49.68,33.15 Z" id="Combined-Shape" fill="#D6D1F8"></path>
                <path d="M0,64 L8,64 C9.1045695,64 10,64.8954305 10,66 L10,74 L0,64 Z" id="Rectangle-5" fill="#F5F4FD"></path>
                <path d="M60.429338,64.9848755 C63.5426644,64.7647552 66,62.1693483 66,59 C66,57.5045948 65.4521798,56.0970374 64.4763741,55.0046392 C64.1084493,54.5927535 64.1440866,53.9605922 64.5559723,53.5926674 C64.9678579,53.2247426 65.6000192,53.26038 65.967944,53.6722656 C67.2681043,55.1277734 68,57.0082905 68,59 C68,63.2827374 64.6346619,66.779458 60.4041806,66.9899671 L61.7071068,68.2928932 C62.0976311,68.6834175 62.0976311,69.3165825 61.7071068,69.7071068 C61.3165825,70.0976311 60.6834175,70.0976311 60.2928932,69.7071068 L57.2928932,66.7071068 C56.9023689,66.3165825 56.9023689,65.6834175 57.2928932,65.2928932 L60.2928932,62.2928932 C60.6834175,61.9023689 61.3165825,61.9023689 61.7071068,62.2928932 C62.0976311,62.6834175 62.0976311,63.3165825 61.7071068,63.7071068 L60.429338,64.9848755 Z M59.5706939,53.0150925 C56.4540326,53.235124 54.0010823,55.8339124 54.0000004,58.9975543 C54.0000001,60.5397504 54.5810666,61.9862599 55.6101509,63.0901772 C55.9867425,63.4941539 55.9645425,64.1269296 55.5605659,64.5035213 C55.1565892,64.8801129 54.5238135,64.857913 54.1472218,64.4539363 C52.7762499,62.9832699 52,61.0508699 52.0000005,58.9972121 C52.0014624,54.7219342 55.3600288,51.2208712 59.5958306,51.0100441 L58.2928932,49.7071068 C57.9023689,49.3165825 57.9023689,48.6834175 58.2928932,48.2928932 C58.6834175,47.9023689 59.3165825,47.9023689 59.7071068,48.2928932 L62.7071068,51.2928932 C63.0976311,51.6834175 63.0976311,52.3165825 62.7071068,52.7071068 L59.7071068,55.7071068 C59.3165825,56.0976311 58.6834175,56.0976311 58.2928932,55.7071068 C57.9023689,55.3165825 57.9023689,54.6834175 58.2928932,54.2928932 L59.5706939,53.0150925 Z" id="Combined-Shape" fill="#9486EC"></path>
                <path d="M2,6 L72,6 C73.1045695,6 74,6.8954305 74,8 L74,22 L0,22 L0,8 C-1.3527075e-16,6.8954305 0.8954305,6 2,6 Z" id="Rectangle-2" fill="#9485EC"></path>
                <rect id="Rectangle-Copy" fill="#ECE9FB" x="9" y="10" width="8" height="8" rx="4"></rect>
                <path d="M15,2 L15,14 C15,16.6666667 11,16.6666667 11,14 L11,2 C11,-0.666666667 15,-0.666666667 15,2 Z" id="Path-2-Copy" fill="#F5B9EA" fill-rule="nonzero"></path>
                <rect id="Rectangle-Copy" fill="#ECE9FB" x="57" y="10" width="8" height="8" rx="4"></rect>
                <path d="M63,2 L63,14 C63,16.6666667 59,16.6666667 59,14 L59,2 C59,-0.666666667 63,-0.666666667 63,2 Z" id="Path-2-Copy" fill="#F5B9EA" fill-rule="nonzero"></path>
            </g>
        </g>
    </g>
</svg>