<?xml version="1.0" encoding="UTF-8"?>
<svg width="740px" height="300px" viewBox="0 0 740 300" version="1.1" xmlns="http://www.w3.org/2000/svg" xmlns:xlink="http://www.w3.org/1999/xlink">
    <!-- Generator: Sketch 49.3 (51167) - http://www.bohemiancoding.com/sketch -->
    <title>popup-welcome</title>
    <desc>Created with Sketch.</desc>
    <defs>
        <filter x="-100.0%" y="-100.0%" width="300.0%" height="300.0%" filterUnits="objectBoundingBox" id="filter-1">
            <feGaussianBlur stdDeviation="20" in="SourceGraphic"></feGaussianBlur>
        </filter>
        <filter x="-118.4%" y="-118.4%" width="336.9%" height="336.9%" filterUnits="objectBoundingBox" id="filter-2">
            <feGaussianBlur stdDeviation="23.6886161" in="SourceGraphic"></feGaussianBlur>
        </filter>
        <filter x="-120.0%" y="-120.0%" width="340.0%" height="340.0%" filterUnits="objectBoundingBox" id="filter-3">
            <feGaussianBlur stdDeviation="24" in="SourceGraphic"></feGaussianBlur>
        </filter>
        <filter x="-100.0%" y="-100.0%" width="300.0%" height="300.0%" filterUnits="objectBoundingBox" id="filter-4">
            <feGaussianBlur stdDeviation="20" in="SourceGraphic"></feGaussianBlur>
        </filter>
        <filter x="-118.8%" y="-118.8%" width="337.7%" height="337.7%" filterUnits="objectBoundingBox" id="filter-5">
            <feGaussianBlur stdDeviation="23.7667411" in="SourceGraphic"></feGaussianBlur>
        </filter>
        <filter x="-110.0%" y="-110.0%" width="320.0%" height="320.0%" filterUnits="objectBoundingBox" id="filter-6">
            <feGaussianBlur stdDeviation="22" in="SourceGraphic"></feGaussianBlur>
        </filter>
        <filter x="-120.0%" y="-120.0%" width="340.0%" height="340.0%" filterUnits="objectBoundingBox" id="filter-7">
            <feGaussianBlur stdDeviation="24" in="SourceGraphic"></feGaussianBlur>
        </filter>
        <filter x="-118.4%" y="-118.4%" width="336.9%" height="336.9%" filterUnits="objectBoundingBox" id="filter-8">
            <feGaussianBlur stdDeviation="23.6886161" in="SourceGraphic"></feGaussianBlur>
        </filter>
        <radialGradient cx="50%" cy="72.1948242%" fx="50%" fy="72.1948242%" r="64.7094727%" id="radialGradient-9">
            <stop stop-color="#E3E8ED" offset="0%"></stop>
            <stop stop-color="#FFFFFF" offset="100%"></stop>
        </radialGradient>
        <circle id="path-10" cx="120" cy="90" r="70"></circle>
        <filter x="-55.0%" y="-43.6%" width="210.0%" height="210.0%" filterUnits="objectBoundingBox" id="filter-11">
            <feOffset dx="0" dy="10" in="SourceAlpha" result="shadowOffsetOuter1"></feOffset>
            <feGaussianBlur stdDeviation="20" in="shadowOffsetOuter1" result="shadowBlurOuter1"></feGaussianBlur>
            <feColorMatrix values="0 0 0 0 0.207910088   0 0 0 0 0.256081934   0 0 0 0 0.282020621  0 0 0 0.196303216 0" type="matrix" in="shadowBlurOuter1" result="shadowMatrixOuter1"></feColorMatrix>
            <feOffset dx="0" dy="6" in="SourceAlpha" result="shadowOffsetOuter2"></feOffset>
            <feGaussianBlur stdDeviation="6" in="shadowOffsetOuter2" result="shadowBlurOuter2"></feGaussianBlur>
            <feColorMatrix values="0 0 0 0 0.283293444   0 0 0 0 0.330380118   0 0 0 0 0.355734481  0 0 0 0.201879529 0" type="matrix" in="shadowBlurOuter2" result="shadowMatrixOuter2"></feColorMatrix>
            <feMerge>
                <feMergeNode in="shadowMatrixOuter1"></feMergeNode>
                <feMergeNode in="shadowMatrixOuter2"></feMergeNode>
            </feMerge>
        </filter>
        <path d="M33.515625,7.50003924e-16 C39.875,7.50003924e-16 44,4.125 44,10.484375 L44,33.515625 C44,39.875 39.875,44 33.515625,44 L10.484375,44 C4.125,44 0,39.875 0,33.515625 L0,10.484375 C0,4.125 4.125,7.50003927e-16 10.484375,7.50003927e-16 L33.515625,7.50003924e-16 Z" id="path-12"></path>
        <rect id="path-13" x="0" y="0" width="40" height="34" rx="4"></rect>
        <path d="M18,42 C13.0294373,42 9,37.9705627 9,33 C9,28.0294373 13.0294373,24 18,24 C18.338061,24 18.6717687,24.018639 19.0001513,24.0549455 C19.0000505,24.0366373 19,24.0183221 19,24 C19,17.1487254 24.1487254,12 31,12 C35.6445287,12 39.8464088,15.2440091 41.3820223,20.0085286 C46.5228509,20.2380497 51,25.0712803 51,31 C51,37.0751322 46.2989899,42 41,42 L18,42 Z" id="path-14"></path>
        <path d="M22.6774389,0.963878017 L38.6774389,6.72387802 C39.4709554,7.00954396 40,7.76228253 40,8.60565284 L40,39.3943472 C40,40.2377175 39.4709554,40.990456 38.6774389,41.276122 L22.6774389,47.036122 C21.6381634,47.4102612 20.4923644,46.8710616 20.1182252,45.8317861 C20.0399995,45.6144927 20,45.3852924 20,45.1543472 L20,2.84565284 C20,1.74108334 20.8954305,0.845652841 22,0.845652841 C22.2309452,0.845652841 22.4601455,0.885652385 22.6774389,0.963878017 Z" id="path-15"></path>
        <circle id="path-16" cx="26" cy="11" r="11"></circle>
        <path d="M26,22 L26,22 C33.7319865,22 40,28.2680135 40,36 L40,50 L12,50 L12,36 C12,28.2680135 18.2680135,22 26,22 Z" id="path-17"></path>
        <circle id="path-18" cx="27" cy="27" r="21"></circle>
        <path d="M30,4.15470054 L45.9185843,13.3452995 C47.1561886,14.0598306 47.9185843,15.3803387 47.9185843,16.8094011 L47.9185843,35.1905989 C47.9185843,36.6196613 47.1561886,37.9401694 45.9185843,38.6547005 L30,47.8452995 C28.7623957,48.5598306 27.2376043,48.5598306 26,47.8452995 L10.0814157,38.6547005 C8.84381141,37.9401694 8.08141571,36.6196613 8.08141571,35.1905989 L8.08141571,16.8094011 C8.08141571,15.3803387 8.84381141,14.0598306 10.0814157,13.3452995 L26,4.15470054 C27.2376043,3.44016936 28.7623957,3.44016936 30,4.15470054 Z" id="path-19"></path>
        <path d="M30.7952149,0.344593113 L57.8825639,12.0824444 C58.3893159,12.3020369 58.6221047,12.8908555 58.4025121,13.3976074 C58.3015195,13.6306674 58.1156239,13.816563 57.8825639,13.9175556 L30.7952149,25.6554069 C30.2878649,25.8752586 29.7121351,25.8752586 29.2047851,25.6554069 L2.11743606,13.9175556 C1.61068408,13.6979631 1.37789535,13.1091445 1.59748787,12.6023926 C1.69848054,12.3693326 1.88437606,12.183437 2.11743606,12.0824444 L29.2047851,0.344593113 C29.7121351,0.124741447 30.2878649,0.124741447 30.7952149,0.344593113 Z" id="path-20"></path>
        <linearGradient x1="50%" y1="100%" x2="50%" y2="3.061617e-15%" id="linearGradient-21">
            <stop stop-color="#B9D5EC" offset="0%"></stop>
            <stop stop-color="#98B4CD" offset="100%"></stop>
        </linearGradient>
        <path d="M10,20 C4.4771525,20 0,15.5228475 0,10 C0,4.4771525 4.4771525,0 10,0 C15.5228475,0 20,4.4771525 20,10 C20,15.5228475 15.5228475,20 10,20 Z M9.28470161,14.7081186 C9.9224251,15.0763084 10.737879,14.8578082 11.1060688,14.2200847 C11.807592,13.0050109 14.1450259,6.72298177 13.9513683,6.62521478 C13.7577107,6.52744779 9.4981909,11.6716776 8.79666773,12.8867513 C8.4284779,13.5244748 8.64697811,14.3399287 9.28470161,14.7081186 Z" id="path-22"></path>
        <path d="M12.6434926,13.686456 C14.5267664,14.2013329 16.1883702,15.2529416 17.4536884,16.6666667 C15.6226198,18.7124979 12.961666,20 10,20 C7.03833396,20 4.37738015,18.7124979 2.54631164,16.6666667 C3.8116298,15.2529416 5.47323361,14.2013329 7.35650745,13.686456 C7.52927026,14.9922986 8.64695449,16 10,16 C11.3530455,16 12.4707297,14.9922986 12.6434926,13.686456 Z" id="path-24"></path>
        <path d="M13.7109375,3.06819787e-16 C16.3125,3.06819787e-16 18,1.6875 18,4.2890625 L18,13.7109375 C18,16.3125 16.3125,18 13.7109375,18 L4.2890625,18 C1.6875,18 0,16.3125 0,13.7109375 L0,4.2890625 C0,1.6875 1.6875,3.06819788e-16 4.2890625,3.06819788e-16 L13.7109375,3.06819787e-16 Z" id="path-26"></path>
        <path d="M16.8310547,1.16894531 C17.578125,1.91601563 18,2.98828125 18,4.2890625 L18,13.7109375 C18,16.3125 16.3125,18 13.7109375,18 L4.2890625,18 C2.98828125,18 1.91601563,17.578125 1.16894531,16.8310547 L16.8310547,1.16894531 Z" id="path-28"></path>
        <path d="M16.8310547,16.8310547 C16.0839844,17.578125 15.0117187,18 13.7109375,18 L4.2890625,18 C2.98828125,18 1.91601562,17.578125 1.16894531,16.8310547 L9,9 L16.8310547,16.8310547 Z" id="path-30"></path>
        <linearGradient x1="50%" y1="78.4307861%" x2="20.2392578%" y2="67.0587158%" id="linearGradient-32">
            <stop stop-color="#B9D5EC" offset="0%"></stop>
            <stop stop-color="#98B4CD" offset="100%"></stop>
        </linearGradient>
        <linearGradient x1="0%" y1="76.5850361%" x2="71.7325846%" y2="41.8316181%" id="linearGradient-33">
            <stop stop-color="#B9D5EC" offset="0%"></stop>
            <stop stop-color="#98B4CD" offset="100%"></stop>
        </linearGradient>
    </defs>
    <g id="Dashboard---Overview" stroke="none" stroke-width="1" fill="none" fill-rule="evenodd">
        <g id="1---dashboard---overview---onboarding-1" transform="translate(-350.000000, -350.000000)">
            <g id="modal" transform="translate(350.000000, 190.000000)">
                <g id="graphic" transform="translate(0.000000, 160.000000)">
                    <g id="raninbow" opacity="0.300000012" transform="translate(250.000000, 60.000000)">
                        <circle id="Oval-2" fill="#4DD0B7" filter="url(#filter-1)" cx="60" cy="40" r="30"></circle>
                        <circle id="Oval-2-Copy" fill="#53D9EB" filter="url(#filter-2)" cx="116" cy="30" r="30"></circle>
                        <circle id="Oval-2-Copy-2" fill="#83A7F3" filter="url(#filter-3)" cx="200" cy="50" r="30"></circle>
                        <circle id="Oval-2-Copy-3" fill="#F5B9EA" filter="url(#filter-4)" cx="190" cy="100" r="30"></circle>
                        <circle id="Oval-2-Copy-4" fill="#F78597" filter="url(#filter-5)" cx="180" cy="140" r="30"></circle>
                        <circle id="Oval-2-Copy-5" fill="#FFAF5C" filter="url(#filter-6)" cx="100" cy="160" r="30"></circle>
                        <circle id="Oval-2-Copy-6" fill="#FFE915" filter="url(#filter-7)" cx="70" cy="140" r="30"></circle>
                        <circle id="Oval-2-Copy-7" fill="#A2DA86" filter="url(#filter-8)" cx="30" cy="80" r="30"></circle>
                        <g id="Oval">
                            <use fill="black" fill-opacity="1" filter="url(#filter-11)" xlink:href="#path-10"></use>
                            <use fill="url(#radialGradient-9)" fill-rule="evenodd" xlink:href="#path-10"></use>
                        </g>
                    </g>
                    <g id="homepage-icon-color-deploy-apps-fast" transform="translate(251.000000, 46.000000)">
                        <path d="M28.0110986,14 L50.0126669,14 C54.4309449,14 58.0126669,17.581722 58.0126669,22 C58.0126669,23.4263422 57.6313248,24.8267478 56.9081406,26.056161 L48.0617882,41.09496 C46.4573163,43.8225623 45.7284554,44.7073047 44.7664361,45.5653392 C43.8044168,46.4233737 42.7402165,47.0320389 41.512884,47.4261955 C40.2855516,47.8203521 39.1534147,48 35.9889014,48 L17.4841664,48 C11.9613189,48 7.48416643,43.5228475 7.48416643,38 C7.48416643,36.2170722 7.960844,34.4665652 8.86482427,32.9297987 L15.9382118,20.90504 C17.5426837,18.1774377 18.2715446,17.2926953 19.2335639,16.4346608 C20.1955832,15.5766263 21.2597835,14.9679611 22.487116,14.5738045 C23.7144484,14.1796479 24.8465853,14 28.0110986,14 Z" id="Rectangle-16-Copy" fill="#DEF92F"></path>
                        <path d="M20.3780778,6 L43.7537887,6 C48.1720667,6 51.7537887,9.581722 51.7537887,14 C51.7537887,14.6540945 51.67357,15.3057202 51.5149287,15.940285 L46.5170536,35.9317857 C45.5839539,39.6641845 44.9397366,40.9436812 43.9727065,42.2095755 C43.0056764,43.4754697 41.7920048,44.4230759 40.3293677,45.0542084 C38.8667307,45.685341 37.4691908,46 33.6219222,46 L12.8077641,46 C7.28491657,46 2.80776406,41.5228475 2.80776406,36 C2.80776406,35.1823819 2.90803755,34.3678498 3.10633906,33.5746437 L7.48294642,16.0682143 C8.41604611,12.3358155 9.06026338,11.0563188 10.0272935,9.79042451 C10.9943236,8.52453025 12.2079952,7.57692413 13.6706323,6.94579156 C15.1332693,6.314659 16.5308092,6 20.3780778,6 Z" id="Rectangle-16" fill="#B3E04A" opacity="0.600000024"></path>
                        <g id="App-Icon-Shape-Copy-2">
                            <use fill="#A2DA86" fill-rule="evenodd" xlink:href="#path-12"></use>
                            <path stroke-opacity="0.399682971" stroke="#FFFFFF" stroke-width="1" d="M33.515625,-0.5 C40.1511424,-0.5 44.5,3.84885763 44.5,10.484375 L44.5,33.515625 C44.5,40.1511424 40.1511424,44.5 33.515625,44.5 L10.484375,44.5 C3.84885763,44.5 -0.5,40.1511424 -0.5,33.515625 L-0.5,10.484375 C-0.5,3.84885763 3.84885763,-0.5 10.484375,-0.5 L33.515625,-0.5 Z"></path>
                        </g>
                    </g>
                    <g id="homepage-icon-color-deploy-websites-fast" transform="translate(342.000000, 9.000000)">
                        <path d="M20.7471964,16 L53.6319104,16 C55.2887646,16 56.6319104,17.3431458 56.6319104,19 C56.6319104,19.3682086 56.5641264,19.7332714 56.4319472,20.0769372 L48.986186,39.4359163 C48.3920444,40.9806845 46.9078906,42 45.2528036,42 L13.8241195,42 C11.6149805,42 9.82411947,40.209139 9.82411947,38 C9.82411947,37.5090552 9.91449814,37.0223048 10.090737,36.5640837 L17.013814,18.5640837 C17.6079556,17.0193155 19.0921094,16 20.7471964,16 Z" id="Rectangle-17" fill="#00F282" opacity="0.600000024"></path>
                        <path d="M13.2792156,8 L46.3405883,8 C47.9974425,8 49.3405883,9.34314575 49.3405883,11 C49.3405883,11.197556 49.3210742,11.3946289 49.2823303,11.5883484 L44.6431071,34.7844645 C44.2691677,36.6541613 42.6275085,38 40.7207844,38 L8.87921561,38 C6.67007661,38 4.87921561,36.209139 4.87921561,34 C4.87921561,33.7365921 4.90523436,33.4738282 4.95689291,33.2155355 L9.35689291,11.2155355 C9.73083227,9.34583867 11.3724915,8 13.2792156,8 Z" id="Rectangle-17-Copy-2" fill="#00D78D" opacity="0.600883152"></path>
                        <g id="Rectangle-17-Copy-3">
                            <use fill="#4DD0B7" fill-rule="evenodd" xlink:href="#path-13"></use>
                            <rect stroke-opacity="0.399682971" stroke="#FFFFFF" stroke-width="1" x="-0.5" y="-0.5" width="41" height="35" rx="4"></rect>
                        </g>
                    </g>
                    <g id="homepage-icon-color-serverless" transform="translate(430.000000, 49.000000)">
                        <path d="M12,41.9621104 C5.28755229,41.4514855 0,35.8432298 0,29 C0,22.1476381 5.30167391,16.5335486 12.0268804,16.0358726 C12.5267166,7.09559366 19.934726,0 29,0 C36.276843,0 42.4858218,4.57207004 44.9109935,11.0002672 C44.9406421,11.0000891 44.970311,11 45,11 C53.2842712,11 60,17.9395864 60,27 C60,34.7334652 53.8180318,41.4351857 46,41.9661353 L46,42 L12,42 L12,41.9621104 Z" id="Combined-Shape-Copy-2" fill="#06ECFE" opacity="0.600000024"></path>
                        <path d="M26.8110899,33 L30.6269978,33 C30.6252659,32.9946359 30.6235364,32.9892703 30.6218104,32.9839031 C30.4154482,32.9945885 30.2081322,33 30,33 C28.9169757,33 27.8693772,32.8879944 26.8676295,32.6769307 C26.8504059,32.7851476 26.8315499,32.8928455 26.8110899,33 Z M15,41.9645768 C8.65380793,41.5118494 4,36.7757728 4,31 C4,24.9248678 9.14872538,20 16,20 C16,12.0441559 22.0441559,6 30,6 C35.7352247,6 40.8506551,10.1090067 42.4693698,16.0106324 C42.6453684,16.0035667 42.8222677,16 43,16 C50.1797017,16 56,21.8202983 56,29 C56,35.8432298 50.7124477,41.4514855 44,41.9621104 L44,42 L15,42 L15,41.9645768 Z" id="Combined-Shape-Copy" fill-opacity="0.59655231" fill="#3ECFF0"></path>
                        <g id="Combined-Shape">
                            <use fill="#53D9EB" fill-rule="evenodd" xlink:href="#path-14"></use>
                            <path stroke-opacity="0.399682971" stroke="#FFFFFF" stroke-width="1" d="M18.5084008,23.5133838 C18.7468651,16.629452 24.0357222,11.5 31,11.5 C35.7594721,11.5 40.0642634,14.7409795 41.7486629,19.5308629 C47.1001634,19.9708785 51.5,25.0353984 51.5,31 C51.5,37.2589899 46.6617719,42.5 41,42.5 L18,42.5 C12.7532949,42.5 8.5,38.2467051 8.5,33 C8.5,27.7532949 12.7532949,23.5 18,23.5 C18.1700335,23.5 18.3395402,23.504472 18.5084008,23.5133838 Z"></path>
                        </g>
                    </g>
                    <g id="homepage-icon-color-compatible" transform="translate(470.000000, 131.000000)">
                        <path d="M2.67743894,0.963878017 L18.6774389,6.72387802 C19.4709554,7.00954396 20,7.76228253 20,8.60565284 L20,39.3943472 C20,40.2377175 19.4709554,40.990456 18.6774389,41.276122 L2.67743894,47.036122 C1.6381634,47.4102612 0.49236437,46.8710616 0.118225176,45.8317861 C0.039999544,45.6144927 8.48764768e-16,45.3852924 0,45.1543472 L4.4408921e-16,2.84565284 C3.0881846e-16,1.74108334 0.8954305,0.845652841 2,0.845652841 C2.23094519,0.845652841 2.46014551,0.885652385 2.67743894,0.963878017 Z" id="Rectangle-21-Copy-2" fill="#49BFFF" opacity="0.800000012"></path>
                        <path d="M11.6774389,0.963878017 L27.6774389,6.72387802 C28.4709554,7.00954396 29,7.76228253 29,8.60565284 L29,39.3943472 C29,40.2377175 28.4709554,40.990456 27.6774389,41.276122 L11.6774389,47.036122 C10.6381634,47.4102612 9.49236437,46.8710616 9.11822518,45.8317861 C9.03999954,45.6144927 9,45.3852924 9,45.1543472 L9,2.84565284 C9,1.74108334 9.8954305,0.845652841 11,0.845652841 C11.2309452,0.845652841 11.4601455,0.885652385 11.6774389,0.963878017 Z" id="Rectangle-21-Copy" fill="#5D9EFF" opacity="0.600000024"></path>
                        <g id="Rectangle-21">
                            <use fill="#83A7F3" fill-rule="evenodd" xlink:href="#path-15"></use>
                            <path stroke-opacity="0.403391078" stroke="#FFFFFF" stroke-width="1" d="M22.8467987,0.493434311 L38.8467987,6.25343431 C39.8386943,6.61051674 40.5,7.55143996 40.5,8.60565284 L40.5,39.3943472 C40.5,40.44856 39.8386943,41.3894833 38.8467987,41.7465657 L22.8467987,47.5065657 C21.5477042,47.9742397 20.1154555,47.3002403 19.6477815,46.0011458 C19.5499994,45.7295291 19.5,45.4430286 19.5,45.1543472 L19.5,2.84565284 C19.5,1.46494097 20.6192881,0.345652841 22,0.345652841 C22.2886815,0.345652841 22.5751819,0.395652271 22.8467987,0.493434311 Z"></path>
                        </g>
                    </g>
                    <g id="homepage-icon-color-team-or-solo" transform="translate(224.000000, 130.000000)">
                        <circle id="Oval-16-Copy-10" fill="#FFF817" cx="12" cy="14" r="10"></circle>
                        <path d="M12,24 L12,24 C18.627417,24 24,29.372583 24,36 L24,48 L0,48 L0,36 C-8.11624501e-16,29.372583 5.372583,24 12,24 Z" id="Rectangle-18-Copy-2" fill="#FFF817"></path>
                        <g id="Oval-16-Copy-8">
                            <use fill="#FFE915" fill-rule="evenodd" xlink:href="#path-16"></use>
                            <circle stroke-opacity="0.404579937" stroke="#FFFFFF" stroke-width="1" cx="26" cy="11" r="11.5"></circle>
                        </g>
                        <g id="Rectangle-18">
                            <use fill="#FFE915" fill-rule="evenodd" xlink:href="#path-17"></use>
                            <path stroke-opacity="0.404579937" stroke="#FFFFFF" stroke-width="1" d="M26,21.5 C34.0081289,21.5 40.5,27.9918711 40.5,36 L40.5,50.5 L11.5,50.5 L11.5,36 C11.5,27.9918711 17.9918711,21.5 26,21.5 Z"></path>
                        </g>
                        <circle id="Oval-16-Copy-14" fill="#F5D739" opacity="0.600000024" cx="40" cy="14" r="10"></circle>
                        <path d="M40,24 L40,24 C46.627417,24 52,29.372583 52,36 L52,48 L28,48 L28,36 C28,29.372583 33.372583,24 40,24 Z" id="Rectangle-18-Copy-3" fill="#F5D739" opacity="0.600000024"></path>
                    </g>
                    <g id="homepage-icon-color-services" transform="translate(253.000000, 203.000000)">
                        <circle id="Oval-16-Copy-13" fill="#FFD978" cx="23" cy="23" r="23"></circle>
                        <g id="Oval-16-Copy-11">
                            <use fill="#FFB476" fill-rule="evenodd" xlink:href="#path-18"></use>
                            <circle stroke-opacity="0.404579937" stroke="#FFFFFF" stroke-width="1" cx="27" cy="27" r="21.5"></circle>
                        </g>
                        <circle id="Oval-16-Copy-12" fill="#FFAF48" opacity="0.600000024" cx="31" cy="31" r="23"></circle>
                    </g>
                    <g id="homepage-icon-color-git-ready" transform="translate(346.000000, 245.000000)">
                        <path d="M18.4544827,13.1547005 L30.9089653,20.3452995 C32.1465697,21.0598306 32.9089653,22.3803387 32.9089653,23.8094011 L32.9089653,38.1905989 C32.9089653,39.6196613 32.1465697,40.9401694 30.9089653,41.6547005 L18.4544827,48.8452995 C17.2168784,49.5598306 15.692087,49.5598306 14.4544827,48.8452995 L2,41.6547005 C0.762395693,40.9401694 -1.28785871e-14,39.6196613 -1.42108547e-14,38.1905989 L-2.48689958e-14,23.8094011 C-2.62012634e-14,22.3803387 0.762395693,21.0598306 2,20.3452995 L14.4544827,13.1547005 C15.692087,12.4401694 17.2168784,12.4401694 18.4544827,13.1547005 Z" id="Polygon-Copy" fill="#EF7893" opacity="0.5"></path>
                        <path d="M25,1.15470054 L40.9185843,10.3452995 C42.1561886,11.0598306 42.9185843,12.3803387 42.9185843,13.8094011 L42.9185843,32.1905989 C42.9185843,33.6196613 42.1561886,34.9401694 40.9185843,35.6547005 L25,44.8452995 C23.7623957,45.5598306 22.2376043,45.5598306 21,44.8452995 L5.08141571,35.6547005 C3.84381141,34.9401694 3.08141571,33.6196613 3.08141571,32.1905989 L3.08141571,13.8094011 C3.08141571,12.3803387 3.84381141,11.0598306 5.08141571,10.3452995 L21,1.15470054 C22.2376043,0.440169359 23.7623957,0.440169359 25,1.15470054 Z" id="Polygon-Copy-3" fill="#FF9E9E" opacity="0.600000024"></path>
                        <g id="Polygon">
                            <use fill="#F78496" fill-rule="evenodd" xlink:href="#path-19"></use>
                            <path stroke-opacity="0.400956748" stroke="#FFFFFF" stroke-width="1" d="M30.25,3.72168784 L46.1685843,12.9122868 C47.5608891,13.7161343 48.4185843,15.2017059 48.4185843,16.8094011 L48.4185843,35.1905989 C48.4185843,36.7982941 47.5608891,38.2838657 46.1685843,39.0877132 L30.25,48.2783122 C28.8576952,49.0821597 27.1423048,49.0821597 25.75,48.2783122 L9.83141571,39.0877132 C8.43911087,38.2838657 7.58141571,36.7982941 7.58141571,35.1905989 L7.58141571,16.8094011 C7.58141571,15.2017059 8.43911087,13.7161343 9.83141571,12.9122868 L25.75,3.72168784 C27.1423048,2.91784026 28.8576952,2.91784026 30.25,3.72168784 Z"></path>
                        </g>
                    </g>
                    <g id="homepage-icon-color-complete-stack" transform="translate(430.000000, 207.000000)">
                        <path d="M30.7952149,20.3445931 L57.8825639,32.0824444 C58.3893159,32.3020369 58.6221047,32.8908555 58.4025121,33.3976074 C58.3015195,33.6306674 58.1156239,33.816563 57.8825639,33.9175556 L30.7952149,45.6554069 C30.2878649,45.8752586 29.7121351,45.8752586 29.2047851,45.6554069 L2.11743606,33.9175556 C1.61068408,33.6979631 1.37789535,33.1091445 1.59748787,32.6023926 C1.69848054,32.3693326 1.88437606,32.183437 2.11743606,32.0824444 L29.2047851,20.3445931 C29.7121351,20.1247414 30.2878649,20.1247414 30.7952149,20.3445931 Z" id="Rectangle-20-Copy-2" fill="#F5B9EA"></path>
                        <path d="M30.7952149,10.3445931 L57.8825639,22.0824444 C58.3893159,22.3020369 58.6221047,22.8908555 58.4025121,23.3976074 C58.3015195,23.6306674 58.1156239,23.816563 57.8825639,23.9175556 L30.7952149,35.6554069 C30.2878649,35.8752586 29.7121351,35.8752586 29.2047851,35.6554069 L2.11743606,23.9175556 C1.61068408,23.6979631 1.37789535,23.1091445 1.59748787,22.6023926 C1.69848054,22.3693326 1.88437606,22.183437 2.11743606,22.0824444 L29.2047851,10.3445931 C29.7121351,10.1247414 30.2878649,10.1247414 30.7952149,10.3445931 Z" id="Rectangle-20-Copy" fill-opacity="0.604930933" fill="#AD8AE5"></path>
                        <g id="Rectangle-20">
                            <use fill="#A295EE" fill-rule="evenodd" xlink:href="#path-20"></use>
                            <path stroke-opacity="0.40477808" stroke="#FFFFFF" stroke-width="1" d="M30.9940186,-0.1141847 L58.0813677,11.6236666 C58.8414956,11.9530553 59.1906787,12.8362832 58.8612899,13.5964112 C58.7098009,13.9460012 58.4309577,14.2248444 58.0813677,14.3763334 L30.9940186,26.1141847 C30.3598311,26.3889993 29.6401689,26.3889993 29.0059814,26.1141847 L1.91863234,14.3763334 C1.15850437,14.0469447 0.809321272,13.1637168 1.13871006,12.4035888 C1.29019906,12.0539988 1.56904234,11.7751556 1.91863234,11.6236666 L29.0059814,-0.1141847 C29.6401689,-0.388999282 30.3598311,-0.388999282 30.9940186,-0.1141847 Z"></path>
                        </g>
                    </g>
                    <g id="icon/dashboard/home" transform="translate(310.000000, 30.000000)">
                        <g id="icon-dashboard-home">
                            <mask id="mask-23" fill="white">
                                <use xlink:href="#path-22"></use>
                            </mask>
                            <use id="Combined-Shape" fill="url(#linearGradient-21)" xlink:href="#path-22"></use>
                            <mask id="mask-25" fill="white">
                                <use xlink:href="#path-24"></use>
                            </mask>
                            <use id="Combined-Shape" fill="#CBE3F9" xlink:href="#path-24"></use>
                        </g>
                    </g>
                    <g id="icon/dashboard/applications" transform="translate(411.000000, 32.000000)">
                        <g>
                            <mask id="mask-27" fill="white">
                                <use xlink:href="#path-26"></use>
                            </mask>
                            <use id="App-Icon-Shape" fill="url(#linearGradient-21)" xlink:href="#path-26"></use>
                            <mask id="mask-29" fill="white">
                                <use xlink:href="#path-28"></use>
                            </mask>
                            <use id="Combined-Shape" fill="#CBE3F9" xlink:href="#path-28"></use>
                            <mask id="mask-31" fill="white">
                                <use xlink:href="#path-30"></use>
                            </mask>
                            <use id="Combined-Shape" fill="#B9D5EC" xlink:href="#path-30"></use>
                        </g>
                    </g>
                    <g id="icon/dashboard/kintoblocks" transform="translate(240.000000, 100.000000)">
                        <g>
                            <path d="M11,0.577350269 L17.660254,4.42264973 C18.2790562,4.77991532 18.660254,5.44016936 18.660254,6.15470054 L18.660254,13.8452995 C18.660254,14.5598306 18.2790562,15.2200847 17.660254,15.5773503 L11,19.4226497 C10.3811978,19.7799153 9.61880215,19.7799153 9,19.4226497 L2.33974596,15.5773503 C1.72094381,15.2200847 1.33974596,14.5598306 1.33974596,13.8452995 L1.33974596,6.15470054 C1.33974596,5.44016936 1.72094381,4.77991532 2.33974596,4.42264973 L9,0.577350269 C9.61880215,0.220084679 10.3811978,0.220084679 11,0.577350269 Z" id="Mask" fill="url(#linearGradient-21)"></path>
                            <path d="M18.4174317,5.19954097 C18.5741774,5.48788014 18.660254,5.81516229 18.660254,6.15470054 L18.660254,13.8452995 C18.660254,14.5598306 18.2790562,15.2200847 17.660254,15.5773503 L11,19.4226497 C10.6905989,19.6012825 10.3452995,19.6905989 10,19.6905989 L10,10.8161904 C10,10.4649275 10.1842988,10.1394207 10.4855042,9.95869745 L18.4174317,5.19954097 Z" id="Combined-Shape" fill="#CBE3F9"></path>
                            <path d="M18.4007911,14.8304549 C18.2278922,15.1359191 17.9747622,15.3957689 17.660254,15.5773503 L11,19.4226497 C10.6905989,19.6012825 10.3452995,19.6905989 10,19.6905989 L10,10.8161904 C10,10.5658339 10.0936216,10.3285611 10.2564647,10.1474672 L18.4007911,14.8304549 Z" id="Combined-Shape" fill="#B9D5EC"></path>
                        </g>
                    </g>
                    <g id="icon/dashboard/services" transform="translate(240.000000, 190.000000)">
                        <g>
                            <path d="M19,14 C19,17.3137085 14.9705627,20 10,20 C5.02943725,20 1,17.3137085 1,14 L1,6 L19,6 L19,14 Z" id="Combined-Shape" fill="url(#linearGradient-21)"></path>
                            <ellipse id="Oval-2" fill="#B9D5EC" cx="10" cy="6" rx="9" ry="6"></ellipse>
                            <path d="M3.29168048,10 C4.93964214,8.77250128 7.33450056,8 10,8 C12.6654994,8 15.0603579,8.77250128 16.7083195,10 C15.0603579,11.2274987 12.6654994,12 10,12 C7.33450056,12 4.93964214,11.2274987 3.29168048,10 Z" id="Oval-2-Copy" fill="#CBE3F9"></path>
                        </g>
                    </g>
                    <g id="icon/dashboard/analytics" transform="translate(480.000000, 100.000000)">
                        <g transform="translate(10.000000, 10.000000) scale(-1, 1) translate(-10.000000, -10.000000) ">
                            <rect id="Rectangle-14" fill="url(#linearGradient-21)" transform="translate(16.000000, 14.000000) scale(-1, 1) translate(-16.000000, -14.000000) " x="14" y="10" width="4" height="8"></rect>
                            <rect id="Rectangle-14-Copy-3" fill="url(#linearGradient-21)" transform="translate(12.000000, 12.000000) scale(-1, 1) translate(-12.000000, -12.000000) " x="10" y="6" width="4" height="12"></rect>
                            <rect id="Rectangle-14-Copy" fill="#B9D5EC" transform="translate(8.000000, 10.000000) scale(-1, 1) translate(-8.000000, -10.000000) " x="6" y="2" width="4" height="16"></rect>
                            <rect id="Rectangle-14-Copy-2" fill="#CBE3F9" transform="translate(4.000000, 12.000000) scale(-1, 1) translate(-4.000000, -12.000000) " x="2" y="6" width="4" height="12"></rect>
                        </g>
                    </g>
                    <g id="icon/dashboard/billing" transform="translate(310.000000, 250.000000)">
                        <g>
                            <polygon id="Rectangle-16-Copy-3" fill="#B9D5EC" points="7 20 18 0 6 15"></polygon>
                            <polygon id="Rectangle-16-Copy-4" fill="url(#linearGradient-32)" points="7 20 18 0 9 14"></polygon>
                            <polygon id="Rectangle-16" fill="#CBE3F9" points="18 0 17 17 9 14"></polygon>
                            <polygon id="Rectangle-16-Copy-2" fill="url(#linearGradient-33)" points="0 11 18 0 5 13"></polygon>
                        </g>
                    </g>
                    <g id="icon/dashboard/settings" transform="translate(409.000000, 250.000000)">
                        <g transform="translate(10.000000, 10.000000) scale(-1, 1) translate(-10.000000, -10.000000) " id="Combined-Shape">
                            <path d="M19.2783122,11.25 L15.7216878,17.410254 C15.2751058,18.1837567 14.4497883,18.660254 13.5566243,18.660254 L6.44337567,18.660254 C5.5502117,18.660254 4.72489415,18.1837567 4.27831216,17.410254 L0.721687836,11.25 C0.275105849,10.4764973 0.275105849,9.52350269 0.721687836,8.75 L4.27831216,2.58974596 C4.72489415,1.81624327 5.5502117,1.33974596 6.44337567,1.33974596 L13.5566243,1.33974596 C14.4497883,1.33974596 15.2751058,1.81624327 15.7216878,2.58974596 L19.2783122,8.75 C19.7248942,9.52350269 19.7248942,10.4764973 19.2783122,11.25 Z M10,14 C12.209139,14 14,12.209139 14,10 C14,7.790861 12.209139,6 10,6 C7.790861,6 6,7.790861 6,10 C6,12.209139 7.790861,14 10,14 Z" fill="url(#linearGradient-21)"></path>
                            <path d="M14.7529306,18.3554433 C14.3919337,18.5521885 13.9819725,18.660254 13.5566243,18.660254 L6.44337567,18.660254 C5.5502117,18.660254 4.72489415,18.1837567 4.27831216,17.410254 L0.721687836,11.25 C0.498396843,10.8632487 0.386751346,10.4316243 0.386751346,10 L6,10 C6,12.209139 7.790861,14 10,14 C10.7087538,14 11.3744539,13.8156655 11.9517736,13.4923234 L14.7529306,18.3554433 Z" fill="#B9D5EC"></path>
                            <path d="M5.01529801,18.2122396 C4.718486,18.0057135 4.46522596,17.7339982 4.27831216,17.410254 L0.721687836,11.25 C0.48670895,10.8430046 0.375369347,10.3863157 0.387669029,9.9322279 L6.00066101,9.92654029 C6.00022096,9.95097399 6,9.97546119 6,10 C6,11.4404914 6.7614425,12.7031383 7.90378649,13.4073998 L5.01529801,18.2122396 Z" fill="#CBE3F9"></path>
                        </g>
                    </g>
                    <g id="icon/dashboard/workspaces" transform="translate(480.000000, 190.000000)">
                        <g id="icon/dashboard/billing">
                            <path d="M1,2 L11,2 L11,18 L1,18 L1,2 Z M3,4 L3,6 L5,6 L5,4 L3,4 Z M7,4 L7,6 L9,6 L9,4 L7,4 Z M3,8 L3,10 L5,10 L5,8 L3,8 Z M7,8 L7,10 L9,10 L9,8 L7,8 Z" id="Combined-Shape" fill="url(#linearGradient-21)"></path>
                            <rect id="Rectangle-16-Copy" fill="#CBE3F9" x="13" y="6" width="6" height="12"></rect>
                            <polygon id="Rectangle-18" fill="#B9D5EC" points="14 7 18 7 14 11"></polygon>
                        </g>
                    </g>
                    <g id="logo/full-color" transform="translate(325.000000, 125.000000)">
                        <g transform="translate(0.010549, 0.000000)" id="Shape">
                            <path d="M76.3006678,14.7976879 C67.2000581,11.0115607 59.5439895,12.7456647 53.2457898,16.416185 C56.1059814,22.1387283 56.9149245,28.7572254 60.0929152,33.0924855 C64.3687573,38.9017341 72.2848432,43.6705202 78.3808072,43.583815 C83.350029,43.5260116 86.0657666,40.2890173 86.6146922,39.3930636 C86.643583,39.3641618 86.643583,39.3352601 86.6724739,39.3063584 C86.6724739,39.3063584 86.6724739,39.3063584 86.6724739,39.2774566 C87.1925087,38.3526012 87.5680894,37.3699422 87.7703252,36.2716763 C89.2437573,28.8150289 85.1412602,18.4682081 76.3006678,14.7976879 Z" fill="#FFDB18"></path>
                            <path d="M18.779036,42.0520231 C26.4928862,41.1560694 32.2132695,38.5549133 41.9783682,27.7745665 C45.300813,24.132948 48.2187863,19.3641618 53.2457898,16.416185 C50.0389082,10 45.5608304,4.04624277 36.402439,1.61849711 C24.7883275,-1.44508671 16.5544425,0.231213873 8.60946574,7.34104046 C3.06242741,12.3121387 1.06896051,18.0924855 0.548925668,20.3468208 C-0.895615563,26.6473988 1.50232288,32.4855491 3.66913473,36.2138728 C4.01582462,36.7919075 8.43612079,43.265896 18.779036,42.0520231 Z" fill="#1EC4E9"></path>
                            <path d="M62.0574913,49.2774566 C62.1730546,49.2774566 62.2886179,49.2485549 62.433072,49.2485549 C62.6353078,49.2196532 62.8086527,49.2196532 62.9819977,49.1907514 C66.5066783,48.8728324 69.8869048,48.4104046 72.8915505,47.716763 C73.0360046,47.6878613 73.1804588,47.6589595 73.3249129,47.6300578 C73.4115854,47.6011561 73.469367,47.6011561 73.5560395,47.5722543 C76.9940476,46.734104 79.7675668,45.5780347 81.9921603,44.1040462 C82.0210511,44.0751445 82.0788328,44.0462428 82.1077236,44.017341 C82.1943961,43.9595376 82.2521777,43.9017341 82.3388502,43.8439306 C82.3966318,43.8150289 82.4255226,43.7861272 82.4833043,43.7572254 C82.5988676,43.6705202 82.6855401,43.6127168 82.8011034,43.5260116 C82.8011034,43.5260116 82.8011034,43.5260116 82.8011034,43.5260116 C84.0434088,42.6011561 85.0834785,41.5606936 85.8635308,40.5202312 C85.8924216,40.4913295 85.9213124,40.4624277 85.9502033,40.4046243 C85.9790941,40.3757225 85.9790941,40.3468208 86.0079849,40.3179191 C86.2391115,40 86.4413473,39.6820809 86.643583,39.3352601 C86.0946574,40.2312139 83.8411731,42.7745665 78.8719512,42.8323699 C72.7759872,42.9190751 65.4088269,38.3526012 61.1329849,32.5144509 C57.9549942,28.1791908 56.1348722,22.0809249 53.2746806,16.3583815 C48.2765679,19.3063584 44.1162892,23.4682081 40.7938444,27.1387283 C31.0287456,37.8901734 25.9728513,40.3468208 18.2590012,41.2427746 C7.91608595,42.4566474 4.01582462,36.734104 3.66913473,36.1849711 C3.66913473,36.2138728 3.69802555,36.2138728 3.69802555,36.2427746 C3.9869338,36.734104 5.5181475,39.132948 7.91608595,41.416185 C9.04282811,42.4566474 10.1984611,43.3236994 11.2385308,44.017341 C15.8899535,46.849711 22.3326074,49.6242775 45.5608304,49.7398844 C51.8590302,49.7976879 57.3193961,49.6531792 62.0574913,49.2774566 Z" fill="#00BC98"></path>
                        </g>
                    </g>
                </g>
            </g>
        </g>
    </g>
</svg>