<?xml version="1.0" encoding="UTF-8"?>
<svg width="740px" height="300px" viewBox="0 0 740 300" version="1.1" xmlns="http://www.w3.org/2000/svg" xmlns:xlink="http://www.w3.org/1999/xlink">
    <!-- Generator: Sketch 51.3 (57544) - http://www.bohemiancoding.com/sketch -->
    <title>Rectangle Group</title>
    <desc>Created with Sketch.</desc>
    <defs>
        <rect id="path-1" x="0" y="0" width="260" height="120" rx="4"></rect>
        <filter x="-10.4%" y="-17.5%" width="120.8%" height="145.0%" filterUnits="objectBoundingBox" id="filter-3">
            <feMorphology radius="1" operator="dilate" in="SourceAlpha" result="shadowSpreadOuter1"></feMorphology>
            <feOffset dx="0" dy="4" in="shadowSpreadOuter1" result="shadowOffsetOuter1"></feOffset>
            <feGaussianBlur stdDeviation="6" in="shadowOffsetOuter1" result="shadowBlurOuter1"></feGaussianBlur>
            <feComposite in="shadowBlurOuter1" in2="SourceAlpha" operator="out" result="shadowBlurOuter1"></feComposite>
            <feColorMatrix values="0 0 0 0 0.25869511   0 0 0 0 0.461476445   0 0 0 0 0.570764243  0 0 0 0.100486866 0" type="matrix" in="shadowBlurOuter1" result="shadowMatrixOuter1"></feColorMatrix>
            <feMorphology radius="1" operator="dilate" in="SourceAlpha" result="shadowSpreadOuter2"></feMorphology>
            <feOffset dx="0" dy="2" in="shadowSpreadOuter2" result="shadowOffsetOuter2"></feOffset>
            <feGaussianBlur stdDeviation="3" in="shadowOffsetOuter2" result="shadowBlurOuter2"></feGaussianBlur>
            <feComposite in="shadowBlurOuter2" in2="SourceAlpha" operator="out" result="shadowBlurOuter2"></feComposite>
            <feColorMatrix values="0 0 0 0 0.25869511   0 0 0 0 0.461476445   0 0 0 0 0.570764243  0 0 0 0.0998358243 0" type="matrix" in="shadowBlurOuter2" result="shadowMatrixOuter2"></feColorMatrix>
            <feMerge>
                <feMergeNode in="shadowMatrixOuter1"></feMergeNode>
                <feMergeNode in="shadowMatrixOuter2"></feMergeNode>
            </feMerge>
        </filter>
        <rect id="path-4" x="0" y="0" width="20" height="20" rx="10"></rect>
    </defs>
    <g id="Workspaces" stroke="none" stroke-width="1" fill="none" fill-rule="evenodd">
        <g id="12---dashboard---workspaces---invite-successfully-accepted" transform="translate(-350.000000, -470.000000)">
            <g id="modal" transform="translate(350.000000, 320.000000)">
                <g id="Rectangle-Group" transform="translate(0.000000, 150.000000)">
                    <rect id="duplicate_24_Rectangle" fill="#FFDB18" opacity="0.800000012" transform="translate(214.464066, 116.464066) rotate(196.600000) translate(-214.464066, -116.464066) " x="208.464066" y="110.464066" width="12" height="12" rx="6"></rect>
                    <rect id="duplicate_24_Rectangle-Copy" fill="#FFDB18" opacity="0.600000024" transform="translate(424.464066, 236.464066) rotate(152.600006) translate(-424.464066, -236.464066) " x="418.464066" y="230.464066" width="12" height="12" rx="6"></rect>
                    <rect id="duplicate_23_Rectangle" fill="#1EC4E9" opacity="0.300000012" transform="translate(218.899389, 258.899389) rotate(189.400000) translate(-218.899389, -258.899389) " x="212.899389" y="252.899389" width="12" height="12" rx="6"></rect>
                    <rect id="duplicate_22_Rectangle" fill="#F46464" opacity="0.100000001" transform="translate(608.225904, 103.225904) rotate(182.200000) translate(-608.225904, -103.225904) " x="602.225904" y="97.2259044" width="12" height="12" rx="6"></rect>
                    <rect id="duplicate_21_Rectangle" fill="#7A68E8" opacity="0.800000012" transform="translate(546.500103, 196.500103) rotate(175.000000) translate(-546.500103, -196.500103) " x="540.500103" y="190.500103" width="12" height="12" rx="6"></rect>
                    <rect id="duplicate_21_Rectangle-Copy" fill="#7A68E8" opacity="0.200000003" transform="translate(406.500103, 266.500103) rotate(175.000000) translate(-406.500103, -266.500103) " x="400.500103" y="260.500103" width="12" height="12" rx="6"></rect>
                    <rect id="duplicate_20_Rectangle" fill="#7ACB53" opacity="0.300000012" transform="translate(553.132444, 133.132444) rotate(167.800000) translate(-553.132444, -133.132444) " x="547.132444" y="127.132444" width="12" height="12" rx="6"></rect>
                    <rect id="duplicate_20_Rectangle-Copy" fill="#7ACB53" transform="translate(433.132444, 233.132444) rotate(187.800003) translate(-433.132444, -233.132444) " x="427.132444" y="227.132444" width="12" height="12" rx="6"></rect>
                    <rect id="duplicate_19_Rectangle" fill="#4E82EE" opacity="0.100000001" transform="translate(512.652303, 278.652303) rotate(160.600000) translate(-512.652303, -278.652303) " x="506.652303" y="272.652303" width="12" height="12" rx="6"></rect>
                    <rect id="duplicate_18_Rectangle" fill="#FFDB18" opacity="0.400000006" transform="translate(315.051480, 47.051480) rotate(153.400000) translate(-315.051480, -47.051480) " x="309.05148" y="41.0514799" width="12" height="12" rx="6"></rect>
                    <rect id="duplicate_17_Rectangle" fill="#FF943C" opacity="0.100000001" transform="translate(584.323681, 245.323681) rotate(146.200000) translate(-584.323681, -245.323681) " x="578.323681" y="239.323681" width="12" height="12" rx="6"></rect>
                    <rect id="duplicate_17_Rectangle-Copy" fill="#FF943C" opacity="0.100000001" transform="translate(461.323681, 63.323681) rotate(146.200000) translate(-461.323681, -63.323681) " x="455.323681" y="57.3236805" width="12" height="12" rx="6"></rect>
                    <rect id="duplicate_16_Rectangle" fill="#F46464" opacity="0.100000001" transform="translate(220.464612, 168.464612) rotate(139.000000) translate(-220.464612, -168.464612) " x="214.464612" y="162.464612" width="12" height="12" rx="6"></rect>
                    <rect id="duplicate_15_Rectangle" fill="#4E82EE" opacity="0.100000001" transform="translate(593.472051, 191.472051) rotate(131.800000) translate(-593.472051, -191.472051) " x="587.472051" y="185.472051" width="12" height="12" rx="6"></rect>
                    <rect id="duplicate_14_Rectangle" fill="#F46464" opacity="0.600000024" transform="translate(214.345881, 94.345881) rotate(124.600000) translate(-214.345881, -94.345881) " x="208.345881" y="88.3458807" width="12" height="12" rx="6"></rect>
                    <rect id="duplicate_14_Rectangle-Copy" fill="#F46464" opacity="0.400000006" transform="translate(314.345881, 244.345881) rotate(124.600000) translate(-314.345881, -244.345881) " x="308.345881" y="238.345881" width="12" height="12" rx="6"></rect>
                    <rect id="duplicate_13_Rectangle" fill="#7A68E8" opacity="0.100000001" transform="translate(94.088091, 116.088091) rotate(117.400000) translate(-94.088091, -116.088091) " x="88.088091" y="110.088091" width="12" height="12" rx="6"></rect>
                    <rect id="duplicate_12_Rectangle" fill="#19BF7B" opacity="0.100000001" transform="translate(132.702747, 227.702747) rotate(110.200000) translate(-132.702747, -227.702747) " x="126.702747" y="221.702747" width="12" height="12" rx="6"></rect>
                    <rect id="duplicate_11_Rectangle" fill="#1EC4E9" opacity="0.300000012" transform="translate(447.195927, 72.195927) rotate(103.000000) translate(-447.195927, -72.195927) " x="441.195927" y="66.1959267" width="12" height="12" rx="6"></rect>
                    <rect id="duplicate_10_Rectangle" fill="#1EC4E9" opacity="0.300000012" transform="translate(174.575622, 80.575622) rotate(95.800000) translate(-174.575622, -80.575622) " x="168.575622" y="74.575622" width="12" height="12" rx="6"></rect>
                    <rect id="duplicate_9_Rectangle" fill="#19BF7B" opacity="0.200000003" transform="translate(632.144802, 215.144802) rotate(88.600000) translate(-632.144802, -215.144802) " x="626.144802" y="209.144802" width="12" height="12" rx="6"></rect>
                    <rect id="duplicate_8_Rectangle" fill="#7ACB53" opacity="0.100000001" transform="translate(405.829750, 31.829750) rotate(81.400000) translate(-405.829750, -31.829750) " x="399.82975" y="25.8297503" width="12" height="12" rx="6"></rect>
                    <rect id="duplicate_7_Rectangle" fill="#7ACB53" opacity="0.600000024" transform="translate(147.406989, 147.406989) rotate(74.200000) translate(-147.406989, -147.406989) " x="141.406989" y="141.406989" width="12" height="12" rx="6"></rect>
                    <rect id="duplicate_6_Rectangle" fill="#FF943C" opacity="0.300000012" transform="translate(139.867416, 139.867416) rotate(67.000000) translate(-139.867416, -139.867416) " x="133.867416" y="133.867416" width="12" height="12" rx="6"></rect>
                    <rect id="duplicate_5_Rectangle" fill="#19BF7B" opacity="0.600000024" transform="translate(545.203768, 71.203768) rotate(59.800000) translate(-545.203768, -71.203768) " x="539.203768" y="65.2037685" width="12" height="12" rx="6"></rect>
                    <rect id="duplicate_5_Rectangle-Copy" fill="#19BF7B" opacity="0.600000024" transform="translate(365.203768, 221.203768) rotate(11.799999) translate(-365.203768, -221.203768) " x="359.203768" y="215.203768" width="12" height="12" rx="6"></rect>
                    <rect id="duplicate_4_Rectangle" fill="#7A68E8" opacity="0.800000012" transform="translate(237.410743, 173.410743) rotate(52.600000) translate(-237.410743, -173.410743) " x="231.410743" y="167.410743" width="12" height="12" rx="6"></rect>
                    <rect id="duplicate_3_Rectangle" fill="#F46464" opacity="0.600000024" transform="translate(548.485075, 203.485075) rotate(45.400000) translate(-548.485075, -203.485075) " x="542.485075" y="197.485075" width="12" height="12" rx="6"></rect>
                    <rect id="duplicate_2_Rectangle" fill="#FF943C" opacity="0.600000024" transform="translate(187.425592, 220.425592) rotate(38.200000) translate(-187.425592, -220.425592) " x="181.425592" y="214.425592" width="12" height="12" rx="6"></rect>
                    <rect id="duplicate_1_Rectangle" fill="#1EC4E9" opacity="0.800000012" transform="translate(523.233232, 121.233232) rotate(31.000000) translate(-523.233232, -121.233232) " x="517.233232" y="115.233232" width="12" height="12" rx="6"></rect>
                    <g id="Group-5" transform="translate(369.634150, 161.480827) rotate(6.000000) translate(-369.634150, -161.480827) translate(239.634150, 72.980827)">
                        <g id="dropdown/small/labeld/regular" transform="translate(0.000000, -0.000000)">
                            <rect id="base" stroke="#CBE3F9" stroke-width="2" fill="#FFFFFF" x="1" y="18" width="258" height="38" rx="4"></rect>
                            <rect id="base-copy" fill="#EFF2F7" x="20.07" y="34" width="142.93" height="8" rx="4"></rect>
                            <polygon id="Rectangle-6" fill="#B9D5EC" points="234 34 246 34 240 42"></polygon>
                            <path d="M13.832,0.41 C13.8693335,0.28866606 13.9346662,0.19766697 14.028,0.137 C14.1213338,0.07633303 14.2239994,0.046 14.336,0.046 C14.4853341,0.046 14.6136661,0.09033289 14.721,0.179 C14.8283339,0.26766711 14.882,0.38666592 14.882,0.536 C14.882,0.60133366 14.8680001,0.67599958 14.84,0.76 L11.676,9.678 C11.6293331,9.80866732 11.5500006,9.90899965 11.438,9.979 C11.3259994,10.0490003 11.2000007,10.084 11.06,10.084 C10.9293327,10.084 10.8080006,10.0490003 10.696,9.979 C10.5839994,9.90899965 10.5046669,9.80866732 10.458,9.678 L7.714,1.922 L4.942,9.678 C4.8953331,9.80866732 4.81600056,9.90899965 4.704,9.979 C4.59199944,10.0490003 4.47066732,10.084 4.34,10.084 C4.20933268,10.084 4.08800056,10.0490003 3.976,9.979 C3.86399944,9.90899965 3.7846669,9.80866732 3.738,9.678 L0.56,0.76 C0.53199986,0.68533296 0.518,0.61533366 0.518,0.55 C0.518,0.40066592 0.57633275,0.2793338 0.693,0.186 C0.80966725,0.0926662 0.94266592,0.046 1.092,0.046 C1.20400056,0.046 1.30899951,0.07633303 1.407,0.137 C1.50500049,0.19766697 1.57266648,0.28866606 1.61,0.41 L4.368,8.362 L7.168,0.494 C7.2146669,0.3539993 7.28933282,0.24900035 7.392,0.179 C7.49466718,0.10899965 7.60666606,0.074 7.728,0.074 C7.84933394,0.074 7.96133282,0.11133296 8.064,0.186 C8.16666718,0.26066704 8.2413331,0.3679993 8.288,0.508 L11.046,8.39 L13.832,0.41 Z M20.762,10.112 C19.8473288,10.112 19.05167,9.90666872 18.375,9.496 C17.69833,9.08533128 17.1780018,8.50200378 16.814,7.746 C16.4499982,6.98999622 16.268,6.0986718 16.268,5.072 C16.268,4.03599482 16.4476649,3.13767047 16.807,2.377 C17.1663351,1.61632953 17.68433,1.03300203 18.361,0.627 C19.0376701,0.22099797 19.8379954,0.018 20.762,0.018 C21.6860046,0.018 22.4863299,0.22099797 23.163,0.627 C23.83967,1.03300203 24.3576649,1.61632953 24.717,2.377 C25.0763351,3.13767047 25.256,4.0313282 25.256,5.058 C25.256,6.0846718 25.0740018,6.97832953 24.71,7.739 C24.3459982,8.49967047 23.8256701,9.08533128 23.149,9.496 C22.4723299,9.90666872 21.6766712,10.112 20.762,10.112 Z M20.762,9.132 C21.8073386,9.132 22.6216637,8.77967019 23.205,8.075 C23.7883363,7.37032981 24.08,6.3646732 24.08,5.058 C24.08,3.7513268 23.7906696,2.7480035 23.212,2.048 C22.6333304,1.3479965 21.8166719,0.998 20.762,0.998 C19.7166614,0.998 18.9023363,1.35032981 18.319,2.055 C17.7356638,2.75967019 17.444,3.76066018 17.444,5.058 C17.444,6.35533982 17.7356638,7.35866312 18.319,8.068 C18.9023363,8.77733688 19.7166614,9.132 20.762,9.132 Z M34.86,9.286 C34.9253337,9.38866718 34.958,9.49599944 34.958,9.608 C34.958,9.7480007 34.9043339,9.86233289 34.797,9.951 C34.6896661,10.0396671 34.5660007,10.084 34.426,10.084 C34.2113323,10.084 34.0433339,9.9906676 33.922,9.804 L32.046,6.836 C31.8033321,6.45333142 31.5513346,6.18966739 31.29,6.045 C31.0286654,5.90033261 30.6740022,5.828 30.226,5.828 L28.462,5.828 L28.462,9.482 C28.462,9.65933422 28.4106672,9.80166613 28.308,9.909 C28.2053328,10.0163339 28.0700008,10.07 27.902,10.07 C27.7246658,10.07 27.5846672,10.0163339 27.482,9.909 C27.3793328,9.80166613 27.328,9.65933422 27.328,9.482 L27.328,0.69 C27.328,0.52199916 27.3816661,0.38666718 27.489,0.284 C27.5963339,0.18133282 27.7386658,0.13 27.916,0.13 L31.388,0.13 C32.4613387,0.13 33.2803305,0.36799762 33.845,0.844 C34.4096695,1.32000238 34.692,2.01999538 34.692,2.944 C34.692,3.72800392 34.4656689,4.35799762 34.013,4.834 C33.5603311,5.31000238 32.9140042,5.59933282 32.074,5.702 C32.3073345,5.77666704 32.5173324,5.89799916 32.704,6.066 C32.8906676,6.23400084 33.0773324,6.46733184 33.264,6.766 L34.86,9.286 Z M31.29,4.876 C32.0553372,4.876 32.6269981,4.71733492 33.005,4.4 C33.3830019,4.08266508 33.572,3.60200322 33.572,2.958 C33.572,2.32333016 33.3853352,1.85200154 33.012,1.544 C32.6386648,1.23599846 32.0646705,1.082 31.29,1.082 L28.462,1.082 L28.462,4.876 L31.29,4.876 Z M44.03,9.132 C44.1606673,9.25333394 44.226,9.38866592 44.226,9.538 C44.226,9.66866732 44.1723339,9.78766613 44.065,9.895 C43.9576661,10.0023339 43.8340007,10.056 43.694,10.056 C43.5726661,10.056 43.4466673,10.0000006 43.316,9.888 L38.08,5.31 L38.08,9.482 C38.08,9.65933422 38.0286672,9.80166613 37.926,9.909 C37.8233328,10.0163339 37.6833342,10.07 37.506,10.07 C37.3286658,10.07 37.1886672,10.0163339 37.086,9.909 C36.9833328,9.80166613 36.932,9.65933422 36.932,9.482 L36.932,0.648 C36.932,0.47066578 36.9833328,0.32833387 37.086,0.221 C37.1886672,0.11366613 37.3286658,0.06 37.506,0.06 C37.6833342,0.06 37.8233328,0.11366613 37.926,0.221 C38.0286672,0.32833387 38.08,0.47066578 38.08,0.648 L38.08,4.666 L43.078,0.228 C43.1806672,0.12533282 43.3019993,0.074 43.442,0.074 C43.5820007,0.074 43.7033328,0.12766613 43.806,0.235 C43.9086672,0.34233387 43.96,0.46133268 43.96,0.592 C43.96,0.7320007 43.8993339,0.86266606 43.778,0.984 L39.256,4.96 L44.03,9.132 Z M48.874,10.112 C48.1739965,10.112 47.5043365,10.007001 46.865,9.797 C46.2256635,9.58699895 45.7146686,9.30466844 45.332,8.95 C45.1919993,8.81933268 45.122,8.65600098 45.122,8.46 C45.122,8.32933268 45.159333,8.21500049 45.234,8.117 C45.308667,8.01899951 45.3973328,7.97 45.5,7.97 C45.6213339,7.97 45.7519993,8.02133282 45.892,8.124 C46.7600043,8.79600336 47.7493278,9.132 48.86,9.132 C49.6626707,9.132 50.2786645,8.97800154 50.708,8.67 C51.1373355,8.36199846 51.352,7.92333618 51.352,7.354 C51.352,7.0273317 51.2493344,6.76366767 51.044,6.563 C50.8386656,6.36233233 50.5680017,6.20133394 50.232,6.08 C49.8959983,5.95866606 49.4433362,5.83266732 48.874,5.702 C48.1086628,5.52466578 47.4810024,5.33800098 46.991,5.142 C46.5009976,4.94599902 46.1043349,4.66600182 45.801,4.302 C45.4976652,3.93799818 45.346,3.46200294 45.346,2.874 C45.346,2.3139972 45.4976652,1.81700217 45.801,1.383 C46.1043349,0.94899783 46.5289973,0.61300119 47.075,0.375 C47.6210027,0.13699881 48.2439965,0.018 48.944,0.018 C49.5973366,0.018 50.2063305,0.11833233 50.771,0.319 C51.3356695,0.51966767 51.8093314,0.8066648 52.192,1.18 C52.3413341,1.32933408 52.416,1.49266578 52.416,1.67 C52.416,1.80066732 52.378667,1.91499951 52.304,2.013 C52.229333,2.11100049 52.1406672,2.16 52.038,2.16 C51.9353328,2.16 51.8000008,2.10866718 51.632,2.006 C51.1746644,1.6326648 50.750002,1.37133408 50.358,1.222 C49.965998,1.07266592 49.4946694,0.998 48.944,0.998 C48.1693295,0.998 47.5673355,1.15899839 47.138,1.481 C46.7086645,1.80300161 46.494,2.25333044 46.494,2.832 C46.494,3.32666914 46.6829981,3.69766543 47.061,3.945 C47.4390019,4.19233457 48.0199961,4.4093324 48.804,4.596 C49.6533376,4.80133436 50.3206642,4.99033247 50.806,5.163 C51.2913358,5.33566753 51.6949984,5.59466494 52.017,5.94 C52.3390016,6.28533506 52.5,6.74733044 52.5,7.326 C52.5,7.87666942 52.3483349,8.3619979 52.045,8.782 C51.7416652,9.2020021 51.3146694,9.5286655 50.764,9.762 C50.2133306,9.9953345 49.5833369,10.112 48.874,10.112 Z M54.936,10.07 C54.7586658,10.07 54.6186672,10.0163339 54.516,9.909 C54.4133328,9.80166613 54.362,9.65933422 54.362,9.482 L54.362,0.69 C54.362,0.52199916 54.4156661,0.38666718 54.523,0.284 C54.6303339,0.18133282 54.7726658,0.13 54.95,0.13 L58.268,0.13 C59.3040052,0.13 60.1089971,0.38199748 60.683,0.886 C61.2570029,1.39000252 61.544,2.10399538 61.544,3.028 C61.544,3.95200462 61.2546696,4.6706641 60.676,5.184 C60.0973304,5.6973359 59.2946718,5.954 58.268,5.954 L55.51,5.954 L55.51,9.482 C55.51,9.65933422 55.4586672,9.80166613 55.356,9.909 C55.2533328,10.0163339 55.1133342,10.07 54.936,10.07 Z M58.156,5.002 C59.6586742,5.002 60.41,4.34400658 60.41,3.028 C60.41,1.73066018 59.6586742,1.082 58.156,1.082 L55.51,1.082 L55.51,5.002 L58.156,5.002 Z M71.89,9.342 C71.9273335,9.41666704 71.946,9.49599958 71.946,9.58 C71.946,9.7200007 71.8923339,9.8366662 71.785,9.93 C71.6776661,10.0233338 71.5493341,10.07 71.4,10.07 C71.1666655,10.07 71.0033338,9.95800112 70.91,9.734 L69.916,7.466 L64.638,7.466 L63.63,9.734 C63.5366662,9.95800112 63.3733345,10.07 63.14,10.07 C62.9906659,10.07 62.8600006,10.0210005 62.748,9.923 C62.6359994,9.82499951 62.58,9.7060007 62.58,9.566 C62.58,9.49133296 62.5986665,9.41666704 62.636,9.342 L66.64,0.438 C66.6960003,0.30733268 66.7799994,0.20933366 66.892,0.144 C67.0040006,0.07866634 67.1253327,0.046 67.256,0.046 C67.3960007,0.046 67.5219994,0.08099965 67.634,0.151 C67.7460006,0.22100035 67.8299997,0.31666606 67.886,0.438 L71.89,9.342 Z M65.058,6.514 L69.496,6.514 L67.27,1.488 L65.058,6.514 Z M77.756,10.112 C76.822662,10.112 76.0153367,9.90900203 75.334,9.503 C74.6526633,9.09699797 74.1276685,8.51367047 73.759,7.753 C73.3903315,6.99232953 73.206,6.09400518 73.206,5.058 C73.206,4.0313282 73.3903315,3.13767047 73.759,2.377 C74.1276685,1.61632953 74.6526633,1.03300203 75.334,0.627 C76.0153367,0.22099797 76.822662,0.018 77.756,0.018 C78.3813365,0.018 78.9716639,0.11833233 79.527,0.319 C80.0823361,0.51966767 80.5653313,0.8066648 80.976,1.18 C81.1253341,1.3200007 81.2,1.4833324 81.2,1.67 C81.2,1.80066732 81.162667,1.91499951 81.088,2.013 C81.013333,2.11100049 80.9246672,2.16 80.822,2.16 C80.7099994,2.16 80.5746675,2.10866718 80.416,2.006 C79.9399976,1.6326648 79.5083353,1.37133408 79.121,1.222 C78.7336647,1.07266592 78.2880025,0.998 77.784,0.998 C76.7013279,0.998 75.8683363,1.35032981 75.285,2.055 C74.7016637,2.75967019 74.41,3.76066018 74.41,5.058 C74.41,6.3646732 74.7016637,7.37032981 75.285,8.075 C75.8683363,8.77967019 76.7013279,9.132 77.784,9.132 C78.2786691,9.132 78.721998,9.05733408 79.114,8.908 C79.506002,8.75866592 79.9399976,8.4973352 80.416,8.124 C80.5746675,8.02133282 80.7099994,7.97 80.822,7.97 C80.9246672,7.97 81.013333,8.0166662 81.088,8.11 C81.162667,8.2033338 81.2,8.3199993 81.2,8.46 C81.2,8.6466676 81.1253341,8.8099993 80.976,8.95 C80.5653313,9.3233352 80.0823361,9.61033233 79.527,9.811 C78.9716639,10.0116677 78.3813365,10.112 77.756,10.112 Z M83.636,10 C83.4586658,10 83.3163339,9.94866718 83.209,9.846 C83.1016661,9.74333282 83.048,9.60800084 83.048,9.44 L83.048,0.69 C83.048,0.52199916 83.1016661,0.38666718 83.209,0.284 C83.3163339,0.18133282 83.4586658,0.13 83.636,0.13 L88.872,0.13 C89.0400008,0.13 89.1706662,0.17199958 89.264,0.256 C89.3573338,0.34000042 89.404,0.45666592 89.404,0.606 C89.404,0.75533408 89.3573338,0.87199958 89.264,0.956 C89.1706662,1.04000042 89.0400008,1.082 88.872,1.082 L84.182,1.082 L84.182,4.512 L88.592,4.512 C88.7600008,4.512 88.8906662,4.55399958 88.984,4.638 C89.0773338,4.72200042 89.124,4.83866592 89.124,4.988 C89.124,5.13733408 89.0773338,5.25399958 88.984,5.338 C88.8906662,5.42200042 88.7600008,5.464 88.592,5.464 L84.182,5.464 L84.182,9.048 L88.872,9.048 C89.0400008,9.048 89.1706662,9.08766627 89.264,9.167 C89.3573338,9.24633373 89.404,9.36533254 89.404,9.524 C89.404,9.67333408 89.3573338,9.78999958 89.264,9.874 C89.1706662,9.95800042 89.0400008,10 88.872,10 L83.636,10 Z" id="DROPDOWN-MENU-Copy" fill="#427692"></path>
                        </g>
                        <g id="search-dropdown-options" transform="translate(0.000000, 57.000000)">
                            <mask id="mask-2" fill="white">
                                <use xlink:href="#path-1"></use>
                            </mask>
                            <g id="base">
                                <use fill="black" fill-opacity="1" filter="url(#filter-3)" xlink:href="#path-1"></use>
                                <rect stroke-opacity="0.0985337409" stroke="#427692" stroke-width="1" fill="#FFFFFF" fill-rule="evenodd" x="-0.5" y="-0.5" width="261" height="121" rx="4"></rect>
                            </g>
                            <rect id="highlight" fill="#1EC4E9" mask="url(#mask-2)" x="0" y="40" width="260" height="40"></rect>
                            <g id="Group-4" mask="url(#mask-2)" fill="#245B70">
                                <g transform="translate(20.000000, 8.000000)" id="Personal-Workspace-Copy">
                                    <path d="M1.96,17.084 C1.68933198,17.084 1.47233415,17.0023341 1.309,16.839 C1.14566585,16.6756659 1.064,16.4540014 1.064,16.174 L1.064,7.984 C1.064,7.71333198 1.14099923,7.50333408 1.295,7.354 C1.44900077,7.20466592 1.66133198,7.13 1.932,7.13 L5.376,7.13 C6.43067194,7.13 7.25199706,7.39366403 7.84,7.921 C8.42800294,8.44833597 8.722,9.18799524 8.722,10.14 C8.722,11.0920048 8.42800294,11.8339973 7.84,12.366 C7.25199706,12.8980027 6.43067194,13.164 5.376,13.164 L2.87,13.164 L2.87,16.174 C2.87,16.4540014 2.78833415,16.6756659 2.625,16.839 C2.46166585,17.0023341 2.2400014,17.084 1.96,17.084 Z M5.152,11.778 C6.39333954,11.778 7.014,11.2366721 7.014,10.154 C7.014,9.07132792 6.39333954,8.53 5.152,8.53 L2.87,8.53 L2.87,11.778 L5.152,11.778 Z M15.568,15.124 C15.7266675,15.124 15.8549995,15.1846661 15.953,15.306 C16.0510005,15.4273339 16.1,15.5906656 16.1,15.796 C16.1,16.0853348 15.9273351,16.327999 15.582,16.524 C15.2646651,16.7013342 14.9053353,16.8436661 14.504,16.951 C14.1026647,17.0583339 13.7200018,17.112 13.356,17.112 C12.2546612,17.112 11.3820032,16.7946698 10.738,16.16 C10.0939968,15.5253302 9.772,14.6573388 9.772,13.556 C9.772,12.8559965 9.9119986,12.235336 10.192,11.694 C10.4720014,11.152664 10.8663308,10.7326682 11.375,10.434 C11.8836692,10.1353318 12.4599968,9.986 13.104,9.986 C13.7200031,9.986 14.2566644,10.121332 14.714,10.392 C15.1713356,10.662668 15.5259987,11.0453309 15.778,11.54 C16.0300013,12.0346691 16.156,12.6179966 16.156,13.29 C16.156,13.6913353 15.9786684,13.892 15.624,13.892 L11.494,13.892 C11.5500003,14.5360032 11.7319985,15.0096652 12.04,15.313 C12.3480015,15.6163349 12.7959971,15.768 13.384,15.768 C13.6826682,15.768 13.9463322,15.730667 14.175,15.656 C14.4036678,15.581333 14.6626652,15.4786673 14.952,15.348 C15.2320014,15.1986659 15.4373327,15.124 15.568,15.124 Z M13.146,11.218 C12.6699976,11.218 12.2896681,11.3673318 12.005,11.666 C11.7203319,11.9646682 11.5500003,12.3939972 11.494,12.954 L14.658,12.954 C14.6393332,12.3846638 14.4993346,11.9530015 14.238,11.659 C13.9766654,11.3649985 13.612669,11.218 13.146,11.218 Z M21.406,10.014 C21.6486679,9.99533324 21.8399993,10.0466661 21.98,10.168 C22.1200007,10.2893339 22.19,10.4713321 22.19,10.714 C22.19,10.9660013 22.1293339,11.1526661 22.008,11.274 C21.8866661,11.3953339 21.6673349,11.4746665 21.35,11.512 L20.93,11.554 C20.3793306,11.6100003 19.975668,11.7966651 19.719,12.114 C19.4623321,12.4313349 19.334,12.8279976 19.334,13.304 L19.334,16.244 C19.334,16.514668 19.2500008,16.7223326 19.082,16.867 C18.9139992,17.0116674 18.7040013,17.084 18.452,17.084 C18.1999987,17.084 17.9923342,17.0116674 17.829,16.867 C17.6656659,16.7223326 17.584,16.514668 17.584,16.244 L17.584,10.826 C17.584,10.5646654 17.6656659,10.3640007 17.829,10.224 C17.9923342,10.0839993 18.1953321,10.014 18.438,10.014 C18.6806679,10.014 18.8766659,10.081666 19.026,10.217 C19.1753341,10.352334 19.25,10.5459987 19.25,10.798 L19.25,11.358 C19.4273342,10.9473313 19.6909983,10.6300011 20.041,10.406 C20.3910018,10.1819989 20.7806645,10.0560001 21.21,10.028 L21.406,10.014 Z M25.424,17.112 C24.4066616,17.112 23.5853365,16.9113353 22.96,16.51 C22.6613318,16.3326658 22.512,16.0806683 22.512,15.754 C22.512,15.5673324 22.5633328,15.4156673 22.666,15.299 C22.7686672,15.1823328 22.8946659,15.124 23.044,15.124 C23.2026675,15.124 23.4219986,15.1986659 23.702,15.348 C24.0006682,15.4880007 24.2736654,15.595333 24.521,15.67 C24.7683346,15.744667 25.0833314,15.782 25.466,15.782 C25.858002,15.782 26.1636656,15.7166673 26.383,15.586 C26.6023344,15.4553327 26.712,15.2733345 26.712,15.04 C26.712,14.8813325 26.6676671,14.7553338 26.579,14.662 C26.4903329,14.5686662 26.3316678,14.4823337 26.103,14.403 C25.8743322,14.3236663 25.526669,14.2326672 25.06,14.13 C24.2293292,13.9619992 23.6343351,13.7240015 23.275,13.416 C22.9156649,13.1079985 22.736,12.683336 22.736,12.142 C22.736,11.7313313 22.8573321,11.360335 23.1,11.029 C23.3426679,10.697665 23.6763312,10.4410009 24.101,10.259 C24.5256688,10.0769991 25.008664,9.986 25.55,9.986 C25.942002,9.986 26.3199982,10.0349995 26.684,10.133 C27.0480018,10.2310005 27.3746652,10.3733324 27.664,10.56 C27.9626682,10.7466676 28.112,10.9939985 28.112,11.302 C28.112,11.4886676 28.0606672,11.6449994 27.958,11.771 C27.8553328,11.8970006 27.7293341,11.96 27.58,11.96 C27.4773328,11.96 27.3770005,11.9390002 27.279,11.897 C27.1809995,11.8549998 27.0573341,11.7920004 26.908,11.708 C26.637332,11.5679993 26.404001,11.4630004 26.208,11.393 C26.011999,11.3229996 25.7693348,11.288 25.48,11.288 C25.1346649,11.288 24.8616677,11.3579993 24.661,11.498 C24.4603323,11.6380007 24.36,11.8293321 24.36,12.072 C24.36,12.3053345 24.4626656,12.4826661 24.668,12.604 C24.8733344,12.7253339 25.2699971,12.8466661 25.858,12.968 C26.4833365,13.0986673 26.9733316,13.2479992 27.328,13.416 C27.6826684,13.5840008 27.9369992,13.7939987 28.091,14.046 C28.2450008,14.2980013 28.322,14.619998 28.322,15.012 C28.322,15.6466698 28.058336,16.1553314 27.531,16.538 C27.003664,16.9206686 26.3013377,17.112 25.424,17.112 Z M32.858,17.112 C32.1579965,17.112 31.544336,16.9673348 31.017,16.678 C30.489664,16.3886652 30.0813348,15.973336 29.792,15.432 C29.5026652,14.890664 29.358,14.2606703 29.358,13.542 C29.358,12.8233297 29.5026652,12.1956693 29.792,11.659 C30.0813348,11.1223307 30.489664,10.7093348 31.017,10.42 C31.544336,10.1306652 32.1579965,9.986 32.858,9.986 C33.5580035,9.986 34.171664,10.1306652 34.699,10.42 C35.226336,10.7093348 35.6323319,11.1223307 35.917,11.659 C36.2016681,12.1956693 36.344,12.8233297 36.344,13.542 C36.344,14.2606703 36.2016681,14.890664 35.917,15.432 C35.6323319,15.973336 35.226336,16.3886652 34.699,16.678 C34.171664,16.9673348 33.5580035,17.112 32.858,17.112 Z M32.844,15.754 C33.4133362,15.754 33.8473318,15.5673352 34.146,15.194 C34.4446682,14.8206648 34.594,14.2700036 34.594,13.542 C34.594,12.8233297 34.4446682,12.2750019 34.146,11.897 C33.8473318,11.5189981 33.4180028,11.33 32.858,11.33 C32.2979972,11.33 31.8663349,11.5189981 31.563,11.897 C31.2596652,12.2750019 31.108,12.8233297 31.108,13.542 C31.108,14.2700036 31.2573318,14.8206648 31.556,15.194 C31.8546682,15.5673352 32.2839972,15.754 32.844,15.754 Z M41.762,9.986 C42.5833374,9.986 43.1946647,10.219331 43.596,10.686 C43.9973353,11.152669 44.198,11.8573286 44.198,12.8 L44.198,16.244 C44.198,16.5053346 44.1210008,16.7106659 43.967,16.86 C43.8129992,17.0093341 43.600668,17.084 43.33,17.084 C43.059332,17.084 42.8446675,17.0093341 42.686,16.86 C42.5273325,16.7106659 42.448,16.5053346 42.448,16.244 L42.448,12.898 C42.448,12.3659973 42.3476677,11.9786679 42.147,11.736 C41.9463323,11.4933321 41.6313355,11.372 41.202,11.372 C40.6979975,11.372 40.2943349,11.5306651 39.991,11.848 C39.6876652,12.1653349 39.536,12.5899973 39.536,13.122 L39.536,16.244 C39.536,16.5053346 39.4566675,16.7106659 39.298,16.86 C39.1393325,17.0093341 38.924668,17.084 38.654,17.084 C38.383332,17.084 38.1710008,17.0093341 38.017,16.86 C37.8629992,16.7106659 37.786,16.5053346 37.786,16.244 L37.786,10.826 C37.786,10.5833321 37.8653325,10.3873341 38.024,10.238 C38.1826675,10.0886659 38.397332,10.014 38.668,10.014 C38.9106679,10.014 39.1089992,10.0863326 39.263,10.231 C39.4170008,10.3756674 39.494,10.5646655 39.494,10.798 L39.494,11.176 C39.7273345,10.7933314 40.039998,10.4993344 40.432,10.294 C40.824002,10.0886656 41.2673309,9.986 41.762,9.986 Z M48.944,9.986 C49.8960048,9.986 50.6029977,10.2216643 51.065,10.693 C51.5270023,11.1643357 51.758,11.8806619 51.758,12.842 L51.758,16.258 C51.758,16.5100013 51.6833341,16.7083326 51.534,16.853 C51.3846659,16.9976674 51.1793346,17.07 50.918,17.07 C50.6753321,17.07 50.4770008,16.9953341 50.323,16.846 C50.1689992,16.6966659 50.092,16.5006679 50.092,16.258 L50.092,15.95 C49.9333325,16.3140018 49.6836684,16.5986656 49.343,16.804 C49.0023316,17.0093344 48.6080022,17.112 48.16,17.112 C47.7026644,17.112 47.2873352,17.0186676 46.914,16.832 C46.5406648,16.6453324 46.2466677,16.3886683 46.032,16.062 C45.8173323,15.7353317 45.71,15.3713353 45.71,14.97 C45.71,14.4659975 45.8383321,14.0693348 46.095,13.78 C46.351668,13.4906652 46.7693304,13.2806673 47.348,13.15 C47.9266696,13.0193327 48.7246616,12.954 49.742,12.954 L50.092,12.954 L50.092,12.632 C50.092,12.1746644 49.994001,11.841001 49.798,11.631 C49.601999,11.4209989 49.2846689,11.316 48.846,11.316 C48.575332,11.316 48.3000014,11.3556663 48.02,11.435 C47.7399986,11.5143337 47.4086686,11.6286659 47.026,11.778 C46.7833321,11.8993339 46.6060006,11.96 46.494,11.96 C46.3259992,11.96 46.1883339,11.8993339 46.081,11.778 C45.9736661,11.6566661 45.92,11.498001 45.92,11.302 C45.92,11.1433325 45.9596663,11.0056673 46.039,10.889 C46.1183337,10.7723327 46.2513324,10.6626672 46.438,10.56 C46.7646683,10.3826658 47.1543311,10.2426672 47.607,10.14 C48.0596689,10.0373328 48.5053311,9.986 48.944,9.986 Z M48.51,15.852 C48.976669,15.852 49.3569985,15.6956682 49.651,15.383 C49.9450015,15.0703318 50.092,14.6666691 50.092,14.172 L50.092,13.878 L49.84,13.878 C49.2146635,13.878 48.7293351,13.9059997 48.384,13.962 C48.0386649,14.0180003 47.7913341,14.1159993 47.642,14.256 C47.4926659,14.3960007 47.418,14.5873321 47.418,14.83 C47.418,15.1286682 47.5229989,15.3736657 47.733,15.565 C47.943001,15.7563343 48.2019985,15.852 48.51,15.852 Z M54.404,17.084 C54.1519987,17.084 53.9443342,17.0116674 53.781,16.867 C53.6176659,16.7223326 53.536,16.514668 53.536,16.244 L53.536,7.886 C53.536,7.61533198 53.6176659,7.4100007 53.781,7.27 C53.9443342,7.1299993 54.1519987,7.06 54.404,7.06 C54.6560013,7.06 54.8659992,7.1299993 55.034,7.27 C55.2020008,7.4100007 55.286,7.61533198 55.286,7.886 L55.286,16.244 C55.286,16.514668 55.2020008,16.7223326 55.034,16.867 C54.8659992,17.0116674 54.6560013,17.084 54.404,17.084 Z M73.416,7.606 C73.4813337,7.4193324 73.5863326,7.2793338 73.731,7.186 C73.8756674,7.0926662 74.0366658,7.046 74.214,7.046 C74.4380011,7.046 74.6316659,7.1159993 74.795,7.256 C74.9583342,7.3960007 75.04,7.5826655 75.04,7.816 C75.04,7.90000042 75.0166669,8.02133254 74.97,8.18 L71.96,16.51 C71.885333,16.6966676 71.7616675,16.8413328 71.589,16.944 C71.4163325,17.0466672 71.2273344,17.098 71.022,17.098 C70.8166656,17.098 70.6253342,17.0466672 70.448,16.944 C70.2706658,16.8413328 70.1493337,16.6966676 70.084,16.51 L67.76,9.916 L65.394,16.51 C65.319333,16.6966676 65.1956675,16.8413328 65.023,16.944 C64.8503325,17.0466672 64.6613344,17.098 64.456,17.098 C64.2506656,17.098 64.0616675,17.0466672 63.889,16.944 C63.7163325,16.8413328 63.5973337,16.6966676 63.532,16.51 L60.522,8.18 C60.4753331,8.0399993 60.452,7.91866718 60.452,7.816 C60.452,7.5826655 60.5383325,7.3960007 60.711,7.256 C60.8836675,7.1159993 61.0866655,7.046 61.32,7.046 C61.5066676,7.046 61.6746659,7.0926662 61.824,7.186 C61.9733341,7.2793338 62.0806663,7.4193324 62.146,7.606 L64.526,14.452 L66.976,7.648 C67.0413337,7.4613324 67.1486659,7.31433387 67.298,7.207 C67.4473341,7.09966613 67.6106658,7.046 67.788,7.046 C67.9653342,7.046 68.1309992,7.09966613 68.285,7.207 C68.4390008,7.31433387 68.5486663,7.46599902 68.614,7.662 L70.994,14.536 L73.416,7.606 Z M79.548,17.112 C78.8479965,17.112 78.234336,16.9673348 77.707,16.678 C77.179664,16.3886652 76.7713348,15.973336 76.482,15.432 C76.1926652,14.890664 76.048,14.2606703 76.048,13.542 C76.048,12.8233297 76.1926652,12.1956693 76.482,11.659 C76.7713348,11.1223307 77.179664,10.7093348 77.707,10.42 C78.234336,10.1306652 78.8479965,9.986 79.548,9.986 C80.2480035,9.986 80.861664,10.1306652 81.389,10.42 C81.916336,10.7093348 82.3223319,11.1223307 82.607,11.659 C82.8916681,12.1956693 83.034,12.8233297 83.034,13.542 C83.034,14.2606703 82.8916681,14.890664 82.607,15.432 C82.3223319,15.973336 81.916336,16.3886652 81.389,16.678 C80.861664,16.9673348 80.2480035,17.112 79.548,17.112 Z M79.534,15.754 C80.1033362,15.754 80.5373318,15.5673352 80.836,15.194 C81.1346682,14.8206648 81.284,14.2700036 81.284,13.542 C81.284,12.8233297 81.1346682,12.2750019 80.836,11.897 C80.5373318,11.5189981 80.1080028,11.33 79.548,11.33 C78.9879972,11.33 78.5563348,11.5189981 78.253,11.897 C77.9496651,12.2750019 77.798,12.8233297 77.798,13.542 C77.798,14.2700036 77.9473318,14.8206648 78.246,15.194 C78.5446682,15.5673352 78.9739972,15.754 79.534,15.754 Z M88.298,10.014 C88.5406679,9.99533324 88.7319993,10.0466661 88.872,10.168 C89.0120007,10.2893339 89.082,10.4713321 89.082,10.714 C89.082,10.9660013 89.0213339,11.1526661 88.9,11.274 C88.7786661,11.3953339 88.5593349,11.4746665 88.242,11.512 L87.822,11.554 C87.2713306,11.6100003 86.8676679,11.7966651 86.611,12.114 C86.3543321,12.4313349 86.226,12.8279976 86.226,13.304 L86.226,16.244 C86.226,16.514668 86.1420008,16.7223326 85.974,16.867 C85.8059992,17.0116674 85.5960013,17.084 85.344,17.084 C85.0919987,17.084 84.8843342,17.0116674 84.721,16.867 C84.5576659,16.7223326 84.476,16.514668 84.476,16.244 L84.476,10.826 C84.476,10.5646654 84.5576659,10.3640007 84.721,10.224 C84.8843342,10.0839993 85.0873321,10.014 85.33,10.014 C85.5726679,10.014 85.7686659,10.081666 85.918,10.217 C86.0673341,10.352334 86.142,10.5459987 86.142,10.798 L86.142,11.358 C86.3193342,10.9473313 86.5829983,10.6300011 86.933,10.406 C87.2830017,10.1819989 87.6726645,10.0560001 88.102,10.028 L88.298,10.014 Z M95.928,15.642 C96.1146676,15.8193342 96.208,16.0199989 96.208,16.244 C96.208,16.4586677 96.1310008,16.6499992 95.977,16.818 C95.8229992,16.9860008 95.6433344,17.07 95.438,17.07 C95.2326656,17.07 95.0413342,16.9860008 94.864,16.818 L91.588,13.85 L91.588,16.244 C91.588,16.514668 91.5040008,16.7199993 91.336,16.86 C91.1679992,17.0000007 90.9580013,17.07 90.706,17.07 C90.4539987,17.07 90.2463341,17.0000007 90.083,16.86 C89.9196659,16.7199993 89.838,16.514668 89.838,16.244 L89.838,7.886 C89.838,7.61533198 89.9196659,7.4100007 90.083,7.27 C90.2463341,7.1299993 90.4539987,7.06 90.706,7.06 C90.9580013,7.06 91.1679992,7.1299993 91.336,7.27 C91.5040008,7.4100007 91.588,7.61533198 91.588,7.886 L91.588,13.15 L94.584,10.28 C94.7520008,10.1119992 94.9433323,10.028 95.158,10.028 C95.3726677,10.028 95.5593325,10.1073325 95.718,10.266 C95.8766675,10.4246675 95.956,10.6113323 95.956,10.826 C95.956,11.0406677 95.8673342,11.2366658 95.69,11.414 L93.492,13.458 L95.928,15.642 Z M99.82,17.112 C98.8026616,17.112 97.9813365,16.9113353 97.356,16.51 C97.0573318,16.3326658 96.908,16.0806683 96.908,15.754 C96.908,15.5673324 96.9593328,15.4156673 97.062,15.299 C97.1646672,15.1823328 97.2906659,15.124 97.44,15.124 C97.5986675,15.124 97.8179986,15.1986659 98.098,15.348 C98.3966682,15.4880007 98.6696654,15.595333 98.917,15.67 C99.1643346,15.744667 99.4793314,15.782 99.862,15.782 C100.254002,15.782 100.559666,15.7166673 100.779,15.586 C100.998334,15.4553327 101.108,15.2733345 101.108,15.04 C101.108,14.8813325 101.063667,14.7553338 100.975,14.662 C100.886333,14.5686662 100.727668,14.4823337 100.499,14.403 C100.270332,14.3236663 99.922669,14.2326672 99.456,14.13 C98.6253292,13.9619992 98.0303351,13.7240015 97.671,13.416 C97.3116649,13.1079985 97.132,12.683336 97.132,12.142 C97.132,11.7313313 97.2533321,11.360335 97.496,11.029 C97.7386679,10.697665 98.0723312,10.4410009 98.497,10.259 C98.9216688,10.0769991 99.404664,9.986 99.946,9.986 C100.338002,9.986 100.715998,10.0349995 101.08,10.133 C101.444002,10.2310005 101.770665,10.3733324 102.06,10.56 C102.358668,10.7466676 102.508,10.9939985 102.508,11.302 C102.508,11.4886676 102.456667,11.6449994 102.354,11.771 C102.251333,11.8970006 102.125334,11.96 101.976,11.96 C101.873333,11.96 101.773,11.9390002 101.675,11.897 C101.577,11.8549998 101.453334,11.7920004 101.304,11.708 C101.033332,11.5679993 100.800001,11.4630004 100.604,11.393 C100.407999,11.3229996 100.165335,11.288 99.876,11.288 C99.5306649,11.288 99.2576677,11.3579993 99.057,11.498 C98.8563323,11.6380007 98.756,11.8293321 98.756,12.072 C98.756,12.3053345 98.8586656,12.4826661 99.064,12.604 C99.2693344,12.7253339 99.6659971,12.8466661 100.254,12.968 C100.879336,13.0986673 101.369332,13.2479992 101.724,13.416 C102.078668,13.5840008 102.332999,13.7939987 102.487,14.046 C102.641001,14.2980013 102.718,14.619998 102.718,15.012 C102.718,15.6466698 102.454336,16.1553314 101.927,16.538 C101.399664,16.9206686 100.697338,17.112 99.82,17.112 Z M108.066,9.986 C108.654003,9.986 109.178998,10.1353318 109.641,10.434 C110.103002,10.7326682 110.462332,11.1549973 110.719,11.701 C110.975668,12.2470027 111.104,12.8746631 111.104,13.584 C111.104,14.2933369 110.975668,14.9139973 110.719,15.446 C110.462332,15.9780027 110.105336,16.3886652 109.648,16.678 C109.190664,16.9673348 108.663336,17.112 108.066,17.112 C107.580664,17.112 107.146669,17.0093344 106.764,16.804 C106.381331,16.5986656 106.087334,16.3140018 105.882,15.95 L105.882,18.806 C105.882,19.0486679 105.802667,19.2399993 105.644,19.38 C105.485333,19.5200007 105.275335,19.59 105.014,19.59 C104.752665,19.59 104.540334,19.5153341 104.377,19.366 C104.213666,19.2166659 104.132,19.0206679 104.132,18.778 L104.132,10.84 C104.132,10.5879987 104.208999,10.3873341 104.363,10.238 C104.517001,10.0886659 104.724665,10.014 104.986,10.014 C105.247335,10.014 105.457333,10.0886659 105.616,10.238 C105.774667,10.3873341 105.854,10.5879987 105.854,10.84 L105.854,11.19 C106.059334,10.8073314 106.355665,10.5110011 106.743,10.301 C107.130335,10.0909989 107.571331,9.986 108.066,9.986 Z M107.604,15.754 C108.154669,15.754 108.583998,15.5650019 108.892,15.187 C109.200002,14.8089981 109.354,14.2746701 109.354,13.584 C109.354,12.8746631 109.200002,12.324002 108.892,11.932 C108.583998,11.539998 108.154669,11.344 107.604,11.344 C107.043997,11.344 106.612335,11.5353314 106.309,11.918 C106.005665,12.3006686 105.854,12.8466631 105.854,13.556 C105.854,14.2560035 106.005665,14.7973314 106.309,15.18 C106.612335,15.5626686 107.043997,15.754 107.604,15.754 Z M115.514,9.986 C116.466005,9.986 117.172998,10.2216643 117.635,10.693 C118.097002,11.1643357 118.328,11.8806619 118.328,12.842 L118.328,16.258 C118.328,16.5100013 118.253334,16.7083326 118.104,16.853 C117.954666,16.9976674 117.749335,17.07 117.488,17.07 C117.245332,17.07 117.047001,16.9953341 116.893,16.846 C116.738999,16.6966659 116.662,16.5006679 116.662,16.258 L116.662,15.95 C116.503333,16.3140018 116.253668,16.5986656 115.913,16.804 C115.572332,17.0093344 115.178002,17.112 114.73,17.112 C114.272664,17.112 113.857335,17.0186676 113.484,16.832 C113.110665,16.6453324 112.816668,16.3886683 112.602,16.062 C112.387332,15.7353317 112.28,15.3713353 112.28,14.97 C112.28,14.4659975 112.408332,14.0693348 112.665,13.78 C112.921668,13.4906652 113.33933,13.2806673 113.918,13.15 C114.49667,13.0193327 115.294662,12.954 116.312,12.954 L116.662,12.954 L116.662,12.632 C116.662,12.1746644 116.564001,11.841001 116.368,11.631 C116.171999,11.4209989 115.854669,11.316 115.416,11.316 C115.145332,11.316 114.870001,11.3556663 114.59,11.435 C114.309999,11.5143337 113.978669,11.6286659 113.596,11.778 C113.353332,11.8993339 113.176001,11.96 113.064,11.96 C112.895999,11.96 112.758334,11.8993339 112.651,11.778 C112.543666,11.6566661 112.49,11.498001 112.49,11.302 C112.49,11.1433325 112.529666,11.0056673 112.609,10.889 C112.688334,10.7723327 112.821332,10.6626672 113.008,10.56 C113.334668,10.3826658 113.724331,10.2426672 114.177,10.14 C114.629669,10.0373328 115.075331,9.986 115.514,9.986 Z M115.08,15.852 C115.546669,15.852 115.926999,15.6956682 116.221,15.383 C116.515001,15.0703318 116.662,14.6666691 116.662,14.172 L116.662,13.878 L116.41,13.878 C115.784664,13.878 115.299335,13.9059997 114.954,13.962 C114.608665,14.0180003 114.361334,14.1159993 114.212,14.256 C114.062666,14.3960007 113.988,14.5873321 113.988,14.83 C113.988,15.1286682 114.092999,15.3736657 114.303,15.565 C114.513001,15.7563343 114.771998,15.852 115.08,15.852 Z M123.144,17.112 C122.462663,17.112 121.863003,16.9673348 121.345,16.678 C120.826997,16.3886652 120.428001,15.9780027 120.148,15.446 C119.867999,14.9139973 119.728,14.2933369 119.728,13.584 C119.728,12.8746631 119.874999,12.2470027 120.169,11.701 C120.463001,11.1549973 120.875997,10.7326682 121.408,10.434 C121.940003,10.1353318 122.55133,9.986 123.242,9.986 C123.606002,9.986 123.972331,10.0373328 124.341,10.14 C124.709669,10.2426672 125.033999,10.3826658 125.314,10.56 C125.612668,10.756001 125.762,11.0033318 125.762,11.302 C125.762,11.5073344 125.713,11.6729994 125.615,11.799 C125.517,11.9250006 125.388667,11.988 125.23,11.988 C125.127333,11.988 125.020001,11.9646669 124.908,11.918 C124.795999,11.8713331 124.684001,11.8153337 124.572,11.75 C124.366666,11.6286661 124.170668,11.5330003 123.984,11.463 C123.797332,11.3929997 123.582668,11.358 123.34,11.358 C122.76133,11.358 122.315668,11.5469981 122.003,11.925 C121.690332,12.3030019 121.534,12.8466631 121.534,13.556 C121.534,14.2560035 121.690332,14.7949981 122.003,15.173 C122.315668,15.5510019 122.76133,15.74 123.34,15.74 C123.573335,15.74 123.780999,15.7050003 123.963,15.635 C124.145001,15.5649997 124.347999,15.4693339 124.572,15.348 C124.712001,15.2639996 124.833333,15.2010002 124.936,15.159 C125.038667,15.1169998 125.141333,15.096 125.244,15.096 C125.393334,15.096 125.519333,15.1613327 125.622,15.292 C125.724667,15.4226673 125.776,15.585999 125.776,15.782 C125.776,15.9406675 125.741,16.0783328 125.671,16.195 C125.601,16.3116672 125.486667,16.4166662 125.328,16.51 C125.038665,16.6966676 124.702669,16.8436661 124.32,16.951 C123.937331,17.0583339 123.545335,17.112 123.144,17.112 Z M132.356,15.124 C132.514667,15.124 132.643,15.1846661 132.741,15.306 C132.839,15.4273339 132.888,15.5906656 132.888,15.796 C132.888,16.0853348 132.715335,16.327999 132.37,16.524 C132.052665,16.7013342 131.693335,16.8436661 131.292,16.951 C130.890665,17.0583339 130.508002,17.112 130.144,17.112 C129.042661,17.112 128.170003,16.7946698 127.526,16.16 C126.881997,15.5253302 126.56,14.6573388 126.56,13.556 C126.56,12.8559965 126.699999,12.235336 126.98,11.694 C127.260001,11.152664 127.654331,10.7326682 128.163,10.434 C128.671669,10.1353318 129.247997,9.986 129.892,9.986 C130.508003,9.986 131.044664,10.121332 131.502,10.392 C131.959336,10.662668 132.313999,11.0453309 132.566,11.54 C132.818001,12.0346691 132.944,12.6179966 132.944,13.29 C132.944,13.6913353 132.766668,13.892 132.412,13.892 L128.282,13.892 C128.338,14.5360032 128.519998,15.0096652 128.828,15.313 C129.136002,15.6163349 129.583997,15.768 130.172,15.768 C130.470668,15.768 130.734332,15.730667 130.963,15.656 C131.191668,15.581333 131.450665,15.4786673 131.74,15.348 C132.020001,15.1986659 132.225333,15.124 132.356,15.124 Z M129.934,11.218 C129.457998,11.218 129.077668,11.3673318 128.793,11.666 C128.508332,11.9646682 128.338,12.3939972 128.282,12.954 L131.446,12.954 C131.427333,12.3846638 131.287335,11.9530015 131.026,11.659 C130.764665,11.3649985 130.400669,11.218 129.934,11.218 Z"></path>
                                </g>
                            </g>
                            <g id="Group-4-Copy" mask="url(#mask-2)" fill="#EFF2F7" opacity="0.400000006">
                                <g transform="translate(19.000000, 56.000000)" id="base-copy">
                                    <rect x="0.37705154" y="0.507985903" width="142.93" height="8" rx="4"></rect>
                                </g>
                            </g>
                            <g id="Group-4-Copy-3" mask="url(#mask-2)">
                                <g transform="translate(230.000000, 130.000000)" id="icon-blue-new">
                                    <g>
                                        <rect id="base" fill="#53D9EB" x="0" y="0" width="20" height="20" rx="10"></rect>
                                        <rect id="Rectangle-17" fill="#083A45" x="5" y="9" width="10" height="2" rx="1"></rect>
                                        <rect id="Rectangle-17-Copy" fill="#083A45" x="9" y="5" width="2" height="10" rx="1"></rect>
                                    </g>
                                </g>
                            </g>
                            <polygon id="divider" fill-opacity="0.0407042572" fill="#06272E" mask="url(#mask-2)" points="0 120 260 120 260 122 0 122"></polygon>
                            <g id="Group-4-Copy-4" mask="url(#mask-2)" font-family="Nunito-Bold, Nunito" font-size="14" font-weight="bold" line-spacing="24">
                                <g transform="translate(20.000000, 128.000000)" id="Add-New-Workspace">
                                    <text>
                                        <tspan x="0" y="14" fill="#245B70">Add New Workspace</tspan>
                                    </text>
                                </g>
                            </g>
                            <g id="icon-gray-edit" mask="url(#mask-2)">
                                <g transform="translate(230.000000, 90.000000)">
                                    <g id="Rectangle-10" stroke-width="1" fill="none">
                                        <mask id="mask-5" fill="white">
                                            <use xlink:href="#path-4"></use>
                                        </mask>
                                        <use id="Mask" fill="#EDF3FD" xlink:href="#path-4"></use>
                                        <rect fill="#98B4CD" mask="url(#mask-5)" x="-1" y="15" width="8" height="1" rx="0.5"></rect>
                                    </g>
                                    <path d="M9.5,4.99997954 L10.5,5 C10.7761397,5.00000377 10.9999932,5.22386029 10.9999932,5.5 L11,13.763932 C11,13.9191771 10.9638549,14.0722902 10.8944272,14.2111456 L10,16 L9.10557281,14.2111456 C9.03614509,14.0722902 9,13.9191771 9,13.763932 L8.99999318,5.49997271 C8.99999318,5.22383034 9.2238508,4.99997271 9.49999318,4.99997271 Z" id="pen" fill="#083A45" transform="translate(10.000000, 10.500000) rotate(30.000000) translate(-10.000000, -10.500000) "></path>
                                </g>
                            </g>
                            <polygon id="divider" fill-opacity="0.0407042572" fill="#06272E" mask="url(#mask-2)" points="0 80 260 80 260 82 0 82"></polygon>
                            <g id="Group-4-Copy-5" mask="url(#mask-2)" fill="#245B70">
                                <g transform="translate(20.000000, 88.000000)" id="Edit-Workspaces-Copy">
                                    <path d="M1.932,17 C1.66133198,17 1.44900077,16.9253341 1.295,16.776 C1.14099923,16.6266659 1.064,16.416668 1.064,16.146 L1.064,7.984 C1.064,7.71333198 1.14099923,7.50333408 1.295,7.354 C1.44900077,7.20466592 1.66133198,7.13 1.932,7.13 L6.986,7.13 C7.25666802,7.13 7.46666592,7.19066606 7.616,7.312 C7.76533408,7.43333394 7.84,7.60599888 7.84,7.83 C7.84,8.0633345 7.76533408,8.24299937 7.616,8.369 C7.46666592,8.49500063 7.25666802,8.558 6.986,8.558 L2.828,8.558 L2.828,11.274 L6.706,11.274 C6.97666802,11.274 7.18666592,11.3346661 7.336,11.456 C7.48533408,11.5773339 7.56,11.7546655 7.56,11.988 C7.56,12.2120011 7.48533408,12.3846661 7.336,12.506 C7.18666592,12.6273339 6.97666802,12.688 6.706,12.688 L2.828,12.688 L2.828,15.572 L6.986,15.572 C7.25666802,15.572 7.46666592,15.6349994 7.616,15.761 C7.76533408,15.8870006 7.84,16.0666655 7.84,16.3 C7.84,16.5240011 7.76533408,16.6966661 7.616,16.818 C7.46666592,16.9393339 7.25666802,17 6.986,17 L1.932,17 Z M14.868,7.06 C15.1293346,7.06 15.3439992,7.13466592 15.512,7.284 C15.6800008,7.43333408 15.764,7.62933212 15.764,7.872 L15.764,16.244 C15.764,16.4960013 15.6846675,16.6966659 15.526,16.846 C15.3673325,16.9953341 15.1573346,17.07 14.896,17.07 C14.6346654,17.07 14.4246675,16.9953341 14.266,16.846 C14.1073325,16.6966659 14.028,16.4960013 14.028,16.244 L14.028,15.894 C13.8226656,16.2766686 13.5263353,16.5753323 13.139,16.79 C12.7516647,17.0046677 12.3106691,17.112 11.816,17.112 C11.2279971,17.112 10.7030023,16.9626682 10.241,16.664 C9.77899769,16.3653318 9.41966795,15.9430027 9.163,15.397 C8.90633205,14.8509973 8.778,14.2233369 8.778,13.514 C8.778,12.8046631 8.90633205,12.1840027 9.163,11.652 C9.41966795,11.1199973 9.77666438,10.7093348 10.234,10.42 C10.6913356,10.1306652 11.2186637,9.986 11.816,9.986 C12.3106691,9.986 12.7493314,10.0886656 13.132,10.294 C13.5146686,10.4993344 13.8086656,10.7886648 14.014,11.162 L14.014,7.844 C14.014,7.6106655 14.0909992,7.42166739 14.245,7.277 C14.3990008,7.13233261 14.6066654,7.06 14.868,7.06 Z M12.278,15.754 C12.8380028,15.754 13.2696651,15.5626686 13.573,15.18 C13.8763349,14.7973314 14.028,14.2513369 14.028,13.542 C14.028,12.8326631 13.8763349,12.2890019 13.573,11.911 C13.2696651,11.5329981 12.8426694,11.344 12.292,11.344 C11.7319972,11.344 11.2980015,11.5306648 10.99,11.904 C10.6819985,12.2773352 10.528,12.8139965 10.528,13.514 C10.528,14.2233369 10.6819985,14.773998 10.99,15.166 C11.2980015,15.558002 11.7273306,15.754 12.278,15.754 Z M18.438,17.084 C18.1859987,17.084 17.9783342,17.0116674 17.815,16.867 C17.6516659,16.7223326 17.57,16.514668 17.57,16.244 L17.57,10.84 C17.57,10.569332 17.6516659,10.3640007 17.815,10.224 C17.9783342,10.0839993 18.1859987,10.014 18.438,10.014 C18.6900013,10.014 18.8999992,10.0839993 19.068,10.224 C19.2360008,10.3640007 19.32,10.569332 19.32,10.84 L19.32,16.244 C19.32,16.514668 19.2360008,16.7223326 19.068,16.867 C18.8999992,17.0116674 18.6900013,17.084 18.438,17.084 Z M18.438,8.768 C18.1206651,8.768 17.8686676,8.68166753 17.682,8.509 C17.4953324,8.33633247 17.402,8.1100014 17.402,7.83 C17.402,7.5499986 17.4953324,7.32600084 17.682,7.158 C17.8686676,6.98999916 18.1206651,6.906 18.438,6.906 C18.7460015,6.906 18.9956657,6.98999916 19.187,7.158 C19.3783343,7.32600084 19.474,7.5499986 19.474,7.83 C19.474,8.1100014 19.3806676,8.33633247 19.194,8.509 C19.0073324,8.68166753 18.7553349,8.768 18.438,8.768 Z M24.682,15.782 C25.148669,15.8100001 25.382,16.019998 25.382,16.412 C25.382,16.6360011 25.2910009,16.8063328 25.109,16.923 C24.9269991,17.0396673 24.6680017,17.0886668 24.332,17.07 L23.954,17.042 C22.3859922,16.9299994 21.602,16.0900078 21.602,14.522 L21.602,11.47 L20.902,11.47 C20.6499987,11.47 20.456334,11.4140006 20.321,11.302 C20.185666,11.1899994 20.118,11.0266677 20.118,10.812 C20.118,10.5973323 20.185666,10.4340006 20.321,10.322 C20.456334,10.2099994 20.6499987,10.154 20.902,10.154 L21.602,10.154 L21.602,8.866 C21.602,8.61399874 21.6813325,8.41333408 21.84,8.264 C21.9986675,8.11466592 22.213332,8.04 22.484,8.04 C22.7453346,8.04 22.9553325,8.11466592 23.114,8.264 C23.2726675,8.41333408 23.352,8.61399874 23.352,8.866 L23.352,10.154 L24.542,10.154 C24.7940013,10.154 24.987666,10.2099994 25.123,10.322 C25.258334,10.4340006 25.326,10.5973323 25.326,10.812 C25.326,11.0266677 25.258334,11.1899994 25.123,11.302 C24.987666,11.4140006 24.7940013,11.47 24.542,11.47 L23.352,11.47 L23.352,14.648 C23.352,15.3386701 23.6693302,15.7073331 24.304,15.754 L24.682,15.782 Z M42.616,7.606 C42.6813337,7.4193324 42.7863326,7.2793338 42.931,7.186 C43.0756674,7.0926662 43.2366658,7.046 43.414,7.046 C43.6380011,7.046 43.8316658,7.1159993 43.995,7.256 C44.1583342,7.3960007 44.24,7.5826655 44.24,7.816 C44.24,7.90000042 44.2166669,8.02133254 44.17,8.18 L41.16,16.51 C41.085333,16.6966676 40.9616675,16.8413328 40.789,16.944 C40.6163325,17.0466672 40.4273344,17.098 40.222,17.098 C40.0166656,17.098 39.8253342,17.0466672 39.648,16.944 C39.4706658,16.8413328 39.3493337,16.6966676 39.284,16.51 L36.96,9.916 L34.594,16.51 C34.519333,16.6966676 34.3956675,16.8413328 34.223,16.944 C34.0503325,17.0466672 33.8613344,17.098 33.656,17.098 C33.4506656,17.098 33.2616675,17.0466672 33.089,16.944 C32.9163325,16.8413328 32.7973337,16.6966676 32.732,16.51 L29.722,8.18 C29.6753331,8.0399993 29.652,7.91866718 29.652,7.816 C29.652,7.5826655 29.7383325,7.3960007 29.911,7.256 C30.0836675,7.1159993 30.2866655,7.046 30.52,7.046 C30.7066676,7.046 30.8746659,7.0926662 31.024,7.186 C31.1733341,7.2793338 31.2806663,7.4193324 31.346,7.606 L33.726,14.452 L36.176,7.648 C36.2413337,7.4613324 36.3486659,7.31433387 36.498,7.207 C36.6473341,7.09966613 36.8106658,7.046 36.988,7.046 C37.1653342,7.046 37.3309992,7.09966613 37.485,7.207 C37.6390008,7.31433387 37.7486663,7.46599902 37.814,7.662 L40.194,14.536 L42.616,7.606 Z M48.748,17.112 C48.0479965,17.112 47.434336,16.9673348 46.907,16.678 C46.379664,16.3886652 45.9713348,15.973336 45.682,15.432 C45.3926652,14.890664 45.248,14.2606703 45.248,13.542 C45.248,12.8233297 45.3926652,12.1956693 45.682,11.659 C45.9713348,11.1223307 46.379664,10.7093348 46.907,10.42 C47.434336,10.1306652 48.0479965,9.986 48.748,9.986 C49.4480035,9.986 50.061664,10.1306652 50.589,10.42 C51.116336,10.7093348 51.5223319,11.1223307 51.807,11.659 C52.0916681,12.1956693 52.234,12.8233297 52.234,13.542 C52.234,14.2606703 52.0916681,14.890664 51.807,15.432 C51.5223319,15.973336 51.116336,16.3886652 50.589,16.678 C50.061664,16.9673348 49.4480035,17.112 48.748,17.112 Z M48.734,15.754 C49.3033362,15.754 49.7373318,15.5673352 50.036,15.194 C50.3346682,14.8206648 50.484,14.2700036 50.484,13.542 C50.484,12.8233297 50.3346682,12.2750019 50.036,11.897 C49.7373318,11.5189981 49.3080028,11.33 48.748,11.33 C48.1879972,11.33 47.7563348,11.5189981 47.453,11.897 C47.1496651,12.2750019 46.998,12.8233297 46.998,13.542 C46.998,14.2700036 47.1473318,14.8206648 47.446,15.194 C47.7446682,15.5673352 48.1739972,15.754 48.734,15.754 Z M57.498,10.014 C57.7406679,9.99533324 57.9319993,10.0466661 58.072,10.168 C58.2120007,10.2893339 58.282,10.4713321 58.282,10.714 C58.282,10.9660013 58.2213339,11.1526661 58.1,11.274 C57.9786661,11.3953339 57.7593349,11.4746665 57.442,11.512 L57.022,11.554 C56.4713306,11.6100003 56.0676679,11.7966651 55.811,12.114 C55.554332,12.4313349 55.426,12.8279976 55.426,13.304 L55.426,16.244 C55.426,16.514668 55.3420008,16.7223326 55.174,16.867 C55.0059992,17.0116674 54.7960013,17.084 54.544,17.084 C54.2919987,17.084 54.0843341,17.0116674 53.921,16.867 C53.7576659,16.7223326 53.676,16.514668 53.676,16.244 L53.676,10.826 C53.676,10.5646654 53.7576659,10.3640007 53.921,10.224 C54.0843341,10.0839993 54.2873321,10.014 54.53,10.014 C54.7726679,10.014 54.9686659,10.081666 55.118,10.217 C55.2673341,10.352334 55.342,10.5459987 55.342,10.798 L55.342,11.358 C55.5193342,10.9473313 55.7829982,10.6300011 56.133,10.406 C56.4830018,10.1819989 56.8726645,10.0560001 57.302,10.028 L57.498,10.014 Z M65.128,15.642 C65.3146676,15.8193342 65.408,16.0199989 65.408,16.244 C65.408,16.4586677 65.3310008,16.6499992 65.177,16.818 C65.0229992,16.9860008 64.8433344,17.07 64.638,17.07 C64.4326656,17.07 64.2413342,16.9860008 64.064,16.818 L60.788,13.85 L60.788,16.244 C60.788,16.514668 60.7040008,16.7199993 60.536,16.86 C60.3679992,17.0000007 60.1580013,17.07 59.906,17.07 C59.6539987,17.07 59.4463341,17.0000007 59.283,16.86 C59.1196658,16.7199993 59.038,16.514668 59.038,16.244 L59.038,7.886 C59.038,7.61533198 59.1196658,7.4100007 59.283,7.27 C59.4463341,7.1299993 59.6539987,7.06 59.906,7.06 C60.1580013,7.06 60.3679992,7.1299993 60.536,7.27 C60.7040008,7.4100007 60.788,7.61533198 60.788,7.886 L60.788,13.15 L63.784,10.28 C63.9520008,10.1119992 64.1433323,10.028 64.358,10.028 C64.5726677,10.028 64.7593325,10.1073325 64.918,10.266 C65.0766675,10.4246675 65.156,10.6113323 65.156,10.826 C65.156,11.0406677 65.0673342,11.2366658 64.89,11.414 L62.692,13.458 L65.128,15.642 Z M69.02,17.112 C68.0026616,17.112 67.1813365,16.9113353 66.556,16.51 C66.2573318,16.3326658 66.108,16.0806683 66.108,15.754 C66.108,15.5673324 66.1593328,15.4156673 66.262,15.299 C66.3646672,15.1823328 66.4906659,15.124 66.64,15.124 C66.7986675,15.124 67.0179986,15.1986659 67.298,15.348 C67.5966682,15.4880007 67.8696654,15.595333 68.117,15.67 C68.3643346,15.744667 68.6793314,15.782 69.062,15.782 C69.454002,15.782 69.7596656,15.7166673 69.979,15.586 C70.1983344,15.4553327 70.308,15.2733345 70.308,15.04 C70.308,14.8813325 70.2636671,14.7553338 70.175,14.662 C70.0863329,14.5686662 69.9276678,14.4823337 69.699,14.403 C69.4703322,14.3236663 69.122669,14.2326672 68.656,14.13 C67.8253292,13.9619992 67.2303351,13.7240015 66.871,13.416 C66.5116649,13.1079985 66.332,12.683336 66.332,12.142 C66.332,11.7313313 66.4533321,11.360335 66.696,11.029 C66.9386679,10.697665 67.2723312,10.4410009 67.697,10.259 C68.1216688,10.0769991 68.604664,9.986 69.146,9.986 C69.538002,9.986 69.9159982,10.0349995 70.28,10.133 C70.6440018,10.2310005 70.9706652,10.3733324 71.26,10.56 C71.5586682,10.7466676 71.708,10.9939985 71.708,11.302 C71.708,11.4886676 71.6566672,11.6449994 71.554,11.771 C71.4513328,11.8970006 71.3253341,11.96 71.176,11.96 C71.0733328,11.96 70.9730005,11.9390002 70.875,11.897 C70.7769995,11.8549998 70.6533341,11.7920004 70.504,11.708 C70.233332,11.5679993 70.000001,11.4630004 69.804,11.393 C69.607999,11.3229996 69.3653348,11.288 69.076,11.288 C68.7306649,11.288 68.4576677,11.3579993 68.257,11.498 C68.0563323,11.6380007 67.956,11.8293321 67.956,12.072 C67.956,12.3053345 68.0586656,12.4826661 68.264,12.604 C68.4693344,12.7253339 68.8659971,12.8466661 69.454,12.968 C70.0793365,13.0986673 70.5693316,13.2479992 70.924,13.416 C71.2786684,13.5840008 71.5329992,13.7939987 71.687,14.046 C71.8410008,14.2980013 71.918,14.619998 71.918,15.012 C71.918,15.6466698 71.654336,16.1553314 71.127,16.538 C70.599664,16.9206686 69.8973377,17.112 69.02,17.112 Z M77.266,9.986 C77.8540029,9.986 78.3789977,10.1353318 78.841,10.434 C79.3030023,10.7326682 79.6623321,11.1549973 79.919,11.701 C80.175668,12.2470027 80.304,12.8746631 80.304,13.584 C80.304,14.2933369 80.175668,14.9139973 79.919,15.446 C79.6623321,15.9780027 79.3053356,16.3886652 78.848,16.678 C78.3906644,16.9673348 77.8633363,17.112 77.266,17.112 C76.7806642,17.112 76.3466686,17.0093344 75.964,16.804 C75.5813314,16.5986656 75.2873344,16.3140018 75.082,15.95 L75.082,18.806 C75.082,19.0486679 75.0026675,19.2399993 74.844,19.38 C74.6853325,19.5200007 74.4753346,19.59 74.214,19.59 C73.9526654,19.59 73.7403342,19.5153341 73.577,19.366 C73.4136659,19.2166659 73.332,19.0206679 73.332,18.778 L73.332,10.84 C73.332,10.5879987 73.4089992,10.3873341 73.563,10.238 C73.7170008,10.0886659 73.9246654,10.014 74.186,10.014 C74.4473346,10.014 74.6573325,10.0886659 74.816,10.238 C74.9746675,10.3873341 75.054,10.5879987 75.054,10.84 L75.054,11.19 C75.2593344,10.8073314 75.5556647,10.5110011 75.943,10.301 C76.3303353,10.0909989 76.7713309,9.986 77.266,9.986 Z M76.804,15.754 C77.3546694,15.754 77.7839985,15.5650019 78.092,15.187 C78.4000015,14.8089981 78.554,14.2746701 78.554,13.584 C78.554,12.8746631 78.4000015,12.324002 78.092,11.932 C77.7839985,11.539998 77.3546694,11.344 76.804,11.344 C76.2439972,11.344 75.8123349,11.5353314 75.509,11.918 C75.2056652,12.3006686 75.054,12.8466631 75.054,13.556 C75.054,14.2560035 75.2056652,14.7973314 75.509,15.18 C75.8123349,15.5626686 76.2439972,15.754 76.804,15.754 Z M84.714,9.986 C85.6660048,9.986 86.3729977,10.2216643 86.835,10.693 C87.2970023,11.1643357 87.528,11.8806619 87.528,12.842 L87.528,16.258 C87.528,16.5100013 87.4533341,16.7083326 87.304,16.853 C87.1546659,16.9976674 86.9493346,17.07 86.688,17.07 C86.4453321,17.07 86.2470008,16.9953341 86.093,16.846 C85.9389992,16.6966659 85.862,16.5006679 85.862,16.258 L85.862,15.95 C85.7033325,16.3140018 85.4536684,16.5986656 85.113,16.804 C84.7723316,17.0093344 84.3780022,17.112 83.93,17.112 C83.4726644,17.112 83.0573352,17.0186676 82.684,16.832 C82.3106648,16.6453324 82.0166677,16.3886683 81.802,16.062 C81.5873323,15.7353317 81.48,15.3713353 81.48,14.97 C81.48,14.4659975 81.6083321,14.0693348 81.865,13.78 C82.121668,13.4906652 82.5393304,13.2806673 83.118,13.15 C83.6966696,13.0193327 84.4946616,12.954 85.512,12.954 L85.862,12.954 L85.862,12.632 C85.862,12.1746644 85.764001,11.841001 85.568,11.631 C85.371999,11.4209989 85.0546689,11.316 84.616,11.316 C84.345332,11.316 84.0700014,11.3556663 83.79,11.435 C83.5099986,11.5143337 83.1786686,11.6286659 82.796,11.778 C82.5533321,11.8993339 82.3760006,11.96 82.264,11.96 C82.0959992,11.96 81.9583339,11.8993339 81.851,11.778 C81.7436661,11.6566661 81.69,11.498001 81.69,11.302 C81.69,11.1433325 81.7296663,11.0056673 81.809,10.889 C81.8883337,10.7723327 82.0213324,10.6626672 82.208,10.56 C82.5346683,10.3826658 82.9243311,10.2426672 83.377,10.14 C83.8296689,10.0373328 84.2753311,9.986 84.714,9.986 Z M84.28,15.852 C84.746669,15.852 85.1269985,15.6956682 85.421,15.383 C85.7150015,15.0703318 85.862,14.6666691 85.862,14.172 L85.862,13.878 L85.61,13.878 C84.9846635,13.878 84.4993351,13.9059997 84.154,13.962 C83.8086649,14.0180003 83.5613341,14.1159993 83.412,14.256 C83.2626659,14.3960007 83.188,14.5873321 83.188,14.83 C83.188,15.1286682 83.2929989,15.3736657 83.503,15.565 C83.7130011,15.7563343 83.9719985,15.852 84.28,15.852 Z M92.344,17.112 C91.6626633,17.112 91.0630026,16.9673348 90.545,16.678 C90.0269974,16.3886652 89.6280014,15.9780027 89.348,15.446 C89.0679986,14.9139973 88.928,14.2933369 88.928,13.584 C88.928,12.8746631 89.0749985,12.2470027 89.369,11.701 C89.6630015,11.1549973 90.0759973,10.7326682 90.608,10.434 C91.1400027,10.1353318 91.7513299,9.986 92.442,9.986 C92.8060018,9.986 93.1723315,10.0373328 93.541,10.14 C93.9096685,10.2426672 94.2339986,10.3826658 94.514,10.56 C94.8126682,10.756001 94.962,11.0033318 94.962,11.302 C94.962,11.5073344 94.9130005,11.6729994 94.815,11.799 C94.7169995,11.9250006 94.5886675,11.988 94.43,11.988 C94.3273328,11.988 94.2200006,11.9646669 94.108,11.918 C93.9959994,11.8713331 93.8840006,11.8153337 93.772,11.75 C93.5666656,11.6286661 93.3706676,11.5330003 93.184,11.463 C92.9973324,11.3929997 92.7826679,11.358 92.54,11.358 C91.9613304,11.358 91.5156682,11.5469981 91.203,11.925 C90.8903318,12.3030019 90.734,12.8466631 90.734,13.556 C90.734,14.2560035 90.8903318,14.7949981 91.203,15.173 C91.5156682,15.5510019 91.9613304,15.74 92.54,15.74 C92.7733345,15.74 92.9809991,15.7050003 93.163,15.635 C93.3450009,15.5649997 93.5479989,15.4693339 93.772,15.348 C93.9120007,15.2639996 94.0333328,15.2010002 94.136,15.159 C94.2386672,15.1169998 94.3413328,15.096 94.444,15.096 C94.5933341,15.096 94.7193328,15.1613327 94.822,15.292 C94.9246672,15.4226673 94.976,15.585999 94.976,15.782 C94.976,15.9406675 94.9410003,16.0783328 94.871,16.195 C94.8009997,16.3116672 94.6866675,16.4166662 94.528,16.51 C94.2386652,16.6966676 93.9026686,16.8436661 93.52,16.951 C93.1373314,17.0583339 92.7453353,17.112 92.344,17.112 Z M101.556,15.124 C101.714667,15.124 101.843,15.1846661 101.941,15.306 C102.039,15.4273339 102.088,15.5906656 102.088,15.796 C102.088,16.0853348 101.915335,16.327999 101.57,16.524 C101.252665,16.7013342 100.893335,16.8436661 100.492,16.951 C100.090665,17.0583339 99.7080018,17.112 99.344,17.112 C98.2426612,17.112 97.3700032,16.7946698 96.726,16.16 C96.0819968,15.5253302 95.76,14.6573388 95.76,13.556 C95.76,12.8559965 95.8999986,12.235336 96.18,11.694 C96.4600014,11.152664 96.8543308,10.7326682 97.363,10.434 C97.8716692,10.1353318 98.4479968,9.986 99.092,9.986 C99.7080031,9.986 100.244664,10.121332 100.702,10.392 C101.159336,10.662668 101.513999,11.0453309 101.766,11.54 C102.018001,12.0346691 102.144,12.6179966 102.144,13.29 C102.144,13.6913353 101.966668,13.892 101.612,13.892 L97.482,13.892 C97.5380003,14.5360032 97.7199985,15.0096652 98.028,15.313 C98.3360015,15.6163349 98.7839971,15.768 99.372,15.768 C99.6706682,15.768 99.9343322,15.730667 100.163,15.656 C100.391668,15.581333 100.650665,15.4786673 100.94,15.348 C101.220001,15.1986659 101.425333,15.124 101.556,15.124 Z M99.134,11.218 C98.6579976,11.218 98.2776681,11.3673318 97.993,11.666 C97.7083319,11.9646682 97.5380003,12.3939972 97.482,12.954 L100.646,12.954 C100.627333,12.3846638 100.487335,11.9530015 100.226,11.659 C99.9646654,11.3649985 99.600669,11.218 99.134,11.218 Z M106.05,17.112 C105.032662,17.112 104.211336,16.9113353 103.586,16.51 C103.287332,16.3326658 103.138,16.0806683 103.138,15.754 C103.138,15.5673324 103.189333,15.4156673 103.292,15.299 C103.394667,15.1823328 103.520666,15.124 103.67,15.124 C103.828667,15.124 104.047999,15.1986659 104.328,15.348 C104.626668,15.4880007 104.899665,15.595333 105.147,15.67 C105.394335,15.744667 105.709331,15.782 106.092,15.782 C106.484002,15.782 106.789666,15.7166673 107.009,15.586 C107.228334,15.4553327 107.338,15.2733345 107.338,15.04 C107.338,14.8813325 107.293667,14.7553338 107.205,14.662 C107.116333,14.5686662 106.957668,14.4823337 106.729,14.403 C106.500332,14.3236663 106.152669,14.2326672 105.686,14.13 C104.855329,13.9619992 104.260335,13.7240015 103.901,13.416 C103.541665,13.1079985 103.362,12.683336 103.362,12.142 C103.362,11.7313313 103.483332,11.360335 103.726,11.029 C103.968668,10.697665 104.302331,10.4410009 104.727,10.259 C105.151669,10.0769991 105.634664,9.986 106.176,9.986 C106.568002,9.986 106.945998,10.0349995 107.31,10.133 C107.674002,10.2310005 108.000665,10.3733324 108.29,10.56 C108.588668,10.7466676 108.738,10.9939985 108.738,11.302 C108.738,11.4886676 108.686667,11.6449994 108.584,11.771 C108.481333,11.8970006 108.355334,11.96 108.206,11.96 C108.103333,11.96 108.003,11.9390002 107.905,11.897 C107.807,11.8549998 107.683334,11.7920004 107.534,11.708 C107.263332,11.5679993 107.030001,11.4630004 106.834,11.393 C106.637999,11.3229996 106.395335,11.288 106.106,11.288 C105.760665,11.288 105.487668,11.3579993 105.287,11.498 C105.086332,11.6380007 104.986,11.8293321 104.986,12.072 C104.986,12.3053345 105.088666,12.4826661 105.294,12.604 C105.499334,12.7253339 105.895997,12.8466661 106.484,12.968 C107.109336,13.0986673 107.599332,13.2479992 107.954,13.416 C108.308668,13.5840008 108.562999,13.7939987 108.717,14.046 C108.871001,14.2980013 108.948,14.619998 108.948,15.012 C108.948,15.6466698 108.684336,16.1553314 108.157,16.538 C107.629664,16.9206686 106.927338,17.112 106.05,17.112 Z"></path>
                                </g>
                            </g>
                        </g>
                    </g>
                </g>
            </g>
        </g>
    </g>
</svg>