<?xml version="1.0" encoding="UTF-8"?>
<svg width="740px" height="300px" viewBox="0 0 740 300" version="1.1" xmlns="http://www.w3.org/2000/svg" xmlns:xlink="http://www.w3.org/1999/xlink">
    <!-- Generator: Sketch 52.2 (67145) - http://www.bohemiancoding.com/sketch -->
    <title>popup-create-application</title>
    <desc>Created with Sketch.</desc>
    <defs>
        <rect id="path-1" x="0" y="0" width="250" height="250" rx="12"></rect>
        <filter x="-8.4%" y="-6.8%" width="116.8%" height="116.8%" filterUnits="objectBoundingBox" id="filter-2">
            <feMorphology radius="1" operator="dilate" in="SourceAlpha" result="shadowSpreadOuter1"></feMorphology>
            <feOffset dx="0" dy="4" in="shadowSpreadOuter1" result="shadowOffsetOuter1"></feOffset>
            <feGaussianBlur stdDeviation="6" in="shadowOffsetOuter1" result="shadowBlurOuter1"></feGaussianBlur>
            <feComposite in="shadowBlurOuter1" in2="SourceAlpha" operator="out" result="shadowBlurOuter1"></feComposite>
            <feColorMatrix values="0 0 0 0 0.25869511   0 0 0 0 0.461476445   0 0 0 0 0.570764243  0 0 0 0.100486866 0" type="matrix" in="shadowBlurOuter1" result="shadowMatrixOuter1"></feColorMatrix>
            <feMorphology radius="1" operator="dilate" in="SourceAlpha" result="shadowSpreadOuter2"></feMorphology>
            <feOffset dx="0" dy="2" in="shadowSpreadOuter2" result="shadowOffsetOuter2"></feOffset>
            <feGaussianBlur stdDeviation="3" in="shadowOffsetOuter2" result="shadowBlurOuter2"></feGaussianBlur>
            <feComposite in="shadowBlurOuter2" in2="SourceAlpha" operator="out" result="shadowBlurOuter2"></feComposite>
            <feColorMatrix values="0 0 0 0 0.25869511   0 0 0 0 0.461476445   0 0 0 0 0.570764243  0 0 0 0.0998358243 0" type="matrix" in="shadowBlurOuter2" result="shadowMatrixOuter2"></feColorMatrix>
            <feMerge>
                <feMergeNode in="shadowMatrixOuter1"></feMergeNode>
                <feMergeNode in="shadowMatrixOuter2"></feMergeNode>
            </feMerge>
        </filter>
        <linearGradient x1="50%" y1="100%" x2="50%" y2="3.061617e-15%" id="linearGradient-3">
            <stop stop-color="#7A68E8" offset="0%"></stop>
            <stop stop-color="#A295EE" offset="100%"></stop>
        </linearGradient>
        <path d="M54.84375,1.22727915e-15 C65.25,1.22727915e-15 72,6.75 72,17.15625 L72,54.84375 C72,65.25 65.25,72 54.84375,72 L17.15625,72 C6.75,72 0,65.25 0,54.84375 L0,17.15625 C0,6.75 6.75,1.22727915e-15 17.15625,1.22727915e-15 L54.84375,1.22727915e-15 Z" id="path-4"></path>
        <linearGradient x1="50%" y1="0%" x2="50%" y2="100%" id="linearGradient-6">
            <stop stop-color="#44EDB5" offset="0%"></stop>
            <stop stop-color="#3CBF7D" offset="100%"></stop>
        </linearGradient>
        <path d="M22,1.15470054 L35.3205081,8.84529946 C36.5581124,9.55983064 37.3205081,10.8803387 37.3205081,12.3094011 L37.3205081,27.6905989 C37.3205081,29.1196613 36.5581124,30.4401694 35.3205081,31.1547005 L22,38.8452995 C20.7623957,39.5598306 19.2376043,39.5598306 18,38.8452995 L4.67949192,31.1547005 C3.44188762,30.4401694 2.67949192,29.1196613 2.67949192,27.6905989 L2.67949192,12.3094011 C2.67949192,10.8803387 3.44188762,9.55983064 4.67949192,8.84529946 L18,1.15470054 C19.2376043,0.440169359 20.7623957,0.440169359 22,1.15470054 Z" id="path-7"></path>
        <filter x="-10.8%" y="-11.0%" width="121.6%" height="131.9%" filterUnits="objectBoundingBox" id="filter-8">
            <feOffset dx="0" dy="2" in="SourceAlpha" result="shadowOffsetOuter1"></feOffset>
            <feGaussianBlur stdDeviation="2" in="shadowOffsetOuter1" result="shadowBlurOuter1"></feGaussianBlur>
            <feColorMatrix values="0 0 0 0 0.258823529   0 0 0 0 0.462745098   0 0 0 0 0.57254902  0 0 0 0.202643795 0" type="matrix" in="shadowBlurOuter1"></feColorMatrix>
        </filter>
        <linearGradient x1="50%" y1="100%" x2="50%" y2="3.061617e-15%" id="linearGradient-9">
            <stop stop-color="#FFDB18" offset="0%"></stop>
            <stop stop-color="#FFE915" offset="100%"></stop>
        </linearGradient>
        <path d="M35.2,1.84752086 L56.5128129,14.1524791 C58.4929798,15.295729 59.7128129,17.4085419 59.7128129,19.6950417 L59.7128129,44.3049583 C59.7128129,46.5914581 58.4929798,48.704271 56.5128129,49.8475209 L35.2,62.1524791 C33.2198331,63.295729 30.7801669,63.295729 28.8,62.1524791 L7.48718708,49.8475209 C5.50702019,48.704271 4.28718708,46.5914581 4.28718708,44.3049583 L4.28718708,19.6950417 C4.28718708,17.4085419 5.50702019,15.295729 7.48718708,14.1524791 L28.8,1.84752086 C30.7801669,0.704270974 33.2198331,0.704270974 35.2,1.84752086 Z" id="path-10"></path>
        <filter x="-29.2%" y="-28.1%" width="158.5%" height="168.8%" filterUnits="objectBoundingBox" id="filter-11">
            <feOffset dx="0" dy="4" in="SourceAlpha" result="shadowOffsetOuter1"></feOffset>
            <feGaussianBlur stdDeviation="7" in="shadowOffsetOuter1" result="shadowBlurOuter1"></feGaussianBlur>
            <feColorMatrix values="0 0 0 0 0.258823529   0 0 0 0 0.462745098   0 0 0 0 0.57254902  0 0 0 0.201143569 0" type="matrix" in="shadowBlurOuter1" result="shadowMatrixOuter1"></feColorMatrix>
            <feOffset dx="0" dy="2" in="SourceAlpha" result="shadowOffsetOuter2"></feOffset>
            <feGaussianBlur stdDeviation="2" in="shadowOffsetOuter2" result="shadowBlurOuter2"></feGaussianBlur>
            <feColorMatrix values="0 0 0 0 0.258823529   0 0 0 0 0.462745098   0 0 0 0 0.57254902  0 0 0 0.202643795 0" type="matrix" in="shadowBlurOuter2" result="shadowMatrixOuter2"></feColorMatrix>
            <feMerge>
                <feMergeNode in="shadowMatrixOuter1"></feMergeNode>
                <feMergeNode in="shadowMatrixOuter2"></feMergeNode>
            </feMerge>
        </filter>
        <linearGradient x1="50%" y1="100%" x2="50%" y2="3.061617e-15%" id="linearGradient-12">
            <stop stop-color="#1EC4E9" offset="0%"></stop>
            <stop stop-color="#53D9EB" offset="100%"></stop>
        </linearGradient>
        <path d="M44,2.30940108 L70.6410162,17.6905989 C73.1162248,19.1196613 74.6410162,21.7606774 74.6410162,24.6188022 L74.6410162,55.3811978 C74.6410162,58.2393226 73.1162248,60.8803387 70.6410162,62.3094011 L44,77.6905989 C41.5247914,79.1196613 38.4752086,79.1196613 36,77.6905989 L9.35898385,62.3094011 C6.88377523,60.8803387 5.35898385,58.2393226 5.35898385,55.3811978 L5.35898385,24.6188022 C5.35898385,21.7606774 6.88377523,19.1196613 9.35898385,17.6905989 L36,2.30940108 C38.4752086,0.880338717 41.5247914,0.880338717 44,2.30940108 Z" id="path-13"></path>
        <filter x="-22.1%" y="-22.2%" width="144.1%" height="154.4%" filterUnits="objectBoundingBox" id="filter-14">
            <feOffset dx="0" dy="4" in="SourceAlpha" result="shadowOffsetOuter1"></feOffset>
            <feGaussianBlur stdDeviation="7" in="shadowOffsetOuter1" result="shadowBlurOuter1"></feGaussianBlur>
            <feColorMatrix values="0 0 0 0 0.258823529   0 0 0 0 0.462745098   0 0 0 0 0.57254902  0 0 0 0.201143569 0" type="matrix" in="shadowBlurOuter1" result="shadowMatrixOuter1"></feColorMatrix>
            <feOffset dx="0" dy="2" in="SourceAlpha" result="shadowOffsetOuter2"></feOffset>
            <feGaussianBlur stdDeviation="2" in="shadowOffsetOuter2" result="shadowBlurOuter2"></feGaussianBlur>
            <feColorMatrix values="0 0 0 0 0.258823529   0 0 0 0 0.462745098   0 0 0 0 0.57254902  0 0 0 0.398975317 0" type="matrix" in="shadowBlurOuter2" result="shadowMatrixOuter2"></feColorMatrix>
            <feMerge>
                <feMergeNode in="shadowMatrixOuter1"></feMergeNode>
                <feMergeNode in="shadowMatrixOuter2"></feMergeNode>
            </feMerge>
        </filter>
    </defs>
    <g id="Overview" stroke="none" stroke-width="1" fill="none" fill-rule="evenodd">
        <g id="3a---dashboard---overview---onboarding---create-new-application-1" transform="translate(-350.000000, -350.000000)">
            <g id="modal" transform="translate(350.000000, 190.000000)">
                <g id="Group" transform="translate(0.000000, 160.000000)">
                    <g id="confetti" transform="translate(116.000000, 41.000000)">
                        <rect id="duplicate_24_Rectangle" fill="#FFDB18" opacity="0.800000012" transform="translate(180.464066, 67.464066) rotate(196.600000) translate(-180.464066, -67.464066) " x="174.464066" y="61.4640657" width="12" height="12"></rect>
                        <rect id="duplicate_24_Rectangle-Copy" fill="#FFDB18" opacity="0.600000024" transform="translate(338.464066, 190.464066) rotate(152.600006) translate(-338.464066, -190.464066) " x="332.464066" y="184.464066" width="12" height="12"></rect>
                        <rect id="duplicate_23_Rectangle" fill="#1EC4E9" opacity="0.300000012" transform="translate(132.899389, 212.899389) rotate(189.400000) translate(-132.899389, -212.899389) " x="126.899389" y="206.899389" width="12" height="12"></rect>
                        <rect id="duplicate_22_Rectangle" fill="#F46464" opacity="0.100000001" transform="translate(508.225904, 60.225904) rotate(182.200000) translate(-508.225904, -60.225904) " x="502.225904" y="54.2259044" width="12" height="12"></rect>
                        <rect id="duplicate_21_Rectangle" fill="#7A68E8" opacity="0.800000012" transform="translate(470.500103, 120.500103) rotate(175.000000) translate(-470.500103, -120.500103) " x="464.500103" y="114.500103" width="12" height="12"></rect>
                        <rect id="duplicate_21_Rectangle-Copy" fill="#7A68E8" opacity="0.200000003" transform="translate(320.500103, 220.500103) rotate(175.000000) translate(-320.500103, -220.500103) " x="314.500103" y="214.500103" width="12" height="12"></rect>
                        <rect id="duplicate_20_Rectangle" fill="#7ACB53" opacity="0.400000006" transform="translate(487.132444, 87.132444) rotate(167.800000) translate(-487.132444, -87.132444) " x="481.132444" y="81.1324441" width="12" height="12"></rect>
                        <rect id="duplicate_20_Rectangle-Copy" fill="#7ACB53" transform="translate(347.132444, 187.132444) rotate(187.800003) translate(-347.132444, -187.132444) " x="341.132444" y="181.132444" width="12" height="12"></rect>
                        <rect id="duplicate_19_Rectangle" fill="#4E82EE" opacity="0.100000001" transform="translate(426.652303, 232.652303) rotate(160.600000) translate(-426.652303, -232.652303) " x="420.652303" y="226.652303" width="12" height="12"></rect>
                        <rect id="duplicate_18_Rectangle" fill="#FFDB18" opacity="0.200000003" transform="translate(477.051480, 26.051480) rotate(153.400000) translate(-477.051480, -26.051480) " x="471.05148" y="20.0514799" width="12" height="12"></rect>
                        <rect id="duplicate_17_Rectangle" fill="#FF943C" opacity="0.400000006" transform="translate(454.323681, 178.323681) rotate(146.200000) translate(-454.323681, -178.323681) " x="448.323681" y="172.323681" width="12" height="12"></rect>
                        <rect id="duplicate_16_Rectangle" fill="#F46464" opacity="0.5" transform="translate(154.464612, 142.464612) rotate(119.000000) translate(-154.464612, -142.464612) " x="148.464612" y="136.464612" width="12" height="12"></rect>
                        <rect id="duplicate_15_Rectangle" fill="#4E82EE" opacity="0.100000001" transform="translate(536.472051, 114.472051) rotate(131.800000) translate(-536.472051, -114.472051) " x="530.472051" y="108.472051" width="12" height="12"></rect>
                        <rect id="duplicate_14_Rectangle" fill="#F46464" opacity="0.600000024" transform="translate(158.345881, 69.345881) rotate(124.600000) translate(-158.345881, -69.345881) " x="152.345881" y="63.3458807" width="12" height="12"></rect>
                        <rect id="duplicate_14_Rectangle-Copy" fill="#F46464" opacity="0.400000006" transform="translate(16.345881, 162.345881) rotate(124.600000) translate(-16.345881, -162.345881) " x="10.3458807" y="156.345881" width="12" height="12"></rect>
                        <rect id="duplicate_13_Rectangle" fill="#7A68E8" opacity="0.100000001" transform="translate(8.088091, 70.088091) rotate(117.400000) translate(-8.088091, -70.088091) " x="2.08809102" y="64.088091" width="12" height="12"></rect>
                        <rect id="duplicate_12_Rectangle" fill="#19BF7B" opacity="0.100000001" transform="translate(46.702747, 181.702747) rotate(110.200000) translate(-46.702747, -181.702747) " x="40.7027473" y="175.702747" width="12" height="12"></rect>
                        <rect id="duplicate_11_Rectangle" fill="#1EC4E9" opacity="0.400000006" transform="translate(494.195927, 154.195927) rotate(103.000000) translate(-494.195927, -154.195927) " x="488.195927" y="148.195927" width="12" height="12"></rect>
                        <rect id="duplicate_10_Rectangle" fill="#1EC4E9" opacity="0.300000012" transform="translate(88.575622, 54.575622) rotate(95.800000) translate(-88.575622, -54.575622) " x="82.575622" y="48.575622" width="12" height="12"></rect>
                        <rect id="duplicate_9_Rectangle" fill="#19BF7B" opacity="0.200000003" transform="translate(516.144802, 198.144802) rotate(88.600000) translate(-516.144802, -198.144802) " x="510.144802" y="192.144802" width="12" height="12"></rect>
                        <rect id="duplicate_8_Rectangle" fill="#7ACB53" opacity="0.600000024" transform="translate(431.829750, 140.829750) rotate(81.400000) translate(-431.829750, -140.829750) " x="425.82975" y="134.82975" width="12" height="12"></rect>
                        <rect id="duplicate_7_Rectangle" fill="#7ACB53" opacity="0.600000024" transform="translate(61.406989, 101.406989) rotate(74.200000) translate(-61.406989, -101.406989) " x="55.4069894" y="95.4069894" width="12" height="12"></rect>
                        <rect id="duplicate_6_Rectangle" fill="#FF943C" opacity="0.300000012" transform="translate(53.867416, 93.867416) rotate(67.000000) translate(-53.867416, -93.867416) " x="47.8674159" y="87.8674159" width="12" height="12"></rect>
                        <rect id="duplicate_5_Rectangle" fill="#19BF7B" opacity="0.200000003" transform="translate(148.203768, 8.203768) rotate(59.800000) translate(-148.203768, -8.203768) " x="142.203768" y="2.20376849" width="12" height="12"></rect>
                        <rect id="duplicate_5_Rectangle-Copy" fill="#19BF7B" opacity="0.200000003" transform="translate(56.100181, 37.100181) rotate(11.799999) translate(-56.100181, -37.100181) " x="50.1001806" y="31.1001806" width="12" height="12"></rect>
                        <rect id="duplicate_4_Rectangle" fill="#7A68E8" opacity="0.600000024" transform="translate(134.518481, 122.518481) rotate(52.600000) translate(-134.518481, -122.518481) " x="128.518481" y="116.518481" width="12" height="12"></rect>
                        <rect id="duplicate_3_Rectangle" fill="#F46464" opacity="0.600000024" transform="translate(472.485075, 127.485075) rotate(45.400000) translate(-472.485075, -127.485075) " x="466.485075" y="121.485075" width="12" height="12"></rect>
                        <rect id="duplicate_2_Rectangle" fill="#FF943C" opacity="0.200000003" transform="translate(101.425592, 174.425592) rotate(38.200000) translate(-101.425592, -174.425592) " x="95.4255917" y="168.425592" width="12" height="12"></rect>
                        <rect id="duplicate_1_Rectangle" fill="#1EC4E9" opacity="0.800000012" transform="translate(457.233232, 75.233232) rotate(31.000000) translate(-457.233232, -75.233232) " x="451.233232" y="69.2332323" width="12" height="12"></rect>
                    </g>
                    <g id="card-1-copy-6" transform="translate(420.000000, 150.000000) rotate(6.000000) translate(-420.000000, -150.000000) translate(295.000000, 25.000000)">
                        <g id="Mask">
                            <use fill="black" fill-opacity="1" filter="url(#filter-2)" xlink:href="#path-1"></use>
                            <rect stroke-opacity="0.0985337409" stroke="#427692" stroke-width="1" fill="#A295EE" fill-rule="evenodd" x="-0.5" y="-0.5" width="251" height="251" rx="12"></rect>
                        </g>
                        <path d="M0,10 L250,10 L250,238 C250,244.627417 244.627417,250 238,250 L12,250 C5.372583,250 8.11624501e-16,244.627417 0,238 L0,10 Z" id="Rectangle-12" fill="#FFFFFF"></path>
                        <path d="M0,170 L250,170 L250,238 C250,244.627417 244.627417,250 238,250 L12,250 C5.372583,250 8.11624501e-16,244.627417 0,238 L0,170 Z" id="Rectangle-12-Copy" fill="#F6F8FC"></path>
                        <g id="App-Store-Alt" transform="translate(24.000000, 34.000000)">
                            <mask id="mask-5" fill="white">
                                <use xlink:href="#path-4"></use>
                            </mask>
                            <use id="Mask" fill="url(#linearGradient-3)" xlink:href="#path-4"></use>
                            <polygon id="H-Copy" fill="#FFFFFF" mask="url(#mask-5)" points="48.243 21.18 48.243 51 43.497 51 43.497 37.854 28.461 37.854 28.461 51 23.757 51 23.757 21.18 28.461 21.18 28.461 33.654 43.497 33.654 43.497 21.18"></polygon>
                        </g>
                        <g id="Group-10-Copy" transform="translate(20.000000, 190.000000)" fill="#EDF3FD" stroke="#F6F8FC" stroke-width="4">
                            <path d="M43,-0.577350269 L56.3205081,7.11324865 C58.1769145,8.18504542 59.3205081,10.1658075 59.3205081,12.3094011 L59.3205081,27.6905989 C59.3205081,29.8341925 58.1769145,31.8149546 56.3205081,32.8867513 L43,40.5773503 C41.1435935,41.649147 38.8564065,41.649147 37,40.5773503 L23.6794919,32.8867513 C21.8230855,31.8149546 20.6794919,29.8341925 20.6794919,27.6905989 L20.6794919,12.3094011 C20.6794919,10.1658075 21.8230855,8.18504542 23.6794919,7.11324865 L37,-0.577350269 C38.8564065,-1.64914704 41.1435935,-1.64914704 43,-0.577350269 Z" id="Polygon-3-Copy-2"></path>
                            <path d="M23,-0.577350269 L36.3205081,7.11324865 C38.1769145,8.18504542 39.3205081,10.1658075 39.3205081,12.3094011 L39.3205081,27.6905989 C39.3205081,29.8341925 38.1769145,31.8149546 36.3205081,32.8867513 L23,40.5773503 C21.1435935,41.649147 18.8564065,41.649147 17,40.5773503 L3.67949192,32.8867513 C1.82308546,31.8149546 0.679491924,29.8341925 0.679491924,27.6905989 L0.679491924,12.3094011 C0.679491924,10.1658075 1.82308546,8.18504542 3.67949192,7.11324865 L17,-0.577350269 C18.8564065,-1.64914704 21.1435935,-1.64914704 23,-0.577350269 Z" id="Polygon-3-Copy-3"></path>
                        </g>
                        <g id="icon/secondary/large/more-actions/regular" transform="translate(190.000000, 190.000000)">
                            <g id="icon/gray/more-actions/large">
                                <circle id="Oval-9" fill="#EDF3FD" cx="20" cy="20" r="20"></circle>
                                <path d="M14,22 C12.8954305,22 12,21.1045695 12,20 C12,18.8954305 12.8954305,18 14,18 C15.1045695,18 16,18.8954305 16,20 C16,21.1045695 15.1045695,22 14,22 Z M20,22 C18.8954305,22 18,21.1045695 18,20 C18,18.8954305 18.8954305,18 20,18 C21.1045695,18 22,18.8954305 22,20 C22,21.1045695 21.1045695,22 20,22 Z M26,22 C24.8954305,22 24,21.1045695 24,20 C24,18.8954305 24.8954305,18 26,18 C27.1045695,18 28,18.8954305 28,20 C28,21.1045695 27.1045695,22 26,22 Z" id="Combined-Shape" fill="#083A45"></path>
                            </g>
                        </g>
                        <path d="M30.032,131.64 C30.3413349,131.64 30.5866658,131.733332 30.768,131.92 C30.9493342,132.106668 31.04,132.354665 31.04,132.664 L31.04,142.056 C31.04,142.365335 30.9466676,142.615999 30.76,142.808 C30.5733324,143.000001 30.3306682,143.096 30.032,143.096 C29.7226651,143.096 29.4773342,143.000001 29.296,142.808 C29.1146658,142.615999 29.024,142.365335 29.024,142.056 L29.024,138.104 L23.248,138.104 L23.248,142.056 C23.248,142.365335 23.1546676,142.615999 22.968,142.808 C22.7813324,143.000001 22.5333349,143.096 22.224,143.096 C21.9253318,143.096 21.6826676,143.000001 21.496,142.808 C21.3093324,142.615999 21.216,142.365335 21.216,142.056 L21.216,132.664 C21.216,132.354665 21.3066658,132.106668 21.488,131.92 C21.6693342,131.733332 21.9146651,131.64 22.224,131.64 C22.5333349,131.64 22.7813324,131.733332 22.968,131.92 C23.1546676,132.106668 23.248,132.354665 23.248,132.664 L23.248,136.44 L29.024,136.44 L29.024,132.664 C29.024,132.354665 29.1146658,132.106668 29.296,131.92 C29.4773342,131.733332 29.7226651,131.64 30.032,131.64 Z M39.488,140.856 C39.6693342,140.856 39.8159994,140.925333 39.928,141.064 C40.0400006,141.202667 40.096,141.389332 40.096,141.624 C40.096,141.954668 39.8986686,142.231999 39.504,142.456 C39.1413315,142.658668 38.730669,142.821333 38.272,142.944 C37.813331,143.066667 37.3760021,143.128 36.96,143.128 C35.701327,143.128 34.7040037,142.765337 33.968,142.04 C33.2319963,141.314663 32.864,140.322673 32.864,139.064 C32.864,138.263996 33.0239984,137.55467 33.344,136.936 C33.6640016,136.31733 34.1146638,135.837335 34.696,135.496 C35.2773362,135.154665 35.9359963,134.984 36.672,134.984 C37.3760035,134.984 37.9893307,135.138665 38.512,135.448 C39.0346693,135.757335 39.4399986,136.194664 39.728,136.76 C40.0160014,137.325336 40.16,137.991996 40.16,138.76 C40.16,139.218669 39.9573354,139.448 39.552,139.448 L34.832,139.448 C34.8960003,140.184004 35.1039982,140.725332 35.456,141.072 C35.8080018,141.418668 36.3199966,141.592 36.992,141.592 C37.333335,141.592 37.6346654,141.549334 37.896,141.464 C38.1573346,141.378666 38.4533317,141.261334 38.784,141.112 C39.1040016,140.941332 39.3386659,140.856 39.488,140.856 Z M36.72,136.392 C36.1759973,136.392 35.741335,136.562665 35.416,136.904 C35.090665,137.245335 34.8960003,137.735997 34.832,138.376 L38.448,138.376 C38.4266666,137.72533 38.2666682,137.232002 37.968,136.896 C37.6693318,136.559998 37.253336,136.392 36.72,136.392 Z M42.784,143.096 C42.4959986,143.096 42.2586676,143.013334 42.072,142.848 C41.8853324,142.682666 41.792,142.445335 41.792,142.136 L41.792,132.584 C41.792,132.274665 41.8853324,132.040001 42.072,131.88 C42.2586676,131.719999 42.4959986,131.64 42.784,131.64 C43.0720014,131.64 43.311999,131.719999 43.504,131.88 C43.696001,132.040001 43.792,132.274665 43.792,132.584 L43.792,142.136 C43.792,142.445335 43.696001,142.682666 43.504,142.848 C43.311999,143.013334 43.0720014,143.096 42.784,143.096 Z M46.848,143.096 C46.5599986,143.096 46.3226676,143.013334 46.136,142.848 C45.9493324,142.682666 45.856,142.445335 45.856,142.136 L45.856,132.584 C45.856,132.274665 45.9493324,132.040001 46.136,131.88 C46.3226676,131.719999 46.5599986,131.64 46.848,131.64 C47.1360014,131.64 47.375999,131.719999 47.568,131.88 C47.760001,132.040001 47.856,132.274665 47.856,132.584 L47.856,142.136 C47.856,142.445335 47.760001,142.682666 47.568,142.848 C47.375999,143.013334 47.1360014,143.096 46.848,143.096 Z M53.488,143.128 C52.687996,143.128 51.9866697,142.962668 51.384,142.632 C50.7813303,142.301332 50.3146683,141.82667 49.984,141.208 C49.6533317,140.58933 49.488,139.869337 49.488,139.048 C49.488,138.226663 49.6533317,137.509336 49.984,136.896 C50.3146683,136.282664 50.7813303,135.810668 51.384,135.48 C51.9866697,135.149332 52.687996,134.984 53.488,134.984 C54.288004,134.984 54.9893303,135.149332 55.592,135.48 C56.1946697,135.810668 56.658665,136.282664 56.984,136.896 C57.309335,137.509336 57.472,138.226663 57.472,139.048 C57.472,139.869337 57.309335,140.58933 56.984,141.208 C56.658665,141.82667 56.1946697,142.301332 55.592,142.632 C54.9893303,142.962668 54.288004,143.128 53.488,143.128 Z M53.472,141.576 C54.1226699,141.576 54.618665,141.362669 54.96,140.936 C55.301335,140.509331 55.472,139.880004 55.472,139.048 C55.472,138.226663 55.301335,137.600002 54.96,137.168 C54.618665,136.735998 54.1280032,136.52 53.488,136.52 C52.8479968,136.52 52.3546684,136.735998 52.008,137.168 C51.6613316,137.600002 51.488,138.226663 51.488,139.048 C51.488,139.880004 51.658665,140.509331 52,140.936 C52.341335,141.362669 52.8319968,141.576 53.472,141.576 Z M77.776,132.264 C77.850667,132.050666 77.9706658,131.890667 78.136,131.784 C78.3013342,131.677333 78.4853323,131.624 78.688,131.624 C78.9440013,131.624 79.1653324,131.703999 79.352,131.864 C79.5386676,132.024001 79.632,132.237332 79.632,132.504 C79.632,132.6 79.6053336,132.738666 79.552,132.92 L76.112,142.44 C76.0266662,142.653334 75.8853343,142.818666 75.688,142.936 C75.4906657,143.053334 75.2746678,143.112 75.04,143.112 C74.8053322,143.112 74.5866677,143.053334 74.384,142.936 C74.1813323,142.818666 74.042667,142.653334 73.968,142.44 L71.312,134.904 L68.608,142.44 C68.5226662,142.653334 68.3813343,142.818666 68.184,142.936 C67.9866657,143.053334 67.7706678,143.112 67.536,143.112 C67.3013322,143.112 67.0853343,143.053334 66.888,142.936 C66.6906657,142.818666 66.554667,142.653334 66.48,142.44 L63.04,132.92 C62.9866664,132.759999 62.96,132.621334 62.96,132.504 C62.96,132.237332 63.0586657,132.024001 63.256,131.864 C63.4533343,131.703999 63.685332,131.624 63.952,131.624 C64.1653344,131.624 64.3573325,131.677333 64.528,131.784 C64.6986675,131.890667 64.821333,132.050666 64.896,132.264 L67.616,140.088 L70.416,132.312 C70.490667,132.098666 70.6133325,131.930667 70.784,131.808 C70.9546675,131.685333 71.1413323,131.624 71.344,131.624 C71.5466677,131.624 71.7359991,131.685333 71.912,131.808 C72.0880009,131.930667 72.213333,132.103999 72.288,132.328 L75.008,140.184 L77.776,132.264 Z M84.784,143.128 C83.983996,143.128 83.2826697,142.962668 82.68,142.632 C82.0773303,142.301332 81.6106683,141.82667 81.28,141.208 C80.9493317,140.58933 80.784,139.869337 80.784,139.048 C80.784,138.226663 80.9493317,137.509336 81.28,136.896 C81.6106683,136.282664 82.0773303,135.810668 82.68,135.48 C83.2826697,135.149332 83.983996,134.984 84.784,134.984 C85.584004,134.984 86.2853303,135.149332 86.888,135.48 C87.4906697,135.810668 87.954665,136.282664 88.28,136.896 C88.605335,137.509336 88.768,138.226663 88.768,139.048 C88.768,139.869337 88.605335,140.58933 88.28,141.208 C87.954665,141.82667 87.4906697,142.301332 86.888,142.632 C86.2853303,142.962668 85.584004,143.128 84.784,143.128 Z M84.768,141.576 C85.4186699,141.576 85.914665,141.362669 86.256,140.936 C86.597335,140.509331 86.768,139.880004 86.768,139.048 C86.768,138.226663 86.597335,137.600002 86.256,137.168 C85.914665,136.735998 85.4240032,136.52 84.784,136.52 C84.1439968,136.52 83.6506684,136.735998 83.304,137.168 C82.9573316,137.600002 82.784,138.226663 82.784,139.048 C82.784,139.880004 82.954665,140.509331 83.296,140.936 C83.637335,141.362669 84.1279968,141.576 84.768,141.576 Z M94.784,135.016 C95.0613347,134.994667 95.2799992,135.053333 95.44,135.192 C95.6000008,135.330667 95.68,135.538665 95.68,135.816 C95.68,136.104001 95.6106674,136.317333 95.472,136.456 C95.3333326,136.594667 95.0826685,136.685333 94.72,136.728 L94.24,136.776 C93.6106635,136.84 93.1493348,137.053332 92.856,137.416 C92.5626652,137.778668 92.416,138.231997 92.416,138.776 L92.416,142.136 C92.416,142.445335 92.320001,142.682666 92.128,142.848 C91.935999,143.013334 91.6960014,143.096 91.408,143.096 C91.1199986,143.096 90.8826676,143.013334 90.696,142.848 C90.5093324,142.682666 90.416,142.445335 90.416,142.136 L90.416,135.944 C90.416,135.645332 90.5093324,135.416001 90.696,135.256 C90.8826676,135.095999 91.1146653,135.016 91.392,135.016 C91.6693347,135.016 91.8933325,135.093333 92.064,135.248 C92.2346675,135.402667 92.32,135.623999 92.32,135.912 L92.32,136.552 C92.5226677,136.082664 92.823998,135.720001 93.224,135.464 C93.624002,135.207999 94.0693309,135.064 94.56,135.032 L94.784,135.016 Z M97.536,143.096 C97.2479986,143.096 97.0106676,143.013334 96.824,142.848 C96.6373324,142.682666 96.544,142.445335 96.544,142.136 L96.544,132.584 C96.544,132.274665 96.6373324,132.040001 96.824,131.88 C97.0106676,131.719999 97.2479986,131.64 97.536,131.64 C97.8240014,131.64 98.063999,131.719999 98.256,131.88 C98.448001,132.040001 98.544,132.274665 98.544,132.584 L98.544,142.136 C98.544,142.445335 98.448001,142.682666 98.256,142.848 C98.063999,143.013334 97.8240014,143.096 97.536,143.096 Z M107.136,131.64 C107.434668,131.64 107.679999,131.725332 107.872,131.896 C108.064001,132.066668 108.16,132.290665 108.16,132.568 L108.16,142.136 C108.16,142.424001 108.069334,142.653332 107.888,142.824 C107.706666,142.994668 107.466668,143.08 107.168,143.08 C106.869332,143.08 106.629334,142.994668 106.448,142.824 C106.266666,142.653332 106.176,142.424001 106.176,142.136 L106.176,141.736 C105.941332,142.173336 105.602669,142.514665 105.16,142.76 C104.717331,143.005335 104.213336,143.128 103.648,143.128 C102.975997,143.128 102.376003,142.957335 101.848,142.616 C101.319997,142.274665 100.909335,141.792003 100.616,141.168 C100.322665,140.543997 100.176,139.826671 100.176,139.016 C100.176,138.205329 100.322665,137.496003 100.616,136.888 C100.909335,136.279997 101.317331,135.810668 101.84,135.48 C102.362669,135.149332 102.96533,134.984 103.648,134.984 C104.213336,134.984 104.714664,135.101332 105.152,135.336 C105.589336,135.570668 105.925332,135.901331 106.16,136.328 L106.16,132.536 C106.16,132.269332 106.247999,132.053334 106.424,131.888 C106.600001,131.722666 106.837332,131.64 107.136,131.64 Z M104.176,141.576 C104.816003,141.576 105.309332,141.357336 105.656,140.92 C106.002668,140.482664 106.176,139.858671 106.176,139.048 C106.176,138.237329 106.002668,137.616002 105.656,137.184 C105.309332,136.751998 104.821336,136.536 104.192,136.536 C103.551997,136.536 103.056002,136.749331 102.704,137.176 C102.351998,137.602669 102.176,138.215996 102.176,139.016 C102.176,139.826671 102.351998,140.455998 102.704,140.904 C103.056002,141.352002 103.546664,141.576 104.176,141.576 Z" id="Hello-World-Applicat-Copy" fill="#556F7D"></path>
                        <path d="M114.95495,143.202647 C114.645615,143.202647 114.402951,143.117314 114.22695,142.946647 C114.050949,142.775979 113.96295,142.535982 113.96295,142.226647 L113.96295,132.898647 C113.96295,132.589312 114.050949,132.349314 114.22695,132.178647 C114.402951,132.007979 114.645615,131.922647 114.95495,131.922647 L118.12295,131.922647 C119.968293,131.922647 121.400279,132.415975 122.41895,133.402647 C123.437622,134.389318 123.94695,135.773305 123.94695,137.554647 C123.94695,139.346656 123.437622,140.735975 122.41895,141.722647 C121.400279,142.709318 119.968293,143.202647 118.12295,143.202647 L114.95495,143.202647 Z M117.99495,141.522647 C120.586963,141.522647 121.88295,140.199993 121.88295,137.554647 C121.88295,134.919967 120.586963,133.602647 117.99495,133.602647 L116.02695,133.602647 L116.02695,141.522647 L117.99495,141.522647 Z M132.04295,141.058647 C132.224285,141.058647 132.37095,141.12798 132.48295,141.266647 C132.594951,141.405314 132.65095,141.591979 132.65095,141.826647 C132.65095,142.157315 132.453619,142.434646 132.05895,142.658647 C131.696282,142.861315 131.285619,143.02398 130.82695,143.146647 C130.368281,143.269314 129.930952,143.330647 129.51495,143.330647 C128.256277,143.330647 127.258954,142.967984 126.52295,142.242647 C125.786947,141.51731 125.41895,140.52532 125.41895,139.266647 C125.41895,138.466643 125.578949,137.757317 125.89895,137.138647 C126.218952,136.519977 126.669614,136.039982 127.25095,135.698647 C127.832287,135.357312 128.490947,135.186647 129.22695,135.186647 C129.930954,135.186647 130.544281,135.341312 131.06695,135.650647 C131.58962,135.959982 131.994949,136.397311 132.28295,136.962647 C132.570952,137.527983 132.71495,138.194643 132.71495,138.962647 C132.71495,139.421316 132.512286,139.650647 132.10695,139.650647 L127.38695,139.650647 C127.450951,140.386651 127.658949,140.927978 128.01095,141.274647 C128.362952,141.621315 128.874947,141.794647 129.54695,141.794647 C129.888285,141.794647 130.189616,141.751981 130.45095,141.666647 C130.712285,141.581313 131.008282,141.463981 131.33895,141.314647 C131.658952,141.143979 131.893616,141.058647 132.04295,141.058647 Z M129.27495,136.594647 C128.730948,136.594647 128.296285,136.765312 127.97095,137.106647 C127.645615,137.447982 127.450951,137.938644 127.38695,138.578647 L131.00295,138.578647 C130.981617,137.927977 130.821618,137.434649 130.52295,137.098647 C130.224282,136.762645 129.808286,136.594647 129.27495,136.594647 Z M138.84295,135.186647 C139.514954,135.186647 140.114948,135.357312 140.64295,135.698647 C141.170953,136.039982 141.581615,136.522644 141.87495,137.146647 C142.168285,137.77065 142.31495,138.487976 142.31495,139.298647 C142.31495,140.109318 142.168285,140.818644 141.87495,141.426647 C141.581615,142.03465 141.17362,142.503979 140.65095,142.834647 C140.128281,143.165315 139.52562,143.330647 138.84295,143.330647 C138.288281,143.330647 137.792286,143.213315 137.35495,142.978647 C136.917615,142.743979 136.581618,142.418649 136.34695,142.002647 L136.34695,145.266647 C136.34695,145.543982 136.256285,145.762646 136.07495,145.922647 C135.893616,146.082648 135.653618,146.162647 135.35495,146.162647 C135.056282,146.162647 134.813618,146.077314 134.62695,145.906647 C134.440283,145.735979 134.34695,145.511982 134.34695,145.234647 L134.34695,136.162647 C134.34695,135.874645 134.434949,135.645314 134.61095,135.474647 C134.786951,135.303979 135.024282,135.218647 135.32295,135.218647 C135.621618,135.218647 135.861616,135.303979 136.04295,135.474647 C136.224285,135.645314 136.31495,135.874645 136.31495,136.162647 L136.31495,136.562647 C136.549618,136.125311 136.888281,135.786648 137.33095,135.546647 C137.773619,135.306646 138.277614,135.186647 138.84295,135.186647 Z M138.31495,141.778647 C138.944287,141.778647 139.434949,141.562649 139.78695,141.130647 C140.138952,140.698645 140.31495,140.087984 140.31495,139.298647 C140.31495,138.487976 140.138952,137.858649 139.78695,137.410647 C139.434949,136.962645 138.944287,136.738647 138.31495,136.738647 C137.674947,136.738647 137.181619,136.957311 136.83495,137.394647 C136.488282,137.831982 136.31495,138.455976 136.31495,139.266647 C136.31495,140.066651 136.488282,140.685311 136.83495,141.122647 C137.181619,141.559982 137.674947,141.778647 138.31495,141.778647 Z M144.95495,143.298647 C144.666949,143.298647 144.429618,143.215981 144.24295,143.050647 C144.056283,142.885313 143.96295,142.647982 143.96295,142.338647 L143.96295,132.786647 C143.96295,132.477312 144.056283,132.242648 144.24295,132.082647 C144.429618,131.922646 144.666949,131.842647 144.95495,131.842647 C145.242952,131.842647 145.482949,131.922646 145.67495,132.082647 C145.866951,132.242648 145.96295,132.477312 145.96295,132.786647 L145.96295,142.338647 C145.96295,142.647982 145.866951,142.885313 145.67495,143.050647 C145.482949,143.215981 145.242952,143.298647 144.95495,143.298647 Z M151.59495,143.330647 C150.794946,143.330647 150.09362,143.165315 149.49095,142.834647 C148.888281,142.503979 148.421619,142.029317 148.09095,141.410647 C147.760282,140.791977 147.59495,140.071984 147.59495,139.250647 C147.59495,138.429309 147.760282,137.711983 148.09095,137.098647 C148.421619,136.48531 148.888281,136.013315 149.49095,135.682647 C150.09362,135.351979 150.794946,135.186647 151.59495,135.186647 C152.394954,135.186647 153.096281,135.351979 153.69895,135.682647 C154.30162,136.013315 154.765615,136.48531 155.09095,137.098647 C155.416285,137.711983 155.57895,138.429309 155.57895,139.250647 C155.57895,140.071984 155.416285,140.791977 155.09095,141.410647 C154.765615,142.029317 154.30162,142.503979 153.69895,142.834647 C153.096281,143.165315 152.394954,143.330647 151.59495,143.330647 Z M151.57895,141.778647 C152.22962,141.778647 152.725615,141.565316 153.06695,141.138647 C153.408285,140.711978 153.57895,140.082651 153.57895,139.250647 C153.57895,138.429309 153.408285,137.802649 153.06695,137.370647 C152.725615,136.938645 152.234953,136.722647 151.59495,136.722647 C150.954947,136.722647 150.461619,136.938645 150.11495,137.370647 C149.768282,137.802649 149.59495,138.429309 149.59495,139.250647 C149.59495,140.082651 149.765615,140.711978 150.10695,141.138647 C150.448285,141.565316 150.938947,141.778647 151.57895,141.778647 Z M162.68295,135.794647 C162.768284,135.602646 162.88295,135.461314 163.02695,135.370647 C163.170951,135.27998 163.328283,135.234647 163.49895,135.234647 C163.744285,135.234647 163.965616,135.317313 164.16295,135.482647 C164.360285,135.647981 164.45895,135.853312 164.45895,136.098647 C164.45895,136.215981 164.426951,136.338646 164.36295,136.466647 L159.99495,145.618647 C159.813616,145.981315 159.530952,146.162647 159.14695,146.162647 C158.901616,146.162647 158.685618,146.085314 158.49895,145.930647 C158.312283,145.775979 158.21895,145.581315 158.21895,145.346647 C158.21895,145.229313 158.25095,145.095981 158.31495,144.946647 L159.40295,142.658647 L156.42695,136.466647 C156.373617,136.35998 156.34695,136.237314 156.34695,136.098647 C156.34695,135.853312 156.450949,135.645314 156.65895,135.474647 C156.866951,135.303979 157.104282,135.218647 157.37095,135.218647 C157.552285,135.218647 157.717616,135.26398 157.86695,135.354647 C158.016284,135.445314 158.133617,135.586646 158.21895,135.778647 L160.45895,140.722647 L162.68295,135.794647 Z M174.93895,135.186647 C175.792288,135.186647 176.445615,135.439978 176.89895,135.946647 C177.352286,136.453316 177.57895,137.271975 177.57895,138.402647 L177.57895,142.338647 C177.57895,142.647982 177.485618,142.885313 177.29895,143.050647 C177.112283,143.215981 176.869618,143.298647 176.57095,143.298647 C176.282949,143.298647 176.045618,143.215981 175.85895,143.050647 C175.672283,142.885313 175.57895,142.647982 175.57895,142.338647 L175.57895,138.402647 C175.57895,137.815977 175.474951,137.397315 175.26695,137.146647 C175.058949,136.895979 174.741619,136.770647 174.31495,136.770647 C173.792281,136.770647 173.376285,136.949312 173.06695,137.306647 C172.757615,137.663982 172.60295,138.151977 172.60295,138.770647 L172.60295,142.338647 C172.60295,142.647982 172.509618,142.885313 172.32295,143.050647 C172.136283,143.215981 171.898952,143.298647 171.61095,143.298647 C171.322949,143.298647 171.082951,143.215981 170.89095,143.050647 C170.698949,142.885313 170.60295,142.647982 170.60295,142.338647 L170.60295,138.402647 C170.60295,137.815977 170.498951,137.397315 170.29095,137.146647 C170.082949,136.895979 169.765619,136.770647 169.33895,136.770647 C168.816281,136.770647 168.402952,136.949312 168.09895,137.306647 C167.794949,137.663982 167.64295,138.151977 167.64295,138.770647 L167.64295,142.338647 C167.64295,142.647982 167.546951,142.885313 167.35495,143.050647 C167.162949,143.215981 166.922952,143.298647 166.63495,143.298647 C166.346949,143.298647 166.109618,143.215981 165.92295,143.050647 C165.736283,142.885313 165.64295,142.647982 165.64295,142.338647 L165.64295,136.146647 C165.64295,135.847979 165.738949,135.618648 165.93095,135.458647 C166.122951,135.298646 166.362949,135.218647 166.65095,135.218647 C166.928285,135.218647 167.154949,135.295979 167.33095,135.450647 C167.506951,135.605314 167.59495,135.826645 167.59495,136.114647 L167.59495,136.498647 C167.840285,136.071978 168.168282,135.746648 168.57895,135.522647 C168.989619,135.298646 169.461614,135.186647 169.99495,135.186647 C171.168289,135.186647 171.952282,135.677309 172.34695,136.658647 C172.581618,136.210645 172.928281,135.853315 173.38695,135.586647 C173.845619,135.319979 174.362947,135.186647 174.93895,135.186647 Z M185.80295,141.058647 C185.984285,141.058647 186.13095,141.12798 186.24295,141.266647 C186.354951,141.405314 186.41095,141.591979 186.41095,141.826647 C186.41095,142.157315 186.213619,142.434646 185.81895,142.658647 C185.456282,142.861315 185.045619,143.02398 184.58695,143.146647 C184.128281,143.269314 183.690952,143.330647 183.27495,143.330647 C182.016277,143.330647 181.018954,142.967984 180.28295,142.242647 C179.546947,141.51731 179.17895,140.52532 179.17895,139.266647 C179.17895,138.466643 179.338949,137.757317 179.65895,137.138647 C179.978952,136.519977 180.429614,136.039982 181.01095,135.698647 C181.592287,135.357312 182.250947,135.186647 182.98695,135.186647 C183.690954,135.186647 184.304281,135.341312 184.82695,135.650647 C185.34962,135.959982 185.754949,136.397311 186.04295,136.962647 C186.330952,137.527983 186.47495,138.194643 186.47495,138.962647 C186.47495,139.421316 186.272286,139.650647 185.86695,139.650647 L181.14695,139.650647 C181.210951,140.386651 181.418949,140.927978 181.77095,141.274647 C182.122952,141.621315 182.634947,141.794647 183.30695,141.794647 C183.648285,141.794647 183.949616,141.751981 184.21095,141.666647 C184.472285,141.581313 184.768282,141.463981 185.09895,141.314647 C185.418952,141.143979 185.653616,141.058647 185.80295,141.058647 Z M183.03495,136.594647 C182.490948,136.594647 182.056285,136.765312 181.73095,137.106647 C181.405615,137.447982 181.210951,137.938644 181.14695,138.578647 L184.76295,138.578647 C184.741617,137.927977 184.581618,137.434649 184.28295,137.098647 C183.984282,136.762645 183.568286,136.594647 183.03495,136.594647 Z M192.65095,135.186647 C193.589622,135.186647 194.288281,135.453311 194.74695,135.986647 C195.205619,136.519983 195.43495,137.325308 195.43495,138.402647 L195.43495,142.338647 C195.43495,142.637315 195.346951,142.871979 195.17095,143.042647 C194.994949,143.213314 194.752285,143.298647 194.44295,143.298647 C194.133615,143.298647 193.888285,143.213314 193.70695,143.042647 C193.525616,142.871979 193.43495,142.637315 193.43495,142.338647 L193.43495,138.514647 C193.43495,137.906644 193.320285,137.463982 193.09095,137.186647 C192.861616,136.909312 192.501619,136.770647 192.01095,136.770647 C191.434947,136.770647 190.973619,136.951978 190.62695,137.314647 C190.280282,137.677315 190.10695,138.162644 190.10695,138.770647 L190.10695,142.338647 C190.10695,142.637315 190.016285,142.871979 189.83495,143.042647 C189.653616,143.213314 189.408285,143.298647 189.09895,143.298647 C188.789615,143.298647 188.546951,143.213314 188.37095,143.042647 C188.194949,142.871979 188.10695,142.637315 188.10695,142.338647 L188.10695,136.146647 C188.10695,135.869312 188.197616,135.645314 188.37895,135.474647 C188.560285,135.303979 188.805615,135.218647 189.11495,135.218647 C189.392285,135.218647 189.618949,135.301313 189.79495,135.466647 C189.970951,135.631981 190.05895,135.847979 190.05895,136.114647 L190.05895,136.546647 C190.325618,136.109311 190.682948,135.773315 191.13095,135.538647 C191.578953,135.303979 192.085614,135.186647 192.65095,135.186647 Z M201.53095,141.810647 C202.064286,141.842647 202.33095,142.082645 202.33095,142.530647 C202.33095,142.786648 202.226951,142.981313 202.01895,143.114647 C201.810949,143.247981 201.514952,143.30398 201.13095,143.282647 L200.69895,143.250647 C198.906941,143.122646 198.01095,142.162656 198.01095,140.370647 L198.01095,136.882647 L197.21095,136.882647 C196.922949,136.882647 196.701618,136.818648 196.54695,136.690647 C196.392283,136.562646 196.31495,136.375981 196.31495,136.130647 C196.31495,135.885312 196.392283,135.698648 196.54695,135.570647 C196.701618,135.442646 196.922949,135.378647 197.21095,135.378647 L198.01095,135.378647 L198.01095,133.906647 C198.01095,133.618645 198.101616,133.389314 198.28295,133.218647 C198.464285,133.047979 198.709615,132.962647 199.01895,132.962647 C199.317618,132.962647 199.557616,133.047979 199.73895,133.218647 C199.920285,133.389314 200.01095,133.618645 200.01095,133.906647 L200.01095,135.378647 L201.37095,135.378647 C201.658952,135.378647 201.880283,135.442646 202.03495,135.570647 C202.189618,135.698648 202.26695,135.885312 202.26695,136.130647 C202.26695,136.375981 202.189618,136.562646 202.03495,136.690647 C201.880283,136.818648 201.658952,136.882647 201.37095,136.882647 L200.01095,136.882647 L200.01095,140.514647 C200.01095,141.303984 200.373613,141.725313 201.09895,141.778647 L201.53095,141.810647 Z" id="Deployment" fill="#556F7D"></path>
                    </g>
                    <g id="Group-6" transform="translate(320.000000, 222.000000) rotate(4.000000) translate(-320.000000, -222.000000) translate(300.000000, 202.000000)">
                        <g id="Polygon-3-Copy">
                            <use fill="black" fill-opacity="1" filter="url(#filter-8)" xlink:href="#path-7"></use>
                            <use fill="url(#linearGradient-6)" fill-rule="evenodd" xlink:href="#path-7"></use>
                        </g>
                        <path d="M21.04,27.18 C19.6799932,27.18 18.4900051,26.8866696 17.47,26.3 C16.4499949,25.7133304 15.6666694,24.8733388 15.12,23.78 C14.5733306,22.6866612 14.3,21.406674 14.3,19.94 C14.3,18.473326 14.5733306,17.1966721 15.12,16.11 C15.6666694,15.0233279 16.4499949,14.1866696 17.47,13.6 C18.4900051,13.0133304 19.6799932,12.72 21.04,12.72 C21.9200044,12.72 22.7466628,12.8499987 23.52,13.11 C24.2933372,13.3700013 24.979997,13.7466642 25.58,14.24 C25.7533342,14.373334 25.873333,14.5133326 25.94,14.66 C26.006667,14.8066674 26.04,14.9866656 26.04,15.2 C26.04,15.4933348 25.9600008,15.739999 25.8,15.94 C25.6399992,16.140001 25.4466678,16.24 25.22,16.24 C24.953332,16.24 24.6800014,16.1466676 24.4,15.96 C23.8266638,15.5333312 23.2933358,15.2366675 22.8,15.07 C22.3066642,14.9033325 21.760003,14.82 21.16,14.82 C19.7733264,14.82 18.7233369,15.253329 18.01,16.12 C17.2966631,16.986671 16.94,18.2599916 16.94,19.94 C16.94,21.6333418 17.2966631,22.913329 18.01,23.78 C18.7233369,24.646671 19.7733264,25.08 21.16,25.08 C21.7333362,25.08 22.2633309,24.9933342 22.75,24.82 C23.2366691,24.6466658 23.7866636,24.3533354 24.4,23.94 C24.533334,23.8599996 24.666666,23.7933336 24.8,23.74 C24.933334,23.6866664 25.0733326,23.66 25.22,23.66 C25.4466678,23.66 25.6399992,23.759999 25.8,23.96 C25.9600008,24.160001 26.04,24.4066652 26.04,24.7 C26.04,24.900001 26.006667,25.0766659 25.94,25.23 C25.873333,25.3833341 25.7533342,25.526666 25.58,25.66 C24.979997,26.1533358 24.2933372,26.5299987 23.52,26.79 C22.7466628,27.0500013 21.9200044,27.18 21.04,27.18 Z" id="C-Copy" fill="#FFFFFF"></path>
                    </g>
                    <g id="Group-4" transform="translate(284.000000, 240.000000) rotate(-16.000000) translate(-284.000000, -240.000000) translate(252.000000, 208.000000)">
                        <g id="Polygon-3-Copy-2">
                            <use fill="black" fill-opacity="1" filter="url(#filter-11)" xlink:href="#path-10"></use>
                            <use fill="url(#linearGradient-9)" fill-rule="evenodd" xlink:href="#path-10"></use>
                        </g>
                        <path d="M37.392,30.552 C38.6933398,30.9146685 39.7013298,31.5759952 40.416,32.536 C41.1306702,33.4960048 41.488,34.6693264 41.488,36.056 C41.488,37.9760096 40.8000069,39.4799946 39.424,40.568 C38.0479931,41.6560054 36.1546787,42.2 33.744,42.2 L25.488,42.2 C24.8693302,42.2 24.3840018,42.029335 24.032,41.688 C23.6799982,41.346665 23.504,40.8666698 23.504,40.248 L23.504,21.592 C23.504,20.9733302 23.6799982,20.493335 24.032,20.152 C24.3840018,19.810665 24.8693302,19.64 25.488,19.64 L33.424,19.64 C35.7706784,19.64 37.61066,20.1573282 38.944,21.192 C40.27734,22.2266718 40.944,23.6719907 40.944,25.528 C40.944,26.7226726 40.6293365,27.757329 40,28.632 C39.3706635,29.506671 38.5013389,30.1466646 37.392,30.552 Z M27.536,29.144 L32.752,29.144 C35.5893475,29.144 37.008,28.0880106 37.008,25.976 C37.008,24.909328 36.6560035,24.1200026 35.952,23.608 C35.2479965,23.0959974 34.1813405,22.84 32.752,22.84 L27.536,22.84 L27.536,29.144 Z M33.296,39 C34.7893408,39 35.8773299,38.733336 36.56,38.2 C37.2426701,37.666664 37.584,36.8346723 37.584,35.704 C37.584,34.5733277 37.2373368,33.7306694 36.544,33.176 C35.8506632,32.6213306 34.7680074,32.344 33.296,32.344 L27.536,32.344 L27.536,39 L33.296,39 Z" id="B-Copy" fill="#FFFFFF"></path>
                    </g>
                    <g id="Group-5" transform="translate(210.000000, 180.000000) rotate(28.000000) translate(-210.000000, -180.000000) translate(170.000000, 140.000000)">
                        <g id="Polygon-3-Copy-2">
                            <use fill="black" fill-opacity="1" filter="url(#filter-14)" xlink:href="#path-13"></use>
                            <use fill="url(#linearGradient-12)" fill-rule="evenodd" xlink:href="#path-13"></use>
                        </g>
                        <path d="M53.76,49.92 C53.9200008,50.2666684 54,50.6133316 54,50.96 C54,51.5733364 53.7533358,52.0933312 53.26,52.52 C52.7666642,52.9466688 52.2000032,53.16 51.56,53.16 C51.1333312,53.16 50.7333352,53.0466678 50.36,52.82 C49.9866648,52.5933322 49.6933344,52.2400024 49.48,51.76 L47.08,46.4 L33,46.4 L30.6,51.76 C30.3866656,52.2400024 30.0933352,52.5933322 29.72,52.82 C29.3466648,53.0466678 28.9333356,53.16 28.48,53.16 C27.8666636,53.16 27.3066692,52.9466688 26.8,52.52 C26.2933308,52.0933312 26.04,51.5733364 26.04,50.96 C26.04,50.6133316 26.1199992,50.2666684 26.28,49.92 L37.32,26.2 C37.5600012,25.666664 37.9266642,25.2600014 38.42,24.98 C38.9133358,24.6999986 39.4399972,24.56 40,24.56 C40.5600028,24.56 41.0866642,24.6999986 41.58,24.98 C42.0733358,25.2600014 42.4399988,25.666664 42.68,26.2 L53.76,49.92 Z M34.76,42.4 L45.32,42.4 L40.04,30.52 L34.76,42.4 Z" id="A-Copy" fill="#FFFFFF"></path>
                    </g>
                </g>
            </g>
        </g>
    </g>
</svg>