<?xml version="1.0" encoding="UTF-8"?>
<svg width="740px" height="300px" viewBox="0 0 740 300" version="1.1" xmlns="http://www.w3.org/2000/svg" xmlns:xlink="http://www.w3.org/1999/xlink">
    <!-- Generator: Sketch 49.3 (51167) - http://www.bohemiancoding.com/sketch -->
    <title>popup-create-kintoblock</title>
    <desc>Created with Sketch.</desc>
    <defs>
        <rect id="path-1" x="0" y="0" width="250" height="250" rx="12"></rect>
        <filter x="-10.8%" y="-8.4%" width="121.6%" height="121.6%" filterUnits="objectBoundingBox" id="filter-2">
            <feMorphology radius="1" operator="dilate" in="SourceAlpha" result="shadowSpreadOuter1"></feMorphology>
            <feOffset dx="0" dy="4" in="shadowSpreadOuter1" result="shadowOffsetOuter1"></feOffset>
            <feGaussianBlur stdDeviation="6" in="shadowOffsetOuter1" result="shadowBlurOuter1"></feGaussianBlur>
            <feComposite in="shadowBlurOuter1" in2="SourceAlpha" operator="out" result="shadowBlurOuter1"></feComposite>
            <feColorMatrix values="0 0 0 0 0.25869511   0 0 0 0 0.461476445   0 0 0 0 0.570764243  0 0 0 0.100486866 0" type="matrix" in="shadowBlurOuter1" result="shadowMatrixOuter1"></feColorMatrix>
            <feMorphology radius="1" operator="dilate" in="SourceAlpha" result="shadowSpreadOuter2"></feMorphology>
            <feOffset dx="0" dy="2" in="shadowSpreadOuter2" result="shadowOffsetOuter2"></feOffset>
            <feGaussianBlur stdDeviation="3" in="shadowOffsetOuter2" result="shadowBlurOuter2"></feGaussianBlur>
            <feComposite in="shadowBlurOuter2" in2="SourceAlpha" operator="out" result="shadowBlurOuter2"></feComposite>
            <feColorMatrix values="0 0 0 0 0.25869511   0 0 0 0 0.461476445   0 0 0 0 0.570764243  0 0 0 0.0998358243 0" type="matrix" in="shadowBlurOuter2" result="shadowMatrixOuter2"></feColorMatrix>
            <feMerge>
                <feMergeNode in="shadowMatrixOuter1"></feMergeNode>
                <feMergeNode in="shadowMatrixOuter2"></feMergeNode>
            </feMerge>
        </filter>
        <path d="M9.25,0.288675135 L12.580127,2.21132487 C12.8895281,2.38995766 13.080127,2.72008468 13.080127,3.07735027 L13.080127,7.38540649 L16.9271488,9.70829405 C17.2269927,9.88934415 17.410254,10.2140781 17.410254,10.564343 L17.410254,14.4226497 C17.410254,14.7799153 17.2196551,15.1100423 16.910254,15.2886751 L9.25,19.7113249 C8.94059892,19.8899577 8.55940108,19.8899577 8.25,19.7113249 L0.589745962,15.2886751 C0.280344885,15.1100423 0.0897459622,14.7799153 0.0897459622,14.4226497 L0.0897459622,5.57735027 C0.0897459622,5.22008468 0.280344885,4.88995766 0.589745962,4.71132487 L8.25,0.288675135 C8.55940108,0.11004234 8.94059892,0.11004234 9.25,0.288675135 Z" id="path-3"></path>
        <linearGradient x1="50%" y1="0%" x2="50%" y2="100%" id="linearGradient-5">
            <stop stop-color="#7EA6FF" offset="0%"></stop>
            <stop stop-color="#5364E8" offset="100%"></stop>
        </linearGradient>
        <path d="M42,1.15470054 L55.3205081,8.84529946 C56.5581124,9.55983064 57.3205081,10.8803387 57.3205081,12.3094011 L57.3205081,27.6905989 C57.3205081,29.1196613 56.5581124,30.4401694 55.3205081,31.1547005 L42,38.8452995 C40.7623957,39.5598306 39.2376043,39.5598306 38,38.8452995 L24.6794919,31.1547005 C23.4418876,30.4401694 22.6794919,29.1196613 22.6794919,27.6905989 L22.6794919,12.3094011 C22.6794919,10.8803387 23.4418876,9.55983064 24.6794919,8.84529946 L38,1.15470054 C39.2376043,0.440169359 40.7623957,0.440169359 42,1.15470054 Z" id="path-6"></path>
        <path d="M22,1.15470054 L35.3205081,8.84529946 C36.5581124,9.55983064 37.3205081,10.8803387 37.3205081,12.3094011 L37.3205081,27.6905989 C37.3205081,29.1196613 36.5581124,30.4401694 35.3205081,31.1547005 L22,38.8452995 C20.7623957,39.5598306 19.2376043,39.5598306 18,38.8452995 L4.67949192,31.1547005 C3.44188762,30.4401694 2.67949192,29.1196613 2.67949192,27.6905989 L2.67949192,12.3094011 C2.67949192,10.8803387 3.44188762,9.55983064 4.67949192,8.84529946 L18,1.15470054 C19.2376043,0.440169359 20.7623957,0.440169359 22,1.15470054 Z" id="path-7"></path>
        <linearGradient x1="50%" y1="100%" x2="50%" y2="-2.48949813e-15%" id="linearGradient-8">
            <stop stop-color="#1EC4E9" offset="0%"></stop>
            <stop stop-color="#53D9EB" offset="100%"></stop>
        </linearGradient>
        <path d="M22,1.15470054 L35.3205081,8.84529946 C36.5581124,9.55983064 37.3205081,10.8803387 37.3205081,12.3094011 L37.3205081,27.6905989 C37.3205081,29.1196613 36.5581124,30.4401694 35.3205081,31.1547005 L22,38.8452995 C20.7623957,39.5598306 19.2376043,39.5598306 18,38.8452995 L4.67949192,31.1547005 C3.44188762,30.4401694 2.67949192,29.1196613 2.67949192,27.6905989 L2.67949192,12.3094011 C2.67949192,10.8803387 3.44188762,9.55983064 4.67949192,8.84529946 L18,1.15470054 C19.2376043,0.440169359 20.7623957,0.440169359 22,1.15470054 Z" id="path-9"></path>
        <filter x="-17.5%" y="-12.5%" width="135.0%" height="135.0%" filterUnits="objectBoundingBox" id="filter-10">
            <feOffset dx="0" dy="2" in="SourceAlpha" result="shadowOffsetOuter1"></feOffset>
            <feGaussianBlur stdDeviation="2" in="shadowOffsetOuter1" result="shadowBlurOuter1"></feGaussianBlur>
            <feColorMatrix values="0 0 0 0 0.258823529   0 0 0 0 0.462745098   0 0 0 0 0.57254902  0 0 0 0.202643795 0" type="matrix" in="shadowBlurOuter1"></feColorMatrix>
        </filter>
        <linearGradient x1="50%" y1="100%" x2="50%" y2="3.061617e-15%" id="linearGradient-11">
            <stop stop-color="#7A68E8" offset="0%"></stop>
            <stop stop-color="#A295EE" offset="100%"></stop>
        </linearGradient>
        <path d="M35.2,1.84752086 L56.5128129,14.1524791 C58.4929798,15.295729 59.7128129,17.4085419 59.7128129,19.6950417 L59.7128129,44.3049583 C59.7128129,46.5914581 58.4929798,48.704271 56.5128129,49.8475209 L35.2,62.1524791 C33.2198331,63.295729 30.7801669,63.295729 28.8,62.1524791 L7.48718708,49.8475209 C5.50702019,48.704271 4.28718708,46.5914581 4.28718708,44.3049583 L4.28718708,19.6950417 C4.28718708,17.4085419 5.50702019,15.295729 7.48718708,14.1524791 L28.8,1.84752086 C30.7801669,0.704270974 33.2198331,0.704270974 35.2,1.84752086 Z" id="path-12"></path>
        <filter x="-42.2%" y="-32.8%" width="184.4%" height="184.4%" filterUnits="objectBoundingBox" id="filter-13">
            <feOffset dx="0" dy="4" in="SourceAlpha" result="shadowOffsetOuter1"></feOffset>
            <feGaussianBlur stdDeviation="7" in="shadowOffsetOuter1" result="shadowBlurOuter1"></feGaussianBlur>
            <feColorMatrix values="0 0 0 0 0.258823529   0 0 0 0 0.462745098   0 0 0 0 0.57254902  0 0 0 0.201143569 0" type="matrix" in="shadowBlurOuter1" result="shadowMatrixOuter1"></feColorMatrix>
            <feOffset dx="0" dy="2" in="SourceAlpha" result="shadowOffsetOuter2"></feOffset>
            <feGaussianBlur stdDeviation="2" in="shadowOffsetOuter2" result="shadowBlurOuter2"></feGaussianBlur>
            <feColorMatrix values="0 0 0 0 0.258823529   0 0 0 0 0.462745098   0 0 0 0 0.57254902  0 0 0 0.202643795 0" type="matrix" in="shadowBlurOuter2" result="shadowMatrixOuter2"></feColorMatrix>
            <feMerge>
                <feMergeNode in="shadowMatrixOuter1"></feMergeNode>
                <feMergeNode in="shadowMatrixOuter2"></feMergeNode>
            </feMerge>
        </filter>
        <linearGradient x1="50%" y1="100%" x2="50%" y2="3.061617e-15%" id="linearGradient-14">
            <stop stop-color="#00BC98" offset="0%"></stop>
            <stop stop-color="#4DD0B7" offset="100%"></stop>
        </linearGradient>
        <path d="M44,2.30940108 L70.6410162,17.6905989 C73.1162248,19.1196613 74.6410162,21.7606774 74.6410162,24.6188022 L74.6410162,55.3811978 C74.6410162,58.2393226 73.1162248,60.8803387 70.6410162,62.3094011 L44,77.6905989 C41.5247914,79.1196613 38.4752086,79.1196613 36,77.6905989 L9.35898385,62.3094011 C6.88377523,60.8803387 5.35898385,58.2393226 5.35898385,55.3811978 L5.35898385,24.6188022 C5.35898385,21.7606774 6.88377523,19.1196613 9.35898385,17.6905989 L36,2.30940108 C38.4752086,0.880338717 41.5247914,0.880338717 44,2.30940108 Z" id="path-15"></path>
        <filter x="-33.8%" y="-26.2%" width="167.5%" height="167.5%" filterUnits="objectBoundingBox" id="filter-16">
            <feOffset dx="0" dy="4" in="SourceAlpha" result="shadowOffsetOuter1"></feOffset>
            <feGaussianBlur stdDeviation="7" in="shadowOffsetOuter1" result="shadowBlurOuter1"></feGaussianBlur>
            <feColorMatrix values="0 0 0 0 0.258823529   0 0 0 0 0.462745098   0 0 0 0 0.57254902  0 0 0 0.201143569 0" type="matrix" in="shadowBlurOuter1" result="shadowMatrixOuter1"></feColorMatrix>
            <feOffset dx="0" dy="2" in="SourceAlpha" result="shadowOffsetOuter2"></feOffset>
            <feGaussianBlur stdDeviation="2" in="shadowOffsetOuter2" result="shadowBlurOuter2"></feGaussianBlur>
            <feColorMatrix values="0 0 0 0 0.258823529   0 0 0 0 0.462745098   0 0 0 0 0.57254902  0 0 0 0.398975317 0" type="matrix" in="shadowBlurOuter2" result="shadowMatrixOuter2"></feColorMatrix>
            <feMerge>
                <feMergeNode in="shadowMatrixOuter1"></feMergeNode>
                <feMergeNode in="shadowMatrixOuter2"></feMergeNode>
            </feMerge>
        </filter>
    </defs>
    <g id="Dashboard---Overview" stroke="none" stroke-width="1" fill="none" fill-rule="evenodd">
        <g id="7a---dashboard---overview---onboarding---create-new-kintoblock-1" transform="translate(-350.000000, -350.000000)">
            <g id="modal" transform="translate(350.000000, 190.000000)">
                <g id="Group" transform="translate(0.000000, 160.000000)">
                    <g id="confetti" transform="translate(116.000000, 41.000000)">
                        <rect id="duplicate_24_Rectangle" fill="#FFDB18" opacity="0.800000012" transform="translate(180.464066, 67.464066) rotate(196.600000) translate(-180.464066, -67.464066) " x="174.464066" y="61.4640657" width="12" height="12"></rect>
                        <rect id="duplicate_24_Rectangle-Copy" fill="#FFDB18" opacity="0.600000024" transform="translate(338.464066, 190.464066) rotate(152.600006) translate(-338.464066, -190.464066) " x="332.464066" y="184.464066" width="12" height="12"></rect>
                        <rect id="duplicate_23_Rectangle" fill="#1EC4E9" opacity="0.300000012" transform="translate(132.899389, 212.899389) rotate(189.400000) translate(-132.899389, -212.899389) " x="126.899389" y="206.899389" width="12" height="12"></rect>
                        <rect id="duplicate_22_Rectangle" fill="#F46464" opacity="0.100000001" transform="translate(508.225904, 60.225904) rotate(182.200000) translate(-508.225904, -60.225904) " x="502.225904" y="54.2259044" width="12" height="12"></rect>
                        <rect id="duplicate_21_Rectangle" fill="#7A68E8" opacity="0.800000012" transform="translate(470.500103, 120.500103) rotate(175.000000) translate(-470.500103, -120.500103) " x="464.500103" y="114.500103" width="12" height="12"></rect>
                        <rect id="duplicate_21_Rectangle-Copy" fill="#7A68E8" opacity="0.200000003" transform="translate(320.500103, 220.500103) rotate(175.000000) translate(-320.500103, -220.500103) " x="314.500103" y="214.500103" width="12" height="12"></rect>
                        <rect id="duplicate_20_Rectangle" fill="#7ACB53" opacity="0.400000006" transform="translate(487.132444, 87.132444) rotate(167.800000) translate(-487.132444, -87.132444) " x="481.132444" y="81.1324441" width="12" height="12"></rect>
                        <rect id="duplicate_20_Rectangle-Copy" fill="#7ACB53" transform="translate(347.132444, 187.132444) rotate(187.800003) translate(-347.132444, -187.132444) " x="341.132444" y="181.132444" width="12" height="12"></rect>
                        <rect id="duplicate_19_Rectangle" fill="#4E82EE" opacity="0.100000001" transform="translate(426.652303, 232.652303) rotate(160.600000) translate(-426.652303, -232.652303) " x="420.652303" y="226.652303" width="12" height="12"></rect>
                        <rect id="duplicate_18_Rectangle" fill="#FFDB18" opacity="0.200000003" transform="translate(477.051480, 26.051480) rotate(153.400000) translate(-477.051480, -26.051480) " x="471.05148" y="20.0514799" width="12" height="12"></rect>
                        <rect id="duplicate_17_Rectangle" fill="#FF943C" opacity="0.400000006" transform="translate(454.323681, 178.323681) rotate(146.200000) translate(-454.323681, -178.323681) " x="448.323681" y="172.323681" width="12" height="12"></rect>
                        <rect id="duplicate_16_Rectangle" fill="#F46464" opacity="0.5" transform="translate(154.464612, 142.464612) rotate(119.000000) translate(-154.464612, -142.464612) " x="148.464612" y="136.464612" width="12" height="12"></rect>
                        <rect id="duplicate_15_Rectangle" fill="#4E82EE" opacity="0.100000001" transform="translate(536.472051, 114.472051) rotate(131.800000) translate(-536.472051, -114.472051) " x="530.472051" y="108.472051" width="12" height="12"></rect>
                        <rect id="duplicate_14_Rectangle" fill="#F46464" opacity="0.600000024" transform="translate(158.345881, 69.345881) rotate(124.600000) translate(-158.345881, -69.345881) " x="152.345881" y="63.3458807" width="12" height="12"></rect>
                        <rect id="duplicate_14_Rectangle-Copy" fill="#F46464" opacity="0.400000006" transform="translate(16.345881, 162.345881) rotate(124.600000) translate(-16.345881, -162.345881) " x="10.3458807" y="156.345881" width="12" height="12"></rect>
                        <rect id="duplicate_13_Rectangle" fill="#7A68E8" opacity="0.100000001" transform="translate(8.088091, 70.088091) rotate(117.400000) translate(-8.088091, -70.088091) " x="2.08809102" y="64.088091" width="12" height="12"></rect>
                        <rect id="duplicate_12_Rectangle" fill="#19BF7B" opacity="0.100000001" transform="translate(46.702747, 181.702747) rotate(110.200000) translate(-46.702747, -181.702747) " x="40.7027473" y="175.702747" width="12" height="12"></rect>
                        <rect id="duplicate_11_Rectangle" fill="#1EC4E9" opacity="0.400000006" transform="translate(494.195927, 154.195927) rotate(103.000000) translate(-494.195927, -154.195927) " x="488.195927" y="148.195927" width="12" height="12"></rect>
                        <rect id="duplicate_10_Rectangle" fill="#1EC4E9" opacity="0.300000012" transform="translate(88.575622, 54.575622) rotate(95.800000) translate(-88.575622, -54.575622) " x="82.575622" y="48.575622" width="12" height="12"></rect>
                        <rect id="duplicate_9_Rectangle" fill="#19BF7B" opacity="0.200000003" transform="translate(516.144802, 198.144802) rotate(88.600000) translate(-516.144802, -198.144802) " x="510.144802" y="192.144802" width="12" height="12"></rect>
                        <rect id="duplicate_8_Rectangle" fill="#7ACB53" opacity="0.600000024" transform="translate(431.829750, 140.829750) rotate(81.400000) translate(-431.829750, -140.829750) " x="425.82975" y="134.82975" width="12" height="12"></rect>
                        <rect id="duplicate_7_Rectangle" fill="#7ACB53" opacity="0.600000024" transform="translate(61.406989, 101.406989) rotate(74.200000) translate(-61.406989, -101.406989) " x="55.4069894" y="95.4069894" width="12" height="12"></rect>
                        <rect id="duplicate_6_Rectangle" fill="#FF943C" opacity="0.300000012" transform="translate(53.867416, 93.867416) rotate(67.000000) translate(-53.867416, -93.867416) " x="47.8674159" y="87.8674159" width="12" height="12"></rect>
                        <rect id="duplicate_5_Rectangle" fill="#19BF7B" opacity="0.200000003" transform="translate(148.203768, 8.203768) rotate(59.800000) translate(-148.203768, -8.203768) " x="142.203768" y="2.20376849" width="12" height="12"></rect>
                        <rect id="duplicate_5_Rectangle-Copy" fill="#19BF7B" opacity="0.200000003" transform="translate(56.100181, 37.100181) rotate(11.799999) translate(-56.100181, -37.100181) " x="50.1001806" y="31.1001806" width="12" height="12"></rect>
                        <rect id="duplicate_4_Rectangle" fill="#7A68E8" opacity="0.600000024" transform="translate(134.518481, 122.518481) rotate(52.600000) translate(-134.518481, -122.518481) " x="128.518481" y="116.518481" width="12" height="12"></rect>
                        <rect id="duplicate_3_Rectangle" fill="#F46464" opacity="0.600000024" transform="translate(472.485075, 127.485075) rotate(45.400000) translate(-472.485075, -127.485075) " x="466.485075" y="121.485075" width="12" height="12"></rect>
                        <rect id="duplicate_2_Rectangle" fill="#FF943C" opacity="0.200000003" transform="translate(101.425592, 174.425592) rotate(38.200000) translate(-101.425592, -174.425592) " x="95.4255917" y="168.425592" width="12" height="12"></rect>
                        <rect id="duplicate_1_Rectangle" fill="#1EC4E9" opacity="0.800000012" transform="translate(457.233232, 75.233232) rotate(31.000000) translate(-457.233232, -75.233232) " x="451.233232" y="69.2332323" width="12" height="12"></rect>
                    </g>
                    <g id="card-2" transform="translate(420.000000, 150.000000) rotate(6.000000) translate(-420.000000, -150.000000) translate(295.000000, 25.000000)">
                        <g id="Mask">
                            <use fill="black" fill-opacity="1" filter="url(#filter-2)" xlink:href="#path-1"></use>
                            <use fill="#83A7F3" fill-rule="evenodd" xlink:href="#path-1"></use>
                            <rect stroke-opacity="0.0985337409" stroke="#427692" stroke-width="1" x="-0.5" y="-0.5" width="251" height="251" rx="12"></rect>
                        </g>
                        <path d="M0,10 L250,10 L250,238 C250,244.627417 244.627417,250 238,250 L12,250 C5.372583,250 8.11624501e-16,244.627417 0,238 L0,10 Z" id="Rectangle-12" fill="#FFFFFF"></path>
                        <g id="icon/kintoblock/microservice" transform="translate(210.000000, 30.000000)">
                            <g id="illustration/kintoblock/microservice" transform="translate(1.250000, 0.000000)">
                                <mask id="mask-4" fill="white">
                                    <use xlink:href="#path-3"></use>
                                </mask>
                                <use id="Polygon" fill="#D6D1F8" xlink:href="#path-3"></use>
                                <polygon id="Polygon-Copy-4" fill="#B4AAF1" mask="url(#mask-4)" points="13.080127 2.5 13.080127 7.375 8.75 9.75 4.41987298 7.375"></polygon>
                                <path d="M4.41987298,12.3755493 L4.42061119,12.3824851 L8.75,14.7575684 L8.75,20 L0.339745962,15.1443376 C0.185045424,15.0550212 0.0897459622,14.8899577 0.0897459622,14.7113249 L0.0897459622,5 L4.41987298,7.37554932 L4.41987298,12.3755493 Z" id="Combined-Shape" fill="#9486EC" mask="url(#mask-4)"></path>
                                <polygon id="Polygon-Copy-6" fill="#F5B9EA" mask="url(#mask-4)" points="8.75 9.75756836 8.75 15 4.41987298 12.5 4.41987298 7.38208008"></polygon>
                                <path d="M13.080127,12.4997523 L17.4101288,10 L17.4101288,14.7113249 C17.4101288,14.8899577 17.3148294,15.0550212 17.1601288,15.1443376 L13.080127,17.4999277 L8.75,20 L8.75,14.7575684 L13.080127,12.3820801 L13.080127,12.4997523 Z" id="Combined-Shape" fill="#B4AAF1" mask="url(#mask-4)"></path>
                                <polygon id="Polygon-Copy-6" fill="#F8D4F2" mask="url(#mask-4)" transform="translate(10.915064, 11.191040) scale(-1, 1) translate(-10.915064, -11.191040) " points="13.080127 9.75756836 13.080127 15 8.75 12.5 8.75 7.38208008"></polygon>
                                <polygon id="Polygon-Copy-5" fill="#FDF1FA" mask="url(#mask-4)" points="13.080127 7.375 8.75 9.75 4.41987298 7.375 8.75 4.9375"></polygon>
                            </g>
                        </g>
                        <path d="M64,32.3094011 L90.6410162,47.6905989 C93.1162248,49.1196613 94.6410162,51.7606774 94.6410162,54.6188022 L94.6410162,85.3811978 C94.6410162,88.2393226 93.1162248,90.8803387 90.6410162,92.3094011 L64,107.690599 C61.5247914,109.119661 58.4752086,109.119661 56,107.690599 L29.3589838,92.3094011 C26.8837752,90.8803387 25.3589838,88.2393226 25.3589838,85.3811978 L25.3589838,54.6188022 C25.3589838,51.7606774 26.8837752,49.1196613 29.3589838,47.6905989 L56,32.3094011 C58.4752086,30.8803387 61.5247914,30.8803387 64,32.3094011 Z" id="Polygon-3-Copy-2" fill="url(#linearGradient-5)"></path>
                        <polygon id="H-Copy" fill="#FFFFFF" points="72.243 55.18 72.243 85 67.497 85 67.497 71.854 52.461 71.854 52.461 85 47.757 85 47.757 55.18 52.461 55.18 52.461 67.654 67.497 67.654 67.497 55.18"></polygon>
                        <path d="M0,170 L250,170 L250,238 C250,244.627417 244.627417,250 238,250 L12,250 C5.372583,250 8.11624501e-16,244.627417 0,238 L0,170 Z" id="Rectangle-12-Copy" fill="#F6F8FC"></path>
                        <g id="Group-10-Copy" transform="translate(20.000000, 190.000000)">
                            <g id="Polygon-3-Copy-2">
                                <use fill="#EDF3FD" fill-rule="evenodd" xlink:href="#path-6"></use>
                                <path stroke="#F6F8FC" stroke-width="4" d="M43,-0.577350269 L56.3205081,7.11324865 C58.1769145,8.18504542 59.3205081,10.1658075 59.3205081,12.3094011 L59.3205081,27.6905989 C59.3205081,29.8341925 58.1769145,31.8149546 56.3205081,32.8867513 L43,40.5773503 C41.1435935,41.649147 38.8564065,41.649147 37,40.5773503 L23.6794919,32.8867513 C21.8230855,31.8149546 20.6794919,29.8341925 20.6794919,27.6905989 L20.6794919,12.3094011 C20.6794919,10.1658075 21.8230855,8.18504542 23.6794919,7.11324865 L37,-0.577350269 C38.8564065,-1.64914704 41.1435935,-1.64914704 43,-0.577350269 Z"></path>
                            </g>
                            <g id="Polygon-3-Copy-3">
                                <use fill="#EDF3FD" fill-rule="evenodd" xlink:href="#path-7"></use>
                                <path stroke="#F6F8FC" stroke-width="4" d="M23,-0.577350269 L36.3205081,7.11324865 C38.1769145,8.18504542 39.3205081,10.1658075 39.3205081,12.3094011 L39.3205081,27.6905989 C39.3205081,29.8341925 38.1769145,31.8149546 36.3205081,32.8867513 L23,40.5773503 C21.1435935,41.649147 18.8564065,41.649147 17,40.5773503 L3.67949192,32.8867513 C1.82308546,31.8149546 0.679491924,29.8341925 0.679491924,27.6905989 L0.679491924,12.3094011 C0.679491924,10.1658075 1.82308546,8.18504542 3.67949192,7.11324865 L17,-0.577350269 C18.8564065,-1.64914704 21.1435935,-1.64914704 23,-0.577350269 Z"></path>
                            </g>
                        </g>
                        <g id="icon/secondary/large/more-actions" transform="translate(190.000000, 190.000000)">
                            <g id="icon/gray/more-actions/large">
                                <circle id="Oval-9" fill="#EDF3FD" cx="20" cy="20" r="20"></circle>
                                <path d="M14,22 C12.8954305,22 12,21.1045695 12,20 C12,18.8954305 12.8954305,18 14,18 C15.1045695,18 16,18.8954305 16,20 C16,21.1045695 15.1045695,22 14,22 Z M20,22 C18.8954305,22 18,21.1045695 18,20 C18,18.8954305 18.8954305,18 20,18 C21.1045695,18 22,18.8954305 22,20 C22,21.1045695 21.1045695,22 20,22 Z M26,22 C24.8954305,22 24,21.1045695 24,20 C24,18.8954305 24.8954305,18 26,18 C27.1045695,18 28,18.8954305 28,20 C28,21.1045695 27.1045695,22 26,22 Z" id="Combined-Shape" fill="#083A45"></path>
                            </g>
                        </g>
                        <path d="M30.032,131.64 C30.3413349,131.64 30.5866658,131.733332 30.768,131.92 C30.9493342,132.106668 31.04,132.354665 31.04,132.664 L31.04,142.056 C31.04,142.365335 30.9466676,142.615999 30.76,142.808 C30.5733324,143.000001 30.3306682,143.096 30.032,143.096 C29.7226651,143.096 29.4773342,143.000001 29.296,142.808 C29.1146658,142.615999 29.024,142.365335 29.024,142.056 L29.024,138.104 L23.248,138.104 L23.248,142.056 C23.248,142.365335 23.1546676,142.615999 22.968,142.808 C22.7813324,143.000001 22.5333349,143.096 22.224,143.096 C21.9253318,143.096 21.6826676,143.000001 21.496,142.808 C21.3093324,142.615999 21.216,142.365335 21.216,142.056 L21.216,132.664 C21.216,132.354665 21.3066658,132.106668 21.488,131.92 C21.6693342,131.733332 21.9146651,131.64 22.224,131.64 C22.5333349,131.64 22.7813324,131.733332 22.968,131.92 C23.1546676,132.106668 23.248,132.354665 23.248,132.664 L23.248,136.44 L29.024,136.44 L29.024,132.664 C29.024,132.354665 29.1146658,132.106668 29.296,131.92 C29.4773342,131.733332 29.7226651,131.64 30.032,131.64 Z M39.488,140.856 C39.6693342,140.856 39.8159994,140.925333 39.928,141.064 C40.0400006,141.202667 40.096,141.389332 40.096,141.624 C40.096,141.954668 39.8986686,142.231999 39.504,142.456 C39.1413315,142.658668 38.730669,142.821333 38.272,142.944 C37.813331,143.066667 37.3760021,143.128 36.96,143.128 C35.701327,143.128 34.7040037,142.765337 33.968,142.04 C33.2319963,141.314663 32.864,140.322673 32.864,139.064 C32.864,138.263996 33.0239984,137.55467 33.344,136.936 C33.6640016,136.31733 34.1146638,135.837335 34.696,135.496 C35.2773362,135.154665 35.9359963,134.984 36.672,134.984 C37.3760035,134.984 37.9893307,135.138665 38.512,135.448 C39.0346693,135.757335 39.4399986,136.194664 39.728,136.76 C40.0160014,137.325336 40.16,137.991996 40.16,138.76 C40.16,139.218669 39.9573354,139.448 39.552,139.448 L34.832,139.448 C34.8960003,140.184004 35.1039982,140.725332 35.456,141.072 C35.8080018,141.418668 36.3199966,141.592 36.992,141.592 C37.333335,141.592 37.6346654,141.549334 37.896,141.464 C38.1573346,141.378666 38.4533317,141.261334 38.784,141.112 C39.1040016,140.941332 39.3386659,140.856 39.488,140.856 Z M36.72,136.392 C36.1759973,136.392 35.741335,136.562665 35.416,136.904 C35.090665,137.245335 34.8960003,137.735997 34.832,138.376 L38.448,138.376 C38.4266666,137.72533 38.2666682,137.232002 37.968,136.896 C37.6693318,136.559998 37.253336,136.392 36.72,136.392 Z M42.784,143.096 C42.4959986,143.096 42.2586676,143.013334 42.072,142.848 C41.8853324,142.682666 41.792,142.445335 41.792,142.136 L41.792,132.584 C41.792,132.274665 41.8853324,132.040001 42.072,131.88 C42.2586676,131.719999 42.4959986,131.64 42.784,131.64 C43.0720014,131.64 43.311999,131.719999 43.504,131.88 C43.696001,132.040001 43.792,132.274665 43.792,132.584 L43.792,142.136 C43.792,142.445335 43.696001,142.682666 43.504,142.848 C43.311999,143.013334 43.0720014,143.096 42.784,143.096 Z M46.848,143.096 C46.5599986,143.096 46.3226676,143.013334 46.136,142.848 C45.9493324,142.682666 45.856,142.445335 45.856,142.136 L45.856,132.584 C45.856,132.274665 45.9493324,132.040001 46.136,131.88 C46.3226676,131.719999 46.5599986,131.64 46.848,131.64 C47.1360014,131.64 47.375999,131.719999 47.568,131.88 C47.760001,132.040001 47.856,132.274665 47.856,132.584 L47.856,142.136 C47.856,142.445335 47.760001,142.682666 47.568,142.848 C47.375999,143.013334 47.1360014,143.096 46.848,143.096 Z M53.488,143.128 C52.687996,143.128 51.9866697,142.962668 51.384,142.632 C50.7813303,142.301332 50.3146683,141.82667 49.984,141.208 C49.6533317,140.58933 49.488,139.869337 49.488,139.048 C49.488,138.226663 49.6533317,137.509336 49.984,136.896 C50.3146683,136.282664 50.7813303,135.810668 51.384,135.48 C51.9866697,135.149332 52.687996,134.984 53.488,134.984 C54.288004,134.984 54.9893303,135.149332 55.592,135.48 C56.1946697,135.810668 56.658665,136.282664 56.984,136.896 C57.309335,137.509336 57.472,138.226663 57.472,139.048 C57.472,139.869337 57.309335,140.58933 56.984,141.208 C56.658665,141.82667 56.1946697,142.301332 55.592,142.632 C54.9893303,142.962668 54.288004,143.128 53.488,143.128 Z M53.472,141.576 C54.1226699,141.576 54.618665,141.362669 54.96,140.936 C55.301335,140.509331 55.472,139.880004 55.472,139.048 C55.472,138.226663 55.301335,137.600002 54.96,137.168 C54.618665,136.735998 54.1280032,136.52 53.488,136.52 C52.8479968,136.52 52.3546684,136.735998 52.008,137.168 C51.6613316,137.600002 51.488,138.226663 51.488,139.048 C51.488,139.880004 51.658665,140.509331 52,140.936 C52.341335,141.362669 52.8319968,141.576 53.472,141.576 Z M77.776,132.264 C77.850667,132.050666 77.9706658,131.890667 78.136,131.784 C78.3013342,131.677333 78.4853323,131.624 78.688,131.624 C78.9440013,131.624 79.1653324,131.703999 79.352,131.864 C79.5386676,132.024001 79.632,132.237332 79.632,132.504 C79.632,132.6 79.6053336,132.738666 79.552,132.92 L76.112,142.44 C76.0266662,142.653334 75.8853343,142.818666 75.688,142.936 C75.4906657,143.053334 75.2746678,143.112 75.04,143.112 C74.8053322,143.112 74.5866677,143.053334 74.384,142.936 C74.1813323,142.818666 74.042667,142.653334 73.968,142.44 L71.312,134.904 L68.608,142.44 C68.5226662,142.653334 68.3813343,142.818666 68.184,142.936 C67.9866657,143.053334 67.7706678,143.112 67.536,143.112 C67.3013322,143.112 67.0853343,143.053334 66.888,142.936 C66.6906657,142.818666 66.554667,142.653334 66.48,142.44 L63.04,132.92 C62.9866664,132.759999 62.96,132.621334 62.96,132.504 C62.96,132.237332 63.0586657,132.024001 63.256,131.864 C63.4533343,131.703999 63.685332,131.624 63.952,131.624 C64.1653344,131.624 64.3573325,131.677333 64.528,131.784 C64.6986675,131.890667 64.821333,132.050666 64.896,132.264 L67.616,140.088 L70.416,132.312 C70.490667,132.098666 70.6133325,131.930667 70.784,131.808 C70.9546675,131.685333 71.1413323,131.624 71.344,131.624 C71.5466677,131.624 71.7359991,131.685333 71.912,131.808 C72.0880009,131.930667 72.213333,132.103999 72.288,132.328 L75.008,140.184 L77.776,132.264 Z M84.784,143.128 C83.983996,143.128 83.2826697,142.962668 82.68,142.632 C82.0773303,142.301332 81.6106683,141.82667 81.28,141.208 C80.9493317,140.58933 80.784,139.869337 80.784,139.048 C80.784,138.226663 80.9493317,137.509336 81.28,136.896 C81.6106683,136.282664 82.0773303,135.810668 82.68,135.48 C83.2826697,135.149332 83.983996,134.984 84.784,134.984 C85.584004,134.984 86.2853303,135.149332 86.888,135.48 C87.4906697,135.810668 87.954665,136.282664 88.28,136.896 C88.605335,137.509336 88.768,138.226663 88.768,139.048 C88.768,139.869337 88.605335,140.58933 88.28,141.208 C87.954665,141.82667 87.4906697,142.301332 86.888,142.632 C86.2853303,142.962668 85.584004,143.128 84.784,143.128 Z M84.768,141.576 C85.4186699,141.576 85.914665,141.362669 86.256,140.936 C86.597335,140.509331 86.768,139.880004 86.768,139.048 C86.768,138.226663 86.597335,137.600002 86.256,137.168 C85.914665,136.735998 85.4240032,136.52 84.784,136.52 C84.1439968,136.52 83.6506684,136.735998 83.304,137.168 C82.9573316,137.600002 82.784,138.226663 82.784,139.048 C82.784,139.880004 82.954665,140.509331 83.296,140.936 C83.637335,141.362669 84.1279968,141.576 84.768,141.576 Z M94.784,135.016 C95.0613347,134.994667 95.2799992,135.053333 95.44,135.192 C95.6000008,135.330667 95.68,135.538665 95.68,135.816 C95.68,136.104001 95.6106674,136.317333 95.472,136.456 C95.3333326,136.594667 95.0826685,136.685333 94.72,136.728 L94.24,136.776 C93.6106635,136.84 93.1493348,137.053332 92.856,137.416 C92.5626652,137.778668 92.416,138.231997 92.416,138.776 L92.416,142.136 C92.416,142.445335 92.320001,142.682666 92.128,142.848 C91.935999,143.013334 91.6960014,143.096 91.408,143.096 C91.1199986,143.096 90.8826676,143.013334 90.696,142.848 C90.5093324,142.682666 90.416,142.445335 90.416,142.136 L90.416,135.944 C90.416,135.645332 90.5093324,135.416001 90.696,135.256 C90.8826676,135.095999 91.1146653,135.016 91.392,135.016 C91.6693347,135.016 91.8933325,135.093333 92.064,135.248 C92.2346675,135.402667 92.32,135.623999 92.32,135.912 L92.32,136.552 C92.5226677,136.082664 92.823998,135.720001 93.224,135.464 C93.624002,135.207999 94.0693309,135.064 94.56,135.032 L94.784,135.016 Z M97.536,143.096 C97.2479986,143.096 97.0106676,143.013334 96.824,142.848 C96.6373324,142.682666 96.544,142.445335 96.544,142.136 L96.544,132.584 C96.544,132.274665 96.6373324,132.040001 96.824,131.88 C97.0106676,131.719999 97.2479986,131.64 97.536,131.64 C97.8240014,131.64 98.063999,131.719999 98.256,131.88 C98.448001,132.040001 98.544,132.274665 98.544,132.584 L98.544,142.136 C98.544,142.445335 98.448001,142.682666 98.256,142.848 C98.063999,143.013334 97.8240014,143.096 97.536,143.096 Z M107.136,131.64 C107.434668,131.64 107.679999,131.725332 107.872,131.896 C108.064001,132.066668 108.16,132.290665 108.16,132.568 L108.16,142.136 C108.16,142.424001 108.069334,142.653332 107.888,142.824 C107.706666,142.994668 107.466668,143.08 107.168,143.08 C106.869332,143.08 106.629334,142.994668 106.448,142.824 C106.266666,142.653332 106.176,142.424001 106.176,142.136 L106.176,141.736 C105.941332,142.173336 105.602669,142.514665 105.16,142.76 C104.717331,143.005335 104.213336,143.128 103.648,143.128 C102.975997,143.128 102.376003,142.957335 101.848,142.616 C101.319997,142.274665 100.909335,141.792003 100.616,141.168 C100.322665,140.543997 100.176,139.826671 100.176,139.016 C100.176,138.205329 100.322665,137.496003 100.616,136.888 C100.909335,136.279997 101.317331,135.810668 101.84,135.48 C102.362669,135.149332 102.96533,134.984 103.648,134.984 C104.213336,134.984 104.714664,135.101332 105.152,135.336 C105.589336,135.570668 105.925332,135.901331 106.16,136.328 L106.16,132.536 C106.16,132.269332 106.247999,132.053334 106.424,131.888 C106.600001,131.722666 106.837332,131.64 107.136,131.64 Z M104.176,141.576 C104.816003,141.576 105.309332,141.357336 105.656,140.92 C106.002668,140.482664 106.176,139.858671 106.176,139.048 C106.176,138.237329 106.002668,137.616002 105.656,137.184 C105.309332,136.751998 104.821336,136.536 104.192,136.536 C103.551997,136.536 103.056002,136.749331 102.704,137.176 C102.351998,137.602669 102.176,138.215996 102.176,139.016 C102.176,139.826671 102.351998,140.455998 102.704,140.904 C103.056002,141.352002 103.546664,141.576 104.176,141.576 Z M123.488,141.448 C123.701334,141.650668 123.808,141.879999 123.808,142.136 C123.808,142.381335 123.714668,142.597332 123.528,142.784 C123.341332,142.970668 123.120001,143.064 122.864,143.064 C122.597332,143.064 122.352001,142.952001 122.128,142.728 L116.8,137.736 L116.8,142.056 C116.8,142.365335 116.706668,142.615999 116.52,142.808 C116.333332,143.000001 116.080002,143.096 115.76,143.096 C115.450665,143.096 115.202668,143.000001 115.016,142.808 C114.829332,142.615999 114.736,142.365335 114.736,142.056 L114.736,132.664 C114.736,132.354665 114.829332,132.106668 115.016,131.92 C115.202668,131.733332 115.450665,131.64 115.76,131.64 C116.080002,131.64 116.333332,131.733332 116.52,131.92 C116.706668,132.106668 116.8,132.354665 116.8,132.664 L116.8,136.776 L121.952,131.944 C122.144001,131.751999 122.362665,131.656 122.608,131.656 C122.853335,131.656 123.069332,131.749332 123.256,131.936 C123.442668,132.122668 123.536,132.338665 123.536,132.584 C123.536,132.829335 123.429334,133.053332 123.216,133.256 L118.912,137.192 L123.488,141.448 Z M126.112,143.096 C125.823999,143.096 125.586668,143.013334 125.4,142.848 C125.213332,142.682666 125.12,142.445335 125.12,142.136 L125.12,135.96 C125.12,135.650665 125.213332,135.416001 125.4,135.256 C125.586668,135.095999 125.823999,135.016 126.112,135.016 C126.400001,135.016 126.639999,135.095999 126.832,135.256 C127.024001,135.416001 127.12,135.650665 127.12,135.96 L127.12,142.136 C127.12,142.445335 127.024001,142.682666 126.832,142.848 C126.639999,143.013334 126.400001,143.096 126.112,143.096 Z M126.112,133.592 C125.749332,133.592 125.461334,133.493334 125.248,133.296 C125.034666,133.098666 124.928,132.840002 124.928,132.52 C124.928,132.199998 125.034666,131.944001 125.248,131.752 C125.461334,131.559999 125.749332,131.464 126.112,131.464 C126.464002,131.464 126.749332,131.559999 126.968,131.752 C127.186668,131.944001 127.296,132.199998 127.296,132.52 C127.296,132.840002 127.189334,133.098666 126.976,133.296 C126.762666,133.493334 126.474668,133.592 126.112,133.592 Z M133.728,134.984 C134.666671,134.984 135.365331,135.250664 135.824,135.784 C136.282669,136.317336 136.512,137.122661 136.512,138.2 L136.512,142.136 C136.512,142.434668 136.424001,142.669332 136.248,142.84 C136.071999,143.010668 135.829335,143.096 135.52,143.096 C135.210665,143.096 134.965334,143.010668 134.784,142.84 C134.602666,142.669332 134.512,142.434668 134.512,142.136 L134.512,138.312 C134.512,137.703997 134.397334,137.261335 134.168,136.984 C133.938666,136.706665 133.578669,136.568 133.088,136.568 C132.511997,136.568 132.050668,136.749332 131.704,137.112 C131.357332,137.474668 131.184,137.959997 131.184,138.568 L131.184,142.136 C131.184,142.434668 131.093334,142.669332 130.912,142.84 C130.730666,143.010668 130.485335,143.096 130.176,143.096 C129.866665,143.096 129.624001,143.010668 129.448,142.84 C129.271999,142.669332 129.184,142.434668 129.184,142.136 L129.184,135.944 C129.184,135.666665 129.274666,135.442668 129.456,135.272 C129.637334,135.101332 129.882665,135.016 130.192,135.016 C130.469335,135.016 130.695999,135.098666 130.872,135.264 C131.048001,135.429334 131.136,135.645332 131.136,135.912 L131.136,136.344 C131.402668,135.906664 131.759998,135.570668 132.208,135.336 C132.656002,135.101332 133.162664,134.984 133.728,134.984 Z M142.608,141.608 C143.141336,141.64 143.408,141.879998 143.408,142.328 C143.408,142.584001 143.304001,142.778666 143.096,142.912 C142.887999,143.045334 142.592002,143.101333 142.208,143.08 L141.776,143.048 C139.983991,142.919999 139.088,141.960009 139.088,140.168 L139.088,136.68 L138.288,136.68 C137.999999,136.68 137.778667,136.616001 137.624,136.488 C137.469333,136.359999 137.392,136.173335 137.392,135.928 C137.392,135.682665 137.469333,135.496001 137.624,135.368 C137.778667,135.239999 137.999999,135.176 138.288,135.176 L139.088,135.176 L139.088,133.704 C139.088,133.415999 139.178666,133.186668 139.36,133.016 C139.541334,132.845332 139.786665,132.76 140.096,132.76 C140.394668,132.76 140.634666,132.845332 140.816,133.016 C140.997334,133.186668 141.088,133.415999 141.088,133.704 L141.088,135.176 L142.448,135.176 C142.736001,135.176 142.957333,135.239999 143.112,135.368 C143.266667,135.496001 143.344,135.682665 143.344,135.928 C143.344,136.173335 143.266667,136.359999 143.112,136.488 C142.957333,136.616001 142.736001,136.68 142.448,136.68 L141.088,136.68 L141.088,140.312 C141.088,141.101337 141.450663,141.522666 142.176,141.576 L142.608,141.608 Z M148.016,143.128 C147.215996,143.128 146.51467,142.962668 145.912,142.632 C145.30933,142.301332 144.842668,141.82667 144.512,141.208 C144.181332,140.58933 144.016,139.869337 144.016,139.048 C144.016,138.226663 144.181332,137.509336 144.512,136.896 C144.842668,136.282664 145.30933,135.810668 145.912,135.48 C146.51467,135.149332 147.215996,134.984 148.016,134.984 C148.816004,134.984 149.51733,135.149332 150.12,135.48 C150.72267,135.810668 151.186665,136.282664 151.512,136.896 C151.837335,137.509336 152,138.226663 152,139.048 C152,139.869337 151.837335,140.58933 151.512,141.208 C151.186665,141.82667 150.72267,142.301332 150.12,142.632 C149.51733,142.962668 148.816004,143.128 148.016,143.128 Z M148,141.576 C148.65067,141.576 149.146665,141.362669 149.488,140.936 C149.829335,140.509331 150,139.880004 150,139.048 C150,138.226663 149.829335,137.600002 149.488,137.168 C149.146665,136.735998 148.656003,136.52 148.016,136.52 C147.375997,136.52 146.882668,136.735998 146.536,137.168 C146.189332,137.600002 146.016,138.226663 146.016,139.048 C146.016,139.880004 146.186665,140.509331 146.528,140.936 C146.869335,141.362669 147.359997,141.576 148,141.576 Z M160.768,137.176 C161.41867,137.357334 161.922665,137.687998 162.28,138.168 C162.637335,138.648002 162.816,139.234663 162.816,139.928 C162.816,140.888005 162.472003,141.639997 161.784,142.184 C161.095997,142.728003 160.149339,143 158.944,143 L154.816,143 C154.506665,143 154.264001,142.914668 154.088,142.744 C153.911999,142.573332 153.824,142.333335 153.824,142.024 L153.824,132.696 C153.824,132.386665 153.911999,132.146668 154.088,131.976 C154.264001,131.805332 154.506665,131.72 154.816,131.72 L158.784,131.72 C159.957339,131.72 160.87733,131.978664 161.544,132.496 C162.21067,133.013336 162.544,133.735995 162.544,134.664 C162.544,135.261336 162.386668,135.778664 162.072,136.216 C161.757332,136.653336 161.322669,136.973332 160.768,137.176 Z M155.84,136.472 L158.448,136.472 C159.866674,136.472 160.576,135.944005 160.576,134.888 C160.576,134.354664 160.400002,133.960001 160.048,133.704 C159.695998,133.447999 159.16267,133.32 158.448,133.32 L155.84,133.32 L155.84,136.472 Z M158.72,141.4 C159.46667,141.4 160.010665,141.266668 160.352,141 C160.693335,140.733332 160.864,140.317336 160.864,139.752 C160.864,139.186664 160.690668,138.765335 160.344,138.488 C159.997332,138.210665 159.456004,138.072 158.72,138.072 L155.84,138.072 L155.84,141.4 L158.72,141.4 Z M165.568,143.096 C165.279999,143.096 165.042668,143.013334 164.856,142.848 C164.669332,142.682666 164.576,142.445335 164.576,142.136 L164.576,132.584 C164.576,132.274665 164.669332,132.040001 164.856,131.88 C165.042668,131.719999 165.279999,131.64 165.568,131.64 C165.856001,131.64 166.095999,131.719999 166.288,131.88 C166.480001,132.040001 166.576,132.274665 166.576,132.584 L166.576,142.136 C166.576,142.445335 166.480001,142.682666 166.288,142.848 C166.095999,143.013334 165.856001,143.096 165.568,143.096 Z M172.208,143.128 C171.407996,143.128 170.70667,142.962668 170.104,142.632 C169.50133,142.301332 169.034668,141.82667 168.704,141.208 C168.373332,140.58933 168.208,139.869337 168.208,139.048 C168.208,138.226663 168.373332,137.509336 168.704,136.896 C169.034668,136.282664 169.50133,135.810668 170.104,135.48 C170.70667,135.149332 171.407996,134.984 172.208,134.984 C173.008004,134.984 173.70933,135.149332 174.312,135.48 C174.91467,135.810668 175.378665,136.282664 175.704,136.896 C176.029335,137.509336 176.192,138.226663 176.192,139.048 C176.192,139.869337 176.029335,140.58933 175.704,141.208 C175.378665,141.82667 174.91467,142.301332 174.312,142.632 C173.70933,142.962668 173.008004,143.128 172.208,143.128 Z M172.192,141.576 C172.84267,141.576 173.338665,141.362669 173.68,140.936 C174.021335,140.509331 174.192,139.880004 174.192,139.048 C174.192,138.226663 174.021335,137.600002 173.68,137.168 C173.338665,136.735998 172.848003,136.52 172.208,136.52 C171.567997,136.52 171.074668,136.735998 170.728,137.168 C170.381332,137.600002 170.208,138.226663 170.208,139.048 C170.208,139.880004 170.378665,140.509331 170.72,140.936 C171.061335,141.362669 171.551997,141.576 172.192,141.576 Z M181.312,143.128 C180.533329,143.128 179.848003,142.962668 179.256,142.632 C178.663997,142.301332 178.208002,141.832003 177.888,141.224 C177.567998,140.615997 177.408,139.906671 177.408,139.096 C177.408,138.285329 177.575998,137.568003 177.912,136.944 C178.248002,136.319997 178.719997,135.837335 179.328,135.496 C179.936003,135.154665 180.634663,134.984 181.424,134.984 C181.840002,134.984 182.258665,135.042666 182.68,135.16 C183.101335,135.277334 183.471998,135.437332 183.792,135.64 C184.133335,135.864001 184.304,136.146665 184.304,136.488 C184.304,136.722668 184.248001,136.911999 184.136,137.056 C184.023999,137.200001 183.877334,137.272 183.696,137.272 C183.578666,137.272 183.456001,137.245334 183.328,137.192 C183.199999,137.138666 183.072001,137.074667 182.944,137 C182.709332,136.861333 182.485334,136.752 182.272,136.672 C182.058666,136.592 181.813335,136.552 181.536,136.552 C180.874663,136.552 180.365335,136.767998 180.008,137.2 C179.650665,137.632002 179.472,138.253329 179.472,139.064 C179.472,139.864004 179.650665,140.479998 180.008,140.912 C180.365335,141.344002 180.874663,141.56 181.536,141.56 C181.802668,141.56 182.039999,141.52 182.248,141.44 C182.456001,141.36 182.687999,141.250667 182.944,141.112 C183.104001,141.016 183.242666,140.944 183.36,140.896 C183.477334,140.848 183.594666,140.824 183.712,140.824 C183.882668,140.824 184.026666,140.898666 184.144,141.048 C184.261334,141.197334 184.32,141.383999 184.32,141.608 C184.32,141.789334 184.28,141.946666 184.2,142.08 C184.12,142.213334 183.989334,142.333333 183.808,142.44 C183.477332,142.653334 183.093336,142.821333 182.656,142.944 C182.218664,143.066667 181.770669,143.128 181.312,143.128 Z M192.608,141.448 C192.821334,141.650668 192.928,141.879999 192.928,142.136 C192.928,142.381335 192.840001,142.599999 192.664,142.792 C192.487999,142.984001 192.282668,143.08 192.048,143.08 C191.813332,143.08 191.594668,142.984001 191.392,142.792 L187.648,139.4 L187.648,142.136 C187.648,142.445335 187.552001,142.679999 187.36,142.84 C187.167999,143.000001 186.928001,143.08 186.64,143.08 C186.351999,143.08 186.114668,143.000001 185.928,142.84 C185.741332,142.679999 185.648,142.445335 185.648,142.136 L185.648,132.584 C185.648,132.274665 185.741332,132.040001 185.928,131.88 C186.114668,131.719999 186.351999,131.64 186.64,131.64 C186.928001,131.64 187.167999,131.719999 187.36,131.88 C187.552001,132.040001 187.648,132.274665 187.648,132.584 L187.648,138.6 L191.072,135.32 C191.264001,135.127999 191.482665,135.032 191.728,135.032 C191.973335,135.032 192.186666,135.122666 192.368,135.304 C192.549334,135.485334 192.64,135.698665 192.64,135.944 C192.64,136.189335 192.538668,136.413332 192.336,136.616 L189.824,138.952 L192.608,141.448 Z" id="Hello-World-KintoBlo-Copy" fill="#556F7D"></path>
                    </g>
                    <g id="Group-6" transform="translate(320.000000, 222.000000) rotate(4.000000) translate(-320.000000, -222.000000) translate(300.000000, 202.000000)">
                        <g id="Polygon-3-Copy">
                            <use fill="black" fill-opacity="1" filter="url(#filter-10)" xlink:href="#path-9"></use>
                            <use fill="url(#linearGradient-8)" fill-rule="evenodd" xlink:href="#path-9"></use>
                        </g>
                        <path d="M21.04,27.18 C19.6799932,27.18 18.4900051,26.8866696 17.47,26.3 C16.4499949,25.7133304 15.6666694,24.8733388 15.12,23.78 C14.5733306,22.6866612 14.3,21.406674 14.3,19.94 C14.3,18.473326 14.5733306,17.1966721 15.12,16.11 C15.6666694,15.0233279 16.4499949,14.1866696 17.47,13.6 C18.4900051,13.0133304 19.6799932,12.72 21.04,12.72 C21.9200044,12.72 22.7466628,12.8499987 23.52,13.11 C24.2933372,13.3700013 24.979997,13.7466642 25.58,14.24 C25.7533342,14.373334 25.873333,14.5133326 25.94,14.66 C26.006667,14.8066674 26.04,14.9866656 26.04,15.2 C26.04,15.4933348 25.9600008,15.739999 25.8,15.94 C25.6399992,16.140001 25.4466678,16.24 25.22,16.24 C24.953332,16.24 24.6800014,16.1466676 24.4,15.96 C23.8266638,15.5333312 23.2933358,15.2366675 22.8,15.07 C22.3066642,14.9033325 21.760003,14.82 21.16,14.82 C19.7733264,14.82 18.7233369,15.253329 18.01,16.12 C17.2966631,16.986671 16.94,18.2599916 16.94,19.94 C16.94,21.6333418 17.2966631,22.913329 18.01,23.78 C18.7233369,24.646671 19.7733264,25.08 21.16,25.08 C21.7333362,25.08 22.2633309,24.9933342 22.75,24.82 C23.2366691,24.6466658 23.7866636,24.3533354 24.4,23.94 C24.533334,23.8599996 24.666666,23.7933336 24.8,23.74 C24.933334,23.6866664 25.0733326,23.66 25.22,23.66 C25.4466678,23.66 25.6399992,23.759999 25.8,23.96 C25.9600008,24.160001 26.04,24.4066652 26.04,24.7 C26.04,24.900001 26.006667,25.0766659 25.94,25.23 C25.873333,25.3833341 25.7533342,25.526666 25.58,25.66 C24.979997,26.1533358 24.2933372,26.5299987 23.52,26.79 C22.7466628,27.0500013 21.9200044,27.18 21.04,27.18 Z" id="C-Copy" fill="#FFFFFF"></path>
                    </g>
                    <g id="Group-4" transform="translate(284.000000, 240.000000) rotate(-16.000000) translate(-284.000000, -240.000000) translate(252.000000, 208.000000)">
                        <g id="Polygon-3-Copy-2">
                            <use fill="black" fill-opacity="1" filter="url(#filter-13)" xlink:href="#path-12"></use>
                            <use fill="url(#linearGradient-11)" fill-rule="evenodd" xlink:href="#path-12"></use>
                        </g>
                        <path d="M37.392,30.552 C38.6933398,30.9146685 39.7013298,31.5759952 40.416,32.536 C41.1306702,33.4960048 41.488,34.6693264 41.488,36.056 C41.488,37.9760096 40.8000069,39.4799946 39.424,40.568 C38.0479931,41.6560054 36.1546787,42.2 33.744,42.2 L25.488,42.2 C24.8693302,42.2 24.3840018,42.029335 24.032,41.688 C23.6799982,41.346665 23.504,40.8666698 23.504,40.248 L23.504,21.592 C23.504,20.9733302 23.6799982,20.493335 24.032,20.152 C24.3840018,19.810665 24.8693302,19.64 25.488,19.64 L33.424,19.64 C35.7706784,19.64 37.61066,20.1573282 38.944,21.192 C40.27734,22.2266718 40.944,23.6719907 40.944,25.528 C40.944,26.7226726 40.6293365,27.757329 40,28.632 C39.3706635,29.506671 38.5013389,30.1466646 37.392,30.552 Z M27.536,29.144 L32.752,29.144 C35.5893475,29.144 37.008,28.0880106 37.008,25.976 C37.008,24.909328 36.6560035,24.1200026 35.952,23.608 C35.2479965,23.0959974 34.1813405,22.84 32.752,22.84 L27.536,22.84 L27.536,29.144 Z M33.296,39 C34.7893408,39 35.8773299,38.733336 36.56,38.2 C37.2426701,37.666664 37.584,36.8346723 37.584,35.704 C37.584,34.5733277 37.2373368,33.7306694 36.544,33.176 C35.8506632,32.6213306 34.7680074,32.344 33.296,32.344 L27.536,32.344 L27.536,39 L33.296,39 Z" id="B-Copy" fill="#FFFFFF"></path>
                    </g>
                    <g id="Group-5" transform="translate(210.000000, 180.000000) rotate(28.000000) translate(-210.000000, -180.000000) translate(170.000000, 140.000000)">
                        <g id="Polygon-3-Copy-2">
                            <use fill="black" fill-opacity="1" filter="url(#filter-16)" xlink:href="#path-15"></use>
                            <use fill="url(#linearGradient-14)" fill-rule="evenodd" xlink:href="#path-15"></use>
                        </g>
                        <path d="M53.76,49.92 C53.9200008,50.2666684 54,50.6133316 54,50.96 C54,51.5733364 53.7533358,52.0933312 53.26,52.52 C52.7666642,52.9466688 52.2000032,53.16 51.56,53.16 C51.1333312,53.16 50.7333352,53.0466678 50.36,52.82 C49.9866648,52.5933322 49.6933344,52.2400024 49.48,51.76 L47.08,46.4 L33,46.4 L30.6,51.76 C30.3866656,52.2400024 30.0933352,52.5933322 29.72,52.82 C29.3466648,53.0466678 28.9333356,53.16 28.48,53.16 C27.8666636,53.16 27.3066692,52.9466688 26.8,52.52 C26.2933308,52.0933312 26.04,51.5733364 26.04,50.96 C26.04,50.6133316 26.1199992,50.2666684 26.28,49.92 L37.32,26.2 C37.5600012,25.666664 37.9266642,25.2600014 38.42,24.98 C38.9133358,24.6999986 39.4399972,24.56 40,24.56 C40.5600028,24.56 41.0866642,24.6999986 41.58,24.98 C42.0733358,25.2600014 42.4399988,25.666664 42.68,26.2 L53.76,49.92 Z M34.76,42.4 L45.32,42.4 L40.04,30.52 L34.76,42.4 Z" id="A-Copy" fill="#FFFFFF"></path>
                    </g>
                </g>
            </g>
        </g>
    </g>
</svg>