<?xml version="1.0" encoding="UTF-8"?>
<svg width="140px" height="40px" viewBox="0 0 140 40" version="1.1" xmlns="http://www.w3.org/2000/svg" xmlns:xlink="http://www.w3.org/1999/xlink">
    <!-- Generator: Sketch 54.1 (76490) - https://sketchapp.com -->
    <title>tags-tutorial</title>
    <desc>Created with Sketch.</desc>
    <defs>
        <rect id="path-1" x="20" y="0" width="100" height="40" rx="4"></rect>
        <mask id="mask-2" maskContentUnits="userSpaceOnUse" maskUnits="objectBoundingBox" x="0" y="0" width="100" height="40" fill="white">
            <use xlink:href="#path-1"></use>
        </mask>
    </defs>
    <g id="WIP" stroke="none" stroke-width="1" fill="none" fill-rule="evenodd">
        <g id="6---dashboard---kintoblocks---edit-branch---no-tag" transform="translate(-90.000000, -550.000000)">
            <g id="desktop/sidebar/analytics">
                <g id="Group-5" transform="translate(30.000000, 210.000000)">
                    <g id="tags-tutorial" transform="translate(60.000000, 340.000000)">
                        <use id="base" stroke="#427692" mask="url(#mask-2)" stroke-width="4" stroke-dasharray="4,4" xlink:href="#path-1"></use>
                        <path d="M131.581232,18.1757047 L134.150485,21.3872712 C134.32299,21.6029021 134.288029,21.9175483 134.072398,22.0900531 C133.983741,22.1609783 133.873586,22.1996187 133.76005,22.1996187 L127.840675,22.1996187 C127.564533,22.1996187 127.340675,21.9757611 127.340675,21.6996187 C127.340675,21.5860829 127.379316,21.4759277 127.450241,21.3872712 L130.019494,18.1757047 C130.364504,17.7444428 130.993796,17.6745214 131.425058,18.0195309 C131.482723,18.0656627 131.5351,18.11804 131.581232,18.1757047 Z" id="Rectangle-4-Copy-2" fill="#B9D5EC" fill-rule="nonzero" transform="translate(130.800372, 19.999991) rotate(-90.000000) translate(-130.800372, -19.999991) "></path>
                        <path d="M131,20 L140,20" id="Path-2" stroke="#B9D5EC" stroke-width="2" fill="#1EC4E9" fill-rule="nonzero"></path>
                        <path d="M9.98048749,18.1757047 L12.5497407,21.3872712 C12.7222454,21.6029021 12.6872847,21.9175483 12.4716538,22.0900531 C12.3829973,22.1609783 12.272842,22.1996187 12.1593063,22.1996187 L6.2399311,22.1996187 C5.96378872,22.1996187 5.7399311,21.9757611 5.7399311,21.6996187 C5.7399311,21.5860829 5.77857148,21.4759277 5.8494967,21.3872712 L8.41874987,18.1757047 C8.76375941,17.7444428 9.39305179,17.6745214 9.82431372,18.0195309 C9.88197843,18.0656627 9.93435572,18.11804 9.98048749,18.1757047 Z" id="Rectangle-4-Copy-3" fill="#B9D5EC" fill-rule="nonzero" transform="translate(9.199628, 19.999991) scale(-1, 1) rotate(-90.000000) translate(-9.199628, -19.999991) "></path>
                        <path d="M0,20 L9,20" id="Path-2-Copy" stroke="#B9D5EC" stroke-width="2" fill-rule="nonzero"></path>
                        <path d="M43.498,25.07 C43.2179986,25.07 42.9963341,24.9883342 42.833,24.825 C42.6696659,24.6616658 42.588,24.444668 42.588,24.174 L42.588,16.614 L40.04,16.614 C39.4799972,16.614 39.2,16.3666691 39.2,15.872 C39.2,15.3773309 39.4799972,15.13 40.04,15.13 L46.942,15.13 C47.5020028,15.13 47.782,15.3773309 47.782,15.872 C47.782,16.3666691 47.5020028,16.614 46.942,16.614 L44.394,16.614 L44.394,24.174 C44.394,24.444668 44.3123341,24.6616658 44.149,24.825 C43.9856659,24.9883342 43.768668,25.07 43.498,25.07 Z M51.66,17.986 C52.6120048,17.986 53.3189977,18.2216643 53.781,18.693 C54.2430023,19.1643357 54.474,19.8806619 54.474,20.842 L54.474,24.258 C54.474,24.5100013 54.3993341,24.7083326 54.25,24.853 C54.1006659,24.9976674 53.8953346,25.07 53.634,25.07 C53.3913321,25.07 53.1930008,24.9953341 53.039,24.846 C52.8849992,24.6966659 52.808,24.5006679 52.808,24.258 L52.808,23.95 C52.6493325,24.3140018 52.3996684,24.5986656 52.059,24.804 C51.7183316,25.0093344 51.3240022,25.112 50.876,25.112 C50.4186644,25.112 50.0033352,25.0186676 49.63,24.832 C49.2566648,24.6453324 48.9626677,24.3886683 48.748,24.062 C48.5333323,23.7353317 48.426,23.3713353 48.426,22.97 C48.426,22.4659975 48.554332,22.0693348 48.811,21.78 C49.067668,21.4906652 49.4853304,21.2806673 50.064,21.15 C50.6426696,21.0193327 51.4406616,20.954 52.458,20.954 L52.808,20.954 L52.808,20.632 C52.808,20.1746644 52.710001,19.841001 52.514,19.631 C52.317999,19.4209989 52.0006689,19.316 51.562,19.316 C51.291332,19.316 51.0160014,19.3556663 50.736,19.435 C50.4559986,19.5143337 50.1246686,19.6286659 49.742,19.778 C49.4993321,19.8993339 49.3220006,19.96 49.21,19.96 C49.0419992,19.96 48.9043339,19.8993339 48.797,19.778 C48.6896661,19.6566661 48.636,19.498001 48.636,19.302 C48.636,19.1433325 48.6756663,19.0056672 48.755,18.889 C48.8343337,18.7723328 48.9673324,18.6626672 49.154,18.56 C49.4806683,18.3826658 49.8703311,18.2426672 50.323,18.14 C50.7756689,18.0373328 51.2213311,17.986 51.66,17.986 Z M51.226,23.852 C51.692669,23.852 52.0729985,23.6956682 52.367,23.383 C52.6610015,23.0703318 52.808,22.6666691 52.808,22.172 L52.808,21.878 L52.556,21.878 C51.9306635,21.878 51.4453351,21.9059997 51.1,21.962 C50.7546649,22.0180003 50.5073341,22.1159993 50.358,22.256 C50.2086659,22.3960007 50.134,22.5873321 50.134,22.83 C50.134,23.1286682 50.238999,23.3736657 50.449,23.565 C50.6590011,23.7563343 50.9179985,23.852 51.226,23.852 Z M62.048,18.014 C62.3093346,18.014 62.5193325,18.0886659 62.678,18.238 C62.8366675,18.3873341 62.916,18.5879987 62.916,18.84 L62.916,24.37 C62.916,25.4433387 62.6173363,26.2553306 62.02,26.806 C61.4226637,27.3566694 60.5406725,27.632 59.374,27.632 C58.3566616,27.632 57.5073367,27.4406686 56.826,27.058 C56.4806649,26.8526656 56.308,26.6053348 56.308,26.316 C56.308,26.1106656 56.3569995,25.9473339 56.455,25.826 C56.5530005,25.7046661 56.6813325,25.644 56.84,25.644 C56.9240004,25.644 57.0266661,25.6649998 57.148,25.707 C57.2693339,25.7490002 57.3953327,25.7979997 57.526,25.854 C57.8620017,25.9940007 58.1629987,26.101333 58.429,26.176 C58.6950013,26.250667 59.0006649,26.288 59.346,26.288 C60.5686728,26.288 61.18,25.6906726 61.18,24.496 L61.18,23.6 C60.9746656,23.9826686 60.676002,24.2789989 60.284,24.489 C59.891998,24.699001 59.4440025,24.804 58.94,24.804 C58.3426637,24.804 57.8130023,24.6616681 57.351,24.377 C56.8889977,24.0923319 56.5273346,23.6933359 56.266,23.18 C56.0046654,22.6666641 55.874,22.0740034 55.874,21.402 C55.874,20.7299966 56.002332,20.1350026 56.259,19.617 C56.515668,19.0989974 56.877331,18.6976681 57.344,18.413 C57.810669,18.1283319 58.3426637,17.986 58.94,17.986 C59.4440025,17.986 59.891998,18.0909989 60.284,18.301 C60.676002,18.5110011 60.9746656,18.8073314 61.18,19.19 L61.18,18.826 C61.18,18.5833321 61.2593325,18.3873341 61.418,18.238 C61.5766675,18.0886659 61.7866654,18.014 62.048,18.014 Z M59.402,23.446 C59.9620028,23.446 60.3983318,23.2640018 60.711,22.9 C61.0236682,22.5359982 61.18,22.0366698 61.18,21.402 C61.18,20.7579968 61.0236682,20.2540018 60.711,19.89 C60.3983318,19.5259982 59.9620028,19.344 59.402,19.344 C58.8513306,19.344 58.4173349,19.5259982 58.1,19.89 C57.7826651,20.2540018 57.624,20.7579968 57.624,21.402 C57.624,22.0366698 57.7826651,22.5359982 58.1,22.9 C58.4173349,23.2640018 58.8513306,23.446 59.402,23.446 Z M74.746,19.904 C75.3153362,20.0626675 75.7563318,20.3519979 76.069,20.772 C76.3816682,21.1920021 76.538,21.7053303 76.538,22.312 C76.538,23.1520042 76.237003,23.8099976 75.635,24.286 C75.032997,24.7620024 74.2046719,25 73.15,25 L69.538,25 C69.267332,25 69.0550008,24.9253341 68.901,24.776 C68.7469992,24.6266659 68.67,24.416668 68.67,24.146 L68.67,15.984 C68.67,15.713332 68.7469992,15.5033341 68.901,15.354 C69.0550008,15.2046659 69.267332,15.13 69.538,15.13 L73.01,15.13 C74.0366718,15.13 74.8416637,15.3563311 75.425,15.809 C76.0083362,16.2616689 76.3,16.8939959 76.3,17.706 C76.3,18.2286693 76.1623347,18.6813314 75.887,19.064 C75.6116653,19.4466686 75.2313358,19.7266658 74.746,19.904 Z M70.434,19.288 L72.716,19.288 C73.9573395,19.288 74.578,18.8260046 74.578,17.902 C74.578,17.435331 74.4240015,17.0900011 74.116,16.866 C73.8079985,16.6419989 73.3413365,16.53 72.716,16.53 L70.434,16.53 L70.434,19.288 Z M72.954,23.6 C73.6073366,23.6 74.0833318,23.4833345 74.382,23.25 C74.6806682,23.0166655 74.83,22.6526691 74.83,22.158 C74.83,21.6633309 74.6783348,21.2946679 74.375,21.052 C74.0716652,20.8093321 73.5980032,20.688 72.954,20.688 L70.434,20.688 L70.434,23.6 L72.954,23.6 Z M83.482,18.014 C83.752668,18.014 83.9673325,18.0886659 84.126,18.238 C84.2846675,18.3873341 84.364,18.5879987 84.364,18.84 L84.364,24.272 C84.364,24.5146679 84.2823341,24.7106659 84.119,24.86 C83.9556659,25.0093341 83.7433346,25.084 83.482,25.084 C83.2299987,25.084 83.0293341,25.0140007 82.88,24.874 C82.7306659,24.7339993 82.656,24.5426679 82.656,24.3 L82.656,23.95 C82.4413323,24.3233352 82.1520018,24.6103323 81.788,24.811 C81.4239982,25.0116677 81.0133356,25.112 80.556,25.112 C78.8759916,25.112 78.036,24.1693428 78.036,22.284 L78.036,18.84 C78.036,18.5879987 78.1153325,18.3873341 78.274,18.238 C78.4326675,18.0886659 78.6426654,18.014 78.904,18.014 C79.174668,18.014 79.3893325,18.0886659 79.548,18.238 C79.7066675,18.3873341 79.786,18.5879987 79.786,18.84 L79.786,22.298 C79.786,22.7833358 79.883999,23.1426655 80.08,23.376 C80.276001,23.6093345 80.5839979,23.726 81.004,23.726 C81.4893358,23.726 81.8789985,23.5650016 82.173,23.243 C82.4670015,22.9209984 82.614,22.4940027 82.614,21.962 L82.614,18.84 C82.614,18.5879987 82.6933325,18.3873341 82.852,18.238 C83.0106675,18.0886659 83.2206654,18.014 83.482,18.014 Z M87.052,25.084 C86.7999987,25.084 86.5923341,25.0116674 86.429,24.867 C86.2656658,24.7223326 86.184,24.514668 86.184,24.244 L86.184,18.84 C86.184,18.569332 86.2656658,18.3640007 86.429,18.224 C86.5923341,18.0839993 86.7999987,18.014 87.052,18.014 C87.3040013,18.014 87.5139992,18.0839993 87.682,18.224 C87.8500008,18.3640007 87.934,18.569332 87.934,18.84 L87.934,24.244 C87.934,24.514668 87.8500008,24.7223326 87.682,24.867 C87.5139992,25.0116674 87.3040013,25.084 87.052,25.084 Z M87.052,16.768 C86.7346651,16.768 86.4826676,16.6816675 86.296,16.509 C86.1093324,16.3363325 86.016,16.1100014 86.016,15.83 C86.016,15.5499986 86.1093324,15.3260008 86.296,15.158 C86.4826676,14.9899992 86.7346651,14.906 87.052,14.906 C87.3600015,14.906 87.6096657,14.9899992 87.801,15.158 C87.9923343,15.3260008 88.088,15.5499986 88.088,15.83 C88.088,16.1100014 87.9946676,16.3363325 87.808,16.509 C87.6213324,16.6816675 87.3693349,16.768 87.052,16.768 Z M90.608,25.084 C90.3559987,25.084 90.1483341,25.0116674 89.985,24.867 C89.8216658,24.7223326 89.74,24.514668 89.74,24.244 L89.74,15.886 C89.74,15.615332 89.8216658,15.4100007 89.985,15.27 C90.1483341,15.1299993 90.3559987,15.06 90.608,15.06 C90.8600013,15.06 91.0699992,15.1299993 91.238,15.27 C91.4060008,15.4100007 91.49,15.615332 91.49,15.886 L91.49,24.244 C91.49,24.514668 91.4060008,24.7223326 91.238,24.867 C91.0699992,25.0116674 90.8600013,25.084 90.608,25.084 Z M99.008,15.06 C99.2693346,15.06 99.4839992,15.1346659 99.652,15.284 C99.8200008,15.4333341 99.904,15.6293321 99.904,15.872 L99.904,24.244 C99.904,24.4960013 99.8246675,24.6966659 99.666,24.846 C99.5073325,24.9953341 99.2973346,25.07 99.036,25.07 C98.7746654,25.07 98.5646675,24.9953341 98.406,24.846 C98.2473325,24.6966659 98.168,24.4960013 98.168,24.244 L98.168,23.894 C97.9626656,24.2766686 97.6663353,24.5753323 97.279,24.79 C96.8916647,25.0046677 96.4506691,25.112 95.956,25.112 C95.3679971,25.112 94.8430023,24.9626682 94.381,24.664 C93.9189977,24.3653318 93.5596679,23.9430027 93.303,23.397 C93.046332,22.8509973 92.918,22.2233369 92.918,21.514 C92.918,20.8046631 93.046332,20.1840027 93.303,19.652 C93.5596679,19.1199973 93.9166644,18.7093348 94.374,18.42 C94.8313356,18.1306652 95.3586637,17.986 95.956,17.986 C96.4506691,17.986 96.8893314,18.0886656 97.272,18.294 C97.6546686,18.4993344 97.9486656,18.7886648 98.154,19.162 L98.154,15.844 C98.154,15.6106655 98.2309992,15.4216674 98.385,15.277 C98.5390008,15.1323326 98.7466654,15.06 99.008,15.06 Z M96.418,23.754 C96.9780028,23.754 97.4096651,23.5626686 97.713,23.18 C98.0163348,22.7973314 98.168,22.2513369 98.168,21.542 C98.168,20.8326631 98.0163348,20.2890019 97.713,19.911 C97.4096651,19.5329981 96.9826694,19.344 96.432,19.344 C95.8719972,19.344 95.4380015,19.5306648 95.13,19.904 C94.8219985,20.2773352 94.668,20.8139965 94.668,21.514 C94.668,22.2233369 94.8219985,22.773998 95.13,23.166 C95.4380015,23.558002 95.8673306,23.754 96.418,23.754 Z" id="TagBuild" fill="#38535E" fill-rule="nonzero"></path>
                    </g>
                </g>
            </g>
        </g>
    </g>
</svg>