<?xml version="1.0" encoding="UTF-8"?>
<svg width="80px" height="80px" viewBox="0 0 80 80" version="1.1" xmlns="http://www.w3.org/2000/svg" xmlns:xlink="http://www.w3.org/1999/xlink">
    <!-- Generator: Sketch 46.2 (44496) - http://www.bohemiancoding.com/sketch -->
    <title>icon-company-info</title>
    <desc>Created with Sketch.</desc>
    <defs></defs>
    <g id="About-Us" stroke="none" stroke-width="1" fill="none" fill-rule="evenodd">
        <g id="1440---about-us" transform="translate(-1000.000000, -2950.000000)" fill="#FFFFFF">
            <g id="resources" transform="translate(250.000000, 2840.000000)">
                <g id="cards" transform="translate(0.000000, 70.000000)">
                    <path d="M790,120 C767.90861,120 750,102.09139 750,80 C750,57.90861 767.90861,40 790,40 C812.09139,40 830,57.90861 830,80 C830,102.09139 812.09139,120 790,120 Z M790,66 C793.313708,66 796,63.3137085 796,60 C796,56.6862915 793.313708,54 790,54 C786.686292,54 784,56.6862915 784,60 C784,63.3137085 786.686292,66 790,66 Z M795,72.5141022 C795,72.3627407 794.982817,72.2118684 794.948782,72.0643832 C794.700409,70.9881004 793.626564,70.3169468 792.550281,70.5653198 L782,73 L784.414214,75.4142136 C784.789286,75.7892863 785,76.2979941 785,76.8284271 L785,76.8284271 L785,102.331662 C785,102.351844 785.000153,102.372025 785.000458,102.392204 C785.033895,104.601088 786.851654,106.364636 789.060538,106.3312 L789.060538,106.331204 C791.313446,106.297101 793.293267,105.853366 795,105 C797.666667,103.666667 799.333333,102.666667 800,102 L796,102 C795.447715,102 795,101.552285 795,101 L795,72.5141022 Z" id="icon-company-info"></path>
                </g>
            </g>
        </g>
    </g>
</svg>