<?xml version="1.0" encoding="UTF-8"?>
<svg width="80px" height="80px" viewBox="0 0 80 80" version="1.1" xmlns="http://www.w3.org/2000/svg" xmlns:xlink="http://www.w3.org/1999/xlink">
    <!-- Generator: Sketch 46.2 (44496) - http://www.bohemiancoding.com/sketch -->
    <title>icon-frequently-asked-questions</title>
    <desc>Created with Sketch.</desc>
    <defs></defs>
    <g id="Contact-Us" stroke="none" stroke-width="1" fill="none" fill-rule="evenodd">
        <g id="1440---about-us" transform="translate(-1090.000000, -330.000000)" fill="#FFFFFF">
            <g id="hero">
                <g id="cards" transform="translate(810.000000, 310.000000)">
                    <path d="M320,100 C297.90861,100 280,82.09139 280,60 C280,37.90861 297.90861,20 320,20 C342.09139,20 360,37.90861 360,60 C360,82.09139 342.09139,100 320,100 Z M320,86 C323.313708,86 326,83.3137085 326,80 C326,76.6862915 323.313708,74 320,74 C316.686292,74 314,76.6862915 314,80 C314,83.3137085 316.686292,86 320,86 Z M316,66 L316,66 C316,68.209139 317.790861,70 320,70 L320,70 C322.209139,70 324,68.209139 324,66 C324,65.9361165 324,65.8722331 324,65.8083496 C324,63.3958441 324,62.3935547 324.300781,61.7478027 C324.678103,60.9377257 325.952526,59.9155273 327.864014,59.036377 C329.775501,58.1572266 336.33252,54.3225508 336.33252,47.4008789 C336.33252,39.7184909 331.418969,34 320.504,34 C309.589031,34 306.753888,42.1753736 306.199219,43.4980469 L311.857666,46.2963867 C314.113146,42.4664714 316.995258,40.4856771 320.504,40.3540039 C325.767113,40.1564941 329.328613,43.1768789 329.328613,47.4008789 C329.328613,51.6248789 322.1875,54.1115723 320.504,55.104 C318.370656,56.3413395 317.153304,57.7707203 316.44,59.4128418 C316,60.4257812 316,61.7415196 316,63.9526367 C316,64.6350911 316,65.3175456 316,66 Z" id="icon-frequently-asked-questions"></path>
                </g>
            </g>
        </g>
    </g>
</svg>