<?xml version="1.0" encoding="UTF-8"?>
<svg width="80px" height="80px" viewBox="0 0 80 80" version="1.1" xmlns="http://www.w3.org/2000/svg" xmlns:xlink="http://www.w3.org/1999/xlink">
    <!-- Generator: Sketch 46.2 (44496) - http://www.bohemiancoding.com/sketch -->
    <title>icon-press-kit</title>
    <desc>Created with Sketch.</desc>
    <defs></defs>
    <g id="About-Us" stroke="none" stroke-width="1" fill="none" fill-rule="evenodd">
        <g id="1440---about-us" transform="translate(-680.000000, -2950.000000)" fill="#FFFFFF">
            <g id="resources" transform="translate(250.000000, 2840.000000)">
                <g id="cards" transform="translate(0.000000, 70.000000)">
                    <path d="M466,80.3431458 L458.828427,73.1715729 C457.26633,71.6094757 454.73367,71.6094757 453.171573,73.1715729 C451.609476,74.73367 451.609476,77.26633 453.171573,78.8284271 L467.171573,92.8284271 C468.73367,94.3905243 471.26633,94.3905243 472.828427,92.8284271 L486.828427,78.8284271 C488.390524,77.26633 488.390524,74.73367 486.828427,73.1715729 C485.26633,71.6094757 482.73367,71.6094757 481.171573,73.1715729 L474,80.3431458 L474,58 C474,55.790861 472.209139,54 470,54 C467.790861,54 466,55.790861 466,58 L466,80.3431458 Z M470,120 C447.90861,120 430,102.09139 430,80 C430,57.90861 447.90861,40 470,40 C492.09139,40 510,57.90861 510,80 C510,102.09139 492.09139,120 470,120 Z M444,98 C444.666667,99.3333333 445.666667,100.666667 447,102 C447.573892,102.573892 448.209537,103.147783 448.906935,103.721675 C450.696906,105.194648 452.943015,106.000002 455.261128,106.000002 L455.261128,106 L484.738873,106 C487.056986,106 489.303094,105.194647 491.093065,103.721674 L491.093066,103.721674 C491.790464,103.147783 492.426109,102.573891 493,102 C494.333333,100.666667 495.333333,99.3333333 496,98 L444,98 Z" id="icon-press-kit"></path>
                </g>
            </g>
        </g>
    </g>
</svg>