<?xml version="1.0" encoding="UTF-8"?>
<svg width="80px" height="80px" viewBox="0 0 80 80" version="1.1" xmlns="http://www.w3.org/2000/svg" xmlns:xlink="http://www.w3.org/1999/xlink">
    <!-- Generator: Sketch 46.2 (44496) - http://www.bohemiancoding.com/sketch -->
    <title>icon-slack-community</title>
    <desc>Created with Sketch.</desc>
    <defs></defs>
    <g id="Contact-Us" stroke="none" stroke-width="1" fill="none" fill-rule="evenodd">
        <g id="1440---about-us" transform="translate(-1090.000000, -480.000000)" fill="#FFFFFF">
            <g id="hero">
                <g id="cards" transform="translate(810.000000, 310.000000)">
                    <path d="M320,250 C297.90861,250 280,232.09139 280,210 C280,187.90861 297.90861,170 320,170 C342.09139,170 360,187.90861 360,210 C360,232.09139 342.09139,250 320,250 Z M342.793651,216.603175 C344.952381,215.904762 346.095238,213.555556 345.396825,211.396825 C344.698413,209.238095 342.349206,208.095238 340.190476,208.793651 L335.047619,210.507937 L331.619048,200.285714 L336.761905,198.571429 C338.920635,197.873016 340.063492,195.52381 339.365079,193.365079 C338.666667,191.206349 336.31746,190.063492 334.15873,190.761905 L329.015873,192.47619 L327.238095,187.142857 C326.539683,184.984127 324.190476,183.84127 322.031746,184.539683 C319.873016,185.238095 318.730159,187.587302 319.428571,189.746032 L321.206349,195.079365 L310.603175,198.634921 L308.825397,193.301587 C308.126984,191.142857 305.777778,190 303.619048,190.698413 C301.460317,191.396825 300.31746,193.746032 301.015873,195.904762 L302.793651,201.238095 L297.650794,202.952381 C295.492063,203.650794 294.349206,206 295.047619,208.15873 C295.619048,209.809524 297.206349,210.888889 298.857143,210.952381 C299.301587,211.015873 299.809524,210.888889 300.253968,210.761905 L305.396825,209.047619 L308.825397,219.269841 L303.68254,220.984127 C301.52381,221.68254 300.380952,224.031746 301.079365,226.190476 C301.650794,227.84127 303.238095,228.920635 304.888889,228.984127 C305.333333,229.047619 305.84127,228.920635 306.285714,228.793651 L311.428571,227.079365 L313.206349,232.412698 C313.777778,234.063492 315.365079,235.142857 317.015873,235.206349 C317.460317,235.269841 317.968254,235.142857 318.412698,235.015873 C320.571429,234.31746 321.714286,231.968254 321.015873,229.809524 L319.238095,224.47619 L329.84127,220.920635 L331.619048,226.253968 C332.190476,227.904762 333.777778,228.984127 335.428571,229.047619 C335.873016,229.111111 336.380952,228.984127 336.825397,228.857143 C338.984127,228.15873 340.126984,225.809524 339.428571,223.650794 L337.650794,218.31746 L342.793651,216.603175 Z M313.179993,206.474003 L323.610334,202.980011 L327.104326,213.410352 L316.673985,216.904345 L313.179993,206.474003 Z" id="icon-slack-community"></path>
                </g>
            </g>
        </g>
    </g>
</svg>