<?xml version="1.0" encoding="UTF-8"?>
<svg width="20px" height="20px" viewBox="0 0 20 20" version="1.1" xmlns="http://www.w3.org/2000/svg" xmlns:xlink="http://www.w3.org/1999/xlink">
    <!-- Generator: Sketch 46.2 (44496) - http://www.bohemiancoding.com/sketch -->
    <title>github</title>
    <desc>Created with Sketch.</desc>
    <defs></defs>
    <g id="Log-In-or-Sign-Up" stroke="none" stroke-width="1" fill="none" fill-rule="evenodd">
        <g id="Artboard" transform="translate(-874.000000, -405.000000)" fill="#FFFFFF">
            <path d="M883.998986,405 C878.477194,405 873.9996,409.590421 873.9996,415.254016 C873.9996,419.783382 876.864548,423.626042 880.838765,424.98246 C881.339072,425.076245 881.521393,424.759642 881.521393,424.487729 C881.521393,424.24477 881.512798,423.599606 881.507887,422.744213 C878.726426,423.36357 878.139563,421.369541 878.139563,421.369541 C877.684683,420.184957 877.029066,419.870243 877.029066,419.870243 C876.121147,419.233891 877.09782,419.24648 877.09782,419.24648 C878.101503,419.319494 878.629434,420.30329 878.629434,420.30329 C879.521393,421.869937 880.96952,421.417378 881.539809,421.155536 C881.630662,420.492748 881.888489,420.040818 882.174554,419.784641 C879.954173,419.525946 877.619612,418.646005 877.619612,414.717114 C877.619612,413.59799 878.009422,412.682802 878.649078,411.965883 C878.545947,411.706558 878.202792,410.664225 878.746684,409.252418 C878.746684,409.252418 879.586463,408.976728 881.496838,410.303563 C882.294259,410.07571 883.149999,409.962413 884.000214,409.958007 C884.849201,409.962413 885.704941,410.07571 886.50359,410.303563 C888.412737,408.976728 889.250674,409.252418 889.250674,409.252418 C889.796408,410.664225 889.453253,411.706558 889.350122,411.965883 C889.991006,412.682802 890.37836,413.59799 890.37836,414.717114 C890.37836,418.656076 888.040116,419.522799 885.812369,419.776458 C886.171485,420.093061 886.491313,420.718713 886.491313,421.675444 C886.491313,423.045709 886.479035,424.151615 886.479035,424.487729 C886.479035,424.76216 886.6589,425.08128 887.166574,424.981201 C891.136494,423.622265 893.9996,419.782123 893.9996,415.254016 C893.9996,409.590421 889.522006,405 883.998986,405" id="github"></path>
        </g>
    </g>
</svg>